  0
SECTION
  2
HEADER
  9
$ACADVER
  1
AC1024
  9
$ACADMAINTVER
 70
6
  9
$DWGCODEPAGE
  3
ANSI_1252
  9
$LASTSAVEDBY
  1
ezdxf
  9
$INSBASE
 10
0.0
 20
0.0
 30
0.0
  9
$EXTMIN
 10
1e+20
 20
1e+20
 30
1e+20
  9
$EXTMAX
 10
-1e+20
 20
-1e+20
 30
-1e+20
  9
$LIMMIN
 10
0.0
 20
0.0
  9
$LIMMAX
 10
420.0
 20
297.0
  9
$ORTHOMODE
 70
0
  9
$REGENMODE
 70
1
  9
$FILLMODE
 70
1
  9
$QTEXTMODE
 70
0
  9
$MIRRTEXT
 70
1
  9
$LTSCALE
 40
1.0
  9
$ATTMODE
 70
1
  9
$TEXTSIZE
 40
2.5
  9
$TRACEWID
 40
1.0
  9
$TEXTSTYLE
  7
Standard
  9
$CLAYER
  8
0
  9
$CELTYPE
  6
ByLayer
  9
$CECOLOR
 62
256
  9
$CELTSCALE
 40
1.0
  9
$DISPSILH
 70
0
  9
$DIMSCALE
 40
1.0
  9
$DIMASZ
 40
2.5
  9
$DIMEXO
 40
0.625
  9
$DIMDLI
 40
3.75
  9
$DIMRND
 40
0.0
  9
$DIMDLE
 40
0.0
  9
$DIMEXE
 40
1.25
  9
$DIMTP
 40
0.0
  9
$DIMTM
 40
0.0
  9
$DIMTXT
 40
2.5
  9
$DIMCEN
 40
2.5
  9
$DIMTSZ
 40
0.0
  9
$DIMTOL
 70
0
  9
$DIMLIM
 70
0
  9
$DIMTIH
 70
0
  9
$DIMTOH
 70
0
  9
$DIMSE1
 70
0
  9
$DIMSE2
 70
0
  9
$DIMTAD
 70
1
  9
$DIMZIN
 70
8
  9
$DIMBLK
  1

  9
$DIMASO
 70
1
  9
$DIMSHO
 70
1
  9
$DIMPOST
  1

  9
$DIMAPOST
  1

  9
$DIMALT
 70
0
  9
$DIMALTD
 70
3
  9
$DIMALTF
 40
0.03937007874
  9
$DIMLFAC
 40
1.0
  9
$DIMTOFL
 70
1
  9
$DIMTVP
 40
0.0
  9
$DIMTIX
 70
0
  9
$DIMSOXD
 70
0
  9
$DIMSAH
 70
0
  9
$DIMBLK1
  1

  9
$DIMBLK2
  1

  9
$DIMSTYLE
  2
ISO-25
  9
$DIMCLRD
 70
0
  9
$DIMCLRE
 70
0
  9
$DIMCLRT
 70
0
  9
$DIMTFAC
 40
1.0
  9
$DIMGAP
 40
0.625
  9
$DIMJUST
 70
0
  9
$DIMSD1
 70
0
  9
$DIMSD2
 70
0
  9
$DIMTOLJ
 70
0
  9
$DIMTZIN
 70
8
  9
$DIMALTZ
 70
0
  9
$DIMALTTZ
 70
0
  9
$DIMUPT
 70
0
  9
$DIMDEC
 70
2
  9
$DIMTDEC
 70
2
  9
$DIMALTU
 70
2
  9
$DIMALTTD
 70
3
  9
$DIMTXSTY
  7
Standard
  9
$DIMAUNIT
 70
0
  9
$DIMADEC
 70
0
  9
$DIMALTRND
 40
0.0
  9
$DIMAZIN
 70
0
  9
$DIMDSEP
 70
44
  9
$DIMATFIT
 70
3
  9
$DIMFRAC
 70
0
  9
$DIMLDRBLK
  1

  9
$DIMLUNIT
 70
2
  9
$DIMLWD
 70
-2
  9
$DIMLWE
 70
-2
  9
$DIMTMOVE
 70
0
  9
$DIMFXL
 40
1.0
  9
$DIMFXLON
 70
0
  9
$DIMJOGANG
 40
0.785398163397
  9
$DIMTFILL
 70
0
  9
$DIMTFILLCLR
 70
0
  9
$DIMARCSYM
 70
0
  9
$DIMLTYPE
  6

  9
$DIMLTEX1
  6

  9
$DIMLTEX2
  6

  9
$DIMTXTDIRECTION
 70
0
  9
$LUNITS
 70
2
  9
$LUPREC
 70
4
  9
$SKETCHINC
 40
1.0
  9
$FILLETRAD
 40
10.0
  9
$AUNITS
 70
0
  9
$AUPREC
 70
2
  9
$MENU
  1
.
  9
$ELEVATION
 40
0.0
  9
$PELEVATION
 40
0.0
  9
$THICKNESS
 40
0.0
  9
$LIMCHECK
 70
0
  9
$CHAMFERA
 40
0.0
  9
$CHAMFERB
 40
0.0
  9
$CHAMFERC
 40
0.0
  9
$CHAMFERD
 40
0.0
  9
$SKPOLY
 70
0
  9
$TDCREATE
 40
2461144.6940162037
  9
$TDUCREATE
 40
2458532.153996898
  9
$TDUPDATE
 40
2461144.6940162037
  9
$TDUUPDATE
 40
2458532.1544311
  9
$TDINDWG
 40
0.0
  9
$TDUSRTIMER
 40
0.0
  9
$USRTIMER
 70
1
  9
$ANGBASE
 50
0.0
  9
$ANGDIR
 70
0
  9
$PDMODE
 70
0
  9
$PDSIZE
 40
0.0
  9
$PLINEWID
 40
0.0
  9
$SPLFRAME
 70
0
  9
$SPLINETYPE
 70
6
  9
$SPLINESEGS
 70
8
  9
$HANDSEED
  5
3A
  9
$SURFTAB1
 70
6
  9
$SURFTAB2
 70
6
  9
$SURFTYPE
 70
6
  9
$SURFU
 70
6
  9
$SURFV
 70
6
  9
$UCSBASE
  2

  9
$UCSNAME
  2

  9
$UCSORG
 10
0.0
 20
0.0
 30
0.0
  9
$UCSXDIR
 10
1.0
 20
0.0
 30
0.0
  9
$UCSYDIR
 10
0.0
 20
1.0
 30
0.0
  9
$UCSORTHOREF
  2

  9
$UCSORTHOVIEW
 70
0
  9
$UCSORGTOP
 10
0.0
 20
0.0
 30
0.0
  9
$UCSORGBOTTOM
 10
0.0
 20
0.0
 30
0.0
  9
$UCSORGLEFT
 10
0.0
 20
0.0
 30
0.0
  9
$UCSORGRIGHT
 10
0.0
 20
0.0
 30
0.0
  9
$UCSORGFRONT
 10
0.0
 20
0.0
 30
0.0
  9
$UCSORGBACK
 10
0.0
 20
0.0
 30
0.0
  9
$PUCSBASE
  2

  9
$PUCSNAME
  2

  9
$PUCSORG
 10
0.0
 20
0.0
 30
0.0
  9
$PUCSXDIR
 10
1.0
 20
0.0
 30
0.0
  9
$PUCSYDIR
 10
0.0
 20
1.0
 30
0.0
  9
$PUCSORTHOREF
  2

  9
$PUCSORTHOVIEW
 70
0
  9
$PUCSORGTOP
 10
0.0
 20
0.0
 30
0.0
  9
$PUCSORGBOTTOM
 10
0.0
 20
0.0
 30
0.0
  9
$PUCSORGLEFT
 10
0.0
 20
0.0
 30
0.0
  9
$PUCSORGRIGHT
 10
0.0
 20
0.0
 30
0.0
  9
$PUCSORGFRONT
 10
0.0
 20
0.0
 30
0.0
  9
$PUCSORGBACK
 10
0.0
 20
0.0
 30
0.0
  9
$USERI1
 70
0
  9
$USERI2
 70
0
  9
$USERI3
 70
0
  9
$USERI4
 70
0
  9
$USERI5
 70
0
  9
$USERR1
 40
0.0
  9
$USERR2
 40
0.0
  9
$USERR3
 40
0.0
  9
$USERR4
 40
0.0
  9
$USERR5
 40
0.0
  9
$WORLDVIEW
 70
1
  9
$SHADEDGE
 70
3
  9
$SHADEDIF
 70
70
  9
$TILEMODE
 70
1
  9
$MAXACTVP
 70
64
  9
$PINSBASE
 10
0.0
 20
0.0
 30
0.0
  9
$PLIMCHECK
 70
0
  9
$PEXTMIN
 10
1e+20
 20
1e+20
 30
1e+20
  9
$PEXTMAX
 10
-1e+20
 20
-1e+20
 30
-1e+20
  9
$PLIMMIN
 10
0.0
 20
0.0
  9
$PLIMMAX
 10
420.0
 20
297.0
  9
$UNITMODE
 70
0
  9
$VISRETAIN
 70
1
  9
$PLINEGEN
 70
0
  9
$PSLTSCALE
 70
1
  9
$TREEDEPTH
 70
3020
  9
$CMLSTYLE
  2
Standard
  9
$CMLJUST
 70
0
  9
$CMLSCALE
 40
20.0
  9
$PROXYGRAPHICS
 70
1
  9
$MEASUREMENT
 70
1
  9
$CELWEIGHT
370
-1
  9
$ENDCAPS
280
0
  9
$JOINSTYLE
280
0
  9
$LWDISPLAY
290
0
  9
$INSUNITS
 70
4
  9
$HYPERLINKBASE
  1

  9
$STYLESHEET
  1

  9
$XEDIT
290
1
  9
$CEPSNTYPE
380
0
  9
$PSTYLEMODE
290
1
  9
$FINGERPRINTGUID
  2
{5C00CFC3-00E5-43F5-9E57-2D78D11E5681}
  9
$VERSIONGUID
  2
{5362273C-27C7-4D41-AF67-B9597C7AC958}
  9
$EXTNAMES
290
1
  9
$PSVPSCALE
 40
0.0
  9
$OLESTARTUP
290
0
  9
$SORTENTS
280
127
  9
$INDEXCTL
280
0
  9
$HIDETEXT
280
1
  9
$XCLIPFRAME
280
1
  9
$HALOGAP
280
0
  9
$OBSCOLOR
 70
257
  9
$OBSLTYPE
280
0
  9
$INTERSECTIONDISPLAY
280
0
  9
$INTERSECTIONCOLOR
 70
257
  9
$DIMASSOC
280
2
  9
$PROJECTNAME
  1

  9
$CAMERADISPLAY
290
0
  9
$LENSLENGTH
 40
50.0
  9
$CAMERAHEIGHT
 40
0.0
  9
$STEPSPERSEC
 40
24.0
  9
$STEPSIZE
 40
100.0
  9
$3DDWFPREC
 40
2.0
  9
$PSOLWIDTH
 40
0.005
  9
$PSOLHEIGHT
 40
0.08
  9
$LOFTANG1
 40
1.570796326795
  9
$LOFTANG2
 40
1.570796326795
  9
$LOFTMAG1
 40
0.0
  9
$LOFTMAG2
 40
0.0
  9
$LOFTPARAM
 70
7
  9
$LOFTNORMALS
280
1
  9
$LATITUDE
 40
37.795
  9
$LONGITUDE
 40
-122.394
  9
$NORTHDIRECTION
 40
0.0
  9
$TIMEZONE
 70
-8000
  9
$LIGHTGLYPHDISPLAY
280
1
  9
$TILEMODELIGHTSYNCH
280
1
  9
$CMATERIAL
347
20
  9
$SOLIDHIST
280
0
  9
$SHOWHIST
280
1
  9
$DWFFRAME
280
2
  9
$DGNFRAME
280
2
  9
$REALWORLDSCALE
290
1
  9
$INTERFERECOLOR
 62
256
  9
$CSHADOW
280
0
  9
$SHADOWPLANELOCATION
 40
0.0
  0
ENDSEC
  0
SECTION
  2
CLASSES
  0
CLASS
  1
ACDBDICTIONARYWDFLT
  2
AcDbDictionaryWithDefault
  3
ObjectDBX Classes
 90
0
 91
0
280
0
281
0
  0
CLASS
  1
SUN
  2
AcDbSun
  3
SCENEOE
 90
1153
 91
0
280
0
281
0
  0
CLASS
  1
VISUALSTYLE
  2
AcDbVisualStyle
  3
ObjectDBX Classes
 90
4095
 91
0
280
0
281
0
  0
CLASS
  1
MATERIAL
  2
AcDbMaterial
  3
ObjectDBX Classes
 90
1153
 91
0
280
0
281
0
  0
CLASS
  1
SCALE
  2
AcDbScale
  3
ObjectDBX Classes
 90
1153
 91
0
280
0
281
0
  0
CLASS
  1
TABLESTYLE
  2
AcDbTableStyle
  3
ObjectDBX Classes
 90
4095
 91
0
280
0
281
0
  0
CLASS
  1
MLEADERSTYLE
  2
AcDbMLeaderStyle
  3
ACDB_MLEADERSTYLE_CLASS
 90
4095
 91
0
280
0
281
0
  0
CLASS
  1
DICTIONARYVAR
  2
AcDbDictionaryVar
  3
ObjectDBX Classes
 90
0
 91
0
280
0
281
0
  0
CLASS
  1
CELLSTYLEMAP
  2
AcDbCellStyleMap
  3
ObjectDBX Classes
 90
1152
 91
0
280
0
281
0
  0
CLASS
  1
MENTALRAYRENDERSETTINGS
  2
AcDbMentalRayRenderSettings
  3
SCENEOE
 90
1024
 91
0
280
0
281
0
  0
CLASS
  1
ACDBDETAILVIEWSTYLE
  2
AcDbDetailViewStyle
  3
ObjectDBX Classes
 90
1025
 91
0
280
0
281
0
  0
CLASS
  1
ACDBSECTIONVIEWSTYLE
  2
AcDbSectionViewStyle
  3
ObjectDBX Classes
 90
1025
 91
0
280
0
281
0
  0
CLASS
  1
RASTERVARIABLES
  2
AcDbRasterVariables
  3
ISM
 90
0
 91
0
280
0
281
0
  0
CLASS
  1
LAYOUT
  2
AcDbLayout
  3
ObjectDBX Classes
 90
0
 91
0
280
0
281
0
  0
CLASS
  1
ACDBPLACEHOLDER
  2
AcDbPlaceHolder
  3
ObjectDBX Classes
 90
0
 91
0
280
0
281
0
  0
ENDSEC
  0
SECTION
  2
TABLES
  0
TABLE
  2
VPORT
  5
8
330
0
100
AcDbSymbolTable
 70
1
  0
VPORT
  5
23
330
8
100
AcDbSymbolTableRecord
100
AcDbViewportTableRecord
  2
*Active
 70
0
 10
0.0
 20
0.0
 11
1.0
 21
1.0
 12
0.0
 22
0.0
 13
0.0
 23
0.0
 14
0.5
 24
0.5
 15
0.5
 25
0.5
 16
0.0
 26
0.0
 36
1.0
 17
0.0
 27
0.0
 37
0.0
 40
1000.0
 41
1.34
 42
50.0
 43
0.0
 44
0.0
 50
0.0
 51
0.0
 71
0
 72
1000
 73
1
 74
3
 75
0
 76
0
 77
0
 78
0
281
0
 65
0
146
0.0
  0
ENDTAB
  0
TABLE
  2
LTYPE
  5
2
330
0
100
AcDbSymbolTable
 70
3
  0
LTYPE
  5
24
330
2
100
AcDbSymbolTableRecord
100
AcDbLinetypeTableRecord
  2
ByBlock
 70
0
  3

 72
65
 73
0
 40
0.0
  0
LTYPE
  5
25
330
2
100
AcDbSymbolTableRecord
100
AcDbLinetypeTableRecord
  2
ByLayer
 70
0
  3

 72
65
 73
0
 40
0.0
  0
LTYPE
  5
26
330
2
100
AcDbSymbolTableRecord
100
AcDbLinetypeTableRecord
  2
Continuous
 70
0
  3

 72
65
 73
0
 40
0.0
  0
ENDTAB
  0
TABLE
  2
LAYER
  5
1
330
0
100
AcDbSymbolTable
 70
2
  0
LAYER
  5
27
330
1
100
AcDbSymbolTableRecord
100
AcDbLayerTableRecord
  2
0
 70
0
 62
7
  6
Continuous
370
-3
390
13
347
21
  0
LAYER
  5
28
330
1
100
AcDbSymbolTableRecord
100
AcDbLayerTableRecord
  2
Defpoints
 70
0
 62
7
  6
Continuous
290
0
370
-3
390
13
347
21
  0
ENDTAB
  0
TABLE
  2
STYLE
  5
5
330
0
100
AcDbSymbolTable
 70
1
  0
STYLE
  5
29
330
5
100
AcDbSymbolTableRecord
100
AcDbTextStyleTableRecord
  2
Standard
 70
0
 40
0.0
 41
1.0
 50
0.0
 71
0
 42
2.5
  3
txt
  4

  0
ENDTAB
  0
TABLE
  2
VIEW
  5
7
330
0
100
AcDbSymbolTable
 70
0
  0
ENDTAB
  0
TABLE
  2
UCS
  5
6
330
0
100
AcDbSymbolTable
 70
0
  0
ENDTAB
  0
TABLE
  2
APPID
  5
3
330
0
100
AcDbSymbolTable
 70
3
  0
APPID
  5
2A
330
3
100
AcDbSymbolTableRecord
100
AcDbRegAppTableRecord
  2
ACAD
 70
0
  0
APPID
  5
37
330
3
100
AcDbSymbolTableRecord
100
AcDbRegAppTableRecord
  2
HATCHBACKGROUNDCOLOR
 70
0
  0
APPID
  5
38
330
3
100
AcDbSymbolTableRecord
100
AcDbRegAppTableRecord
  2
EZDXF
 70
0
  0
ENDTAB
  0
TABLE
  2
DIMSTYLE
  5
4
330
0
100
AcDbSymbolTable
 70
1
100
AcDbDimStyleTable
  0
DIMSTYLE
105
2B
330
4
100
AcDbSymbolTableRecord
100
AcDbDimStyleTableRecord
  2
Standard
 70
0
 40
1.0
 41
2.5
 42
0.625
 43
3.75
 44
1.25
 45
0.0
 46
0.0
 47
0.0
 48
0.0
 49
2.5
140
2.5
141
2.5
142
0.0
143
0.03937007874
144
1.0
145
0.0
146
1.0
147
0.625
148
0.0
 69
0
 70
0
 71
0
 72
0
 73
0
 74
0
 75
0
 76
0
 77
1
 78
8
 79
3
170
0
171
3
172
1
173
0
174
0
175
0
176
0
177
0
178
0
179
2
271
2
272
2
273
2
274
3
275
0
276
0
277
2
278
44
279
0
280
0
281
0
282
0
283
0
284
8
285
0
286
0
288
0
289
3
290
0
371
-2
372
-2
  0
ENDTAB
  0
TABLE
  2
BLOCK_RECORD
  5
9
330
0
100
AcDbSymbolTable
 70
2
  0
BLOCK_RECORD
  5
17
330
9
100
AcDbSymbolTableRecord
100
AcDbBlockTableRecord
  2
*Model_Space
340
1A
 70
0
280
1
281
0
  0
BLOCK_RECORD
  5
1B
330
9
100
AcDbSymbolTableRecord
100
AcDbBlockTableRecord
  2
*Paper_Space
340
1E
 70
0
280
1
281
0
  0
ENDTAB
  0
ENDSEC
  0
SECTION
  2
BLOCKS
  0
BLOCK
  5
18
330
17
100
AcDbEntity
  8
0
100
AcDbBlockBegin
  2
*Model_Space
 70
0
 10
0.0
 20
0.0
 30
0.0
  3
*Model_Space
  1

  0
ENDBLK
  5
19
330
17
100
AcDbEntity
  8
0
100
AcDbBlockEnd
  0
BLOCK
  5
1C
330
1B
100
AcDbEntity
  8
0
100
AcDbBlockBegin
  2
*Paper_Space
 70
0
 10
0.0
 20
0.0
 30
0.0
  3
*Paper_Space
  1

  0
ENDBLK
  5
1D
330
1B
100
AcDbEntity
  8
0
100
AcDbBlockEnd
  0
ENDSEC
  0
SECTION
  2
ENTITIES
  0
LWPOLYLINE
  5
2F
330
17
100
AcDbEntity
  8
0
100
AcDbPolyline
 90
73
 70
1
 10
1.99951
 20
0.0
 10
1.99951
 20
0.0
 10
2.17627
 20
0.01174
 10
2.351647
 20
0.046866
 10
2.524268
 20
0.105105
 10
2.692782
 20
0.186001
 10
2.85587
 20
0.28892
 10
3.012256
 20
0.413056
 10
3.160716
 20
0.557439
 10
3.300088
 20
0.720939
 10
3.429281
 20
0.902275
 10
3.547284
 20
1.100029
 10
3.653174
 20
1.312652
 10
3.746121
 20
1.538481
 10
3.825399
 20
1.775749
 10
3.890387
 20
2.022598
 10
3.940576
 20
2.277097
 10
3.975574
 20
2.537253
 10
3.995106
 20
2.801031
 10
3.999021
 20
3.066366
 10
3.987286
 20
3.331182
 10
3.959994
 20
3.593406
 10
3.917359
 20
3.850985
 10
3.859714
 20
4.101905
 10
3.78751
 20
4.3442
 10
3.701313
 20
4.575976
 10
3.601797
 20
4.795417
 10
3.489741
 20
5.000807
 10
3.366022
 20
5.190537
 10
3.231608
 20
5.363124
 10
3.087551
 20
5.517216
 10
2.934979
 20
5.651607
 10
2.775085
 20
5.765246
 10
2.609122
 20
5.857244
 10
2.438387
 20
5.926879
 10
2.264218
 20
5.973608
 10
2.087977
 20
5.997064
 10
1.911043
 20
5.997064
 10
1.734802
 20
5.973608
 10
1.560633
 20
5.926879
 10
1.389898
 20
5.857244
 10
1.223935
 20
5.765246
 10
1.064041
 20
5.651607
 10
0.911469
 20
5.517216
 10
0.767412
 20
5.363124
 10
0.632998
 20
5.190537
 10
0.509279
 20
5.000807
 10
0.397223
 20
4.795417
 10
0.297707
 20
4.575976
 10
0.21151
 20
4.3442
 10
0.139306
 20
4.101905
 10
0.081661
 20
3.850985
 10
0.039026
 20
3.593406
 10
0.011734
 20
3.331182
 10
-1e-06
 20
3.066366
 10
0.003914
 20
2.801031
 10
0.023446
 20
2.537253
 10
0.058444
 20
2.277097
 10
0.108633
 20
2.022598
 10
0.173621
 20
1.775749
 10
0.252899
 20
1.538481
 10
0.345846
 20
1.312652
 10
0.451736
 20
1.100029
 10
0.569739
 20
0.902275
 10
0.698932
 20
0.720939
 10
0.838304
 20
0.557439
 10
0.986764
 20
0.413056
 10
1.14315
 20
0.28892
 10
1.306238
 20
0.186001
 10
1.474752
 20
0.105105
 10
1.647373
 20
0.046866
 10
1.82275
 20
0.01174
 10
1.99951
 20
0.0
  0
LWPOLYLINE
  5
30
330
17
100
AcDbEntity
  8
0
100
AcDbPolyline
 90
73
 70
1
 10
10.74951
 20
0.0
 10
10.74951
 20
0.0
 10
10.92627
 20
0.01174
 10
11.101647
 20
0.046866
 10
11.274268
 20
0.105105
 10
11.442782
 20
0.186001
 10
11.60587
 20
0.28892
 10
11.762256
 20
0.413056
 10
11.910716
 20
0.557439
 10
12.050088
 20
0.720939
 10
12.179281
 20
0.902275
 10
12.297284
 20
1.100029
 10
12.403174
 20
1.312652
 10
12.496121
 20
1.538481
 10
12.575399
 20
1.775749
 10
12.640387
 20
2.022598
 10
12.690576
 20
2.277097
 10
12.725574
 20
2.537253
 10
12.745106
 20
2.801031
 10
12.749021
 20
3.066366
 10
12.737286
 20
3.331182
 10
12.709994
 20
3.593406
 10
12.667359
 20
3.850985
 10
12.609714
 20
4.101905
 10
12.53751
 20
4.3442
 10
12.451313
 20
4.575976
 10
12.351797
 20
4.795417
 10
12.239741
 20
5.000807
 10
12.116022
 20
5.190537
 10
11.981608
 20
5.363124
 10
11.837551
 20
5.517216
 10
11.684979
 20
5.651607
 10
11.525085
 20
5.765246
 10
11.359122
 20
5.857244
 10
11.188387
 20
5.926879
 10
11.014218
 20
5.973608
 10
10.837977
 20
5.997064
 10
10.661043
 20
5.997064
 10
10.484802
 20
5.973608
 10
10.310633
 20
5.926879
 10
10.139898
 20
5.857244
 10
9.973935
 20
5.765246
 10
9.814041
 20
5.651607
 10
9.661469
 20
5.517216
 10
9.517412
 20
5.363124
 10
9.382998
 20
5.190537
 10
9.259279
 20
5.000807
 10
9.147223
 20
4.795417
 10
9.047707
 20
4.575976
 10
8.96151
 20
4.3442
 10
8.889306
 20
4.101905
 10
8.831661
 20
3.850985
 10
8.789026
 20
3.593406
 10
8.761734
 20
3.331182
 10
8.749999
 20
3.066366
 10
8.753914
 20
2.801031
 10
8.773446
 20
2.537253
 10
8.808444
 20
2.277097
 10
8.858633
 20
2.022598
 10
8.923621
 20
1.775749
 10
9.002899
 20
1.538481
 10
9.095846
 20
1.312652
 10
9.201736
 20
1.100029
 10
9.319739
 20
0.902275
 10
9.448932
 20
0.720939
 10
9.588304
 20
0.557439
 10
9.736764
 20
0.413056
 10
9.89315
 20
0.28892
 10
10.056238
 20
0.186001
 10
10.224752
 20
0.105105
 10
10.397373
 20
0.046866
 10
10.57275
 20
0.01174
 10
10.74951
 20
0.0
  0
LWPOLYLINE
  5
31
330
17
100
AcDbEntity
  8
0
100
AcDbPolyline
 90
73
 70
1
 10
19.49951
 20
0.0
 10
19.49951
 20
0.0
 10
19.67627
 20
0.01174
 10
19.851647
 20
0.046866
 10
20.024268
 20
0.105105
 10
20.192782
 20
0.186001
 10
20.35587
 20
0.28892
 10
20.512256
 20
0.413056
 10
20.660716
 20
0.557439
 10
20.800088
 20
0.720939
 10
20.929281
 20
0.902275
 10
21.047284
 20
1.100029
 10
21.153174
 20
1.312652
 10
21.246121
 20
1.538481
 10
21.325399
 20
1.775749
 10
21.390387
 20
2.022598
 10
21.440576
 20
2.277097
 10
21.475574
 20
2.537253
 10
21.495106
 20
2.801031
 10
21.499021
 20
3.066366
 10
21.487286
 20
3.331182
 10
21.459994
 20
3.593406
 10
21.417359
 20
3.850985
 10
21.359714
 20
4.101905
 10
21.28751
 20
4.3442
 10
21.201313
 20
4.575976
 10
21.101797
 20
4.795417
 10
20.989741
 20
5.000807
 10
20.866022
 20
5.190537
 10
20.731608
 20
5.363124
 10
20.587551
 20
5.517216
 10
20.434979
 20
5.651607
 10
20.275085
 20
5.765246
 10
20.109122
 20
5.857244
 10
19.938387
 20
5.926879
 10
19.764218
 20
5.973608
 10
19.587977
 20
5.997064
 10
19.411043
 20
5.997064
 10
19.234802
 20
5.973608
 10
19.060633
 20
5.926879
 10
18.889898
 20
5.857244
 10
18.723935
 20
5.765246
 10
18.564041
 20
5.651607
 10
18.411469
 20
5.517216
 10
18.267412
 20
5.363124
 10
18.132998
 20
5.190537
 10
18.009279
 20
5.000807
 10
17.897223
 20
4.795417
 10
17.797707
 20
4.575976
 10
17.71151
 20
4.3442
 10
17.639306
 20
4.101905
 10
17.581661
 20
3.850985
 10
17.539026
 20
3.593406
 10
17.511734
 20
3.331182
 10
17.499999
 20
3.066366
 10
17.503914
 20
2.801031
 10
17.523446
 20
2.537253
 10
17.558444
 20
2.277097
 10
17.608633
 20
2.022598
 10
17.673621
 20
1.775749
 10
17.752899
 20
1.538481
 10
17.845846
 20
1.312652
 10
17.951736
 20
1.100029
 10
18.069739
 20
0.902275
 10
18.198932
 20
0.720939
 10
18.338304
 20
0.557439
 10
18.486764
 20
0.413056
 10
18.64315
 20
0.28892
 10
18.806238
 20
0.186001
 10
18.974752
 20
0.105105
 10
19.147373
 20
0.046866
 10
19.32275
 20
0.01174
 10
19.49951
 20
0.0
  0
LWPOLYLINE
  5
32
330
17
100
AcDbEntity
  8
0
100
AcDbPolyline
 90
73
 70
1
 10
28.24951
 20
0.0
 10
28.24951
 20
0.0
 10
28.42627
 20
0.01174
 10
28.601647
 20
0.046866
 10
28.774268
 20
0.105105
 10
28.942782
 20
0.186001
 10
29.10587
 20
0.28892
 10
29.262256
 20
0.413056
 10
29.410716
 20
0.557439
 10
29.550088
 20
0.720939
 10
29.679281
 20
0.902275
 10
29.797284
 20
1.100029
 10
29.903174
 20
1.312652
 10
29.996121
 20
1.538481
 10
30.075399
 20
1.775749
 10
30.140387
 20
2.022598
 10
30.190576
 20
2.277097
 10
30.225574
 20
2.537253
 10
30.245106
 20
2.801031
 10
30.249021
 20
3.066366
 10
30.237286
 20
3.331182
 10
30.209994
 20
3.593406
 10
30.167359
 20
3.850985
 10
30.109714
 20
4.101905
 10
30.03751
 20
4.3442
 10
29.951313
 20
4.575976
 10
29.851797
 20
4.795417
 10
29.739741
 20
5.000807
 10
29.616022
 20
5.190537
 10
29.481608
 20
5.363124
 10
29.337551
 20
5.517216
 10
29.184979
 20
5.651607
 10
29.025085
 20
5.765246
 10
28.859122
 20
5.857244
 10
28.688387
 20
5.926879
 10
28.514218
 20
5.973608
 10
28.337977
 20
5.997064
 10
28.161043
 20
5.997064
 10
27.984802
 20
5.973608
 10
27.810633
 20
5.926879
 10
27.639898
 20
5.857244
 10
27.473935
 20
5.765246
 10
27.314041
 20
5.651607
 10
27.161469
 20
5.517216
 10
27.017412
 20
5.363124
 10
26.882998
 20
5.190537
 10
26.759279
 20
5.000807
 10
26.647223
 20
4.795417
 10
26.547707
 20
4.575976
 10
26.46151
 20
4.3442
 10
26.389306
 20
4.101905
 10
26.331661
 20
3.850985
 10
26.289026
 20
3.593406
 10
26.261734
 20
3.331182
 10
26.249999
 20
3.066366
 10
26.253914
 20
2.801031
 10
26.273446
 20
2.537253
 10
26.308444
 20
2.277097
 10
26.358633
 20
2.022598
 10
26.423621
 20
1.775749
 10
26.502899
 20
1.538481
 10
26.595846
 20
1.312652
 10
26.701736
 20
1.100029
 10
26.819739
 20
0.902275
 10
26.948932
 20
0.720939
 10
27.088304
 20
0.557439
 10
27.236764
 20
0.413056
 10
27.39315
 20
0.28892
 10
27.556238
 20
0.186001
 10
27.724752
 20
0.105105
 10
27.897373
 20
0.046866
 10
28.07275
 20
0.01174
 10
28.24951
 20
0.0
  0
LWPOLYLINE
  5
33
330
17
100
AcDbEntity
  8
0
100
AcDbPolyline
 90
60
 70
1
 10
28.24951
 20
1.0
 10
28.24951
 20
1.0
 10
28.357629
 20
1.011724
 10
28.46448
 20
1.046759
 10
28.568812
 20
1.104694
 10
28.669399
 20
1.184849
 10
28.765064
 20
1.286286
 10
28.854684
 20
1.407814
 10
28.937209
 20
1.548009
 10
29.011672
 20
1.705227
 10
29.077199
 20
1.877626
 10
29.133022
 20
2.063183
 10
29.178487
 20
2.259724
 10
29.21306
 20
2.464943
 10
29.236337
 20
2.676436
 10
29.248043
 20
2.891722
 10
29.248043
 20
3.108278
 10
29.236337
 20
3.323564
 10
29.21306
 20
3.535057
 10
29.178487
 20
3.740276
 10
29.133022
 20
3.936817
 10
29.077199
 20
4.122374
 10
29.011672
 20
4.294773
 10
28.937209
 20
4.451991
 10
28.854684
 20
4.592186
 10
28.765064
 20
4.713714
 10
28.669399
 20
4.815151
 10
28.568812
 20
4.895306
 10
28.46448
 20
4.953241
 10
28.357629
 20
4.988276
 10
28.24951
 20
5.0
 10
28.141391
 20
4.988276
 10
28.03454
 20
4.953241
 10
27.930208
 20
4.895306
 10
27.829621
 20
4.815151
 10
27.733956
 20
4.713714
 10
27.644336
 20
4.592186
 10
27.561811
 20
4.451991
 10
27.487348
 20
4.294773
 10
27.421821
 20
4.122374
 10
27.365998
 20
3.936817
 10
27.320533
 20
3.740276
 10
27.28596
 20
3.535057
 10
27.262683
 20
3.323564
 10
27.250977
 20
3.108278
 10
27.250977
 20
2.891722
 10
27.262683
 20
2.676436
 10
27.28596
 20
2.464943
 10
27.320533
 20
2.259724
 10
27.365998
 20
2.063183
 10
27.421821
 20
1.877626
 10
27.487348
 20
1.705227
 10
27.561811
 20
1.548009
 10
27.644336
 20
1.407814
 10
27.733956
 20
1.286286
 10
27.829621
 20
1.184849
 10
27.930208
 20
1.104694
 10
28.03454
 20
1.046759
 10
28.141391
 20
1.011724
 10
28.24951
 20
1.0
  0
LWPOLYLINE
  5
34
330
17
100
AcDbEntity
  8
0
100
AcDbPolyline
 90
60
 70
1
 10
19.49951
 20
1.0
 10
19.49951
 20
1.0
 10
19.607629
 20
1.011724
 10
19.71448
 20
1.046759
 10
19.818812
 20
1.104694
 10
19.919399
 20
1.184849
 10
20.015064
 20
1.286286
 10
20.104684
 20
1.407814
 10
20.187209
 20
1.548009
 10
20.261672
 20
1.705227
 10
20.327199
 20
1.877626
 10
20.383022
 20
2.063183
 10
20.428487
 20
2.259724
 10
20.46306
 20
2.464943
 10
20.486337
 20
2.676436
 10
20.498043
 20
2.891722
 10
20.498043
 20
3.108278
 10
20.486337
 20
3.323564
 10
20.46306
 20
3.535057
 10
20.428487
 20
3.740276
 10
20.383022
 20
3.936817
 10
20.327199
 20
4.122374
 10
20.261672
 20
4.294773
 10
20.187209
 20
4.451991
 10
20.104684
 20
4.592186
 10
20.015064
 20
4.713714
 10
19.919399
 20
4.815151
 10
19.818812
 20
4.895306
 10
19.71448
 20
4.953241
 10
19.607629
 20
4.988276
 10
19.49951
 20
5.0
 10
19.391391
 20
4.988276
 10
19.28454
 20
4.953241
 10
19.180208
 20
4.895306
 10
19.079621
 20
4.815151
 10
18.983956
 20
4.713714
 10
18.894336
 20
4.592186
 10
18.811811
 20
4.451991
 10
18.737348
 20
4.294773
 10
18.671821
 20
4.122374
 10
18.615998
 20
3.936817
 10
18.570533
 20
3.740276
 10
18.53596
 20
3.535057
 10
18.512683
 20
3.323564
 10
18.500977
 20
3.108278
 10
18.500977
 20
2.891722
 10
18.512683
 20
2.676436
 10
18.53596
 20
2.464943
 10
18.570533
 20
2.259724
 10
18.615998
 20
2.063183
 10
18.671821
 20
1.877626
 10
18.737348
 20
1.705227
 10
18.811811
 20
1.548009
 10
18.894336
 20
1.407814
 10
18.983956
 20
1.286286
 10
19.079621
 20
1.184849
 10
19.180208
 20
1.104694
 10
19.28454
 20
1.046759
 10
19.391391
 20
1.011724
 10
19.49951
 20
1.0
  0
LWPOLYLINE
  5
35
330
17
100
AcDbEntity
  8
0
100
AcDbPolyline
 90
60
 70
1
 10
10.74951
 20
1.0
 10
10.74951
 20
1.0
 10
10.857629
 20
1.011724
 10
10.96448
 20
1.046759
 10
11.068812
 20
1.104694
 10
11.169399
 20
1.184849
 10
11.265064
 20
1.286286
 10
11.354684
 20
1.407814
 10
11.437209
 20
1.548009
 10
11.511672
 20
1.705227
 10
11.577199
 20
1.877626
 10
11.633022
 20
2.063183
 10
11.678487
 20
2.259724
 10
11.71306
 20
2.464943
 10
11.736337
 20
2.676436
 10
11.748043
 20
2.891722
 10
11.748043
 20
3.108278
 10
11.736337
 20
3.323564
 10
11.71306
 20
3.535057
 10
11.678487
 20
3.740276
 10
11.633022
 20
3.936817
 10
11.577199
 20
4.122374
 10
11.511672
 20
4.294773
 10
11.437209
 20
4.451991
 10
11.354684
 20
4.592186
 10
11.265064
 20
4.713714
 10
11.169399
 20
4.815151
 10
11.068812
 20
4.895306
 10
10.96448
 20
4.953241
 10
10.857629
 20
4.988276
 10
10.74951
 20
5.0
 10
10.641391
 20
4.988276
 10
10.53454
 20
4.953241
 10
10.430208
 20
4.895306
 10
10.329621
 20
4.815151
 10
10.233956
 20
4.713714
 10
10.144336
 20
4.592186
 10
10.061811
 20
4.451991
 10
9.987348
 20
4.294773
 10
9.921821
 20
4.122374
 10
9.865998
 20
3.936817
 10
9.820533
 20
3.740276
 10
9.78596
 20
3.535057
 10
9.762683
 20
3.323564
 10
9.750977
 20
3.108278
 10
9.750977
 20
2.891722
 10
9.762683
 20
2.676436
 10
9.78596
 20
2.464943
 10
9.820533
 20
2.259724
 10
9.865998
 20
2.063183
 10
9.921821
 20
1.877626
 10
9.987348
 20
1.705227
 10
10.061811
 20
1.548009
 10
10.144336
 20
1.407814
 10
10.233956
 20
1.286286
 10
10.329621
 20
1.184849
 10
10.430208
 20
1.104694
 10
10.53454
 20
1.046759
 10
10.641391
 20
1.011724
 10
10.74951
 20
1.0
  0
LWPOLYLINE
  5
36
330
17
100
AcDbEntity
  8
0
100
AcDbPolyline
 90
70
 70
1
 10
1.99951
 20
5.0
 10
1.99951
 20
5.0
 10
1.947366
 20
4.99641
 10
1.889117
 20
4.983794
 10
1.824773
 20
4.959383
 10
1.754344
 20
4.920407
 10
1.677842
 20
4.864096
 10
1.595277
 20
4.787682
 10
1.551724
 20
4.74107
 10
1.50702
 20
4.688392
 10
1.419133
 20
4.56494
 10
1.335096
 20
4.419456
 10
1.256634
 20
4.254509
 10
1.185472
 20
4.072669
 10
1.123335
 20
3.876504
 10
1.071946
 20
3.668584
 10
1.033031
 20
3.45148
 10
1.008315
 20
3.22776
 10
0.999522
 20
2.999993
 10
1.007761
 20
2.771872
 10
1.031847
 20
2.547628
 10
1.070147
 20
2.32995
 10
1.121029
 20
2.121514
 10
1.182862
 20
1.924997
 10
1.254015
 20
1.743075
 10
1.332855
 20
1.578425
 10
1.417753
 20
1.433724
 10
1.461963
 20
1.36969
 10
1.506658
 20
1.311682
 10
1.59369
 20
1.213725
 10
1.676661
 20
1.137781
 10
1.754639
 20
1.081331
 10
1.826693
 20
1.041857
 10
1.891891
 20
1.016841
 10
1.949301
 20
1.003766
 10
2.000575
 20
0.999585
 10
2.054459
 20
1.00235
 10
2.112496
 20
1.01453
 10
2.175521
 20
1.038851
 10
2.24437
 20
1.07804
 10
2.319877
 20
1.134822
 10
2.402877
 20
1.211924
 10
2.447113
 20
1.259008
 10
2.491461
 20
1.312289
 10
2.578933
 20
1.436417
 10
2.663158
 20
1.581979
 10
2.742198
 20
1.746585
 10
2.814115
 20
1.927844
 10
2.876971
 20
2.123368
 10
2.928828
 20
2.330767
 10
2.967747
 20
2.547651
 10
2.991792
 20
2.771631
 10
2.999168
 20
2.999856
 10
2.989982
 20
3.227609
 10
2.965644
 20
3.451833
 10
2.927587
 20
3.669733
 10
2.877241
 20
3.878515
 10
2.816038
 20
4.075383
 10
2.745409
 20
4.257544
 10
2.666786
 20
4.422203
 10
2.581599
 20
4.566565
 10
2.537184
 20
4.630219
 10
2.49299
 20
4.687695
 10
2.406433
 20
4.785075
 10
2.323325
 20
4.860967
 10
2.244874
 20
4.917701
 10
2.172288
 20
4.957607
 10
2.106774
 20
4.983015
 10
2.049539
 20
4.996255
 10
1.99951
 20
5.0
  0
ENDSEC
  0
SECTION
  2
OBJECTS
  0
DICTIONARY
  5
A
330
0
100
AcDbDictionary
281
1
  3
ACAD_COLOR
350
B
  3
ACAD_GROUP
350
C
  3
ACAD_LAYOUT
350
D
  3
ACAD_MATERIAL
350
E
  3
ACAD_MLEADERSTYLE
350
F
  3
ACAD_MLINESTYLE
350
10
  3
ACAD_PLOTSETTINGS
350
11
  3
ACAD_PLOTSTYLENAME
350
12
  3
ACAD_SCALELIST
350
14
  3
ACAD_TABLESTYLE
350
15
  3
ACAD_VISUALSTYLE
350
16
  3
EZDXF_META
350
2D
  0
DICTIONARY
  5
B
330
A
100
AcDbDictionary
281
1
  0
DICTIONARY
  5
C
330
A
100
AcDbDictionary
281
1
  0
DICTIONARY
  5
D
330
A
100
AcDbDictionary
281
1
  3
Model
350
1A
  3
Layout1
350
1E
  0
DICTIONARY
  5
E
330
A
100
AcDbDictionary
281
1
  3
ByBlock
350
1F
  3
ByLayer
350
20
  3
Global
350
21
  0
DICTIONARY
  5
F
330
A
100
AcDbDictionary
281
1
  3
Standard
350
2C
  0
DICTIONARY
  5
10
330
A
100
AcDbDictionary
281
1
  3
Standard
350
22
  0
DICTIONARY
  5
11
330
A
100
AcDbDictionary
281
1
  0
ACDBDICTIONARYWDFLT
  5
12
330
A
100
AcDbDictionary
281
1
  3
Normal
350
13
100
AcDbDictionaryWithDefault
340
13
  0
ACDBPLACEHOLDER
  5
13
330
12
  0
DICTIONARY
  5
14
330
A
100
AcDbDictionary
281
1
  0
DICTIONARY
  5
15
330
A
100
AcDbDictionary
281
1
  0
DICTIONARY
  5
16
330
A
100
AcDbDictionary
281
1
  0
LAYOUT
  5
1A
330
D
100
AcDbPlotSettings
  1

  4
A3
  6

 40
7.5
 41
20.0
 42
7.5
 43
20.0
 44
420.0
 45
297.0
 46
0.0
 47
0.0
 48
0.0
 49
0.0
140
0.0
141
0.0
142
1.0
143
1.0
 70
1024
 72
1
 73
0
 74
5
  7

 75
16
 76
0
 77
2
 78
300
147
1.0
148
0.0
149
0.0
100
AcDbLayout
  1
Model
 70
1
 71
0
 10
0.0
 20
0.0
 11
420.0
 21
297.0
 12
0.0
 22
0.0
 32
0.0
 14
1e+20
 24
1e+20
 34
1e+20
 15
-1e+20
 25
-1e+20
 35
-1e+20
146
0.0
 13
0.0
 23
0.0
 33
0.0
 16
1.0
 26
0.0
 36
0.0
 17
0.0
 27
1.0
 37
0.0
 76
1
330
17
  0
LAYOUT
  5
1E
330
D
100
AcDbPlotSettings
  1

  4
A3
  6

 40
7.5
 41
20.0
 42
7.5
 43
20.0
 44
420.0
 45
297.0
 46
0.0
 47
0.0
 48
0.0
 49
0.0
140
0.0
141
0.0
142
1.0
143
1.0
 70
0
 72
1
 73
0
 74
5
  7

 75
16
 76
0
 77
2
 78
300
147
1.0
148
0.0
149
0.0
100
AcDbLayout
  1
Layout1
 70
1
 71
1
 10
0.0
 20
0.0
 11
420.0
 21
297.0
 12
0.0
 22
0.0
 32
0.0
 14
1e+20
 24
1e+20
 34
1e+20
 15
-1e+20
 25
-1e+20
 35
-1e+20
146
0.0
 13
0.0
 23
0.0
 33
0.0
 16
1.0
 26
0.0
 36
0.0
 17
0.0
 27
1.0
 37
0.0
 76
1
330
1B
  0
MATERIAL
  5
1F
102
{ACAD_REACTORS
330
E
102
}
330
E
100
AcDbMaterial
  1
ByBlock
  2

 70
0
 40
1.0
 71
1
 41
1.0
 91
-1023410177
 42
1.0
 72
1
  3

 73
1
 74
1
 75
1
 44
0.5
 73
0
 45
1.0
 46
1.0
 77
1
  4

 78
1
 79
1
170
1
 48
1.0
171
1
  6

172
1
173
1
174
1
140
1.0
141
1.0
175
1
  7

176
1
177
1
178
1
143
1.0
179
1
  8

270
1
271
1
272
1
145
1.0
146
1.0
273
1
  9

274
1
275
1
276
1
 42
1.0
 72
1
  3

 73
1
 74
1
 75
1
 94
63
  0
MATERIAL
  5
20
102
{ACAD_REACTORS
330
E
102
}
330
E
100
AcDbMaterial
  1
ByLayer
  2

 70
0
 40
1.0
 71
1
 41
1.0
 91
-1023410177
 42
1.0
 72
1
  3

 73
1
 74
1
 75
1
 44
0.5
 73
0
 45
1.0
 46
1.0
 77
1
  4

 78
1
 79
1
170
1
 48
1.0
171
1
  6

172
1
173
1
174
1
140
1.0
141
1.0
175
1
  7

176
1
177
1
178
1
143
1.0
179
1
  8

270
1
271
1
272
1
145
1.0
146
1.0
273
1
  9

274
1
275
1
276
1
 42
1.0
 72
1
  3

 73
1
 74
1
 75
1
 94
63
  0
MATERIAL
  5
21
102
{ACAD_REACTORS
330
E
102
}
330
E
100
AcDbMaterial
  1
Global
  2

 70
0
 40
1.0
 71
1
 41
1.0
 91
-1023410177
 42
1.0
 72
1
  3

 73
1
 74
1
 75
1
 44
0.5
 73
0
 45
1.0
 46
1.0
 77
1
  4

 78
1
 79
1
170
1
 48
1.0
171
1
  6

172
1
173
1
174
1
140
1.0
141
1.0
175
1
  7

176
1
177
1
178
1
143
1.0
179
1
  8

270
1
271
1
272
1
145
1.0
146
1.0
273
1
  9

274
1
275
1
276
1
 42
1.0
 72
1
  3

 73
1
 74
1
 75
1
 94
63
  0
MLINESTYLE
  5
22
102
{ACAD_REACTORS
330
10
102
}
330
10
100
AcDbMlineStyle
  2
Standard
 70
0
  3

 62
256
 51
90.0
 52
90.0
 71
2
 49
0.5
 62
256
  6
BYLAYER
 49
-0.5
 62
256
  6
BYLAYER
  0
MLEADERSTYLE
  5
2C
102
{ACAD_REACTORS
330
F
102
}
330
F
100
AcDbMLeaderStyle
179
2
170
2
171
1
172
0
 90
2
 40
0.0
 41
0.0
173
1
 91
-1056964608
 92
-2
290
1
 42
2.0
291
1
 43
8.0
  3
Standard
 44
4.0
300

342
29
174
1
175
1
176
0
178
1
 93
-1056964608
 45
4.0
292
0
297
0
 46
4.0
 94
-1056964608
 47
1.0
 49
1.0
140
1.0
294
1
141
0.0
177
0
142
1.0
295
0
296
0
143
3.75
271
0
272
9
273
9
  0
DICTIONARY
  5
2D
330
A
100
AcDbDictionary
280
1
281
1
  3
CREATED_BY_EZDXF
350
2E
  3
WRITTEN_BY_EZDXF
350
39
  0
DICTIONARYVAR
  5
2E
330
2D
100
DictionaryVariables
280
0
  1
1.4.3 @ 2026-04-13T23:39:23.521799+00:00
  0
DICTIONARYVAR
  5
39
330
2D
100
DictionaryVariables
280
0
  1
1.4.3 @ 2026-04-13T23:39:23.524933+00:00
  0
ENDSEC
  0
EOF
