  0
SECTION
  2
HEADER
  9
$ACADVER
  1
AC1024
  9
$ACADMAINTVER
 70
6
  9
$DWGCODEPAGE
  3
ANSI_1252
  9
$LASTSAVEDBY
  1
ezdxf
  9
$INSBASE
 10
0.0
 20
0.0
 30
0.0
  9
$EXTMIN
 10
1e+20
 20
1e+20
 30
1e+20
  9
$EXTMAX
 10
-1e+20
 20
-1e+20
 30
-1e+20
  9
$LIMMIN
 10
0.0
 20
0.0
  9
$LIMMAX
 10
420.0
 20
297.0
  9
$ORTHOMODE
 70
0
  9
$REGENMODE
 70
1
  9
$FILLMODE
 70
1
  9
$QTEXTMODE
 70
0
  9
$MIRRTEXT
 70
1
  9
$LTSCALE
 40
1.0
  9
$ATTMODE
 70
1
  9
$TEXTSIZE
 40
2.5
  9
$TRACEWID
 40
1.0
  9
$TEXTSTYLE
  7
Standard
  9
$CLAYER
  8
0
  9
$CELTYPE
  6
ByLayer
  9
$CECOLOR
 62
256
  9
$CELTSCALE
 40
1.0
  9
$DISPSILH
 70
0
  9
$DIMSCALE
 40
1.0
  9
$DIMASZ
 40
2.5
  9
$DIMEXO
 40
0.625
  9
$DIMDLI
 40
3.75
  9
$DIMRND
 40
0.0
  9
$DIMDLE
 40
0.0
  9
$DIMEXE
 40
1.25
  9
$DIMTP
 40
0.0
  9
$DIMTM
 40
0.0
  9
$DIMTXT
 40
2.5
  9
$DIMCEN
 40
2.5
  9
$DIMTSZ
 40
0.0
  9
$DIMTOL
 70
0
  9
$DIMLIM
 70
0
  9
$DIMTIH
 70
0
  9
$DIMTOH
 70
0
  9
$DIMSE1
 70
0
  9
$DIMSE2
 70
0
  9
$DIMTAD
 70
1
  9
$DIMZIN
 70
8
  9
$DIMBLK
  1

  9
$DIMASO
 70
1
  9
$DIMSHO
 70
1
  9
$DIMPOST
  1

  9
$DIMAPOST
  1

  9
$DIMALT
 70
0
  9
$DIMALTD
 70
3
  9
$DIMALTF
 40
0.03937007874
  9
$DIMLFAC
 40
1.0
  9
$DIMTOFL
 70
1
  9
$DIMTVP
 40
0.0
  9
$DIMTIX
 70
0
  9
$DIMSOXD
 70
0
  9
$DIMSAH
 70
0
  9
$DIMBLK1
  1

  9
$DIMBLK2
  1

  9
$DIMSTYLE
  2
ISO-25
  9
$DIMCLRD
 70
0
  9
$DIMCLRE
 70
0
  9
$DIMCLRT
 70
0
  9
$DIMTFAC
 40
1.0
  9
$DIMGAP
 40
0.625
  9
$DIMJUST
 70
0
  9
$DIMSD1
 70
0
  9
$DIMSD2
 70
0
  9
$DIMTOLJ
 70
0
  9
$DIMTZIN
 70
8
  9
$DIMALTZ
 70
0
  9
$DIMALTTZ
 70
0
  9
$DIMUPT
 70
0
  9
$DIMDEC
 70
2
  9
$DIMTDEC
 70
2
  9
$DIMALTU
 70
2
  9
$DIMALTTD
 70
3
  9
$DIMTXSTY
  7
Standard
  9
$DIMAUNIT
 70
0
  9
$DIMADEC
 70
0
  9
$DIMALTRND
 40
0.0
  9
$DIMAZIN
 70
0
  9
$DIMDSEP
 70
44
  9
$DIMATFIT
 70
3
  9
$DIMFRAC
 70
0
  9
$DIMLDRBLK
  1

  9
$DIMLUNIT
 70
2
  9
$DIMLWD
 70
-2
  9
$DIMLWE
 70
-2
  9
$DIMTMOVE
 70
0
  9
$DIMFXL
 40
1.0
  9
$DIMFXLON
 70
0
  9
$DIMJOGANG
 40
0.785398163397
  9
$DIMTFILL
 70
0
  9
$DIMTFILLCLR
 70
0
  9
$DIMARCSYM
 70
0
  9
$DIMLTYPE
  6

  9
$DIMLTEX1
  6

  9
$DIMLTEX2
  6

  9
$DIMTXTDIRECTION
 70
0
  9
$LUNITS
 70
2
  9
$LUPREC
 70
4
  9
$SKETCHINC
 40
1.0
  9
$FILLETRAD
 40
10.0
  9
$AUNITS
 70
0
  9
$AUPREC
 70
2
  9
$MENU
  1
.
  9
$ELEVATION
 40
0.0
  9
$PELEVATION
 40
0.0
  9
$THICKNESS
 40
0.0
  9
$LIMCHECK
 70
0
  9
$CHAMFERA
 40
0.0
  9
$CHAMFERB
 40
0.0
  9
$CHAMFERC
 40
0.0
  9
$CHAMFERD
 40
0.0
  9
$SKPOLY
 70
0
  9
$TDCREATE
 40
2461144.664837963
  9
$TDUCREATE
 40
2458532.153996898
  9
$TDUPDATE
 40
2461144.664849537
  9
$TDUUPDATE
 40
2458532.1544311
  9
$TDINDWG
 40
0.0
  9
$TDUSRTIMER
 40
0.0
  9
$USRTIMER
 70
1
  9
$ANGBASE
 50
0.0
  9
$ANGDIR
 70
0
  9
$PDMODE
 70
0
  9
$PDSIZE
 40
0.0
  9
$PLINEWID
 40
0.0
  9
$SPLFRAME
 70
0
  9
$SPLINETYPE
 70
6
  9
$SPLINESEGS
 70
8
  9
$HANDSEED
  5
1C6
  9
$SURFTAB1
 70
6
  9
$SURFTAB2
 70
6
  9
$SURFTYPE
 70
6
  9
$SURFU
 70
6
  9
$SURFV
 70
6
  9
$UCSBASE
  2

  9
$UCSNAME
  2

  9
$UCSORG
 10
0.0
 20
0.0
 30
0.0
  9
$UCSXDIR
 10
1.0
 20
0.0
 30
0.0
  9
$UCSYDIR
 10
0.0
 20
1.0
 30
0.0
  9
$UCSORTHOREF
  2

  9
$UCSORTHOVIEW
 70
0
  9
$UCSORGTOP
 10
0.0
 20
0.0
 30
0.0
  9
$UCSORGBOTTOM
 10
0.0
 20
0.0
 30
0.0
  9
$UCSORGLEFT
 10
0.0
 20
0.0
 30
0.0
  9
$UCSORGRIGHT
 10
0.0
 20
0.0
 30
0.0
  9
$UCSORGFRONT
 10
0.0
 20
0.0
 30
0.0
  9
$UCSORGBACK
 10
0.0
 20
0.0
 30
0.0
  9
$PUCSBASE
  2

  9
$PUCSNAME
  2

  9
$PUCSORG
 10
0.0
 20
0.0
 30
0.0
  9
$PUCSXDIR
 10
1.0
 20
0.0
 30
0.0
  9
$PUCSYDIR
 10
0.0
 20
1.0
 30
0.0
  9
$PUCSORTHOREF
  2

  9
$PUCSORTHOVIEW
 70
0
  9
$PUCSORGTOP
 10
0.0
 20
0.0
 30
0.0
  9
$PUCSORGBOTTOM
 10
0.0
 20
0.0
 30
0.0
  9
$PUCSORGLEFT
 10
0.0
 20
0.0
 30
0.0
  9
$PUCSORGRIGHT
 10
0.0
 20
0.0
 30
0.0
  9
$PUCSORGFRONT
 10
0.0
 20
0.0
 30
0.0
  9
$PUCSORGBACK
 10
0.0
 20
0.0
 30
0.0
  9
$USERI1
 70
0
  9
$USERI2
 70
0
  9
$USERI3
 70
0
  9
$USERI4
 70
0
  9
$USERI5
 70
0
  9
$USERR1
 40
0.0
  9
$USERR2
 40
0.0
  9
$USERR3
 40
0.0
  9
$USERR4
 40
0.0
  9
$USERR5
 40
0.0
  9
$WORLDVIEW
 70
1
  9
$SHADEDGE
 70
3
  9
$SHADEDIF
 70
70
  9
$TILEMODE
 70
1
  9
$MAXACTVP
 70
64
  9
$PINSBASE
 10
0.0
 20
0.0
 30
0.0
  9
$PLIMCHECK
 70
0
  9
$PEXTMIN
 10
1e+20
 20
1e+20
 30
1e+20
  9
$PEXTMAX
 10
-1e+20
 20
-1e+20
 30
-1e+20
  9
$PLIMMIN
 10
0.0
 20
0.0
  9
$PLIMMAX
 10
420.0
 20
297.0
  9
$UNITMODE
 70
0
  9
$VISRETAIN
 70
1
  9
$PLINEGEN
 70
0
  9
$PSLTSCALE
 70
1
  9
$TREEDEPTH
 70
3020
  9
$CMLSTYLE
  2
Standard
  9
$CMLJUST
 70
0
  9
$CMLSCALE
 40
20.0
  9
$PROXYGRAPHICS
 70
1
  9
$MEASUREMENT
 70
1
  9
$CELWEIGHT
370
-1
  9
$ENDCAPS
280
0
  9
$JOINSTYLE
280
0
  9
$LWDISPLAY
290
0
  9
$INSUNITS
 70
4
  9
$HYPERLINKBASE
  1

  9
$STYLESHEET
  1

  9
$XEDIT
290
1
  9
$CEPSNTYPE
380
0
  9
$PSTYLEMODE
290
1
  9
$FINGERPRINTGUID
  2
{DD6AD3BC-FB57-414A-B5F5-99F28DBC0FFD}
  9
$VERSIONGUID
  2
{28B07D84-F400-431D-959B-0B52F1A3CF12}
  9
$EXTNAMES
290
1
  9
$PSVPSCALE
 40
0.0
  9
$OLESTARTUP
290
0
  9
$SORTENTS
280
127
  9
$INDEXCTL
280
0
  9
$HIDETEXT
280
1
  9
$XCLIPFRAME
280
1
  9
$HALOGAP
280
0
  9
$OBSCOLOR
 70
257
  9
$OBSLTYPE
280
0
  9
$INTERSECTIONDISPLAY
280
0
  9
$INTERSECTIONCOLOR
 70
257
  9
$DIMASSOC
280
2
  9
$PROJECTNAME
  1

  9
$CAMERADISPLAY
290
0
  9
$LENSLENGTH
 40
50.0
  9
$CAMERAHEIGHT
 40
0.0
  9
$STEPSPERSEC
 40
24.0
  9
$STEPSIZE
 40
100.0
  9
$3DDWFPREC
 40
2.0
  9
$PSOLWIDTH
 40
0.005
  9
$PSOLHEIGHT
 40
0.08
  9
$LOFTANG1
 40
1.570796326795
  9
$LOFTANG2
 40
1.570796326795
  9
$LOFTMAG1
 40
0.0
  9
$LOFTMAG2
 40
0.0
  9
$LOFTPARAM
 70
7
  9
$LOFTNORMALS
280
1
  9
$LATITUDE
 40
37.795
  9
$LONGITUDE
 40
-122.394
  9
$NORTHDIRECTION
 40
0.0
  9
$TIMEZONE
 70
-8000
  9
$LIGHTGLYPHDISPLAY
280
1
  9
$TILEMODELIGHTSYNCH
280
1
  9
$CMATERIAL
347
20
  9
$SOLIDHIST
280
0
  9
$SHOWHIST
280
1
  9
$DWFFRAME
280
2
  9
$DGNFRAME
280
2
  9
$REALWORLDSCALE
290
1
  9
$INTERFERECOLOR
 62
256
  9
$CSHADOW
280
0
  9
$SHADOWPLANELOCATION
 40
0.0
  0
ENDSEC
  0
SECTION
  2
CLASSES
  0
CLASS
  1
ACDBDICTIONARYWDFLT
  2
AcDbDictionaryWithDefault
  3
ObjectDBX Classes
 90
0
 91
0
280
0
281
0
  0
CLASS
  1
SUN
  2
AcDbSun
  3
SCENEOE
 90
1153
 91
0
280
0
281
0
  0
CLASS
  1
VISUALSTYLE
  2
AcDbVisualStyle
  3
ObjectDBX Classes
 90
4095
 91
0
280
0
281
0
  0
CLASS
  1
MATERIAL
  2
AcDbMaterial
  3
ObjectDBX Classes
 90
1153
 91
0
280
0
281
0
  0
CLASS
  1
SCALE
  2
AcDbScale
  3
ObjectDBX Classes
 90
1153
 91
0
280
0
281
0
  0
CLASS
  1
TABLESTYLE
  2
AcDbTableStyle
  3
ObjectDBX Classes
 90
4095
 91
0
280
0
281
0
  0
CLASS
  1
MLEADERSTYLE
  2
AcDbMLeaderStyle
  3
ACDB_MLEADERSTYLE_CLASS
 90
4095
 91
0
280
0
281
0
  0
CLASS
  1
DICTIONARYVAR
  2
AcDbDictionaryVar
  3
ObjectDBX Classes
 90
0
 91
0
280
0
281
0
  0
CLASS
  1
CELLSTYLEMAP
  2
AcDbCellStyleMap
  3
ObjectDBX Classes
 90
1152
 91
0
280
0
281
0
  0
CLASS
  1
MENTALRAYRENDERSETTINGS
  2
AcDbMentalRayRenderSettings
  3
SCENEOE
 90
1024
 91
0
280
0
281
0
  0
CLASS
  1
ACDBDETAILVIEWSTYLE
  2
AcDbDetailViewStyle
  3
ObjectDBX Classes
 90
1025
 91
0
280
0
281
0
  0
CLASS
  1
ACDBSECTIONVIEWSTYLE
  2
AcDbSectionViewStyle
  3
ObjectDBX Classes
 90
1025
 91
0
280
0
281
0
  0
CLASS
  1
RASTERVARIABLES
  2
AcDbRasterVariables
  3
ISM
 90
0
 91
0
280
0
281
0
  0
CLASS
  1
LAYOUT
  2
AcDbLayout
  3
ObjectDBX Classes
 90
0
 91
0
280
0
281
0
  0
CLASS
  1
ACDBPLACEHOLDER
  2
AcDbPlaceHolder
  3
ObjectDBX Classes
 90
0
 91
0
280
0
281
0
  0
ENDSEC
  0
SECTION
  2
TABLES
  0
TABLE
  2
VPORT
  5
8
330
0
100
AcDbSymbolTable
 70
1
  0
VPORT
  5
23
330
8
100
AcDbSymbolTableRecord
100
AcDbViewportTableRecord
  2
*Active
 70
0
 10
0.0
 20
0.0
 11
1.0
 21
1.0
 12
0.0
 22
0.0
 13
0.0
 23
0.0
 14
0.5
 24
0.5
 15
0.5
 25
0.5
 16
0.0
 26
0.0
 36
1.0
 17
0.0
 27
0.0
 37
0.0
 40
1000.0
 41
1.34
 42
50.0
 43
0.0
 44
0.0
 50
0.0
 51
0.0
 71
0
 72
1000
 73
1
 74
3
 75
0
 76
0
 77
0
 78
0
281
0
 65
0
146
0.0
  0
ENDTAB
  0
TABLE
  2
LTYPE
  5
2
330
0
100
AcDbSymbolTable
 70
3
  0
LTYPE
  5
24
330
2
100
AcDbSymbolTableRecord
100
AcDbLinetypeTableRecord
  2
ByBlock
 70
0
  3

 72
65
 73
0
 40
0.0
  0
LTYPE
  5
25
330
2
100
AcDbSymbolTableRecord
100
AcDbLinetypeTableRecord
  2
ByLayer
 70
0
  3

 72
65
 73
0
 40
0.0
  0
LTYPE
  5
26
330
2
100
AcDbSymbolTableRecord
100
AcDbLinetypeTableRecord
  2
Continuous
 70
0
  3

 72
65
 73
0
 40
0.0
  0
ENDTAB
  0
TABLE
  2
LAYER
  5
1
330
0
100
AcDbSymbolTable
 70
3
  0
LAYER
  5
27
330
1
100
AcDbSymbolTableRecord
100
AcDbLayerTableRecord
  2
0
 70
0
 62
7
  6
Continuous
370
-3
390
13
347
21
  0
LAYER
  5
28
330
1
100
AcDbSymbolTableRecord
100
AcDbLayerTableRecord
  2
Defpoints
 70
0
 62
7
  6
Continuous
290
0
370
-3
390
13
347
21
  0
LAYER
  5
1C0
330
1
100
AcDbSymbolTableRecord
100
AcDbLayerTableRecord
  2
BORDER
 70
0
 62
3
  6
Continuous
370
-3
390
13
347
21
  0
ENDTAB
  0
TABLE
  2
STYLE
  5
5
330
0
100
AcDbSymbolTable
 70
1
  0
STYLE
  5
29
330
5
100
AcDbSymbolTableRecord
100
AcDbTextStyleTableRecord
  2
Standard
 70
0
 40
0.0
 41
1.0
 50
0.0
 71
0
 42
2.5
  3
txt
  4

  0
ENDTAB
  0
TABLE
  2
VIEW
  5
7
330
0
100
AcDbSymbolTable
 70
0
  0
ENDTAB
  0
TABLE
  2
UCS
  5
6
330
0
100
AcDbSymbolTable
 70
0
  0
ENDTAB
  0
TABLE
  2
APPID
  5
3
330
0
100
AcDbSymbolTable
 70
3
  0
APPID
  5
2A
330
3
100
AcDbSymbolTableRecord
100
AcDbRegAppTableRecord
  2
ACAD
 70
0
  0
APPID
  5
1C3
330
3
100
AcDbSymbolTableRecord
100
AcDbRegAppTableRecord
  2
HATCHBACKGROUNDCOLOR
 70
0
  0
APPID
  5
1C4
330
3
100
AcDbSymbolTableRecord
100
AcDbRegAppTableRecord
  2
EZDXF
 70
0
  0
ENDTAB
  0
TABLE
  2
DIMSTYLE
  5
4
330
0
100
AcDbSymbolTable
 70
1
100
AcDbDimStyleTable
  0
DIMSTYLE
105
2B
330
4
100
AcDbSymbolTableRecord
100
AcDbDimStyleTableRecord
  2
Standard
 70
0
 40
1.0
 41
2.5
 42
0.625
 43
3.75
 44
1.25
 45
0.0
 46
0.0
 47
0.0
 48
0.0
 49
2.5
140
2.5
141
2.5
142
0.0
143
0.03937007874
144
1.0
145
0.0
146
1.0
147
0.625
148
0.0
 69
0
 70
0
 71
0
 72
0
 73
0
 74
0
 75
0
 76
0
 77
1
 78
8
 79
3
170
0
171
3
172
1
173
0
174
0
175
0
176
0
177
0
178
0
179
2
271
2
272
2
273
2
274
3
275
0
276
0
277
2
278
44
279
0
280
0
281
0
282
0
283
0
284
8
285
0
286
0
288
0
289
3
290
0
371
-2
372
-2
  0
ENDTAB
  0
TABLE
  2
BLOCK_RECORD
  5
9
330
0
100
AcDbSymbolTable
 70
2
  0
BLOCK_RECORD
  5
17
330
9
100
AcDbSymbolTableRecord
100
AcDbBlockTableRecord
  2
*Model_Space
340
1A
 70
0
280
1
281
0
  0
BLOCK_RECORD
  5
1B
330
9
100
AcDbSymbolTableRecord
100
AcDbBlockTableRecord
  2
*Paper_Space
340
1E
 70
0
280
1
281
0
  0
ENDTAB
  0
ENDSEC
  0
SECTION
  2
BLOCKS
  0
BLOCK
  5
18
330
17
100
AcDbEntity
  8
0
100
AcDbBlockBegin
  2
*Model_Space
 70
0
 10
0.0
 20
0.0
 30
0.0
  3
*Model_Space
  1

  0
ENDBLK
  5
19
330
17
100
AcDbEntity
  8
0
100
AcDbBlockEnd
  0
BLOCK
  5
1C
330
1B
100
AcDbEntity
  8
0
100
AcDbBlockBegin
  2
*Paper_Space
 70
0
 10
0.0
 20
0.0
 30
0.0
  3
*Paper_Space
  1

  0
ENDBLK
  5
1D
330
1B
100
AcDbEntity
  8
0
100
AcDbBlockEnd
  0
ENDSEC
  0
SECTION
  2
ENTITIES
  0
LWPOLYLINE
  5
2F
330
17
100
AcDbEntity
  8
0
100
AcDbPolyline
 90
9
 70
1
 10
54.33071073700562
 20
-9.118347087840291
 10
54.062995162799254
 20
-9.07592923213683
 10
53.80137557889739
 20
-9.013699443829355
 10
53.54686798368412
 20
-8.932165721189765
 10
53.30048837554354
 20
-8.832090061625909
 10
53.19967826533887
 20
-8.781954643083798
 10
54.328690201006644
 20
-8.130119298107708
 10
55.844234657629414
 20
-9.005119298107708
 10
55.844234657629414
 20
-9.135997684966613
  0
LWPOLYLINE
  5
30
330
17
100
AcDbEntity
  8
0
100
AcDbPolyline
 90
5
 70
1
 10
56.344234657629414
 20
-9.141828645708564
 10
56.344234657629414
 20
-9.005119298107708
 10
57.859779114252184
 20
-8.130119298107708
 10
59.375323570874954
 20
-9.005119298107708
 10
59.375323570874954
 20
-9.177176966625558
  0
LWPOLYLINE
  5
31
330
17
100
AcDbEntity
  8
0
100
AcDbPolyline
 90
5
 70
1
 10
59.87532357087494
 20
-9.183007927367509
 10
59.87532357087494
 20
-9.005119298107708
 10
61.39086802749771
 20
-8.130119298107708
 10
62.90641248412048
 20
-9.005119298107708
 10
62.90641248412048
 20
-9.218356248284502
  0
LWPOLYLINE
  5
32
330
17
100
AcDbEntity
  8
0
100
AcDbPolyline
 90
5
 70
1
 10
63.40641248412047
 20
-9.224187209026454
 10
63.40641248412047
 20
-9.005119298107708
 10
64.92195694074324
 20
-8.130119298107708
 10
66.437501397366
 20
-9.005119298107708
 10
66.437501397366
 20
-9.259535529943447
  0
LWPOLYLINE
  5
33
330
17
100
AcDbEntity
  8
0
100
AcDbPolyline
 90
5
 70
1
 10
66.93750139736602
 20
-9.265366490685398
 10
66.93750139736602
 20
-9.005119298107708
 10
68.45304585398878
 20
-8.130119298107708
 10
69.96859031061155
 20
-9.005119298107708
 10
69.96859031061155
 20
-9.300714811602392
  0
LWPOLYLINE
  5
34
330
17
100
AcDbEntity
  8
0
100
AcDbPolyline
 90
5
 70
1
 10
70.46859031061155
 20
-9.306545772344341
 10
70.46859031061155
 20
-9.005119298107708
 10
71.98413476723431
 20
-8.130119298107708
 10
73.49967922385707
 20
-9.005119298107708
 10
73.49967922385707
 20
-9.341894093261336
  0
LWPOLYLINE
  5
35
330
17
100
AcDbEntity
  8
0
100
AcDbPolyline
 90
5
 70
1
 10
73.99967922385709
 20
-9.347725054003286
 10
73.99967922385709
 20
-9.005119298107708
 10
75.51522368047985
 20
-8.130119298107708
 10
77.03076813710261
 20
-9.005119298107708
 10
77.03076813710261
 20
-9.383073374920281
  0
LWPOLYLINE
  5
36
330
17
100
AcDbEntity
  8
0
100
AcDbPolyline
 90
5
 70
1
 10
77.53076813710263
 20
-9.38890433566223
 10
77.53076813710263
 20
-9.005119298107708
 10
79.04631259372539
 20
-8.130119298107708
 10
80.56185705034815
 20
-9.005119298107708
 10
80.56185705034815
 20
-9.424252656579226
  0
LWPOLYLINE
  5
37
330
17
100
AcDbEntity
  8
0
100
AcDbPolyline
 90
9
 70
1
 10
83.7827258944543
 20
-9.117585090432444
 10
83.18684284218851
 20
-9.266936582370384
 10
82.63490172003439
 20
-9.362440257487162
 10
81.75199912426463
 20
-9.438131999999927
 10
81.06185705034815
 20
-9.430083617321175
 10
81.06185705034815
 20
-9.005119298107708
 10
82.57740150697092
 20
-8.130119298107708
 10
84.09294596359368
 20
-9.005119298107708
 10
84.09294596359368
 20
-9.00967156118895
  0
LWPOLYLINE
  5
38
330
17
100
AcDbEntity
  8
0
100
AcDbPolyline
 90
12
 70
1
 10
52.61875345982257
 20
-8.426707440651501
 10
52.41402978542948
 20
-8.258814011789294
 10
52.22226009043345
 20
-8.075680634770155
 10
52.04420637362257
 20
-7.878069307001929
 10
51.88088463338093
 20
-7.666488026756516
 10
51.7333108680926
 20
-7.44169879144176
 10
51.60250107614168
 20
-7.204209599329561
 10
51.09505860209641
 20
-5.9197071030089825
 10
52.563145744383874
 20
-5.072106596215488
 10
54.078690201006644
 20
-5.947106596215488
 10
54.078690201006644
 20
-7.697106596215487
 10
52.70737491071926
 20
-8.48883584820676
  0
LWPOLYLINE
  5
39
330
17
100
AcDbEntity
  8
0
100
AcDbPolyline
 90
6
 70
1
 10
57.609779114252184
 20
-5.947106596215488
 10
56.094234657629414
 20
-5.072106596215488
 10
54.578690201006644
 20
-5.947106596215487
 10
54.578690201006644
 20
-7.697106596215487
 10
56.094234657629414
 20
-8.572106596215487
 10
57.609779114252184
 20
-7.697106596215487
  0
LWPOLYLINE
  5
3A
330
17
100
AcDbEntity
  8
0
100
AcDbPolyline
 90
6
 70
1
 10
61.14086802749771
 20
-5.947106596215488
 10
59.62532357087494
 20
-5.072106596215488
 10
58.10977911425217
 20
-5.947106596215487
 10
58.10977911425217
 20
-7.697106596215487
 10
59.62532357087494
 20
-8.572106596215487
 10
61.14086802749771
 20
-7.697106596215487
  0
LWPOLYLINE
  5
3B
330
17
100
AcDbEntity
  8
0
100
AcDbPolyline
 90
6
 70
1
 10
64.67195694074324
 20
-5.947106596215488
 10
63.15641248412048
 20
-5.072106596215488
 10
61.64086802749771
 20
-5.947106596215487
 10
61.64086802749771
 20
-7.697106596215487
 10
63.15641248412048
 20
-8.572106596215487
 10
64.67195694074324
 20
-7.697106596215487
  0
LWPOLYLINE
  5
3C
330
17
100
AcDbEntity
  8
0
100
AcDbPolyline
 90
6
 70
1
 10
68.20304585398878
 20
-5.947106596215488
 10
66.68750139736602
 20
-5.072106596215488
 10
65.17195694074326
 20
-5.947106596215487
 10
65.17195694074326
 20
-7.697106596215487
 10
66.68750139736602
 20
-8.572106596215487
 10
68.20304585398878
 20
-7.697106596215487
  0
LWPOLYLINE
  5
3D
330
17
100
AcDbEntity
  8
0
100
AcDbPolyline
 90
6
 70
1
 10
71.73413476723431
 20
-5.947106596215488
 10
70.21859031061155
 20
-5.072106596215488
 10
68.70304585398878
 20
-5.947106596215487
 10
68.70304585398878
 20
-7.697106596215487
 10
70.21859031061155
 20
-8.572106596215487
 10
71.73413476723431
 20
-7.697106596215487
  0
LWPOLYLINE
  5
3E
330
17
100
AcDbEntity
  8
0
100
AcDbPolyline
 90
6
 70
1
 10
75.26522368047985
 20
-5.947106596215488
 10
73.74967922385709
 20
-5.072106596215488
 10
72.23413476723432
 20
-5.947106596215487
 10
72.23413476723432
 20
-7.697106596215487
 10
73.74967922385709
 20
-8.572106596215487
 10
75.26522368047985
 20
-7.697106596215487
  0
LWPOLYLINE
  5
3F
330
17
100
AcDbEntity
  8
0
100
AcDbPolyline
 90
6
 70
1
 10
78.79631259372539
 20
-5.947106596215488
 10
77.28076813710263
 20
-5.072106596215488
 10
75.76522368047986
 20
-5.947106596215487
 10
75.76522368047986
 20
-7.697106596215487
 10
77.28076813710263
 20
-8.572106596215487
 10
78.79631259372539
 20
-7.697106596215487
  0
LWPOLYLINE
  5
40
330
17
100
AcDbEntity
  8
0
100
AcDbPolyline
 90
6
 70
1
 10
82.32740150697092
 20
-5.947106596215488
 10
80.81185705034815
 20
-5.072106596215488
 10
79.29631259372539
 20
-5.947106596215487
 10
79.29631259372539
 20
-7.697106596215487
 10
80.81185705034815
 20
-8.572106596215487
 10
82.32740150697092
 20
-7.697106596215487
  0
LWPOLYLINE
  5
41
330
17
100
AcDbEntity
  8
0
100
AcDbPolyline
 90
6
 70
1
 10
85.85849042021646
 20
-5.947106596215488
 10
84.34294596359369
 20
-5.072106596215488
 10
82.82740150697093
 20
-5.947106596215487
 10
82.82740150697093
 20
-7.697106596215487
 10
84.34294596359369
 20
-8.572106596215487
 10
85.85849042021646
 20
-7.697106596215487
  0
LWPOLYLINE
  5
42
330
17
100
AcDbEntity
  8
0
100
AcDbPolyline
 90
9
 70
1
 10
87.321956265414
 20
-5.58394911111168
 10
87.19597246578748
 20
-6.027939600750315
 10
87.03925471504238
 20
-6.436624210492058
 10
86.85485100833097
 20
-6.811526935152598
 10
86.64530134161346
 20
-7.154171769547633
 10
86.41339971044609
 20
-7.465828709356904
 10
86.35849042021647
 20
-7.527511329121785
 10
86.35849042021647
 20
-5.947106596215487
 10
87.36385303744231
 20
-5.36666021852696
  0
LWPOLYLINE
  5
43
330
17
100
AcDbEntity
  8
0
100
AcDbPolyline
 90
5
 70
1
 10
49.78345537255484
 20
-2.5996113114651647
 10
50.797601287761104
 20
-2.0140938943232687
 10
52.313145744383874
 20
-2.8890938943232687
 10
52.313145744383874
 20
-4.639093894323268
 10
50.9093363982995
 20
-5.449583598175992
  0
LWPOLYLINE
  5
44
330
17
100
AcDbEntity
  8
0
100
AcDbPolyline
 90
6
 70
1
 10
55.844234657629414
 20
-2.8890938943232687
 10
54.328690201006644
 20
-2.0140938943232687
 10
52.813145744383874
 20
-2.8890938943232682
 10
52.813145744383874
 20
-4.639093894323269
 10
54.328690201006644
 20
-5.514093894323269
 10
55.844234657629414
 20
-4.639093894323268
  0
LWPOLYLINE
  5
45
330
17
100
AcDbEntity
  8
0
100
AcDbPolyline
 90
6
 70
1
 10
59.375323570874954
 20
-2.8890938943232687
 10
57.859779114252184
 20
-2.0140938943232687
 10
56.344234657629414
 20
-2.8890938943232682
 10
56.344234657629414
 20
-4.639093894323269
 10
57.859779114252184
 20
-5.514093894323269
 10
59.375323570874954
 20
-4.639093894323268
  0
LWPOLYLINE
  5
46
330
17
100
AcDbEntity
  8
0
100
AcDbPolyline
 90
6
 70
1
 10
62.90641248412048
 20
-2.8890938943232687
 10
61.39086802749771
 20
-2.0140938943232687
 10
59.87532357087494
 20
-2.8890938943232682
 10
59.87532357087494
 20
-4.639093894323269
 10
61.39086802749771
 20
-5.514093894323269
 10
62.90641248412048
 20
-4.639093894323268
  0
LWPOLYLINE
  5
47
330
17
100
AcDbEntity
  8
0
100
AcDbPolyline
 90
6
 70
1
 10
66.437501397366
 20
-2.8890938943232687
 10
64.92195694074324
 20
-2.0140938943232687
 10
63.40641248412047
 20
-2.8890938943232682
 10
63.40641248412047
 20
-4.639093894323269
 10
64.92195694074324
 20
-5.514093894323269
 10
66.437501397366
 20
-4.639093894323268
  0
LWPOLYLINE
  5
48
330
17
100
AcDbEntity
  8
0
100
AcDbPolyline
 90
6
 70
1
 10
69.96859031061155
 20
-2.8890938943232687
 10
68.45304585398878
 20
-2.0140938943232687
 10
66.93750139736602
 20
-2.8890938943232682
 10
66.93750139736602
 20
-4.639093894323269
 10
68.45304585398878
 20
-5.514093894323269
 10
69.96859031061155
 20
-4.639093894323268
  0
LWPOLYLINE
  5
49
330
17
100
AcDbEntity
  8
0
100
AcDbPolyline
 90
6
 70
1
 10
73.49967922385707
 20
-2.8890938943232687
 10
71.98413476723431
 20
-2.0140938943232687
 10
70.46859031061155
 20
-2.8890938943232682
 10
70.46859031061155
 20
-4.639093894323269
 10
71.98413476723431
 20
-5.514093894323269
 10
73.49967922385707
 20
-4.639093894323268
  0
LWPOLYLINE
  5
4A
330
17
100
AcDbEntity
  8
0
100
AcDbPolyline
 90
6
 70
1
 10
77.03076813710261
 20
-2.8890938943232687
 10
75.51522368047985
 20
-2.0140938943232687
 10
73.99967922385709
 20
-2.8890938943232682
 10
73.99967922385709
 20
-4.639093894323269
 10
75.51522368047985
 20
-5.514093894323269
 10
77.03076813710261
 20
-4.639093894323268
  0
LWPOLYLINE
  5
4B
330
17
100
AcDbEntity
  8
0
100
AcDbPolyline
 90
6
 70
1
 10
80.56185705034815
 20
-2.8890938943232687
 10
79.04631259372539
 20
-2.0140938943232687
 10
77.53076813710263
 20
-2.8890938943232682
 10
77.53076813710263
 20
-4.639093894323269
 10
79.04631259372539
 20
-5.514093894323269
 10
80.56185705034815
 20
-4.639093894323268
  0
LWPOLYLINE
  5
4C
330
17
100
AcDbEntity
  8
0
100
AcDbPolyline
 90
6
 70
1
 10
84.09294596359368
 20
-2.8890938943232687
 10
82.57740150697092
 20
-2.0140938943232687
 10
81.06185705034815
 20
-2.8890938943232682
 10
81.06185705034815
 20
-4.639093894323269
 10
82.57740150697092
 20
-5.514093894323269
 10
84.09294596359368
 20
-4.639093894323268
  0
LWPOLYLINE
  5
4D
330
17
100
AcDbEntity
  8
0
100
AcDbPolyline
 90
9
 70
1
 10
87.47130802787449
 20
-4.583954512880954
 10
87.45462113327962
 20
-4.736904964771822
 10
86.10849042021646
 20
-5.514093894323269
 10
84.59294596359369
 20
-4.639093894323269
 10
84.59294596359369
 20
-2.8890938943232682
 10
86.10849042021646
 20
-2.0140938943232687
 10
87.39123278148799
 20
-2.7546855419043292
 10
87.39688614624029
 20
-2.7838626364113503
 10
87.48883399999995
 20
-4.025156413793426
  0
LWPOLYLINE
  5
4E
330
17
100
AcDbEntity
  8
0
100
AcDbPolyline
 90
5
 70
1
 10
48.471852143013265
 20
0.7204844800786526
 10
49.032056831138334
 20
1.04391880756895
 10
50.547601287761104
 20
0.16891880756894995
 10
50.547601287761104
 20
-1.5810811924310495
 10
49.597733168757934
 20
-2.1294878066321745
  0
LWPOLYLINE
  5
4F
330
17
100
AcDbEntity
  8
0
100
AcDbPolyline
 90
6
 70
1
 10
54.078690201006644
 20
0.16891880756894995
 10
52.563145744383874
 20
1.04391880756895
 10
51.047601287761104
 20
0.1689188075689506
 10
51.047601287761104
 20
-1.5810811924310495
 10
52.563145744383874
 20
-2.45608119243105
 10
54.078690201006644
 20
-1.5810811924310495
  0
LWPOLYLINE
  5
50
330
17
100
AcDbEntity
  8
0
100
AcDbPolyline
 90
6
 70
1
 10
57.609779114252184
 20
0.16891880756894995
 10
56.094234657629414
 20
1.04391880756895
 10
54.578690201006644
 20
0.1689188075689506
 10
54.578690201006644
 20
-1.5810811924310495
 10
56.094234657629414
 20
-2.45608119243105
 10
57.609779114252184
 20
-1.5810811924310495
  0
LWPOLYLINE
  5
51
330
17
100
AcDbEntity
  8
0
100
AcDbPolyline
 90
6
 70
1
 10
61.14086802749771
 20
0.16891880756894995
 10
59.62532357087494
 20
1.04391880756895
 10
58.10977911425217
 20
0.1689188075689506
 10
58.10977911425217
 20
-1.5810811924310495
 10
59.62532357087494
 20
-2.45608119243105
 10
61.14086802749771
 20
-1.5810811924310495
  0
LWPOLYLINE
  5
52
330
17
100
AcDbEntity
  8
0
100
AcDbPolyline
 90
6
 70
1
 10
64.67195694074324
 20
0.16891880756894995
 10
63.15641248412048
 20
1.04391880756895
 10
61.64086802749771
 20
0.1689188075689506
 10
61.64086802749771
 20
-1.5810811924310495
 10
63.15641248412048
 20
-2.45608119243105
 10
64.67195694074324
 20
-1.5810811924310495
  0
LWPOLYLINE
  5
53
330
17
100
AcDbEntity
  8
0
100
AcDbPolyline
 90
6
 70
1
 10
68.20304585398878
 20
0.16891880756894995
 10
66.68750139736602
 20
1.04391880756895
 10
65.17195694074326
 20
0.1689188075689506
 10
65.17195694074326
 20
-1.5810811924310495
 10
66.68750139736602
 20
-2.45608119243105
 10
68.20304585398878
 20
-1.5810811924310495
  0
LWPOLYLINE
  5
54
330
17
100
AcDbEntity
  8
0
100
AcDbPolyline
 90
6
 70
1
 10
71.73413476723431
 20
0.16891880756894995
 10
70.21859031061155
 20
1.04391880756895
 10
68.70304585398878
 20
0.1689188075689506
 10
68.70304585398878
 20
-1.5810811924310495
 10
70.21859031061155
 20
-2.45608119243105
 10
71.73413476723431
 20
-1.5810811924310495
  0
LWPOLYLINE
  5
55
330
17
100
AcDbEntity
  8
0
100
AcDbPolyline
 90
6
 70
1
 10
75.26522368047985
 20
0.16891880756894995
 10
73.74967922385709
 20
1.04391880756895
 10
72.23413476723432
 20
0.1689188075689506
 10
72.23413476723432
 20
-1.5810811924310495
 10
73.74967922385709
 20
-2.45608119243105
 10
75.26522368047985
 20
-1.5810811924310495
  0
LWPOLYLINE
  5
56
330
17
100
AcDbEntity
  8
0
100
AcDbPolyline
 90
6
 70
1
 10
78.79631259372539
 20
0.16891880756894995
 10
77.28076813710263
 20
1.04391880756895
 10
75.76522368047986
 20
0.1689188075689506
 10
75.76522368047986
 20
-1.5810811924310495
 10
77.28076813710263
 20
-2.45608119243105
 10
78.79631259372539
 20
-1.5810811924310495
  0
LWPOLYLINE
  5
57
330
17
100
AcDbEntity
  8
0
100
AcDbPolyline
 90
6
 70
1
 10
82.32740150697092
 20
0.16891880756894995
 10
80.81185705034815
 20
1.04391880756895
 10
79.29631259372539
 20
0.1689188075689506
 10
79.29631259372539
 20
-1.5810811924310495
 10
80.81185705034815
 20
-2.45608119243105
 10
82.32740150697092
 20
-1.5810811924310495
  0
LWPOLYLINE
  5
58
330
17
100
AcDbEntity
  8
0
100
AcDbPolyline
 90
6
 70
1
 10
85.85849042021646
 20
0.16891880756894995
 10
84.34294596359369
 20
1.04391880756895
 10
82.82740150697093
 20
0.1689188075689506
 10
82.82740150697093
 20
-1.5810811924310495
 10
84.34294596359369
 20
-2.45608119243105
 10
85.85849042021646
 20
-1.5810811924310495
  0
LWPOLYLINE
  5
59
330
17
100
AcDbEntity
  8
0
100
AcDbPolyline
 90
5
 70
1
 10
87.05932068312808
 20
-1.0416825629380089
 10
87.26527452933007
 20
-2.1046132419246657
 10
86.35849042021647
 20
-1.5810811924310495
 10
86.35849042021647
 20
0.1689188075689506
 10
86.65483264269554
 20
0.34001206948949275
  0
LWPOLYLINE
  5
5A
330
17
100
AcDbEntity
  8
0
100
AcDbPolyline
 90
5
 70
1
 10
47.1602489134717
 20
4.0405802716224635
 10
47.26651237451558
 20
4.101931509461169
 10
48.78205683113835
 20
3.226931509461169
 10
48.78205683113835
 20
1.4769315094611692
 10
48.28612993921636
 20
1.1906079849116364
  0
LWPOLYLINE
  5
5B
330
17
100
AcDbEntity
  8
0
100
AcDbPolyline
 90
6
 70
1
 10
52.313145744383874
 20
3.226931509461169
 10
50.797601287761104
 20
4.101931509461169
 10
49.282056831138334
 20
3.2269315094611692
 10
49.282056831138334
 20
1.4769315094611692
 10
50.797601287761104
 20
0.6019315094611688
 10
52.313145744383874
 20
1.4769315094611692
  0
LWPOLYLINE
  5
5C
330
17
100
AcDbEntity
  8
0
100
AcDbPolyline
 90
6
 70
1
 10
55.844234657629414
 20
3.226931509461169
 10
54.328690201006644
 20
4.101931509461169
 10
52.813145744383874
 20
3.2269315094611692
 10
52.813145744383874
 20
1.4769315094611692
 10
54.328690201006644
 20
0.6019315094611688
 10
55.844234657629414
 20
1.4769315094611692
  0
LWPOLYLINE
  5
5D
330
17
100
AcDbEntity
  8
0
100
AcDbPolyline
 90
6
 70
1
 10
59.375323570874954
 20
3.226931509461169
 10
57.859779114252184
 20
4.101931509461169
 10
56.344234657629414
 20
3.2269315094611692
 10
56.344234657629414
 20
1.4769315094611692
 10
57.859779114252184
 20
0.6019315094611688
 10
59.375323570874954
 20
1.4769315094611692
  0
LWPOLYLINE
  5
5E
330
17
100
AcDbEntity
  8
0
100
AcDbPolyline
 90
6
 70
1
 10
62.90641248412048
 20
3.226931509461169
 10
61.39086802749771
 20
4.101931509461169
 10
59.87532357087494
 20
3.2269315094611692
 10
59.87532357087494
 20
1.4769315094611692
 10
61.39086802749771
 20
0.6019315094611688
 10
62.90641248412048
 20
1.4769315094611692
  0
LWPOLYLINE
  5
5F
330
17
100
AcDbEntity
  8
0
100
AcDbPolyline
 90
6
 70
1
 10
66.437501397366
 20
3.226931509461169
 10
64.92195694074324
 20
4.101931509461169
 10
63.40641248412047
 20
3.2269315094611692
 10
63.40641248412047
 20
1.4769315094611692
 10
64.92195694074324
 20
0.6019315094611688
 10
66.437501397366
 20
1.4769315094611692
  0
LWPOLYLINE
  5
60
330
17
100
AcDbEntity
  8
0
100
AcDbPolyline
 90
6
 70
1
 10
69.96859031061155
 20
3.226931509461169
 10
68.45304585398878
 20
4.101931509461169
 10
66.93750139736602
 20
3.2269315094611692
 10
66.93750139736602
 20
1.4769315094611692
 10
68.45304585398878
 20
0.6019315094611688
 10
69.96859031061155
 20
1.4769315094611692
  0
LWPOLYLINE
  5
61
330
17
100
AcDbEntity
  8
0
100
AcDbPolyline
 90
6
 70
1
 10
73.49967922385707
 20
3.226931509461169
 10
71.98413476723431
 20
4.101931509461169
 10
70.46859031061155
 20
3.2269315094611692
 10
70.46859031061155
 20
1.4769315094611692
 10
71.98413476723431
 20
0.6019315094611688
 10
73.49967922385707
 20
1.4769315094611692
  0
LWPOLYLINE
  5
62
330
17
100
AcDbEntity
  8
0
100
AcDbPolyline
 90
6
 70
1
 10
77.03076813710261
 20
3.226931509461169
 10
75.51522368047985
 20
4.101931509461169
 10
73.99967922385709
 20
3.2269315094611692
 10
73.99967922385709
 20
1.4769315094611692
 10
75.51522368047985
 20
0.6019315094611688
 10
77.03076813710261
 20
1.4769315094611692
  0
LWPOLYLINE
  5
63
330
17
100
AcDbEntity
  8
0
100
AcDbPolyline
 90
6
 70
1
 10
80.56185705034815
 20
3.226931509461169
 10
79.04631259372539
 20
4.101931509461169
 10
77.53076813710263
 20
3.2269315094611692
 10
77.53076813710263
 20
1.4769315094611692
 10
79.04631259372539
 20
0.6019315094611688
 10
80.56185705034815
 20
1.4769315094611692
  0
LWPOLYLINE
  5
64
330
17
100
AcDbEntity
  8
0
100
AcDbPolyline
 90
6
 70
1
 10
84.09294596359368
 20
3.226931509461169
 10
82.57740150697092
 20
4.101931509461169
 10
81.06185705034815
 20
3.2269315094611692
 10
81.06185705034815
 20
1.4769315094611692
 10
82.57740150697092
 20
0.6019315094611688
 10
84.09294596359368
 20
1.4769315094611692
  0
LWPOLYLINE
  5
65
330
17
100
AcDbEntity
  8
0
100
AcDbPolyline
 90
5
 70
1
 10
86.49744526197762
 20
0.826494692054582
 10
86.10849042021646
 20
0.6019315094611688
 10
84.59294596359369
 20
1.4769315094611692
 10
84.59294596359369
 20
3.2269315094611692
 10
85.35101016176483
 20
3.6646000783382986
  0
LWPOLYLINE
  5
66
330
17
100
AcDbEntity
  8
0
100
AcDbPolyline
 90
4
 70
1
 10
46.05410557228288
 20
6.840590037692366
 10
47.01651237451558
 20
6.284944211353389
 10
47.01651237451558
 20
4.53494421135339
 10
46.97452670967479
 20
4.510703776455456
  0
LWPOLYLINE
  5
67
330
17
100
AcDbEntity
  8
0
100
AcDbPolyline
 90
6
 70
1
 10
50.547601287761104
 20
6.284944211353389
 10
49.032056831138334
 20
7.159944211353389
 10
47.516512374515564
 20
6.28494421135339
 10
47.516512374515564
 20
4.534944211353389
 10
49.032056831138334
 20
3.6599442113533893
 10
50.547601287761104
 20
4.53494421135339
  0
LWPOLYLINE
  5
68
330
17
100
AcDbEntity
  8
0
100
AcDbPolyline
 90
6
 70
1
 10
54.078690201006644
 20
6.284944211353389
 10
52.563145744383874
 20
7.159944211353389
 10
51.047601287761104
 20
6.28494421135339
 10
51.047601287761104
 20
4.534944211353389
 10
52.563145744383874
 20
3.6599442113533893
 10
54.078690201006644
 20
4.53494421135339
  0
LWPOLYLINE
  5
69
330
17
100
AcDbEntity
  8
0
100
AcDbPolyline
 90
6
 70
1
 10
57.609779114252184
 20
6.284944211353389
 10
56.094234657629414
 20
7.159944211353389
 10
54.578690201006644
 20
6.28494421135339
 10
54.578690201006644
 20
4.534944211353389
 10
56.094234657629414
 20
3.6599442113533893
 10
57.609779114252184
 20
4.53494421135339
  0
LWPOLYLINE
  5
6A
330
17
100
AcDbEntity
  8
0
100
AcDbPolyline
 90
6
 70
1
 10
61.14086802749771
 20
6.284944211353389
 10
59.62532357087494
 20
7.159944211353389
 10
58.10977911425217
 20
6.28494421135339
 10
58.10977911425217
 20
4.534944211353389
 10
59.62532357087494
 20
3.6599442113533893
 10
61.14086802749771
 20
4.53494421135339
  0
LWPOLYLINE
  5
6B
330
17
100
AcDbEntity
  8
0
100
AcDbPolyline
 90
6
 70
1
 10
64.67195694074324
 20
6.284944211353389
 10
63.15641248412048
 20
7.159944211353389
 10
61.64086802749771
 20
6.28494421135339
 10
61.64086802749771
 20
4.534944211353389
 10
63.15641248412048
 20
3.6599442113533893
 10
64.67195694074324
 20
4.53494421135339
  0
LWPOLYLINE
  5
6C
330
17
100
AcDbEntity
  8
0
100
AcDbPolyline
 90
6
 70
1
 10
68.20304585398878
 20
6.284944211353389
 10
66.68750139736602
 20
7.159944211353389
 10
65.17195694074326
 20
6.28494421135339
 10
65.17195694074326
 20
4.534944211353389
 10
66.68750139736602
 20
3.6599442113533893
 10
68.20304585398878
 20
4.53494421135339
  0
LWPOLYLINE
  5
6D
330
17
100
AcDbEntity
  8
0
100
AcDbPolyline
 90
6
 70
1
 10
71.73413476723431
 20
6.284944211353389
 10
70.21859031061155
 20
7.159944211353389
 10
68.70304585398878
 20
6.28494421135339
 10
68.70304585398878
 20
4.534944211353389
 10
70.21859031061155
 20
3.6599442113533893
 10
71.73413476723431
 20
4.53494421135339
  0
LWPOLYLINE
  5
6E
330
17
100
AcDbEntity
  8
0
100
AcDbPolyline
 90
6
 70
1
 10
75.26522368047985
 20
6.284944211353389
 10
73.74967922385709
 20
7.159944211353389
 10
72.23413476723432
 20
6.28494421135339
 10
72.23413476723432
 20
4.534944211353389
 10
73.74967922385709
 20
3.6599442113533893
 10
75.26522368047985
 20
4.53494421135339
  0
LWPOLYLINE
  5
6F
330
17
100
AcDbEntity
  8
0
100
AcDbPolyline
 90
6
 70
1
 10
78.79631259372539
 20
6.284944211353389
 10
77.28076813710263
 20
7.159944211353389
 10
75.76522368047986
 20
6.28494421135339
 10
75.76522368047986
 20
4.534944211353389
 10
77.28076813710263
 20
3.6599442113533893
 10
78.79631259372539
 20
4.53494421135339
  0
LWPOLYLINE
  5
70
330
17
100
AcDbEntity
  8
0
100
AcDbPolyline
 90
6
 70
1
 10
82.32740150697092
 20
6.284944211353389
 10
80.81185705034815
 20
7.159944211353389
 10
79.29631259372539
 20
6.28494421135339
 10
79.29631259372539
 20
4.534944211353389
 10
80.81185705034815
 20
3.6599442113533893
 10
82.32740150697092
 20
4.53494421135339
  0
LWPOLYLINE
  5
71
330
17
100
AcDbEntity
  8
0
100
AcDbPolyline
 90
5
 70
1
 10
85.1609307794473
 20
4.132207964979497
 10
84.34294596359369
 20
3.6599442113533893
 10
82.82740150697093
 20
4.534944211353389
 10
82.82740150697093
 20
6.28494421135339
 10
83.81780941068608
 20
6.856756481170868
  0
LWPOLYLINE
  5
72
330
17
100
AcDbEntity
  8
0
100
AcDbPolyline
 90
7
 70
1
 10
45.171231304884344
 20
8.36161944902542
 10
45.05108949596632
 20
8.443915169072854
 10
43.33379822726684
 20
9.363138042071837
 10
42.83426369890795
 20
9.697672081862997
 10
43.73542346127004
 20
10.217956913245606
 10
45.25096791789281
 20
9.342956913245606
 10
45.25096791789281
 20
8.296495319709562
  0
LWPOLYLINE
  5
73
330
17
100
AcDbEntity
  8
0
100
AcDbPolyline
 90
7
 70
1
 10
45.75096791789281
 20
7.607930364347935
 10
45.75096791789281
 20
9.342956913245606
 10
47.26651237451558
 20
10.217956913245606
 10
48.78205683113835
 20
9.342956913245606
 10
48.78205683113835
 20
7.592956913245607
 10
47.26651237451558
 20
6.717956913245606
 10
45.758630985721744
 20
7.588532638971753
  0
LWPOLYLINE
  5
74
330
17
100
AcDbEntity
  8
0
100
AcDbPolyline
 90
6
 70
1
 10
52.313145744383874
 20
9.342956913245606
 10
50.797601287761104
 20
10.217956913245606
 10
49.282056831138334
 20
9.342956913245606
 10
49.282056831138334
 20
7.592956913245606
 10
50.797601287761104
 20
6.717956913245606
 10
52.313145744383874
 20
7.592956913245607
  0
LWPOLYLINE
  5
75
330
17
100
AcDbEntity
  8
0
100
AcDbPolyline
 90
6
 70
1
 10
55.844234657629414
 20
9.342956913245606
 10
54.328690201006644
 20
10.217956913245606
 10
52.813145744383874
 20
9.342956913245606
 10
52.813145744383874
 20
7.592956913245606
 10
54.328690201006644
 20
6.717956913245606
 10
55.844234657629414
 20
7.592956913245607
  0
LWPOLYLINE
  5
76
330
17
100
AcDbEntity
  8
0
100
AcDbPolyline
 90
6
 70
1
 10
59.375323570874954
 20
9.342956913245606
 10
57.859779114252184
 20
10.217956913245606
 10
56.344234657629414
 20
9.342956913245606
 10
56.344234657629414
 20
7.592956913245606
 10
57.859779114252184
 20
6.717956913245606
 10
59.375323570874954
 20
7.592956913245607
  0
LWPOLYLINE
  5
77
330
17
100
AcDbEntity
  8
0
100
AcDbPolyline
 90
6
 70
1
 10
62.90641248412048
 20
9.342956913245606
 10
61.39086802749771
 20
10.217956913245606
 10
59.87532357087494
 20
9.342956913245606
 10
59.87532357087494
 20
7.592956913245606
 10
61.39086802749771
 20
6.717956913245606
 10
62.90641248412048
 20
7.592956913245607
  0
LWPOLYLINE
  5
78
330
17
100
AcDbEntity
  8
0
100
AcDbPolyline
 90
6
 70
1
 10
66.437501397366
 20
9.342956913245606
 10
64.92195694074324
 20
10.217956913245606
 10
63.40641248412047
 20
9.342956913245606
 10
63.40641248412047
 20
7.592956913245606
 10
64.92195694074324
 20
6.717956913245606
 10
66.437501397366
 20
7.592956913245607
  0
LWPOLYLINE
  5
79
330
17
100
AcDbEntity
  8
0
100
AcDbPolyline
 90
6
 70
1
 10
69.96859031061155
 20
9.342956913245606
 10
68.45304585398878
 20
10.217956913245606
 10
66.93750139736602
 20
9.342956913245606
 10
66.93750139736602
 20
7.592956913245606
 10
68.45304585398878
 20
6.717956913245606
 10
69.96859031061155
 20
7.592956913245607
  0
LWPOLYLINE
  5
7A
330
17
100
AcDbEntity
  8
0
100
AcDbPolyline
 90
6
 70
1
 10
73.49967922385707
 20
9.342956913245606
 10
71.98413476723431
 20
10.217956913245606
 10
70.46859031061155
 20
9.342956913245606
 10
70.46859031061155
 20
7.592956913245606
 10
71.98413476723431
 20
6.717956913245606
 10
73.49967922385707
 20
7.592956913245607
  0
LWPOLYLINE
  5
7B
330
17
100
AcDbEntity
  8
0
100
AcDbPolyline
 90
6
 70
1
 10
77.03076813710261
 20
9.342956913245606
 10
75.51522368047985
 20
10.217956913245606
 10
73.99967922385709
 20
9.342956913245606
 10
73.99967922385709
 20
7.592956913245606
 10
75.51522368047985
 20
6.717956913245606
 10
77.03076813710261
 20
7.592956913245607
  0
LWPOLYLINE
  5
7C
330
17
100
AcDbEntity
  8
0
100
AcDbPolyline
 90
6
 70
1
 10
80.56185705034815
 20
9.342956913245606
 10
79.04631259372539
 20
10.217956913245606
 10
77.53076813710263
 20
9.342956913245606
 10
77.53076813710263
 20
7.592956913245606
 10
79.04631259372539
 20
6.717956913245606
 10
80.56185705034815
 20
7.592956913245607
  0
LWPOLYLINE
  5
7D
330
17
100
AcDbEntity
  8
0
100
AcDbPolyline
 90
5
 70
1
 10
83.59625184388362
 20
7.306190429526097
 10
82.57740150697092
 20
6.717956913245606
 10
81.06185705034815
 20
7.592956913245606
 10
81.06185705034815
 20
9.342956913245606
 10
82.2531304751224
 20
10.030738945717468
  0
LWPOLYLINE
  5
7E
330
17
100
AcDbEntity
  8
0
100
AcDbPolyline
 90
18
 70
1
 10
42.329483824598924
 20
10.100497533731426
 10
42.22229599507797
 20
10.225719107754221
 10
42.11993415788142
 20
10.381420578090884
 10
42.07040423665728
 20
10.475654257527916
 10
42.029002302505816
 20
10.570395935236844
 10
41.995220356234995
 20
10.665899610353625
 10
41.96880439824878
 20
10.761911283742299
 10
41.94950042895118
 20
10.858430955402872
 10
41.930450459249585
 20
11.05324829267566
 10
41.93553045117001
 20
11.249843623900093
 10
41.96220040875224
 20
11.447962949940218
 10
42.00766633644004
 20
11.647098272524131
 10
42.0696422378692
 20
11.846995592515897
 10
42.23194797972678
 20
12.248060228179176
 10
42.574320736133366
 20
12.926995018754885
 10
43.48542346127004
 20
12.400969615137827
 10
43.48542346127004
 20
10.650969615137827
 10
42.40842273742843
 20
10.029162957310454
  0
LWPOLYLINE
  5
7F
330
17
100
AcDbEntity
  8
0
100
AcDbPolyline
 90
6
 70
1
 10
47.01651237451558
 20
12.400969615137827
 10
45.50096791789281
 20
13.275969615137827
 10
43.98542346127004
 20
12.400969615137827
 10
43.98542346127004
 20
10.650969615137827
 10
45.50096791789281
 20
9.775969615137827
 10
47.01651237451558
 20
10.650969615137827
  0
LWPOLYLINE
  5
80
330
17
100
AcDbEntity
  8
0
100
AcDbPolyline
 90
6
 70
1
 10
50.547601287761104
 20
12.400969615137827
 10
49.032056831138334
 20
13.275969615137827
 10
47.516512374515564
 20
12.400969615137827
 10
47.516512374515564
 20
10.650969615137827
 10
49.032056831138334
 20
9.775969615137827
 10
50.547601287761104
 20
10.650969615137827
  0
LWPOLYLINE
  5
81
330
17
100
AcDbEntity
  8
0
100
AcDbPolyline
 90
6
 70
1
 10
54.078690201006644
 20
12.400969615137827
 10
52.563145744383874
 20
13.275969615137827
 10
51.047601287761104
 20
12.400969615137827
 10
51.047601287761104
 20
10.650969615137827
 10
52.563145744383874
 20
9.775969615137827
 10
54.078690201006644
 20
10.650969615137827
  0
LWPOLYLINE
  5
82
330
17
100
AcDbEntity
  8
0
100
AcDbPolyline
 90
6
 70
1
 10
57.609779114252184
 20
12.400969615137827
 10
56.094234657629414
 20
13.275969615137827
 10
54.578690201006644
 20
12.400969615137827
 10
54.578690201006644
 20
10.650969615137827
 10
56.094234657629414
 20
9.775969615137827
 10
57.609779114252184
 20
10.650969615137827
  0
LWPOLYLINE
  5
83
330
17
100
AcDbEntity
  8
0
100
AcDbPolyline
 90
6
 70
1
 10
61.14086802749771
 20
12.400969615137827
 10
59.62532357087494
 20
13.275969615137827
 10
58.10977911425217
 20
12.400969615137827
 10
58.10977911425217
 20
10.650969615137827
 10
59.62532357087494
 20
9.775969615137827
 10
61.14086802749771
 20
10.650969615137827
  0
LWPOLYLINE
  5
84
330
17
100
AcDbEntity
  8
0
100
AcDbPolyline
 90
6
 70
1
 10
64.67195694074324
 20
12.400969615137827
 10
63.15641248412048
 20
13.275969615137827
 10
61.64086802749771
 20
12.400969615137827
 10
61.64086802749771
 20
10.650969615137827
 10
63.15641248412048
 20
9.775969615137827
 10
64.67195694074324
 20
10.650969615137827
  0
LWPOLYLINE
  5
85
330
17
100
AcDbEntity
  8
0
100
AcDbPolyline
 90
6
 70
1
 10
68.20304585398878
 20
12.400969615137827
 10
66.68750139736602
 20
13.275969615137827
 10
65.17195694074326
 20
12.400969615137827
 10
65.17195694074326
 20
10.650969615137827
 10
66.68750139736602
 20
9.775969615137827
 10
68.20304585398878
 20
10.650969615137827
  0
LWPOLYLINE
  5
86
330
17
100
AcDbEntity
  8
0
100
AcDbPolyline
 90
6
 70
1
 10
71.73413476723431
 20
12.400969615137827
 10
70.21859031061155
 20
13.275969615137827
 10
68.70304585398878
 20
12.400969615137827
 10
68.70304585398878
 20
10.650969615137827
 10
70.21859031061155
 20
9.775969615137827
 10
71.73413476723431
 20
10.650969615137827
  0
LWPOLYLINE
  5
87
330
17
100
AcDbEntity
  8
0
100
AcDbPolyline
 90
6
 70
1
 10
75.26522368047985
 20
12.400969615137827
 10
73.74967922385709
 20
13.275969615137827
 10
72.23413476723432
 20
12.400969615137827
 10
72.23413476723432
 20
10.650969615137827
 10
73.74967922385709
 20
9.775969615137827
 10
75.26522368047985
 20
10.650969615137827
  0
LWPOLYLINE
  5
88
330
17
100
AcDbEntity
  8
0
100
AcDbPolyline
 90
6
 70
1
 10
78.79631259372539
 20
12.400969615137827
 10
77.28076813710263
 20
13.275969615137827
 10
75.76522368047986
 20
12.400969615137827
 10
75.76522368047986
 20
10.650969615137827
 10
77.28076813710263
 20
9.775969615137827
 10
78.79631259372539
 20
10.650969615137827
  0
LWPOLYLINE
  5
89
330
17
100
AcDbEntity
  8
0
100
AcDbPolyline
 90
5
 70
1
 10
82.03157290831993
 20
10.480172894072695
 10
80.81185705034815
 20
9.775969615137827
 10
79.29631259372539
 20
10.650969615137827
 10
79.29631259372539
 20
12.400969615137827
 10
80.68845153955873
 20
13.204721410264066
  0
LWPOLYLINE
  5
8A
330
17
100
AcDbEntity
  8
0
100
AcDbPolyline
 90
14
 70
1
 10
42.90555490837505
 20
13.583841684134319
 10
42.95762482555941
 20
13.734463171752
 10
42.99674076334668
 20
13.88787864986512
 10
43.02264872214084
 20
14.04358012020178
 10
43.0353487019419
 20
14.200551586218188
 10
43.03458670315385
 20
14.358031050506488
 10
43.02010872618065
 20
14.515256515658843
 10
42.99191477102228
 20
14.671211985131452
 10
42.62607082394601
 20
15.693497273244798
 10
43.73542346127004
 20
16.33398231703005
 10
45.25096791789281
 20
15.458982317030047
 10
45.25096791789281
 20
13.708982317030047
 10
43.73542346127004
 20
12.833982317030047
 10
42.79981485845678
 20
13.374156195720413
  0
LWPOLYLINE
  5
8B
330
17
100
AcDbEntity
  8
0
100
AcDbPolyline
 90
6
 70
1
 10
48.78205683113835
 20
15.458982317030047
 10
47.26651237451558
 20
16.33398231703005
 10
45.75096791789281
 20
15.458982317030047
 10
45.75096791789281
 20
13.708982317030047
 10
47.26651237451558
 20
12.833982317030047
 10
48.78205683113835
 20
13.708982317030047
  0
LWPOLYLINE
  5
8C
330
17
100
AcDbEntity
  8
0
100
AcDbPolyline
 90
6
 70
1
 10
52.313145744383874
 20
15.458982317030047
 10
50.797601287761104
 20
16.33398231703005
 10
49.282056831138334
 20
15.458982317030047
 10
49.282056831138334
 20
13.708982317030047
 10
50.797601287761104
 20
12.833982317030047
 10
52.313145744383874
 20
13.708982317030047
  0
LWPOLYLINE
  5
8D
330
17
100
AcDbEntity
  8
0
100
AcDbPolyline
 90
6
 70
1
 10
55.844234657629414
 20
15.458982317030047
 10
54.328690201006644
 20
16.33398231703005
 10
52.813145744383874
 20
15.458982317030047
 10
52.813145744383874
 20
13.708982317030047
 10
54.328690201006644
 20
12.833982317030047
 10
55.844234657629414
 20
13.708982317030047
  0
LWPOLYLINE
  5
8E
330
17
100
AcDbEntity
  8
0
100
AcDbPolyline
 90
6
 70
1
 10
59.375323570874954
 20
15.458982317030047
 10
57.859779114252184
 20
16.33398231703005
 10
56.344234657629414
 20
15.458982317030047
 10
56.344234657629414
 20
13.708982317030047
 10
57.859779114252184
 20
12.833982317030047
 10
59.375323570874954
 20
13.708982317030047
  0
LWPOLYLINE
  5
8F
330
17
100
AcDbEntity
  8
0
100
AcDbPolyline
 90
6
 70
1
 10
62.90641248412048
 20
15.458982317030047
 10
61.39086802749771
 20
16.33398231703005
 10
59.87532357087494
 20
15.458982317030047
 10
59.87532357087494
 20
13.708982317030047
 10
61.39086802749771
 20
12.833982317030047
 10
62.90641248412048
 20
13.708982317030047
  0
LWPOLYLINE
  5
90
330
17
100
AcDbEntity
  8
0
100
AcDbPolyline
 90
6
 70
1
 10
66.437501397366
 20
15.458982317030047
 10
64.92195694074324
 20
16.33398231703005
 10
63.40641248412047
 20
15.458982317030047
 10
63.40641248412047
 20
13.708982317030047
 10
64.92195694074324
 20
12.833982317030047
 10
66.437501397366
 20
13.708982317030047
  0
LWPOLYLINE
  5
91
330
17
100
AcDbEntity
  8
0
100
AcDbPolyline
 90
6
 70
1
 10
69.96859031061155
 20
15.458982317030047
 10
68.45304585398878
 20
16.33398231703005
 10
66.93750139736602
 20
15.458982317030047
 10
66.93750139736602
 20
13.708982317030047
 10
68.45304585398878
 20
12.833982317030047
 10
69.96859031061155
 20
13.708982317030047
  0
LWPOLYLINE
  5
92
330
17
100
AcDbEntity
  8
0
100
AcDbPolyline
 90
6
 70
1
 10
73.49967922385707
 20
15.458982317030047
 10
71.98413476723431
 20
16.33398231703005
 10
70.46859031061155
 20
15.458982317030047
 10
70.46859031061155
 20
13.708982317030047
 10
71.98413476723431
 20
12.833982317030047
 10
73.49967922385707
 20
13.708982317030047
  0
LWPOLYLINE
  5
93
330
17
100
AcDbEntity
  8
0
100
AcDbPolyline
 90
6
 70
1
 10
77.03076813710261
 20
15.458982317030047
 10
75.51522368047985
 20
16.33398231703005
 10
73.99967922385709
 20
15.458982317030047
 10
73.99967922385709
 20
13.708982317030047
 10
75.51522368047985
 20
12.833982317030047
 10
77.03076813710261
 20
13.708982317030047
  0
LWPOLYLINE
  5
94
330
17
100
AcDbEntity
  8
0
100
AcDbPolyline
 90
6
 70
1
 10
80.46689397275625
 20
13.65415535861929
 10
79.04631259372539
 20
12.833982317030047
 10
77.53076813710263
 20
13.708982317030047
 10
77.53076813710263
 20
15.458982317030047
 10
79.04631259372539
 20
16.33398231703005
 10
79.18540779085488
 20
16.253675667524355
  0
LWPOLYLINE
  5
95
330
17
100
AcDbEntity
  8
0
100
AcDbPolyline
 90
5
 70
1
 10
41.416774189440844
 20
19.07265980497276
 10
41.96987900464727
 20
19.391995018922266
 10
43.48542346127004
 20
18.516995018922266
 10
43.48542346127004
 20
16.766995018922266
 10
42.45483517055182
 20
16.171984591852425
  0
LWPOLYLINE
  5
96
330
17
100
AcDbEntity
  8
0
100
AcDbPolyline
 90
6
 70
1
 10
47.01651237451558
 20
18.516995018922266
 10
45.50096791789281
 20
19.391995018922266
 10
43.98542346127004
 20
18.516995018922266
 10
43.98542346127004
 20
16.766995018922266
 10
45.50096791789281
 20
15.891995018922266
 10
47.01651237451558
 20
16.766995018922266
  0
LWPOLYLINE
  5
97
330
17
100
AcDbEntity
  8
0
100
AcDbPolyline
 90
6
 70
1
 10
50.547601287761104
 20
18.516995018922266
 10
49.032056831138334
 20
19.391995018922266
 10
47.516512374515564
 20
18.516995018922266
 10
47.516512374515564
 20
16.766995018922266
 10
49.032056831138334
 20
15.891995018922266
 10
50.547601287761104
 20
16.766995018922266
  0
LWPOLYLINE
  5
98
330
17
100
AcDbEntity
  8
0
100
AcDbPolyline
 90
6
 70
1
 10
54.078690201006644
 20
18.516995018922266
 10
52.563145744383874
 20
19.391995018922266
 10
51.047601287761104
 20
18.516995018922266
 10
51.047601287761104
 20
16.766995018922266
 10
52.563145744383874
 20
15.891995018922266
 10
54.078690201006644
 20
16.766995018922266
  0
LWPOLYLINE
  5
99
330
17
100
AcDbEntity
  8
0
100
AcDbPolyline
 90
6
 70
1
 10
57.609779114252184
 20
18.516995018922266
 10
56.094234657629414
 20
19.391995018922266
 10
54.578690201006644
 20
18.516995018922266
 10
54.578690201006644
 20
16.766995018922266
 10
56.094234657629414
 20
15.891995018922266
 10
57.609779114252184
 20
16.766995018922266
  0
LWPOLYLINE
  5
9A
330
17
100
AcDbEntity
  8
0
100
AcDbPolyline
 90
6
 70
1
 10
61.14086802749771
 20
18.516995018922266
 10
59.62532357087494
 20
19.391995018922266
 10
58.10977911425217
 20
18.516995018922266
 10
58.10977911425217
 20
16.766995018922266
 10
59.62532357087494
 20
15.891995018922266
 10
61.14086802749771
 20
16.766995018922266
  0
LWPOLYLINE
  5
9B
330
17
100
AcDbEntity
  8
0
100
AcDbPolyline
 90
6
 70
1
 10
64.67195694074324
 20
18.516995018922266
 10
63.15641248412048
 20
19.391995018922266
 10
61.64086802749771
 20
18.516995018922266
 10
61.64086802749771
 20
16.766995018922266
 10
63.15641248412048
 20
15.891995018922266
 10
64.67195694074324
 20
16.766995018922266
  0
LWPOLYLINE
  5
9C
330
17
100
AcDbEntity
  8
0
100
AcDbPolyline
 90
6
 70
1
 10
68.20304585398878
 20
18.516995018922266
 10
66.68750139736602
 20
19.391995018922266
 10
65.17195694074326
 20
18.516995018922266
 10
65.17195694074326
 20
16.766995018922266
 10
66.68750139736602
 20
15.891995018922266
 10
68.20304585398878
 20
16.766995018922266
  0
LWPOLYLINE
  5
9D
330
17
100
AcDbEntity
  8
0
100
AcDbPolyline
 90
6
 70
1
 10
71.73413476723431
 20
18.516995018922266
 10
70.21859031061155
 20
19.391995018922266
 10
68.70304585398878
 20
18.516995018922266
 10
68.70304585398878
 20
16.766995018922266
 10
70.21859031061155
 20
15.891995018922266
 10
71.73413476723431
 20
16.766995018922266
  0
LWPOLYLINE
  5
9E
330
17
100
AcDbEntity
  8
0
100
AcDbPolyline
 90
6
 70
1
 10
75.26522368047985
 20
18.516995018922266
 10
73.74967922385709
 20
19.391995018922266
 10
72.23413476723432
 20
18.516995018922266
 10
72.23413476723432
 20
16.766995018922266
 10
73.74967922385709
 20
15.891995018922266
 10
75.26522368047985
 20
16.766995018922266
  0
LWPOLYLINE
  5
9F
330
17
100
AcDbEntity
  8
0
100
AcDbPolyline
 90
7
 70
1
 10
78.79631259372539
 20
17.04296304441576
 10
78.79631259372539
 20
16.766995018922266
 10
77.28076813710263
 20
15.891995018922266
 10
75.76522368047986
 20
16.766995018922266
 10
75.76522368047986
 20
18.516995018922266
 10
77.28076813710263
 20
19.391995018922266
 10
77.78055821602943
 20
19.10344108231557
  0
LWPOLYLINE
  5
A0
330
17
100
AcDbEntity
  8
0
100
AcDbPolyline
 90
4
 70
1
 10
40.20911457807282
 20
22.44724796917935
 10
41.71987900464727
 20
21.575007720814483
 10
41.71987900464727
 20
19.825007720814483
 10
41.24553853604665
 20
19.551147123580385
  0
LWPOLYLINE
  5
A1
330
17
100
AcDbEntity
  8
0
100
AcDbPolyline
 90
6
 70
1
 10
45.25096791789281
 20
21.575007720814483
 10
43.73542346127004
 20
22.450007720814483
 10
42.21987900464727
 20
21.575007720814483
 10
42.21987900464727
 20
19.825007720814483
 10
43.73542346127004
 20
18.950007720814483
 10
45.25096791789281
 20
19.825007720814483
  0
LWPOLYLINE
  5
A2
330
17
100
AcDbEntity
  8
0
100
AcDbPolyline
 90
6
 70
1
 10
48.78205683113835
 20
21.575007720814483
 10
47.26651237451558
 20
22.450007720814483
 10
45.75096791789281
 20
21.575007720814483
 10
45.75096791789281
 20
19.825007720814483
 10
47.26651237451558
 20
18.950007720814483
 10
48.78205683113835
 20
19.825007720814483
  0
LWPOLYLINE
  5
A3
330
17
100
AcDbEntity
  8
0
100
AcDbPolyline
 90
6
 70
1
 10
52.313145744383874
 20
21.575007720814483
 10
50.797601287761104
 20
22.450007720814483
 10
49.282056831138334
 20
21.575007720814483
 10
49.282056831138334
 20
19.825007720814483
 10
50.797601287761104
 20
18.950007720814483
 10
52.313145744383874
 20
19.825007720814483
  0
LWPOLYLINE
  5
A4
330
17
100
AcDbEntity
  8
0
100
AcDbPolyline
 90
6
 70
1
 10
55.844234657629414
 20
21.575007720814483
 10
54.328690201006644
 20
22.450007720814483
 10
52.813145744383874
 20
21.575007720814483
 10
52.813145744383874
 20
19.825007720814483
 10
54.328690201006644
 20
18.950007720814483
 10
55.844234657629414
 20
19.825007720814483
  0
LWPOLYLINE
  5
A5
330
17
100
AcDbEntity
  8
0
100
AcDbPolyline
 90
6
 70
1
 10
59.375323570874954
 20
21.575007720814483
 10
57.859779114252184
 20
22.450007720814483
 10
56.344234657629414
 20
21.575007720814483
 10
56.344234657629414
 20
19.825007720814483
 10
57.859779114252184
 20
18.950007720814483
 10
59.375323570874954
 20
19.825007720814483
  0
LWPOLYLINE
  5
A6
330
17
100
AcDbEntity
  8
0
100
AcDbPolyline
 90
6
 70
1
 10
62.90641248412048
 20
21.575007720814483
 10
61.39086802749771
 20
22.450007720814483
 10
59.87532357087494
 20
21.575007720814483
 10
59.87532357087494
 20
19.825007720814483
 10
61.39086802749771
 20
18.950007720814483
 10
62.90641248412048
 20
19.825007720814483
  0
LWPOLYLINE
  5
A7
330
17
100
AcDbEntity
  8
0
100
AcDbPolyline
 90
6
 70
1
 10
66.437501397366
 20
21.575007720814483
 10
64.92195694074324
 20
22.450007720814483
 10
63.40641248412047
 20
21.575007720814483
 10
63.40641248412047
 20
19.825007720814483
 10
64.92195694074324
 20
18.950007720814483
 10
66.437501397366
 20
19.825007720814483
  0
LWPOLYLINE
  5
A8
330
17
100
AcDbEntity
  8
0
100
AcDbPolyline
 90
6
 70
1
 10
69.96859031061155
 20
21.575007720814483
 10
68.45304585398878
 20
22.450007720814483
 10
66.93750139736602
 20
21.575007720814483
 10
66.93750139736602
 20
19.825007720814483
 10
68.45304585398878
 20
18.950007720814483
 10
69.96859031061155
 20
19.825007720814483
  0
LWPOLYLINE
  5
A9
330
17
100
AcDbEntity
  8
0
100
AcDbPolyline
 90
6
 70
1
 10
73.49967922385707
 20
21.575007720814483
 10
71.98413476723431
 20
22.450007720814483
 10
70.46859031061155
 20
21.575007720814483
 10
70.46859031061155
 20
19.825007720814483
 10
71.98413476723431
 20
18.950007720814483
 10
73.49967922385707
 20
19.825007720814483
  0
LWPOLYLINE
  5
AA
330
17
100
AcDbEntity
  8
0
100
AcDbPolyline
 90
7
 70
1
 10
77.03076813710261
 20
20.62440522934513
 10
77.03076813710261
 20
19.825007720814483
 10
75.51522368047985
 20
18.950007720814483
 10
73.99967922385709
 20
19.825007720814483
 10
73.99967922385709
 20
21.575007720814483
 10
75.51522368047985
 20
22.450007720814483
 10
76.37570864120399
 20
21.953206497106773
  0
LWPOLYLINE
  5
AB
330
17
100
AcDbEntity
  8
0
100
AcDbPolyline
 90
12
 70
1
 10
39.724209968209266
 20
23.8022269233576
 10
39.65690007526365
 20
23.92059052070978
 10
39.58171619484136
 20
24.033366137071077
 10
39.49865832694243
 20
24.140299773305557
 10
39.40798047116286
 20
24.240629432005363
 10
39.31019062669469
 20
24.334101114034546
 10
39.20528879353792
 20
24.41995282198527
 10
39.09352897128859
 20
24.497930556721577
 10
37.81797262199092
 20
25.149591289624755
 10
38.43879009140173
 20
25.508020422706707
 10
39.9543345480245
 20
24.633020422706707
 10
39.9543345480245
 20
23.15918506286365
  0
LWPOLYLINE
  5
AC
330
17
100
AcDbEntity
  8
0
100
AcDbPolyline
 90
6
 70
1
 10
43.48542346127004
 20
24.633020422706707
 10
41.96987900464727
 20
25.508020422706707
 10
40.4543345480245
 20
24.633020422706707
 10
40.4543345480245
 20
22.883020422706707
 10
41.96987900464727
 20
22.008020422706707
 10
43.48542346127004
 20
22.883020422706707
  0
LWPOLYLINE
  5
AD
330
17
100
AcDbEntity
  8
0
100
AcDbPolyline
 90
6
 70
1
 10
47.01651237451558
 20
24.633020422706707
 10
45.50096791789281
 20
25.508020422706707
 10
43.98542346127004
 20
24.633020422706707
 10
43.98542346127004
 20
22.883020422706707
 10
45.50096791789281
 20
22.008020422706707
 10
47.01651237451558
 20
22.883020422706707
  0
LWPOLYLINE
  5
AE
330
17
100
AcDbEntity
  8
0
100
AcDbPolyline
 90
6
 70
1
 10
50.547601287761104
 20
24.633020422706707
 10
49.032056831138334
 20
25.508020422706707
 10
47.516512374515564
 20
24.633020422706707
 10
47.516512374515564
 20
22.883020422706707
 10
49.032056831138334
 20
22.008020422706707
 10
50.547601287761104
 20
22.883020422706707
  0
LWPOLYLINE
  5
AF
330
17
100
AcDbEntity
  8
0
100
AcDbPolyline
 90
6
 70
1
 10
54.078690201006644
 20
24.633020422706707
 10
52.563145744383874
 20
25.508020422706707
 10
51.047601287761104
 20
24.633020422706707
 10
51.047601287761104
 20
22.883020422706707
 10
52.563145744383874
 20
22.008020422706707
 10
54.078690201006644
 20
22.883020422706707
  0
LWPOLYLINE
  5
B0
330
17
100
AcDbEntity
  8
0
100
AcDbPolyline
 90
6
 70
1
 10
57.609779114252184
 20
24.633020422706707
 10
56.094234657629414
 20
25.508020422706707
 10
54.578690201006644
 20
24.633020422706707
 10
54.578690201006644
 20
22.883020422706707
 10
56.094234657629414
 20
22.008020422706707
 10
57.609779114252184
 20
22.883020422706707
  0
LWPOLYLINE
  5
B1
330
17
100
AcDbEntity
  8
0
100
AcDbPolyline
 90
6
 70
1
 10
61.14086802749771
 20
24.633020422706707
 10
59.62532357087494
 20
25.508020422706707
 10
58.10977911425217
 20
24.633020422706707
 10
58.10977911425217
 20
22.883020422706707
 10
59.62532357087494
 20
22.008020422706707
 10
61.14086802749771
 20
22.883020422706707
  0
LWPOLYLINE
  5
B2
330
17
100
AcDbEntity
  8
0
100
AcDbPolyline
 90
6
 70
1
 10
64.67195694074324
 20
24.633020422706707
 10
63.15641248412048
 20
25.508020422706707
 10
61.64086802749771
 20
24.633020422706707
 10
61.64086802749771
 20
22.883020422706707
 10
63.15641248412048
 20
22.008020422706707
 10
64.67195694074324
 20
22.883020422706707
  0
LWPOLYLINE
  5
B3
330
17
100
AcDbEntity
  8
0
100
AcDbPolyline
 90
6
 70
1
 10
68.20304585398878
 20
24.633020422706707
 10
66.68750139736602
 20
25.508020422706707
 10
65.17195694074326
 20
24.633020422706707
 10
65.17195694074326
 20
22.883020422706707
 10
66.68750139736602
 20
22.008020422706707
 10
68.20304585398878
 20
22.883020422706707
  0
LWPOLYLINE
  5
B4
330
17
100
AcDbEntity
  8
0
100
AcDbPolyline
 90
6
 70
1
 10
71.73413476723431
 20
24.633020422706707
 10
70.21859031061155
 20
25.508020422706707
 10
68.70304585398878
 20
24.633020422706707
 10
68.70304585398878
 20
22.883020422706707
 10
70.21859031061155
 20
22.008020422706707
 10
71.73413476723431
 20
22.883020422706707
  0
LWPOLYLINE
  5
B5
330
17
100
AcDbEntity
  8
0
100
AcDbPolyline
 90
7
 70
1
 10
75.26522368047985
 20
24.205847414274466
 10
75.26522368047985
 20
22.883020422706707
 10
73.74967922385709
 20
22.008020422706707
 10
72.23413476723432
 20
22.883020422706707
 10
72.23413476723432
 20
24.633020422706707
 10
73.74967922385709
 20
25.508020422706707
 10
74.97085906637854
 20
24.802971911898
  0
LWPOLYLINE
  5
B6
330
17
100
AcDbEntity
  8
0
100
AcDbPolyline
 90
3
 70
1
 10
75.97785698429563
 20
22.760256527509995
 10
75.76522368047986
 20
22.883020422706707
 10
75.76522368047986
 20
23.191587430195607
  0
LWPOLYLINE
  5
B7
330
17
100
AcDbEntity
  8
0
100
AcDbPolyline
 90
18
 70
1
 10
36.6675788296899
 20
25.81669407056814
 10
36.367605306788846
 20
26.063581230710447
 10
36.24670149908275
 20
26.189818801277035
 10
36.14865765501854
 20
26.31758036665932
 10
36.034865836001046
 20
26.506555723805278
 10
35.946219976989624
 20
26.693753086999607
 10
35.88195807919627
 20
26.87968045451418
 10
35.84106414423684
 20
27.06459182548496
 10
35.82252217372729
 20
27.24899519818384
 10
35.825316169283525
 20
27.43314457174678
 10
35.848684132117484
 20
27.61754794444567
 10
35.89135606424907
 20
27.802713314552392
 10
35.95256996689018
 20
27.989148680338864
 10
36.05319178306189
 20
28.208044866398
 10
36.67324563477897
 20
28.566033124598924
 10
38.18879009140174
 20
27.691033124598924
 10
38.18879009140174
 20
25.941033124598924
 10
37.29951956933246
 20
25.427612549299827
  0
LWPOLYLINE
  5
B8
330
17
100
AcDbEntity
  8
0
100
AcDbPolyline
 90
6
 70
1
 10
41.71987900464727
 20
27.691033124598924
 10
40.2043345480245
 20
28.566033124598924
 10
38.68879009140173
 20
27.691033124598924
 10
38.68879009140173
 20
25.941033124598924
 10
40.2043345480245
 20
25.066033124598924
 10
41.71987900464727
 20
25.941033124598924
  0
LWPOLYLINE
  5
B9
330
17
100
AcDbEntity
  8
0
100
AcDbPolyline
 90
6
 70
1
 10
45.25096791789281
 20
27.691033124598924
 10
43.73542346127004
 20
28.566033124598924
 10
42.21987900464727
 20
27.691033124598924
 10
42.21987900464727
 20
25.941033124598924
 10
43.73542346127004
 20
25.066033124598924
 10
45.25096791789281
 20
25.941033124598924
  0
LWPOLYLINE
  5
BA
330
17
100
AcDbEntity
  8
0
100
AcDbPolyline
 90
6
 70
1
 10
48.78205683113835
 20
27.691033124598924
 10
47.26651237451558
 20
28.566033124598924
 10
45.75096791789281
 20
27.691033124598924
 10
45.75096791789281
 20
25.941033124598924
 10
47.26651237451558
 20
25.066033124598924
 10
48.78205683113835
 20
25.941033124598924
  0
LWPOLYLINE
  5
BB
330
17
100
AcDbEntity
  8
0
100
AcDbPolyline
 90
6
 70
1
 10
52.313145744383874
 20
27.691033124598924
 10
50.797601287761104
 20
28.566033124598924
 10
49.282056831138334
 20
27.691033124598924
 10
49.282056831138334
 20
25.941033124598924
 10
50.797601287761104
 20
25.066033124598924
 10
52.313145744383874
 20
25.941033124598924
  0
LWPOLYLINE
  5
BC
330
17
100
AcDbEntity
  8
0
100
AcDbPolyline
 90
6
 70
1
 10
55.844234657629414
 20
27.691033124598924
 10
54.328690201006644
 20
28.566033124598924
 10
52.813145744383874
 20
27.691033124598924
 10
52.813145744383874
 20
25.941033124598924
 10
54.328690201006644
 20
25.066033124598924
 10
55.844234657629414
 20
25.941033124598924
  0
LWPOLYLINE
  5
BD
330
17
100
AcDbEntity
  8
0
100
AcDbPolyline
 90
6
 70
1
 10
59.375323570874954
 20
27.691033124598924
 10
57.859779114252184
 20
28.566033124598924
 10
56.344234657629414
 20
27.691033124598924
 10
56.344234657629414
 20
25.941033124598924
 10
57.859779114252184
 20
25.066033124598924
 10
59.375323570874954
 20
25.941033124598924
  0
LWPOLYLINE
  5
BE
330
17
100
AcDbEntity
  8
0
100
AcDbPolyline
 90
6
 70
1
 10
62.90641248412048
 20
27.691033124598924
 10
61.39086802749771
 20
28.566033124598924
 10
59.87532357087494
 20
27.691033124598924
 10
59.87532357087494
 20
25.941033124598924
 10
61.39086802749771
 20
25.066033124598924
 10
62.90641248412048
 20
25.941033124598924
  0
LWPOLYLINE
  5
BF
330
17
100
AcDbEntity
  8
0
100
AcDbPolyline
 90
6
 70
1
 10
66.437501397366
 20
27.691033124598924
 10
64.92195694074324
 20
28.566033124598924
 10
63.40641248412047
 20
27.691033124598924
 10
63.40641248412047
 20
25.941033124598924
 10
64.92195694074324
 20
25.066033124598924
 10
66.437501397366
 20
25.941033124598924
  0
LWPOLYLINE
  5
C0
330
17
100
AcDbEntity
  8
0
100
AcDbPolyline
 90
6
 70
1
 10
69.96859031061155
 20
27.691033124598924
 10
68.45304585398878
 20
28.566033124598924
 10
66.93750139736602
 20
27.691033124598924
 10
66.93750139736602
 20
25.941033124598924
 10
68.45304585398878
 20
25.066033124598924
 10
69.96859031061155
 20
25.941033124598924
  0
LWPOLYLINE
  5
C1
330
17
100
AcDbEntity
  8
0
100
AcDbPolyline
 90
6
 70
1
 10
73.49967922385707
 20
27.691033124598924
 10
71.98413476723431
 20
28.566033124598924
 10
70.46859031061155
 20
27.691033124598924
 10
70.46859031061155
 20
25.941033124598924
 10
71.98413476723431
 20
25.066033124598924
 10
73.49967922385707
 20
25.941033124598924
  0
LWPOLYLINE
  5
C2
330
17
100
AcDbEntity
  8
0
100
AcDbPolyline
 90
3
 70
1
 10
74.5730074094702
 20
25.6100219423012
 10
73.99967922385709
 20
25.941033124598924
 10
73.99967922385709
 20
26.773029615124976
  0
LWPOLYLINE
  5
C3
330
17
100
AcDbEntity
  8
0
100
AcDbPolyline
 90
15
 70
1
 10
36.93529440389628
 20
29.558863340502924
 10
36.96348835905464
 20
29.62972909943266
 10
37.004636293610076
 20
29.77730259741896
 10
37.02724225765597
 20
29.930972074668027
 10
37.03384624715251
 20
30.088451538956335
 10
37.026988258059944
 20
30.247200998924377
 10
36.98279232835226
 20
30.558603939597702
 10
36.92324563477896
 20
30.713793564536093
 10
36.92324563477896
 20
30.74904582649114
 10
38.43879009140173
 20
31.62404582649114
 10
39.9543345480245
 20
30.74904582649114
 10
39.9543345480245
 20
28.99904582649114
 10
38.43879009140173
 20
28.12404582649114
 10
36.92324563477896
 20
28.99904582649114
 10
36.92324563477896
 20
29.53449406966169
  0
LWPOLYLINE
  5
C4
330
17
100
AcDbEntity
  8
0
100
AcDbPolyline
 90
6
 70
1
 10
43.48542346127004
 20
30.74904582649114
 10
41.96987900464727
 20
31.62404582649114
 10
40.4543345480245
 20
30.74904582649114
 10
40.4543345480245
 20
28.99904582649114
 10
41.96987900464727
 20
28.12404582649114
 10
43.48542346127004
 20
28.99904582649114
  0
LWPOLYLINE
  5
C5
330
17
100
AcDbEntity
  8
0
100
AcDbPolyline
 90
6
 70
1
 10
47.01651237451558
 20
30.74904582649114
 10
45.50096791789281
 20
31.62404582649114
 10
43.98542346127004
 20
30.74904582649114
 10
43.98542346127004
 20
28.99904582649114
 10
45.50096791789281
 20
28.12404582649114
 10
47.01651237451558
 20
28.99904582649114
  0
LWPOLYLINE
  5
C6
330
17
100
AcDbEntity
  8
0
100
AcDbPolyline
 90
6
 70
1
 10
50.547601287761104
 20
30.74904582649114
 10
49.032056831138334
 20
31.62404582649114
 10
47.516512374515564
 20
30.74904582649114
 10
47.516512374515564
 20
28.99904582649114
 10
49.032056831138334
 20
28.12404582649114
 10
50.547601287761104
 20
28.99904582649114
  0
LWPOLYLINE
  5
C7
330
17
100
AcDbEntity
  8
0
100
AcDbPolyline
 90
6
 70
1
 10
54.078690201006644
 20
30.74904582649114
 10
52.563145744383874
 20
31.62404582649114
 10
51.047601287761104
 20
30.74904582649114
 10
51.047601287761104
 20
28.99904582649114
 10
52.563145744383874
 20
28.12404582649114
 10
54.078690201006644
 20
28.99904582649114
  0
LWPOLYLINE
  5
C8
330
17
100
AcDbEntity
  8
0
100
AcDbPolyline
 90
6
 70
1
 10
57.609779114252184
 20
30.74904582649114
 10
56.094234657629414
 20
31.62404582649114
 10
54.578690201006644
 20
30.74904582649114
 10
54.578690201006644
 20
28.99904582649114
 10
56.094234657629414
 20
28.12404582649114
 10
57.609779114252184
 20
28.99904582649114
  0
LWPOLYLINE
  5
C9
330
17
100
AcDbEntity
  8
0
100
AcDbPolyline
 90
6
 70
1
 10
61.14086802749771
 20
30.74904582649114
 10
59.62532357087494
 20
31.62404582649114
 10
58.10977911425217
 20
30.74904582649114
 10
58.10977911425217
 20
28.99904582649114
 10
59.62532357087494
 20
28.12404582649114
 10
61.14086802749771
 20
28.99904582649114
  0
LWPOLYLINE
  5
CA
330
17
100
AcDbEntity
  8
0
100
AcDbPolyline
 90
6
 70
1
 10
64.67195694074324
 20
30.74904582649114
 10
63.15641248412048
 20
31.62404582649114
 10
61.64086802749771
 20
30.74904582649114
 10
61.64086802749771
 20
28.99904582649114
 10
63.15641248412048
 20
28.12404582649114
 10
64.67195694074324
 20
28.99904582649114
  0
LWPOLYLINE
  5
CB
330
17
100
AcDbEntity
  8
0
100
AcDbPolyline
 90
6
 70
1
 10
68.20304585398878
 20
30.74904582649114
 10
66.68750139736602
 20
31.62404582649114
 10
65.17195694074326
 20
30.74904582649114
 10
65.17195694074326
 20
28.99904582649114
 10
66.68750139736602
 20
28.12404582649114
 10
68.20304585398878
 20
28.99904582649114
  0
LWPOLYLINE
  5
CC
330
17
100
AcDbEntity
  8
0
100
AcDbPolyline
 90
6
 70
1
 10
71.73413476723431
 20
30.74904582649114
 10
70.21859031061155
 20
31.62404582649114
 10
68.70304585398878
 20
30.74904582649114
 10
68.70304585398878
 20
28.99904582649114
 10
70.21859031061155
 20
28.12404582649114
 10
71.73413476723431
 20
28.99904582649114
  0
LWPOLYLINE
  5
CD
330
17
100
AcDbEntity
  8
0
100
AcDbPolyline
 90
3
 70
1
 10
73.16815783464475
 20
28.459787357092413
 10
72.23413476723432
 20
28.99904582649114
 10
72.23413476723432
 20
30.354471800054316
  0
LWPOLYLINE
  5
CE
330
17
100
AcDbEntity
  8
0
100
AcDbPolyline
 90
5
 70
1
 10
35.63141004857293
 20
34.08055447223598
 10
36.67324563477897
 20
34.682058528383365
 10
38.18879009140174
 20
33.807058528383365
 10
38.18879009140174
 20
32.057058528383365
 10
36.73081718006216
 20
31.215297475550276
  0
LWPOLYLINE
  5
CF
330
17
100
AcDbEntity
  8
0
100
AcDbPolyline
 90
6
 70
1
 10
41.71987900464727
 20
33.807058528383365
 10
40.2043345480245
 20
34.682058528383365
 10
38.68879009140173
 20
33.807058528383365
 10
38.68879009140173
 20
32.057058528383365
 10
40.2043345480245
 20
31.182058528383365
 10
41.71987900464727
 20
32.057058528383365
  0
LWPOLYLINE
  5
D0
330
17
100
AcDbEntity
  8
0
100
AcDbPolyline
 90
6
 70
1
 10
45.25096791789281
 20
33.807058528383365
 10
43.73542346127004
 20
34.682058528383365
 10
42.21987900464727
 20
33.807058528383365
 10
42.21987900464727
 20
32.057058528383365
 10
43.73542346127004
 20
31.182058528383365
 10
45.25096791789281
 20
32.057058528383365
  0
LWPOLYLINE
  5
D1
330
17
100
AcDbEntity
  8
0
100
AcDbPolyline
 90
6
 70
1
 10
48.78205683113835
 20
33.807058528383365
 10
47.26651237451558
 20
34.682058528383365
 10
45.75096791789281
 20
33.807058528383365
 10
45.75096791789281
 20
32.057058528383365
 10
47.26651237451558
 20
31.182058528383365
 10
48.78205683113835
 20
32.057058528383365
  0
LWPOLYLINE
  5
D2
330
17
100
AcDbEntity
  8
0
100
AcDbPolyline
 90
6
 70
1
 10
52.313145744383874
 20
33.807058528383365
 10
50.797601287761104
 20
34.682058528383365
 10
49.282056831138334
 20
33.807058528383365
 10
49.282056831138334
 20
32.057058528383365
 10
50.797601287761104
 20
31.182058528383365
 10
52.313145744383874
 20
32.057058528383365
  0
LWPOLYLINE
  5
D3
330
17
100
AcDbEntity
  8
0
100
AcDbPolyline
 90
6
 70
1
 10
55.844234657629414
 20
33.807058528383365
 10
54.328690201006644
 20
34.682058528383365
 10
52.813145744383874
 20
33.807058528383365
 10
52.813145744383874
 20
32.057058528383365
 10
54.328690201006644
 20
31.182058528383365
 10
55.844234657629414
 20
32.057058528383365
  0
LWPOLYLINE
  5
D4
330
17
100
AcDbEntity
  8
0
100
AcDbPolyline
 90
6
 70
1
 10
59.375323570874954
 20
33.807058528383365
 10
57.859779114252184
 20
34.682058528383365
 10
56.344234657629414
 20
33.807058528383365
 10
56.344234657629414
 20
32.057058528383365
 10
57.859779114252184
 20
31.182058528383365
 10
59.375323570874954
 20
32.057058528383365
  0
LWPOLYLINE
  5
D5
330
17
100
AcDbEntity
  8
0
100
AcDbPolyline
 90
6
 70
1
 10
62.90641248412048
 20
33.807058528383365
 10
61.39086802749771
 20
34.682058528383365
 10
59.87532357087494
 20
33.807058528383365
 10
59.87532357087494
 20
32.057058528383365
 10
61.39086802749771
 20
31.182058528383365
 10
62.90641248412048
 20
32.057058528383365
  0
LWPOLYLINE
  5
D6
330
17
100
AcDbEntity
  8
0
100
AcDbPolyline
 90
6
 70
1
 10
66.437501397366
 20
33.807058528383365
 10
64.92195694074324
 20
34.682058528383365
 10
63.40641248412047
 20
33.807058528383365
 10
63.40641248412047
 20
32.057058528383365
 10
64.92195694074324
 20
31.182058528383365
 10
66.437501397366
 20
32.057058528383365
  0
LWPOLYLINE
  5
D7
330
17
100
AcDbEntity
  8
0
100
AcDbPolyline
 90
6
 70
1
 10
69.96859031061155
 20
33.807058528383365
 10
68.45304585398878
 20
34.682058528383365
 10
66.93750139736602
 20
33.807058528383365
 10
66.93750139736602
 20
32.057058528383365
 10
68.45304585398878
 20
31.182058528383365
 10
69.96859031061155
 20
32.057058528383365
  0
LWPOLYLINE
  5
D8
330
17
100
AcDbEntity
  8
0
100
AcDbPolyline
 90
5
 70
1
 10
71.19577591362271
 20
32.460803468718765
 10
71.7633082598193
 20
31.309552771883627
 10
70.46859031061155
 20
32.057058528383365
 10
70.46859031061155
 20
33.807058528383365
 10
70.61843514662391
 20
33.89357148479178
  0
LWPOLYLINE
  5
D9
330
17
100
AcDbEntity
  8
0
100
AcDbPolyline
 90
5
 70
1
 10
34.350647773279626
 20
37.418456297017094
 10
34.9077011781562
 20
37.74007123027558
 10
36.42324563477897
 20
36.86507123027558
 10
36.42324563477897
 20
35.11507123027558
 10
35.45005490476885
 20
34.55319930033139
  0
LWPOLYLINE
  5
DA
330
17
100
AcDbEntity
  8
0
100
AcDbPolyline
 90
6
 70
1
 10
39.9543345480245
 20
36.86507123027558
 10
38.43879009140173
 20
37.74007123027558
 10
36.92324563477896
 20
36.86507123027558
 10
36.92324563477896
 20
35.11507123027558
 10
38.43879009140173
 20
34.24007123027558
 10
39.9543345480245
 20
35.11507123027558
  0
LWPOLYLINE
  5
DB
330
17
100
AcDbEntity
  8
0
100
AcDbPolyline
 90
6
 70
1
 10
43.48542346127004
 20
36.86507123027558
 10
41.96987900464727
 20
37.74007123027558
 10
40.4543345480245
 20
36.86507123027558
 10
40.4543345480245
 20
35.11507123027558
 10
41.96987900464727
 20
34.24007123027558
 10
43.48542346127004
 20
35.11507123027558
  0
LWPOLYLINE
  5
DC
330
17
100
AcDbEntity
  8
0
100
AcDbPolyline
 90
6
 70
1
 10
47.01651237451558
 20
36.86507123027558
 10
45.50096791789281
 20
37.74007123027558
 10
43.98542346127004
 20
36.86507123027558
 10
43.98542346127004
 20
35.11507123027558
 10
45.50096791789281
 20
34.24007123027558
 10
47.01651237451558
 20
35.11507123027558
  0
LWPOLYLINE
  5
DD
330
17
100
AcDbEntity
  8
0
100
AcDbPolyline
 90
6
 70
1
 10
50.547601287761104
 20
36.86507123027558
 10
49.032056831138334
 20
37.74007123027558
 10
47.516512374515564
 20
36.86507123027558
 10
47.516512374515564
 20
35.11507123027558
 10
49.032056831138334
 20
34.24007123027558
 10
50.547601287761104
 20
35.11507123027558
  0
LWPOLYLINE
  5
DE
330
17
100
AcDbEntity
  8
0
100
AcDbPolyline
 90
6
 70
1
 10
54.078690201006644
 20
36.86507123027558
 10
52.563145744383874
 20
37.74007123027558
 10
51.047601287761104
 20
36.86507123027558
 10
51.047601287761104
 20
35.11507123027558
 10
52.563145744383874
 20
34.24007123027558
 10
54.078690201006644
 20
35.11507123027558
  0
LWPOLYLINE
  5
DF
330
17
100
AcDbEntity
  8
0
100
AcDbPolyline
 90
6
 70
1
 10
57.609779114252184
 20
36.86507123027558
 10
56.094234657629414
 20
37.74007123027558
 10
54.578690201006644
 20
36.86507123027558
 10
54.578690201006644
 20
35.11507123027558
 10
56.094234657629414
 20
34.24007123027558
 10
57.609779114252184
 20
35.11507123027558
  0
LWPOLYLINE
  5
E0
330
17
100
AcDbEntity
  8
0
100
AcDbPolyline
 90
6
 70
1
 10
61.14086802749771
 20
36.86507123027558
 10
59.62532357087494
 20
37.74007123027558
 10
58.10977911425217
 20
36.86507123027558
 10
58.10977911425217
 20
35.11507123027558
 10
59.62532357087494
 20
34.24007123027558
 10
61.14086802749771
 20
35.11507123027558
  0
LWPOLYLINE
  5
E1
330
17
100
AcDbEntity
  8
0
100
AcDbPolyline
 90
6
 70
1
 10
64.67195694074324
 20
36.86507123027558
 10
63.15641248412048
 20
37.74007123027558
 10
61.64086802749771
 20
36.86507123027558
 10
61.64086802749771
 20
35.11507123027558
 10
63.15641248412048
 20
34.24007123027558
 10
64.67195694074324
 20
35.11507123027558
  0
LWPOLYLINE
  5
E2
330
17
100
AcDbEntity
  8
0
100
AcDbPolyline
 90
6
 70
1
 10
68.20304585398878
 20
36.86507123027558
 10
66.68750139736602
 20
37.74007123027558
 10
65.17195694074326
 20
36.86507123027558
 10
65.17195694074326
 20
35.11507123027558
 10
66.68750139736602
 20
34.24007123027558
 10
68.20304585398878
 20
35.11507123027558
  0
LWPOLYLINE
  5
E3
330
17
100
AcDbEntity
  8
0
100
AcDbPolyline
 90
5
 70
1
 10
70.42969802642283
 20
34.36195432682724
 10
70.21859031061155
 20
34.24007123027558
 10
68.70304585398878
 20
35.11507123027558
 10
68.70304585398878
 20
36.86507123027558
 10
69.28554004130407
 20
37.20137440612346
  0
LWPOLYLINE
  5
E4
330
17
100
AcDbEntity
  8
0
100
AcDbPolyline
 90
5
 70
1
 10
33.06988549798632
 20
40.75635812179821
 10
33.14215672153343
 20
40.7980839321678
 10
34.6577011781562
 20
39.9230839321678
 10
34.6577011781562
 20
38.1730839321678
 10
34.16929262947554
 20
37.891101125112506
  0
LWPOLYLINE
  5
E5
330
17
100
AcDbEntity
  8
0
100
AcDbPolyline
 90
6
 70
1
 10
38.18879009140174
 20
39.9230839321678
 10
36.67324563477897
 20
40.7980839321678
 10
35.1577011781562
 20
39.9230839321678
 10
35.1577011781562
 20
38.1730839321678
 10
36.67324563477897
 20
37.2980839321678
 10
38.18879009140174
 20
38.1730839321678
  0
LWPOLYLINE
  5
E6
330
17
100
AcDbEntity
  8
0
100
AcDbPolyline
 90
6
 70
1
 10
41.71987900464727
 20
39.9230839321678
 10
40.2043345480245
 20
40.7980839321678
 10
38.68879009140173
 20
39.9230839321678
 10
38.68879009140173
 20
38.1730839321678
 10
40.2043345480245
 20
37.2980839321678
 10
41.71987900464727
 20
38.1730839321678
  0
LWPOLYLINE
  5
E7
330
17
100
AcDbEntity
  8
0
100
AcDbPolyline
 90
6
 70
1
 10
45.25096791789281
 20
39.9230839321678
 10
43.73542346127004
 20
40.7980839321678
 10
42.21987900464727
 20
39.9230839321678
 10
42.21987900464727
 20
38.1730839321678
 10
43.73542346127004
 20
37.2980839321678
 10
45.25096791789281
 20
38.1730839321678
  0
LWPOLYLINE
  5
E8
330
17
100
AcDbEntity
  8
0
100
AcDbPolyline
 90
6
 70
1
 10
48.78205683113835
 20
39.9230839321678
 10
47.26651237451558
 20
40.7980839321678
 10
45.75096791789281
 20
39.9230839321678
 10
45.75096791789281
 20
38.1730839321678
 10
47.26651237451558
 20
37.2980839321678
 10
48.78205683113835
 20
38.1730839321678
  0
LWPOLYLINE
  5
E9
330
17
100
AcDbEntity
  8
0
100
AcDbPolyline
 90
6
 70
1
 10
52.313145744383874
 20
39.9230839321678
 10
50.797601287761104
 20
40.7980839321678
 10
49.282056831138334
 20
39.9230839321678
 10
49.282056831138334
 20
38.1730839321678
 10
50.797601287761104
 20
37.2980839321678
 10
52.313145744383874
 20
38.1730839321678
  0
LWPOLYLINE
  5
EA
330
17
100
AcDbEntity
  8
0
100
AcDbPolyline
 90
6
 70
1
 10
55.844234657629414
 20
39.9230839321678
 10
54.328690201006644
 20
40.7980839321678
 10
52.813145744383874
 20
39.9230839321678
 10
52.813145744383874
 20
38.1730839321678
 10
54.328690201006644
 20
37.2980839321678
 10
55.844234657629414
 20
38.1730839321678
  0
LWPOLYLINE
  5
EB
330
17
100
AcDbEntity
  8
0
100
AcDbPolyline
 90
6
 70
1
 10
59.375323570874954
 20
39.9230839321678
 10
57.859779114252184
 20
40.7980839321678
 10
56.344234657629414
 20
39.9230839321678
 10
56.344234657629414
 20
38.1730839321678
 10
57.859779114252184
 20
37.2980839321678
 10
59.375323570874954
 20
38.1730839321678
  0
LWPOLYLINE
  5
EC
330
17
100
AcDbEntity
  8
0
100
AcDbPolyline
 90
6
 70
1
 10
62.90641248412048
 20
39.9230839321678
 10
61.39086802749771
 20
40.7980839321678
 10
59.87532357087494
 20
39.9230839321678
 10
59.87532357087494
 20
38.1730839321678
 10
61.39086802749771
 20
37.2980839321678
 10
62.90641248412048
 20
38.1730839321678
  0
LWPOLYLINE
  5
ED
330
17
100
AcDbEntity
  8
0
100
AcDbPolyline
 90
6
 70
1
 10
66.437501397366
 20
39.9230839321678
 10
64.92195694074324
 20
40.7980839321678
 10
63.40641248412047
 20
39.9230839321678
 10
63.40641248412047
 20
38.1730839321678
 10
64.92195694074324
 20
37.2980839321678
 10
66.437501397366
 20
38.1730839321678
  0
LWPOLYLINE
  5
EE
330
17
100
AcDbEntity
  8
0
100
AcDbPolyline
 90
5
 70
1
 10
69.096802921103
 20
37.669757248158916
 10
68.45304585398878
 20
37.2980839321678
 10
66.93750139736602
 20
38.1730839321678
 10
66.93750139736602
 20
39.9230839321678
 10
67.95264493598425
 20
40.50917732745515
  0
LWPOLYLINE
  5
EF
330
17
100
AcDbEntity
  8
0
100
AcDbPolyline
 90
4
 70
1
 10
32.02390179392901
 20
43.48238385023765
 10
32.89215672153343
 20
42.98109663406002
 10
32.89215672153343
 20
41.23109663406002
 10
32.88853035418223
 20
41.229002949893626
  0
LWPOLYLINE
  5
F0
330
17
100
AcDbEntity
  8
0
100
AcDbPolyline
 90
6
 70
1
 10
36.42324563477897
 20
42.98109663406002
 10
34.9077011781562
 20
43.85609663406002
 10
33.39215672153343
 20
42.98109663406002
 10
33.39215672153343
 20
41.23109663406002
 10
34.9077011781562
 20
40.35609663406002
 10
36.42324563477897
 20
41.23109663406002
  0
LWPOLYLINE
  5
F1
330
17
100
AcDbEntity
  8
0
100
AcDbPolyline
 90
6
 70
1
 10
39.9543345480245
 20
42.98109663406002
 10
38.43879009140173
 20
43.85609663406002
 10
36.92324563477896
 20
42.98109663406002
 10
36.92324563477896
 20
41.23109663406002
 10
38.43879009140173
 20
40.35609663406002
 10
39.9543345480245
 20
41.23109663406002
  0
LWPOLYLINE
  5
F2
330
17
100
AcDbEntity
  8
0
100
AcDbPolyline
 90
6
 70
1
 10
43.48542346127004
 20
42.98109663406002
 10
41.96987900464727
 20
43.85609663406002
 10
40.4543345480245
 20
42.98109663406002
 10
40.4543345480245
 20
41.23109663406002
 10
41.96987900464727
 20
40.35609663406002
 10
43.48542346127004
 20
41.23109663406002
  0
LWPOLYLINE
  5
F3
330
17
100
AcDbEntity
  8
0
100
AcDbPolyline
 90
6
 70
1
 10
47.01651237451558
 20
42.98109663406002
 10
45.50096791789281
 20
43.85609663406002
 10
43.98542346127004
 20
42.98109663406002
 10
43.98542346127004
 20
41.23109663406002
 10
45.50096791789281
 20
40.35609663406002
 10
47.01651237451558
 20
41.23109663406002
  0
LWPOLYLINE
  5
F4
330
17
100
AcDbEntity
  8
0
100
AcDbPolyline
 90
6
 70
1
 10
50.547601287761104
 20
42.98109663406002
 10
49.032056831138334
 20
43.85609663406002
 10
47.516512374515564
 20
42.98109663406002
 10
47.516512374515564
 20
41.23109663406002
 10
49.032056831138334
 20
40.35609663406002
 10
50.547601287761104
 20
41.23109663406002
  0
LWPOLYLINE
  5
F5
330
17
100
AcDbEntity
  8
0
100
AcDbPolyline
 90
6
 70
1
 10
54.078690201006644
 20
42.98109663406002
 10
52.563145744383874
 20
43.85609663406002
 10
51.047601287761104
 20
42.98109663406002
 10
51.047601287761104
 20
41.23109663406002
 10
52.563145744383874
 20
40.35609663406002
 10
54.078690201006644
 20
41.23109663406002
  0
LWPOLYLINE
  5
F6
330
17
100
AcDbEntity
  8
0
100
AcDbPolyline
 90
6
 70
1
 10
57.609779114252184
 20
42.98109663406002
 10
56.094234657629414
 20
43.85609663406002
 10
54.578690201006644
 20
42.98109663406002
 10
54.578690201006644
 20
41.23109663406002
 10
56.094234657629414
 20
40.35609663406002
 10
57.609779114252184
 20
41.23109663406002
  0
LWPOLYLINE
  5
F7
330
17
100
AcDbEntity
  8
0
100
AcDbPolyline
 90
6
 70
1
 10
61.14086802749771
 20
42.98109663406002
 10
59.62532357087494
 20
43.85609663406002
 10
58.10977911425217
 20
42.98109663406002
 10
58.10977911425217
 20
41.23109663406002
 10
59.62532357087494
 20
40.35609663406002
 10
61.14086802749771
 20
41.23109663406002
  0
LWPOLYLINE
  5
F8
330
17
100
AcDbEntity
  8
0
100
AcDbPolyline
 90
6
 70
1
 10
64.67195694074324
 20
42.98109663406002
 10
63.15641248412048
 20
43.85609663406002
 10
61.64086802749771
 20
42.98109663406002
 10
61.64086802749771
 20
41.23109663406002
 10
63.15641248412048
 20
40.35609663406002
 10
64.67195694074324
 20
41.23109663406002
  0
LWPOLYLINE
  5
F9
330
17
100
AcDbEntity
  8
0
100
AcDbPolyline
 90
5
 70
1
 10
67.76390781578317
 20
40.97756016949061
 10
66.68750139736602
 20
40.35609663406002
 10
65.17195694074326
 20
41.23109663406002
 10
65.17195694074326
 20
42.98109663406002
 10
66.61974983066442
 20
43.81698024878684
  0
LWPOLYLINE
  5
FA
330
17
100
AcDbEntity
  8
0
100
AcDbPolyline
 90
7
 70
1
 10
31.626612264910666
 20
44.51779336335207
 10
31.626612264910666
 20
45.227394519927365
 10
34.47081754808144
 20
46.147006650083036
 10
34.6577011781562
 20
46.03910933595224
 10
34.6577011781562
 20
44.28910933595224
 10
33.14215672153343
 20
43.41410933595224
 10
31.739329267058245
 20
44.224032144420086
  0
LWPOLYLINE
  5
FB
330
17
100
AcDbEntity
  8
0
100
AcDbPolyline
 90
7
 70
1
 10
36.734305486790056
 20
46.87885641395696
 10
38.18879009140174
 20
46.03910933595224
 10
38.18879009140174
 20
44.28910933595224
 10
36.67324563477897
 20
43.41410933595224
 10
35.1577011781562
 20
44.28910933595224
 10
35.1577011781562
 20
46.03910933595224
 10
36.45674740331544
 20
46.78911402373769
  0
LWPOLYLINE
  5
FC
330
17
100
AcDbEntity
  8
0
100
AcDbPolyline
 90
6
 70
1
 10
41.71987900464727
 20
46.03910933595224
 10
40.2043345480245
 20
46.91410933595224
 10
38.68879009140173
 20
46.03910933595224
 10
38.68879009140173
 20
44.28910933595224
 10
40.2043345480245
 20
43.41410933595224
 10
41.71987900464727
 20
44.28910933595224
  0
LWPOLYLINE
  5
FD
330
17
100
AcDbEntity
  8
0
100
AcDbPolyline
 90
6
 70
1
 10
45.25096791789281
 20
46.03910933595224
 10
43.73542346127004
 20
46.91410933595224
 10
42.21987900464727
 20
46.03910933595224
 10
42.21987900464727
 20
44.28910933595224
 10
43.73542346127004
 20
43.41410933595224
 10
45.25096791789281
 20
44.28910933595224
  0
LWPOLYLINE
  5
FE
330
17
100
AcDbEntity
  8
0
100
AcDbPolyline
 90
6
 70
1
 10
48.78205683113835
 20
46.03910933595224
 10
47.26651237451558
 20
46.91410933595224
 10
45.75096791789281
 20
46.03910933595224
 10
45.75096791789281
 20
44.28910933595224
 10
47.26651237451558
 20
43.41410933595224
 10
48.78205683113835
 20
44.28910933595224
  0
LWPOLYLINE
  5
FF
330
17
100
AcDbEntity
  8
0
100
AcDbPolyline
 90
6
 70
1
 10
52.313145744383874
 20
46.03910933595224
 10
50.797601287761104
 20
46.91410933595224
 10
49.282056831138334
 20
46.03910933595224
 10
49.282056831138334
 20
44.28910933595224
 10
50.797601287761104
 20
43.41410933595224
 10
52.313145744383874
 20
44.28910933595224
  0
LWPOLYLINE
  5
100
330
17
100
AcDbEntity
  8
0
100
AcDbPolyline
 90
6
 70
1
 10
55.844234657629414
 20
46.03910933595224
 10
54.328690201006644
 20
46.91410933595224
 10
52.813145744383874
 20
46.03910933595224
 10
52.813145744383874
 20
44.28910933595224
 10
54.328690201006644
 20
43.41410933595224
 10
55.844234657629414
 20
44.28910933595224
  0
LWPOLYLINE
  5
101
330
17
100
AcDbEntity
  8
0
100
AcDbPolyline
 90
6
 70
1
 10
59.375323570874954
 20
46.03910933595224
 10
57.859779114252184
 20
46.91410933595224
 10
56.344234657629414
 20
46.03910933595224
 10
56.344234657629414
 20
44.28910933595224
 10
57.859779114252184
 20
43.41410933595224
 10
59.375323570874954
 20
44.28910933595224
  0
LWPOLYLINE
  5
102
330
17
100
AcDbEntity
  8
0
100
AcDbPolyline
 90
6
 70
1
 10
62.90641248412048
 20
46.03910933595224
 10
61.39086802749771
 20
46.91410933595224
 10
59.87532357087494
 20
46.03910933595224
 10
59.87532357087494
 20
44.28910933595224
 10
61.39086802749771
 20
43.41410933595224
 10
62.90641248412048
 20
44.28910933595224
  0
LWPOLYLINE
  5
103
330
17
100
AcDbEntity
  8
0
100
AcDbPolyline
 90
7
 70
1
 10
65.9710042234662
 20
45.426951360637
 10
66.43101271046335
 20
44.2853630908223
 10
64.92195694074324
 20
43.41410933595224
 10
63.40641248412047
 20
44.28910933595224
 10
63.40641248412047
 20
46.03910933595224
 10
64.92195694074324
 20
46.91410933595224
 10
65.64549181779782
 20
46.496376279916696
  0
LWPOLYLINE
  5
104
330
17
100
AcDbEntity
  8
0
100
AcDbPolyline
 90
17
 70
1
 10
37.24593590983024
 20
47.16735344015876
 10
37.29368783388223
 20
47.226027240562956
 10
37.336105766417774
 20
47.288511028006376
 10
37.37293570784085
 20
47.354550803353085
 10
37.40392365855544
 20
47.42363856833118
 10
37.42881561896553
 20
47.49526632466876
 10
37.4476115890711
 20
47.56918007322989
 10
37.45980356968012
 20
47.644871815742654
 10
37.46513756119657
 20
47.72208755307111
 10
37.46361356362043
 20
47.80031928694336
 10
37.454723577759694
 20
47.87931301822346
 10
37.19103253639513
 20
49.25172887757801
 10
38.43879009140173
 20
49.97212203784446
 10
39.9543345480245
 20
49.09712203784446
 10
39.9543345480245
 20
47.34712203784446
 10
38.43879009140173
 20
46.47212203784446
 10
37.24187836148843
 20
47.16315934730612
  0
LWPOLYLINE
  5
105
330
17
100
AcDbEntity
  8
0
100
AcDbPolyline
 90
6
 70
1
 10
43.48542346127004
 20
49.09712203784446
 10
41.96987900464727
 20
49.97212203784446
 10
40.4543345480245
 20
49.09712203784446
 10
40.4543345480245
 20
47.34712203784446
 10
41.96987900464727
 20
46.47212203784446
 10
43.48542346127004
 20
47.34712203784446
  0
LWPOLYLINE
  5
106
330
17
100
AcDbEntity
  8
0
100
AcDbPolyline
 90
6
 70
1
 10
47.01651237451558
 20
49.09712203784446
 10
45.50096791789281
 20
49.97212203784446
 10
43.98542346127004
 20
49.09712203784446
 10
43.98542346127004
 20
47.34712203784446
 10
45.50096791789281
 20
46.47212203784446
 10
47.01651237451558
 20
47.34712203784446
  0
LWPOLYLINE
  5
107
330
17
100
AcDbEntity
  8
0
100
AcDbPolyline
 90
6
 70
1
 10
50.547601287761104
 20
49.09712203784446
 10
49.032056831138334
 20
49.97212203784446
 10
47.516512374515564
 20
49.09712203784446
 10
47.516512374515564
 20
47.34712203784446
 10
49.032056831138334
 20
46.47212203784446
 10
50.547601287761104
 20
47.34712203784446
  0
LWPOLYLINE
  5
108
330
17
100
AcDbEntity
  8
0
100
AcDbPolyline
 90
6
 70
1
 10
54.078690201006644
 20
49.09712203784446
 10
52.563145744383874
 20
49.97212203784446
 10
51.047601287761104
 20
49.09712203784446
 10
51.047601287761104
 20
47.34712203784446
 10
52.563145744383874
 20
46.47212203784446
 10
54.078690201006644
 20
47.34712203784446
  0
LWPOLYLINE
  5
109
330
17
100
AcDbEntity
  8
0
100
AcDbPolyline
 90
6
 70
1
 10
57.609779114252184
 20
49.09712203784446
 10
56.094234657629414
 20
49.97212203784446
 10
54.578690201006644
 20
49.09712203784446
 10
54.578690201006644
 20
47.34712203784446
 10
56.094234657629414
 20
46.47212203784446
 10
57.609779114252184
 20
47.34712203784446
  0
LWPOLYLINE
  5
10A
330
17
100
AcDbEntity
  8
0
100
AcDbPolyline
 90
6
 70
1
 10
61.14086802749771
 20
49.09712203784446
 10
59.62532357087494
 20
49.97212203784446
 10
58.10977911425217
 20
49.09712203784446
 10
58.10977911425217
 20
47.34712203784446
 10
59.62532357087494
 20
46.47212203784446
 10
61.14086802749771
 20
47.34712203784446
  0
LWPOLYLINE
  5
10B
330
17
100
AcDbEntity
  8
0
100
AcDbPolyline
 90
6
 70
1
 10
64.67195694074324
 20
49.09712203784446
 10
63.15641248412048
 20
49.97212203784446
 10
61.64086802749771
 20
49.09712203784446
 10
61.64086802749771
 20
47.34712203784446
 10
63.15641248412048
 20
46.47212203784446
 10
64.67195694074324
 20
47.34712203784446
  0
LWPOLYLINE
  5
10C
330
17
100
AcDbEntity
  8
0
100
AcDbPolyline
 90
3
 70
1
 10
65.43229073444527
 20
47.19681825197144
 10
65.17195694074326
 20
47.34712203784446
 10
65.17195694074326
 20
48.05210807032381
  0
LWPOLYLINE
  5
10D
330
17
100
AcDbEntity
  8
0
100
AcDbPolyline
 90
7
 70
1
 10
37.050102221297905
 20
49.98521985437559
 10
36.5989989387642
 20
51.64815219743289
 10
36.192922335966955
 20
52.75281995386951
 10
36.67324563477897
 20
53.03013473973668
 10
38.18879009140174
 20
52.15513473973668
 10
38.18879009140174
 20
50.40513473973668
 10
37.09117925887262
 20
49.771428830110544
  0
LWPOLYLINE
  5
10E
330
17
100
AcDbEntity
  8
0
100
AcDbPolyline
 90
6
 70
1
 10
41.71987900464727
 20
52.15513473973668
 10
40.2043345480245
 20
53.03013473973668
 10
38.68879009140173
 20
52.15513473973668
 10
38.68879009140173
 20
50.40513473973668
 10
40.2043345480245
 20
49.53013473973668
 10
41.71987900464727
 20
50.40513473973668
  0
LWPOLYLINE
  5
10F
330
17
100
AcDbEntity
  8
0
100
AcDbPolyline
 90
6
 70
1
 10
45.25096791789281
 20
52.15513473973668
 10
43.73542346127004
 20
53.03013473973668
 10
42.21987900464727
 20
52.15513473973668
 10
42.21987900464727
 20
50.40513473973668
 10
43.73542346127004
 20
49.53013473973668
 10
45.25096791789281
 20
50.40513473973668
  0
LWPOLYLINE
  5
110
330
17
100
AcDbEntity
  8
0
100
AcDbPolyline
 90
6
 70
1
 10
48.78205683113835
 20
52.15513473973668
 10
47.26651237451558
 20
53.03013473973668
 10
45.75096791789281
 20
52.15513473973668
 10
45.75096791789281
 20
50.40513473973668
 10
47.26651237451558
 20
49.53013473973668
 10
48.78205683113835
 20
50.40513473973668
  0
LWPOLYLINE
  5
111
330
17
100
AcDbEntity
  8
0
100
AcDbPolyline
 90
6
 70
1
 10
52.313145744383874
 20
52.15513473973668
 10
50.797601287761104
 20
53.03013473973668
 10
49.282056831138334
 20
52.15513473973668
 10
49.282056831138334
 20
50.40513473973668
 10
50.797601287761104
 20
49.53013473973668
 10
52.313145744383874
 20
50.40513473973668
  0
LWPOLYLINE
  5
112
330
17
100
AcDbEntity
  8
0
100
AcDbPolyline
 90
6
 70
1
 10
55.844234657629414
 20
52.15513473973668
 10
54.328690201006644
 20
53.03013473973668
 10
52.813145744383874
 20
52.15513473973668
 10
52.813145744383874
 20
50.40513473973668
 10
54.328690201006644
 20
49.53013473973668
 10
55.844234657629414
 20
50.40513473973668
  0
LWPOLYLINE
  5
113
330
17
100
AcDbEntity
  8
0
100
AcDbPolyline
 90
6
 70
1
 10
59.375323570874954
 20
52.15513473973668
 10
57.859779114252184
 20
53.03013473973668
 10
56.344234657629414
 20
52.15513473973668
 10
56.344234657629414
 20
50.40513473973668
 10
57.859779114252184
 20
49.53013473973668
 10
59.375323570874954
 20
50.40513473973668
  0
LWPOLYLINE
  5
114
330
17
100
AcDbEntity
  8
0
100
AcDbPolyline
 90
6
 70
1
 10
62.90641248412048
 20
52.15513473973668
 10
61.39086802749771
 20
53.03013473973668
 10
59.87532357087494
 20
52.15513473973668
 10
59.87532357087494
 20
50.40513473973668
 10
61.39086802749771
 20
49.53013473973668
 10
62.90641248412048
 20
50.40513473973668
  0
LWPOLYLINE
  5
115
330
17
100
AcDbEntity
  8
0
100
AcDbPolyline
 90
5
 70
1
 10
63.89709752195293
 20
52.2404781824656
 10
64.67945875272716
 20
49.67014113386576
 10
63.40641248412047
 20
50.40513473973668
 10
63.40641248412047
 20
52.15513473973668
 10
63.858659986467
 20
52.41623995695679
  0
LWPOLYLINE
  5
116
330
17
100
AcDbEntity
  8
0
100
AcDbPolyline
 90
6
 70
1
 10
28.435197923046132
 20
53.26384070120369
 10
27.694027101856207
 20
55.302945764601276
 10
27.431859256687133
 20
55.84931836503927
 10
27.845523351665122
 20
56.08814744162889
 10
29.36106780828789
 20
55.21314744162889
 10
29.36106780828789
 20
53.54097286621324
  0
LWPOLYLINE
  5
117
330
17
100
AcDbEntity
  8
0
100
AcDbPolyline
 90
5
 70
1
 10
29.861067808287896
 20
53.69063329335694
 10
29.861067808287896
 20
55.21314744162889
 10
31.376612264910662
 20
56.08814744162889
 10
32.89215672153343
 20
55.21314744162889
 10
32.89215672153343
 20
54.59790141629068
  0
LWPOLYLINE
  5
118
330
17
100
AcDbEntity
  8
0
100
AcDbPolyline
 90
12
 70
1
 10
35.6807903991475
 20
53.84524472339067
 10
35.27566104349363
 20
54.479480565855006
 10
34.94800156462628
 20
54.870639235216274
 10
34.82277976378781
 20
54.990780826520094
 10
34.728545913663936
 20
55.0687585612564
 10
34.64853604091725
 20
55.12362237462138
 10
33.39215672153343
 20
54.74756184343438
 10
33.39215672153343
 20
55.21314744162889
 10
34.9077011781562
 20
56.08814744162889
 10
36.42324563477897
 20
55.21314744162889
 10
36.42324563477897
 20
53.46314744162889
 10
35.9889013661365
 20
53.21237866120719
  0
LWPOLYLINE
  5
119
330
17
100
AcDbEntity
  8
0
100
AcDbPolyline
 90
6
 70
1
 10
39.9543345480245
 20
55.21314744162889
 10
38.43879009140173
 20
56.08814744162889
 10
36.92324563477896
 20
55.21314744162889
 10
36.92324563477896
 20
53.46314744162889
 10
38.43879009140173
 20
52.58814744162889
 10
39.9543345480245
 20
53.46314744162889
  0
LWPOLYLINE
  5
11A
330
17
100
AcDbEntity
  8
0
100
AcDbPolyline
 90
6
 70
1
 10
43.48542346127004
 20
55.21314744162889
 10
41.96987900464727
 20
56.08814744162889
 10
40.4543345480245
 20
55.21314744162889
 10
40.4543345480245
 20
53.46314744162889
 10
41.96987900464727
 20
52.58814744162889
 10
43.48542346127004
 20
53.46314744162889
  0
LWPOLYLINE
  5
11B
330
17
100
AcDbEntity
  8
0
100
AcDbPolyline
 90
6
 70
1
 10
47.01651237451558
 20
55.21314744162889
 10
45.50096791789281
 20
56.08814744162889
 10
43.98542346127004
 20
55.21314744162889
 10
43.98542346127004
 20
53.46314744162889
 10
45.50096791789281
 20
52.58814744162889
 10
47.01651237451558
 20
53.46314744162889
  0
LWPOLYLINE
  5
11C
330
17
100
AcDbEntity
  8
0
100
AcDbPolyline
 90
6
 70
1
 10
50.547601287761104
 20
55.21314744162889
 10
49.032056831138334
 20
56.08814744162889
 10
47.516512374515564
 20
55.21314744162889
 10
47.516512374515564
 20
53.46314744162889
 10
49.032056831138334
 20
52.58814744162889
 10
50.547601287761104
 20
53.46314744162889
  0
LWPOLYLINE
  5
11D
330
17
100
AcDbEntity
  8
0
100
AcDbPolyline
 90
6
 70
1
 10
54.078690201006644
 20
55.21314744162889
 10
52.563145744383874
 20
56.08814744162889
 10
51.047601287761104
 20
55.21314744162889
 10
51.047601287761104
 20
53.46314744162889
 10
52.563145744383874
 20
52.58814744162889
 10
54.078690201006644
 20
53.46314744162889
  0
LWPOLYLINE
  5
11E
330
17
100
AcDbEntity
  8
0
100
AcDbPolyline
 90
6
 70
1
 10
57.609779114252184
 20
55.21314744162889
 10
56.094234657629414
 20
56.08814744162889
 10
54.578690201006644
 20
55.21314744162889
 10
54.578690201006644
 20
53.46314744162889
 10
56.094234657629414
 20
52.58814744162889
 10
57.609779114252184
 20
53.46314744162889
  0
LWPOLYLINE
  5
11F
330
17
100
AcDbEntity
  8
0
100
AcDbPolyline
 90
6
 70
1
 10
61.14086802749771
 20
55.21314744162889
 10
59.62532357087494
 20
56.08814744162889
 10
58.10977911425217
 20
55.21314744162889
 10
58.10977911425217
 20
53.46314744162889
 10
59.62532357087494
 20
52.58814744162889
 10
61.14086802749771
 20
53.46314744162889
  0
LWPOLYLINE
  5
120
330
17
100
AcDbEntity
  8
0
100
AcDbPolyline
 90
5
 70
1
 10
63.74655335792857
 20
52.92886543398179
 10
63.15641248412048
 20
52.58814744162889
 10
61.64086802749771
 20
53.46314744162889
 10
61.64086802749771
 20
55.21314744162889
 10
63.06694304020018
 20
56.03649223409726
  0
LWPOLYLINE
  5
121
330
17
100
AcDbEntity
  8
0
100
AcDbPolyline
 90
7
 70
1
 10
27.053440120690688
 20
56.637965223148555
 10
26.257659386356202
 20
57.88205299102616
 10
25.499565293087773
 20
58.81105819419131
 10
26.079978895042363
 20
59.146160143521115
 10
27.59552335166513
 20
58.271160143521115
 10
27.59552335166513
 20
56.521160143521115
 10
27.21492501085392
 20
56.30142158900064
  0
LWPOLYLINE
  5
122
330
17
100
AcDbEntity
  8
0
100
AcDbPolyline
 90
6
 70
1
 10
31.126612264910655
 20
58.271160143521115
 10
29.61106780828789
 20
59.146160143521115
 10
28.095523351665122
 20
58.271160143521115
 10
28.095523351665122
 20
56.521160143521115
 10
29.61106780828789
 20
55.646160143521115
 10
31.126612264910655
 20
56.521160143521115
  0
LWPOLYLINE
  5
123
330
17
100
AcDbEntity
  8
0
100
AcDbPolyline
 90
6
 70
1
 10
34.6577011781562
 20
58.271160143521115
 10
33.14215672153343
 20
59.146160143521115
 10
31.626612264910666
 20
58.271160143521115
 10
31.626612264910666
 20
56.521160143521115
 10
33.14215672153343
 20
55.646160143521115
 10
34.6577011781562
 20
56.521160143521115
  0
LWPOLYLINE
  5
124
330
17
100
AcDbEntity
  8
0
100
AcDbPolyline
 90
6
 70
1
 10
38.18879009140174
 20
58.271160143521115
 10
36.67324563477897
 20
59.146160143521115
 10
35.1577011781562
 20
58.271160143521115
 10
35.1577011781562
 20
56.521160143521115
 10
36.67324563477897
 20
55.646160143521115
 10
38.18879009140174
 20
56.521160143521115
  0
LWPOLYLINE
  5
125
330
17
100
AcDbEntity
  8
0
100
AcDbPolyline
 90
6
 70
1
 10
41.71987900464727
 20
58.271160143521115
 10
40.2043345480245
 20
59.146160143521115
 10
38.68879009140173
 20
58.271160143521115
 10
38.68879009140173
 20
56.521160143521115
 10
40.2043345480245
 20
55.646160143521115
 10
41.71987900464727
 20
56.521160143521115
  0
LWPOLYLINE
  5
126
330
17
100
AcDbEntity
  8
0
100
AcDbPolyline
 90
6
 70
1
 10
45.25096791789281
 20
58.271160143521115
 10
43.73542346127004
 20
59.146160143521115
 10
42.21987900464727
 20
58.271160143521115
 10
42.21987900464727
 20
56.521160143521115
 10
43.73542346127004
 20
55.646160143521115
 10
45.25096791789281
 20
56.521160143521115
  0
LWPOLYLINE
  5
127
330
17
100
AcDbEntity
  8
0
100
AcDbPolyline
 90
6
 70
1
 10
48.78205683113835
 20
58.271160143521115
 10
47.26651237451558
 20
59.146160143521115
 10
45.75096791789281
 20
58.271160143521115
 10
45.75096791789281
 20
56.521160143521115
 10
47.26651237451558
 20
55.646160143521115
 10
48.78205683113835
 20
56.521160143521115
  0
LWPOLYLINE
  5
128
330
17
100
AcDbEntity
  8
0
100
AcDbPolyline
 90
6
 70
1
 10
52.313145744383874
 20
58.271160143521115
 10
50.797601287761104
 20
59.146160143521115
 10
49.282056831138334
 20
58.271160143521115
 10
49.282056831138334
 20
56.521160143521115
 10
50.797601287761104
 20
55.646160143521115
 10
52.313145744383874
 20
56.521160143521115
  0
LWPOLYLINE
  5
129
330
17
100
AcDbEntity
  8
0
100
AcDbPolyline
 90
6
 70
1
 10
55.844234657629414
 20
58.271160143521115
 10
54.328690201006644
 20
59.146160143521115
 10
52.813145744383874
 20
58.271160143521115
 10
52.813145744383874
 20
56.521160143521115
 10
54.328690201006644
 20
55.646160143521115
 10
55.844234657629414
 20
56.521160143521115
  0
LWPOLYLINE
  5
12A
330
17
100
AcDbEntity
  8
0
100
AcDbPolyline
 90
6
 70
1
 10
59.375323570874954
 20
58.271160143521115
 10
57.859779114252184
 20
59.146160143521115
 10
56.344234657629414
 20
58.271160143521115
 10
56.344234657629414
 20
56.521160143521115
 10
57.859779114252184
 20
55.646160143521115
 10
59.375323570874954
 20
56.521160143521115
  0
LWPOLYLINE
  5
12B
330
17
100
AcDbEntity
  8
0
100
AcDbPolyline
 90
7
 70
1
 10
62.90641248412048
 20
56.77054385941423
 10
62.90641248412048
 20
56.521160143521115
 10
61.39086802749771
 20
55.646160143521115
 10
59.87532357087494
 20
56.521160143521115
 10
59.87532357087494
 20
58.271160143521115
 10
61.39086802749771
 20
59.146160143521115
 10
62.53081798733258
 20
58.48800972734775
  0
LWPOLYLINE
  5
12C
330
17
100
AcDbEntity
  8
0
100
AcDbPolyline
 90
8
 70
1
 10
24.228456613742665
 20
60.11267340292919
 10
23.009512552436824
 20
61.107080020169036
 10
22.79888998179683
 20
61.25088660259921
 10
22.79888998179683
 20
61.32917284541334
 10
24.314434438419596
 20
62.20417284541334
 10
25.829978895042363
 20
61.32917284541334
 10
25.829978895042363
 20
59.57917284541334
 10
25.159096218691975
 20
59.19183855162779
  0
LWPOLYLINE
  5
12D
330
17
100
AcDbEntity
  8
0
100
AcDbPolyline
 90
6
 70
1
 10
29.36106780828789
 20
61.32917284541334
 10
27.845523351665122
 20
62.20417284541334
 10
26.329978895042355
 20
61.32917284541334
 10
26.329978895042355
 20
59.57917284541334
 10
27.845523351665122
 20
58.70417284541334
 10
29.36106780828789
 20
59.57917284541334
  0
LWPOLYLINE
  5
12E
330
17
100
AcDbEntity
  8
0
100
AcDbPolyline
 90
6
 70
1
 10
32.89215672153343
 20
61.32917284541334
 10
31.376612264910662
 20
62.20417284541334
 10
29.861067808287896
 20
61.32917284541334
 10
29.861067808287896
 20
59.57917284541334
 10
31.376612264910662
 20
58.70417284541334
 10
32.89215672153343
 20
59.57917284541334
  0
LWPOLYLINE
  5
12F
330
17
100
AcDbEntity
  8
0
100
AcDbPolyline
 90
6
 70
1
 10
36.42324563477897
 20
61.32917284541334
 10
34.9077011781562
 20
62.20417284541334
 10
33.39215672153343
 20
61.32917284541334
 10
33.39215672153343
 20
59.57917284541334
 10
34.9077011781562
 20
58.70417284541334
 10
36.42324563477897
 20
59.57917284541334
  0
LWPOLYLINE
  5
130
330
17
100
AcDbEntity
  8
0
100
AcDbPolyline
 90
6
 70
1
 10
39.9543345480245
 20
61.32917284541334
 10
38.43879009140173
 20
62.20417284541334
 10
36.92324563477896
 20
61.32917284541334
 10
36.92324563477896
 20
59.57917284541334
 10
38.43879009140173
 20
58.70417284541334
 10
39.9543345480245
 20
59.57917284541334
  0
LWPOLYLINE
  5
131
330
17
100
AcDbEntity
  8
0
100
AcDbPolyline
 90
6
 70
1
 10
43.48542346127004
 20
61.32917284541334
 10
41.96987900464727
 20
62.20417284541334
 10
40.4543345480245
 20
61.32917284541334
 10
40.4543345480245
 20
59.57917284541334
 10
41.96987900464727
 20
58.70417284541334
 10
43.48542346127004
 20
59.57917284541334
  0
LWPOLYLINE
  5
132
330
17
100
AcDbEntity
  8
0
100
AcDbPolyline
 90
6
 70
1
 10
47.01651237451558
 20
61.32917284541334
 10
45.50096791789281
 20
62.20417284541334
 10
43.98542346127004
 20
61.32917284541334
 10
43.98542346127004
 20
59.57917284541334
 10
45.50096791789281
 20
58.70417284541334
 10
47.01651237451558
 20
59.57917284541334
  0
LWPOLYLINE
  5
133
330
17
100
AcDbEntity
  8
0
100
AcDbPolyline
 90
6
 70
1
 10
50.547601287761104
 20
61.32917284541334
 10
49.032056831138334
 20
62.20417284541334
 10
47.516512374515564
 20
61.32917284541334
 10
47.516512374515564
 20
59.57917284541334
 10
49.032056831138334
 20
58.70417284541334
 10
50.547601287761104
 20
59.57917284541334
  0
LWPOLYLINE
  5
134
330
17
100
AcDbEntity
  8
0
100
AcDbPolyline
 90
6
 70
1
 10
54.078690201006644
 20
61.32917284541334
 10
52.563145744383874
 20
62.20417284541334
 10
51.047601287761104
 20
61.32917284541334
 10
51.047601287761104
 20
59.57917284541334
 10
52.563145744383874
 20
58.70417284541334
 10
54.078690201006644
 20
59.57917284541334
  0
LWPOLYLINE
  5
135
330
17
100
AcDbEntity
  8
0
100
AcDbPolyline
 90
6
 70
1
 10
57.609779114252184
 20
61.32917284541334
 10
56.094234657629414
 20
62.20417284541334
 10
54.578690201006644
 20
61.32917284541334
 10
54.578690201006644
 20
59.57917284541334
 10
56.094234657629414
 20
58.70417284541334
 10
57.609779114252184
 20
59.57917284541334
  0
LWPOLYLINE
  5
136
330
17
100
AcDbEntity
  8
0
100
AcDbPolyline
 90
6
 70
1
 10
61.14086802749771
 20
61.32917284541334
 10
59.62532357087494
 20
62.20417284541334
 10
58.10977911425217
 20
61.32917284541334
 10
58.10977911425217
 20
59.57917284541334
 10
59.62532357087494
 20
58.70417284541334
 10
61.14086802749771
 20
59.57917284541334
  0
LWPOLYLINE
  5
137
330
17
100
AcDbEntity
  8
0
100
AcDbPolyline
 90
8
 70
1
 10
62.43101185371842
 20
61.5322745737474
 10
62.362177963196686
 20
60.973984472931775
 10
62.31976003066114
 20
59.75809060914449
 10
62.37487794299774
 20
59.20107050400861
 10
62.386310969700354
 20
59.148791162067134
 10
61.64086802749771
 20
59.57917284541334
 10
61.64086802749771
 20
61.32917284541334
 10
62.48673526180633
 20
61.817534520840105
  0
LWPOLYLINE
  5
138
330
17
100
AcDbEntity
  8
0
100
AcDbPolyline
 90
5
 70
1
 10
16.935112213589314
 20
64.37020691970424
 10
15.059291449500613
 20
65.01541408775172
 10
15.486712155305758
 20
65.26218554730555
 10
17.002256611928527
 20
64.38718554730555
 10
17.002256611928527
 20
64.33940784781377
  0
LWPOLYLINE
  5
139
330
17
100
AcDbEntity
  8
0
100
AcDbPolyline
 90
6
 70
1
 10
20.197737024481903
 20
62.87364401069347
 10
17.502256611928523
 20
64.1100583216264
 10
17.502256611928523
 20
64.38718554730555
 10
19.01780106855129
 20
65.26218554730555
 10
20.533345525174056
 20
64.38718554730555
 10
20.533345525174056
 20
62.679583442633195
  0
LWPOLYLINE
  5
13A
330
17
100
AcDbEntity
  8
0
100
AcDbPolyline
 90
6
 70
1
 10
24.06443443841959
 20
64.38718554730555
 10
22.548889981796822
 20
65.26218554730555
 10
21.033345525174056
 20
64.38718554730555
 10
21.033345525174056
 20
62.63718554730555
 10
22.548889981796822
 20
61.76218554730555
 10
24.06443443841959
 20
62.63718554730555
  0
LWPOLYLINE
  5
13B
330
17
100
AcDbEntity
  8
0
100
AcDbPolyline
 90
6
 70
1
 10
27.59552335166513
 20
64.38718554730555
 10
26.079978895042363
 20
65.26218554730555
 10
24.564434438419596
 20
64.38718554730555
 10
24.564434438419596
 20
62.63718554730555
 10
26.079978895042363
 20
61.76218554730555
 10
27.59552335166513
 20
62.63718554730555
  0
LWPOLYLINE
  5
13C
330
17
100
AcDbEntity
  8
0
100
AcDbPolyline
 90
6
 70
1
 10
31.126612264910655
 20
64.38718554730555
 10
29.61106780828789
 20
65.26218554730555
 10
28.095523351665122
 20
64.38718554730555
 10
28.095523351665122
 20
62.63718554730555
 10
29.61106780828789
 20
61.76218554730555
 10
31.126612264910655
 20
62.63718554730555
  0
LWPOLYLINE
  5
13D
330
17
100
AcDbEntity
  8
0
100
AcDbPolyline
 90
6
 70
1
 10
34.6577011781562
 20
64.38718554730555
 10
33.14215672153343
 20
65.26218554730555
 10
31.626612264910666
 20
64.38718554730555
 10
31.626612264910666
 20
62.63718554730555
 10
33.14215672153343
 20
61.76218554730555
 10
34.6577011781562
 20
62.63718554730555
  0
LWPOLYLINE
  5
13E
330
17
100
AcDbEntity
  8
0
100
AcDbPolyline
 90
6
 70
1
 10
38.18879009140174
 20
64.38718554730555
 10
36.67324563477897
 20
65.26218554730555
 10
35.1577011781562
 20
64.38718554730555
 10
35.1577011781562
 20
62.63718554730555
 10
36.67324563477897
 20
61.76218554730555
 10
38.18879009140174
 20
62.63718554730555
  0
LWPOLYLINE
  5
13F
330
17
100
AcDbEntity
  8
0
100
AcDbPolyline
 90
6
 70
1
 10
41.71987900464727
 20
64.38718554730555
 10
40.2043345480245
 20
65.26218554730555
 10
38.68879009140173
 20
64.38718554730555
 10
38.68879009140173
 20
62.63718554730555
 10
40.2043345480245
 20
61.76218554730555
 10
41.71987900464727
 20
62.63718554730555
  0
LWPOLYLINE
  5
140
330
17
100
AcDbEntity
  8
0
100
AcDbPolyline
 90
6
 70
1
 10
45.25096791789281
 20
64.38718554730555
 10
43.73542346127004
 20
65.26218554730555
 10
42.21987900464727
 20
64.38718554730555
 10
42.21987900464727
 20
62.63718554730555
 10
43.73542346127004
 20
61.76218554730555
 10
45.25096791789281
 20
62.63718554730555
  0
LWPOLYLINE
  5
141
330
17
100
AcDbEntity
  8
0
100
AcDbPolyline
 90
6
 70
1
 10
48.78205683113835
 20
64.38718554730555
 10
47.26651237451558
 20
65.26218554730555
 10
45.75096791789281
 20
64.38718554730555
 10
45.75096791789281
 20
62.63718554730555
 10
47.26651237451558
 20
61.76218554730555
 10
48.78205683113835
 20
62.63718554730555
  0
LWPOLYLINE
  5
142
330
17
100
AcDbEntity
  8
0
100
AcDbPolyline
 90
6
 70
1
 10
52.313145744383874
 20
64.38718554730555
 10
50.797601287761104
 20
65.26218554730555
 10
49.282056831138334
 20
64.38718554730555
 10
49.282056831138334
 20
62.63718554730555
 10
50.797601287761104
 20
61.76218554730555
 10
52.313145744383874
 20
62.63718554730555
  0
LWPOLYLINE
  5
143
330
17
100
AcDbEntity
  8
0
100
AcDbPolyline
 90
6
 70
1
 10
55.844234657629414
 20
64.38718554730555
 10
54.328690201006644
 20
65.26218554730555
 10
52.813145744383874
 20
64.38718554730555
 10
52.813145744383874
 20
62.63718554730555
 10
54.328690201006644
 20
61.76218554730555
 10
55.844234657629414
 20
62.63718554730555
  0
LWPOLYLINE
  5
144
330
17
100
AcDbEntity
  8
0
100
AcDbPolyline
 90
6
 70
1
 10
59.375323570874954
 20
64.38718554730555
 10
57.859779114252184
 20
65.26218554730555
 10
56.344234657629414
 20
64.38718554730555
 10
56.344234657629414
 20
62.63718554730555
 10
57.859779114252184
 20
61.76218554730555
 10
59.375323570874954
 20
62.63718554730555
  0
LWPOLYLINE
  5
145
330
17
100
AcDbEntity
  8
0
100
AcDbPolyline
 90
7
 70
1
 10
62.66904973266648
 20
62.500144098857994
 10
61.39086802749771
 20
61.76218554730555
 10
59.87532357087494
 20
62.63718554730555
 10
59.87532357087494
 20
64.38718554730555
 10
61.39086802749771
 20
65.26218554730555
 10
62.90641248412048
 20
64.38718554730555
 10
62.90641248412048
 20
63.26999623014713
  0
LWPOLYLINE
  5
146
330
17
100
AcDbEntity
  8
0
100
AcDbPolyline
 90
3
 70
1
 10
2.5439640703023123
 20
67.98306212934936
 10
3.127900958946384
 20
68.32019824919777
 10
4.427639595327093
 20
67.56979379760722
  0
LWPOLYLINE
  5
147
330
17
100
AcDbEntity
  8
0
100
AcDbPolyline
 90
5
 70
1
 10
5.14344541556915
 20
67.41274983050525
 10
5.14344541556915
 20
67.44519824919777
 10
6.658989872191917
 20
68.32019824919777
 10
8.174534328814685
 20
67.44519824919777
 10
8.174534328814685
 20
66.7477451405268
  0
LWPOLYLINE
  5
148
330
17
100
AcDbEntity
  8
0
100
AcDbPolyline
 90
5
 70
1
 10
8.674534328814683
 20
66.63804781573496
 10
8.674534328814683
 20
67.44519824919777
 10
10.19007878543745
 20
68.32019824919777
 10
11.705623242060218
 20
67.44519824919777
 10
11.705623242060218
 20
65.9730431257565
  0
LWPOLYLINE
  5
149
330
17
100
AcDbEntity
  8
0
100
AcDbPolyline
 90
7
 70
1
 10
13.278280029671784
 20
65.62801064092308
 10
12.205623242060222
 20
65.86334580096467
 10
12.205623242060224
 20
67.44519824919777
 10
13.72116769868299
 20
68.32019824919777
 10
15.236712155305758
 20
67.44519824919777
 10
15.236712155305758
 20
65.69519824919777
 10
14.4326292533597
 20
65.23096076930844
  0
LWPOLYLINE
  5
14A
330
17
100
AcDbEntity
  8
0
100
AcDbPolyline
 90
6
 70
1
 10
18.76780106855129
 20
67.44519824919777
 10
17.252256611928523
 20
68.32019824919777
 10
15.736712155305757
 20
67.44519824919777
 10
15.736712155305755
 20
65.69519824919777
 10
17.252256611928523
 20
64.82019824919777
 10
18.76780106855129
 20
65.69519824919777
  0
LWPOLYLINE
  5
14B
330
17
100
AcDbEntity
  8
0
100
AcDbPolyline
 90
6
 70
1
 10
22.298889981796822
 20
67.44519824919777
 10
20.783345525174056
 20
68.32019824919777
 10
19.26780106855129
 20
67.44519824919777
 10
19.26780106855129
 20
65.69519824919777
 10
20.783345525174056
 20
64.82019824919777
 10
22.298889981796822
 20
65.69519824919777
  0
LWPOLYLINE
  5
14C
330
17
100
AcDbEntity
  8
0
100
AcDbPolyline
 90
6
 70
1
 10
25.829978895042363
 20
67.44519824919777
 10
24.314434438419596
 20
68.32019824919777
 10
22.79888998179683
 20
67.44519824919777
 10
22.79888998179683
 20
65.69519824919777
 10
24.314434438419596
 20
64.82019824919777
 10
25.829978895042363
 20
65.69519824919777
  0
LWPOLYLINE
  5
14D
330
17
100
AcDbEntity
  8
0
100
AcDbPolyline
 90
6
 70
1
 10
29.36106780828789
 20
67.44519824919777
 10
27.845523351665122
 20
68.32019824919777
 10
26.329978895042355
 20
67.44519824919777
 10
26.329978895042355
 20
65.69519824919777
 10
27.845523351665122
 20
64.82019824919777
 10
29.36106780828789
 20
65.69519824919777
  0
LWPOLYLINE
  5
14E
330
17
100
AcDbEntity
  8
0
100
AcDbPolyline
 90
6
 70
1
 10
32.89215672153343
 20
67.44519824919777
 10
31.376612264910662
 20
68.32019824919777
 10
29.861067808287896
 20
67.44519824919777
 10
29.861067808287896
 20
65.69519824919777
 10
31.376612264910662
 20
64.82019824919777
 10
32.89215672153343
 20
65.69519824919777
  0
LWPOLYLINE
  5
14F
330
17
100
AcDbEntity
  8
0
100
AcDbPolyline
 90
6
 70
1
 10
36.42324563477897
 20
67.44519824919777
 10
34.9077011781562
 20
68.32019824919777
 10
33.39215672153343
 20
67.44519824919777
 10
33.39215672153343
 20
65.69519824919777
 10
34.9077011781562
 20
64.82019824919777
 10
36.42324563477897
 20
65.69519824919777
  0
LWPOLYLINE
  5
150
330
17
100
AcDbEntity
  8
0
100
AcDbPolyline
 90
6
 70
1
 10
39.9543345480245
 20
67.44519824919777
 10
38.43879009140173
 20
68.32019824919777
 10
36.92324563477896
 20
67.44519824919777
 10
36.92324563477896
 20
65.69519824919777
 10
38.43879009140173
 20
64.82019824919777
 10
39.9543345480245
 20
65.69519824919777
  0
LWPOLYLINE
  5
151
330
17
100
AcDbEntity
  8
0
100
AcDbPolyline
 90
6
 70
1
 10
43.48542346127004
 20
67.44519824919777
 10
41.96987900464727
 20
68.32019824919777
 10
40.4543345480245
 20
67.44519824919777
 10
40.4543345480245
 20
65.69519824919777
 10
41.96987900464727
 20
64.82019824919777
 10
43.48542346127004
 20
65.69519824919777
  0
LWPOLYLINE
  5
152
330
17
100
AcDbEntity
  8
0
100
AcDbPolyline
 90
6
 70
1
 10
47.01651237451558
 20
67.44519824919777
 10
45.50096791789281
 20
68.32019824919777
 10
43.98542346127004
 20
67.44519824919777
 10
43.98542346127004
 20
65.69519824919777
 10
45.50096791789281
 20
64.82019824919777
 10
47.01651237451558
 20
65.69519824919777
  0
LWPOLYLINE
  5
153
330
17
100
AcDbEntity
  8
0
100
AcDbPolyline
 90
6
 70
1
 10
50.547601287761104
 20
67.44519824919777
 10
49.032056831138334
 20
68.32019824919777
 10
47.516512374515564
 20
67.44519824919777
 10
47.516512374515564
 20
65.69519824919777
 10
49.032056831138334
 20
64.82019824919777
 10
50.547601287761104
 20
65.69519824919777
  0
LWPOLYLINE
  5
154
330
17
100
AcDbEntity
  8
0
100
AcDbPolyline
 90
6
 70
1
 10
54.078690201006644
 20
67.44519824919777
 10
52.563145744383874
 20
68.32019824919777
 10
51.047601287761104
 20
67.44519824919777
 10
51.047601287761104
 20
65.69519824919777
 10
52.563145744383874
 20
64.82019824919777
 10
54.078690201006644
 20
65.69519824919777
  0
LWPOLYLINE
  5
155
330
17
100
AcDbEntity
  8
0
100
AcDbPolyline
 90
6
 70
1
 10
57.609779114252184
 20
67.44519824919777
 10
56.094234657629414
 20
68.32019824919777
 10
54.578690201006644
 20
67.44519824919777
 10
54.578690201006644
 20
65.69519824919777
 10
56.094234657629414
 20
64.82019824919777
 10
57.609779114252184
 20
65.69519824919777
  0
LWPOLYLINE
  5
156
330
17
100
AcDbEntity
  8
0
100
AcDbPolyline
 90
6
 70
1
 10
61.14086802749771
 20
67.44519824919777
 10
59.62532357087494
 20
68.32019824919777
 10
58.10977911425217
 20
67.44519824919777
 10
58.10977911425217
 20
65.69519824919777
 10
59.62532357087494
 20
64.82019824919777
 10
61.14086802749771
 20
65.69519824919777
  0
LWPOLYLINE
  5
157
330
17
100
AcDbEntity
  8
0
100
AcDbPolyline
 90
8
 70
1
 10
64.59000841989881
 20
66.70598297389006
 10
63.73493985375368
 20
65.15421118178907
 10
63.15641248412048
 20
64.82019824919777
 10
61.64086802749771
 20
65.69519824919777
 10
61.64086802749771
 20
67.44519824919777
 10
63.15641248412048
 20
68.32019824919777
 10
64.67195694074324
 20
67.44519824919777
 10
64.67195694074324
 20
66.82705695211548
  0
LWPOLYLINE
  5
158
330
17
100
AcDbEntity
  8
0
100
AcDbPolyline
 90
13
 70
1
 10
-34.40074613825972
 20
70.05419958396818
 10
-34.52698393748227
 20
70.07477351398003
 10
-34.64839574438042
 20
70.1077934016534
 10
-34.76421956016609
 20
70.15249724958039
 10
-34.873947385647256
 20
70.20837705948915
 10
-34.976817222035855
 20
70.27467083397181
 10
-35.072321070139836
 20
70.35061657562052
 10
-35.15969693117113
 20
70.43545228702745
 10
-35.23818280634168
 20
70.52841597078472
 10
-35.28993056959639
 20
70.60375448964967
 10
-33.94853263013174
 20
71.37821095109
 10
-32.43298817350897
 20
70.50321095109
 10
-32.43298817350897
 20
70.05394587295856
  0
LWPOLYLINE
  5
159
330
17
100
AcDbEntity
  8
0
100
AcDbPolyline
 90
5
 70
1
 10
-31.932988173508967
 20
70.05388140593209
 10
-31.932988173508967
 20
70.50321095109
 10
-30.4174437168862
 20
71.37821095109
 10
-28.901899260263434
 20
70.50321095109
 10
-28.901899260263434
 20
70.05349059535364
  0
LWPOLYLINE
  5
15A
330
17
100
AcDbEntity
  8
0
100
AcDbPolyline
 90
5
 70
1
 10
-28.401899260263434
 20
70.05342612832716
 10
-28.401899260263434
 20
70.50321095109
 10
-26.886354803640668
 20
71.37821095109
 10
-25.3708103470179
 20
70.50321095109
 10
-25.3708103470179
 20
70.05303531774871
  0
LWPOLYLINE
  5
15B
330
17
100
AcDbEntity
  8
0
100
AcDbPolyline
 90
5
 70
1
 10
-24.8708103470179
 20
70.05297085072223
 10
-24.8708103470179
 20
70.50321095109
 10
-23.355265890395135
 20
71.37821095109
 10
-21.839721433772368
 20
70.50321095109
 10
-21.839721433772368
 20
70.0525800401438
  0
LWPOLYLINE
  5
15C
330
17
100
AcDbEntity
  8
0
100
AcDbPolyline
 90
5
 70
1
 10
-21.339721433772365
 20
70.05251557311732
 10
-21.339721433772365
 20
70.50321095109
 10
-19.824176977149598
 20
71.37821095109
 10
-18.30863252052683
 20
70.50321095109
 10
-18.30863252052683
 20
70.05212476253887
  0
LWPOLYLINE
  5
15D
330
17
100
AcDbEntity
  8
0
100
AcDbPolyline
 90
13
 70
1
 10
-15.502922194684839
 20
70.89493672395895
 10
-15.593600050464417
 20
70.7351712674471
 10
-15.702565877157518
 20
70.58734377032485
 10
-15.828549676784043
 20
70.45323222654383
 10
-15.970281451363888
 20
70.33461463005571
 10
-16.126491202916938
 20
70.23326897481212
 10
-16.29616293305911
 20
70.15122725390063
 10
-16.47802664381031
 20
70.09001346213697
 10
-16.670812337190412
 20
70.05191359174462
 10
-17.808632520526828
 20
70.05206029551239
 10
-17.808632520526828
 20
70.50321095109
 10
-16.29308806390406
 20
71.37821095109
 10
-15.49378577905427
 20
70.91673356176808
  0
LWPOLYLINE
  5
15E
330
17
100
AcDbEntity
  8
0
100
AcDbPolyline
 90
3
 70
1
 10
-0.7895627957301894
 20
70.5819470025009
 10
-0.6531879542991539
 20
70.50321095109
 10
-0.6531879542991539
 20
70.38178296549218
  0
LWPOLYLINE
  5
15F
330
17
100
AcDbEntity
  8
0
100
AcDbPolyline
 90
11
 70
1
 10
1.7675263371820833
 20
68.24547173687623
 10
1.4459628486192173
 20
68.40701518733972
 10
1.1343053443011826
 20
68.59395855139809
 10
0.5440102831478626
 20
69.03540904967724
 10
0.0034991428147037595
 20
69.55255129046915
 10
-0.15318795429915608
 20
69.73898148417051
 10
-0.15318795429915588
 20
70.50321095109
 10
1.3623565023236115
 20
71.37821095109
 10
2.8779009589463795
 20
70.50321095109
 10
2.8779009589463795
 20
68.75321095109
 10
1.903078826908943
 20
68.19039713074618
  0
LWPOLYLINE
  5
160
330
17
100
AcDbEntity
  8
0
100
AcDbPolyline
 90
6
 70
1
 10
6.408989872191919
 20
70.50321095109
 10
4.893445415569151
 20
71.37821095109
 10
3.377900958946384
 20
70.50321095109
 10
3.3779009589463835
 20
68.75321095109
 10
4.893445415569151
 20
67.87821095109
 10
6.408989872191919
 20
68.75321095109
  0
LWPOLYLINE
  5
161
330
17
100
AcDbEntity
  8
0
100
AcDbPolyline
 90
6
 70
1
 10
9.940078785437453
 20
70.50321095109
 10
8.424534328814685
 20
71.37821095109
 10
6.908989872191918
 20
70.50321095109
 10
6.908989872191917
 20
68.75321095109
 10
8.424534328814685
 20
67.87821095109
 10
9.940078785437453
 20
68.75321095109
  0
LWPOLYLINE
  5
162
330
17
100
AcDbEntity
  8
0
100
AcDbPolyline
 90
6
 70
1
 10
13.471167698682986
 20
70.50321095109
 10
11.955623242060218
 20
71.37821095109
 10
10.44007878543745
 20
70.50321095109
 10
10.44007878543745
 20
68.75321095109
 10
11.955623242060218
 20
67.87821095109
 10
13.471167698682986
 20
68.75321095109
  0
LWPOLYLINE
  5
163
330
17
100
AcDbEntity
  8
0
100
AcDbPolyline
 90
6
 70
1
 10
17.002256611928527
 20
70.50321095109
 10
15.486712155305758
 20
71.37821095109
 10
13.97116769868299
 20
70.50321095109
 10
13.97116769868299
 20
68.75321095109
 10
15.486712155305758
 20
67.87821095109
 10
17.002256611928527
 20
68.75321095109
  0
LWPOLYLINE
  5
164
330
17
100
AcDbEntity
  8
0
100
AcDbPolyline
 90
6
 70
1
 10
20.533345525174056
 20
70.50321095109
 10
19.01780106855129
 20
71.37821095109
 10
17.502256611928523
 20
70.50321095109
 10
17.502256611928523
 20
68.75321095109
 10
19.01780106855129
 20
67.87821095109
 10
20.533345525174056
 20
68.75321095109
  0
LWPOLYLINE
  5
165
330
17
100
AcDbEntity
  8
0
100
AcDbPolyline
 90
6
 70
1
 10
24.06443443841959
 20
70.50321095109
 10
22.548889981796822
 20
71.37821095109
 10
21.033345525174056
 20
70.50321095109
 10
21.033345525174056
 20
68.75321095109
 10
22.548889981796822
 20
67.87821095109
 10
24.06443443841959
 20
68.75321095109
  0
LWPOLYLINE
  5
166
330
17
100
AcDbEntity
  8
0
100
AcDbPolyline
 90
6
 70
1
 10
27.59552335166513
 20
70.50321095109
 10
26.079978895042363
 20
71.37821095109
 10
24.564434438419596
 20
70.50321095109
 10
24.564434438419596
 20
68.75321095109
 10
26.079978895042363
 20
67.87821095109
 10
27.59552335166513
 20
68.75321095109
  0
LWPOLYLINE
  5
167
330
17
100
AcDbEntity
  8
0
100
AcDbPolyline
 90
6
 70
1
 10
31.126612264910655
 20
70.50321095109
 10
29.61106780828789
 20
71.37821095109
 10
28.095523351665122
 20
70.50321095109
 10
28.095523351665122
 20
68.75321095109
 10
29.61106780828789
 20
67.87821095109
 10
31.126612264910655
 20
68.75321095109
  0
LWPOLYLINE
  5
168
330
17
100
AcDbEntity
  8
0
100
AcDbPolyline
 90
6
 70
1
 10
34.6577011781562
 20
70.50321095109
 10
33.14215672153343
 20
71.37821095109
 10
31.626612264910666
 20
70.50321095109
 10
31.626612264910666
 20
68.75321095109
 10
33.14215672153343
 20
67.87821095109
 10
34.6577011781562
 20
68.75321095109
  0
LWPOLYLINE
  5
169
330
17
100
AcDbEntity
  8
0
100
AcDbPolyline
 90
6
 70
1
 10
38.18879009140174
 20
70.50321095109
 10
36.67324563477897
 20
71.37821095109
 10
35.1577011781562
 20
70.50321095109
 10
35.1577011781562
 20
68.75321095109
 10
36.67324563477897
 20
67.87821095109
 10
38.18879009140174
 20
68.75321095109
  0
LWPOLYLINE
  5
16A
330
17
100
AcDbEntity
  8
0
100
AcDbPolyline
 90
6
 70
1
 10
41.71987900464727
 20
70.50321095109
 10
40.2043345480245
 20
71.37821095109
 10
38.68879009140173
 20
70.50321095109
 10
38.68879009140173
 20
68.75321095109
 10
40.2043345480245
 20
67.87821095109
 10
41.71987900464727
 20
68.75321095109
  0
LWPOLYLINE
  5
16B
330
17
100
AcDbEntity
  8
0
100
AcDbPolyline
 90
6
 70
1
 10
45.25096791789281
 20
70.50321095109
 10
43.73542346127004
 20
71.37821095109
 10
42.21987900464727
 20
70.50321095109
 10
42.21987900464727
 20
68.75321095109
 10
43.73542346127004
 20
67.87821095109
 10
45.25096791789281
 20
68.75321095109
  0
LWPOLYLINE
  5
16C
330
17
100
AcDbEntity
  8
0
100
AcDbPolyline
 90
6
 70
1
 10
48.78205683113835
 20
70.50321095109
 10
47.26651237451558
 20
71.37821095109
 10
45.75096791789281
 20
70.50321095109
 10
45.75096791789281
 20
68.75321095109
 10
47.26651237451558
 20
67.87821095109
 10
48.78205683113835
 20
68.75321095109
  0
LWPOLYLINE
  5
16D
330
17
100
AcDbEntity
  8
0
100
AcDbPolyline
 90
6
 70
1
 10
52.313145744383874
 20
70.50321095109
 10
50.797601287761104
 20
71.37821095109
 10
49.282056831138334
 20
70.50321095109
 10
49.282056831138334
 20
68.75321095109
 10
50.797601287761104
 20
67.87821095109
 10
52.313145744383874
 20
68.75321095109
  0
LWPOLYLINE
  5
16E
330
17
100
AcDbEntity
  8
0
100
AcDbPolyline
 90
6
 70
1
 10
55.844234657629414
 20
70.50321095109
 10
54.328690201006644
 20
71.37821095109
 10
52.813145744383874
 20
70.50321095109
 10
52.813145744383874
 20
68.75321095109
 10
54.328690201006644
 20
67.87821095109
 10
55.844234657629414
 20
68.75321095109
  0
LWPOLYLINE
  5
16F
330
17
100
AcDbEntity
  8
0
100
AcDbPolyline
 90
6
 70
1
 10
59.375323570874954
 20
70.50321095109
 10
57.859779114252184
 20
71.37821095109
 10
56.344234657629414
 20
70.50321095109
 10
56.344234657629414
 20
68.75321095109
 10
57.859779114252184
 20
67.87821095109
 10
59.375323570874954
 20
68.75321095109
  0
LWPOLYLINE
  5
170
330
17
100
AcDbEntity
  8
0
100
AcDbPolyline
 90
6
 70
1
 10
62.90641248412048
 20
70.50321095109
 10
61.39086802749771
 20
71.37821095109
 10
59.87532357087494
 20
70.50321095109
 10
59.87532357087494
 20
68.75321095109
 10
61.39086802749771
 20
67.87821095109
 10
62.90641248412048
 20
68.75321095109
  0
LWPOLYLINE
  5
171
330
17
100
AcDbEntity
  8
0
100
AcDbPolyline
 90
8
 70
1
 10
65.884898360415
 20
68.61910446585698
 10
65.67943091430865
 20
68.31553875363213
 10
64.92195694074324
 20
67.87821095109
 10
63.40641248412047
 20
68.75321095109
 10
63.40641248412047
 20
70.50321095109
 10
64.92195694074324
 20
71.37821095109
 10
66.437501397366
 20
70.50321095109
 10
66.437501397366
 20
69.29351570571245
  0
LWPOLYLINE
  5
172
330
17
100
AcDbEntity
  8
0
100
AcDbPolyline
 90
4
 70
1
 10
67.5211637579837
 20
70.61604567268706
 10
66.93750139736602
 20
69.90372881961115
 10
66.93750139736602
 20
70.50321095109
 10
68.03843576989135
 20
71.1388357074276
  0
LWPOLYLINE
  5
173
330
17
100
AcDbEntity
  8
0
100
AcDbPolyline
 90
6
 70
1
 10
-35.476942426601624
 20
71.09229405259124
 10
-35.48938840680667
 20
71.21980161883758
 10
-35.517554163577984
 20
74.3227610903843
 10
-34.19853263013174
 20
73.5612236529822
 10
-34.19853263013174
 20
71.8112236529822
 10
-35.473450058750274
 20
71.07514973237475
  0
LWPOLYLINE
  5
174
330
17
100
AcDbEntity
  8
0
100
AcDbPolyline
 90
6
 70
1
 10
-30.6674437168862
 20
73.5612236529822
 10
-32.18298817350897
 20
74.4362236529822
 10
-33.69853263013174
 20
73.5612236529822
 10
-33.69853263013174
 20
71.8112236529822
 10
-32.18298817350897
 20
70.9362236529822
 10
-30.6674437168862
 20
71.8112236529822
  0
LWPOLYLINE
  5
175
330
17
100
AcDbEntity
  8
0
100
AcDbPolyline
 90
6
 70
1
 10
-27.136354803640668
 20
73.5612236529822
 10
-28.651899260263434
 20
74.4362236529822
 10
-30.1674437168862
 20
73.5612236529822
 10
-30.1674437168862
 20
71.8112236529822
 10
-28.651899260263434
 20
70.9362236529822
 10
-27.136354803640668
 20
71.8112236529822
  0
LWPOLYLINE
  5
176
330
17
100
AcDbEntity
  8
0
100
AcDbPolyline
 90
6
 70
1
 10
-23.605265890395135
 20
73.5612236529822
 10
-25.1208103470179
 20
74.4362236529822
 10
-26.636354803640668
 20
73.5612236529822
 10
-26.636354803640668
 20
71.8112236529822
 10
-25.1208103470179
 20
70.9362236529822
 10
-23.605265890395135
 20
71.8112236529822
  0
LWPOLYLINE
  5
177
330
17
100
AcDbEntity
  8
0
100
AcDbPolyline
 90
6
 70
1
 10
-20.074176977149598
 20
73.5612236529822
 10
-21.589721433772365
 20
74.4362236529822
 10
-23.10526589039513
 20
73.5612236529822
 10
-23.10526589039513
 20
71.8112236529822
 10
-21.589721433772365
 20
70.9362236529822
 10
-20.074176977149598
 20
71.8112236529822
  0
LWPOLYLINE
  5
178
330
17
100
AcDbEntity
  8
0
100
AcDbPolyline
 90
6
 70
1
 10
-16.54308806390406
 20
73.5612236529822
 10
-18.058632520526828
 20
74.4362236529822
 10
-19.574176977149595
 20
73.5612236529822
 10
-19.574176977149595
 20
71.8112236529822
 10
-18.058632520526828
 20
70.9362236529822
 10
-16.54308806390406
 20
71.8112236529822
  0
LWPOLYLINE
  5
179
330
17
100
AcDbEntity
  8
0
100
AcDbPolyline
 90
9
 70
1
 10
-15.365254413641335
 20
71.8052696271997
 10
-15.346712443131786
 20
71.6145162761021
 10
-15.352554433840275
 20
71.426302916364
 10
-15.35452439611529
 20
71.41368123403016
 10
-16.04308806390406
 20
71.8112236529822
 10
-16.04308806390406
 20
73.5612236529822
 10
-15.993564251084903
 20
73.58981623964465
 10
-15.787655741824612
 20
72.97544364651618
 10
-15.40919634375301
 20
71.99678497570517
  0
LWPOLYLINE
  5
17A
330
17
100
AcDbEntity
  8
0
100
AcDbPolyline
 90
7
 70
1
 10
-1.9187324109219237
 20
72.9573405309152
 10
-1.9187324109219235
 20
73.5612236529822
 10
-0.403187954299156
 20
74.4362236529822
 10
1.1123565023236117
 20
73.5612236529822
 10
1.1123565023236117
 20
71.8112236529822
 10
-0.40318795429915644
 20
70.9362236529822
 10
-1.2748790445318094
 20
71.43949473857823
  0
LWPOLYLINE
  5
17B
330
17
100
AcDbEntity
  8
0
100
AcDbPolyline
 90
6
 70
1
 10
4.643445415569152
 20
73.5612236529822
 10
3.127900958946384
 20
74.4362236529822
 10
1.6123565023236166
 20
73.5612236529822
 10
1.6123565023236162
 20
71.8112236529822
 10
3.1279009589463835
 20
70.9362236529822
 10
4.643445415569152
 20
71.8112236529822
  0
LWPOLYLINE
  5
17C
330
17
100
AcDbEntity
  8
0
100
AcDbPolyline
 90
6
 70
1
 10
8.174534328814685
 20
73.5612236529822
 10
6.658989872191917
 20
74.4362236529822
 10
5.14344541556915
 20
73.5612236529822
 10
5.143445415569149
 20
71.8112236529822
 10
6.658989872191917
 20
70.9362236529822
 10
8.174534328814685
 20
71.8112236529822
  0
LWPOLYLINE
  5
17D
330
17
100
AcDbEntity
  8
0
100
AcDbPolyline
 90
6
 70
1
 10
11.705623242060218
 20
73.5612236529822
 10
10.19007878543745
 20
74.4362236529822
 10
8.674534328814683
 20
73.5612236529822
 10
8.674534328814682
 20
71.8112236529822
 10
10.19007878543745
 20
70.9362236529822
 10
11.705623242060218
 20
71.8112236529822
  0
LWPOLYLINE
  5
17E
330
17
100
AcDbEntity
  8
0
100
AcDbPolyline
 90
6
 70
1
 10
15.236712155305758
 20
73.5612236529822
 10
13.72116769868299
 20
74.4362236529822
 10
12.205623242060224
 20
73.5612236529822
 10
12.205623242060222
 20
71.8112236529822
 10
13.72116769868299
 20
70.9362236529822
 10
15.236712155305758
 20
71.8112236529822
  0
LWPOLYLINE
  5
17F
330
17
100
AcDbEntity
  8
0
100
AcDbPolyline
 90
6
 70
1
 10
18.76780106855129
 20
73.5612236529822
 10
17.252256611928523
 20
74.4362236529822
 10
15.736712155305757
 20
73.5612236529822
 10
15.736712155305755
 20
71.8112236529822
 10
17.252256611928523
 20
70.9362236529822
 10
18.76780106855129
 20
71.8112236529822
  0
LWPOLYLINE
  5
180
330
17
100
AcDbEntity
  8
0
100
AcDbPolyline
 90
6
 70
1
 10
22.298889981796822
 20
73.5612236529822
 10
20.783345525174056
 20
74.4362236529822
 10
19.26780106855129
 20
73.5612236529822
 10
19.26780106855129
 20
71.8112236529822
 10
20.783345525174056
 20
70.9362236529822
 10
22.298889981796822
 20
71.8112236529822
  0
LWPOLYLINE
  5
181
330
17
100
AcDbEntity
  8
0
100
AcDbPolyline
 90
20
 70
1
 10
23.1253363682225
 20
72.92743780982187
 10
23.147942332268386
 20
72.77554632652443
 10
23.185280272883496
 20
72.62898882508195
 10
23.236334191683774
 20
72.48852730290221
 10
23.30059608947714
 20
72.3549237573931
 10
23.37704996787953
 20
72.22894018596246
 10
23.464933828102872
 20
72.11133858601812
 10
23.563739670955123
 20
72.00288095496795
 10
23.672451498052204
 20
71.90458328935573
 10
23.790307310606053
 20
71.81695358745337
 10
23.916545109828597
 20
71.7407538466687
 10
24.05040289693178
 20
71.67700006354553
 10
24.19111867312754
 20
71.62620023635576
 10
24.337676440031785
 20
71.58937036164318
 10
24.489568198452474
 20
71.56727243681563
 10
25.419669315597616
 20
71.5743313068387
 10
24.314434438419596
 20
70.9362236529822
 10
22.79888998179683
 20
71.8112236529822
 10
22.79888998179683
 20
73.5612236529822
 10
23.128039251805724
 20
73.7512580726254
  0
LWPOLYLINE
  5
182
330
17
100
AcDbEntity
  8
0
100
AcDbPolyline
 90
3
 70
1
 10
28.997793215084275
 20
71.60148696880636
 10
27.845523351665122
 20
70.9362236529822
 10
26.72315396923474
 20
71.58422391805858
  0
LWPOLYLINE
  5
183
330
17
100
AcDbEntity
  8
0
100
AcDbPolyline
 90
3
 70
1
 10
32.57591711457095
 20
71.628642630774
 10
31.376612264910662
 20
70.9362236529822
 10
30.20842841649795
 20
71.61067491232626
  0
LWPOLYLINE
  5
184
330
17
100
AcDbEntity
  8
0
100
AcDbPolyline
 90
3
 70
1
 10
36.154041014057626
 20
71.65579829274165
 10
34.9077011781562
 20
70.9362236529822
 10
33.69370286376115
 20
71.63712590659394
  0
LWPOLYLINE
  5
185
330
17
100
AcDbEntity
  8
0
100
AcDbPolyline
 90
12
 70
1
 10
39.04806304360082
 20
71.67776206095338
 10
39.19233481414088
 20
71.70062198318878
 10
39.3315265927605
 20
71.73719785876541
 10
39.46487638067164
 20
71.78672769027546
 10
39.591876178682256
 20
71.84844948031103
 10
39.71150998840824
 20
71.92185523060024
 10
39.82326981065758
 20
72.00592894459933
 10
39.92639364664221
 20
72.10016262403636
 10
39.9543345480245
 20
72.13098085239531
 10
39.9543345480245
 20
71.8112236529822
 10
38.43879009140173
 20
70.9362236529822
 10
37.17897731102435
 20
71.66357690086161
  0
LWPOLYLINE
  5
186
330
17
100
AcDbEntity
  8
0
100
AcDbPolyline
 90
6
 70
1
 10
43.48542346127004
 20
73.5612236529822
 10
41.96987900464727
 20
74.4362236529822
 10
40.4543345480245
 20
73.5612236529822
 10
40.4543345480245
 20
71.8112236529822
 10
41.96987900464727
 20
70.9362236529822
 10
43.48542346127004
 20
71.8112236529822
  0
LWPOLYLINE
  5
187
330
17
100
AcDbEntity
  8
0
100
AcDbPolyline
 90
6
 70
1
 10
47.01651237451558
 20
73.5612236529822
 10
45.50096791789281
 20
74.4362236529822
 10
43.98542346127004
 20
73.5612236529822
 10
43.98542346127004
 20
71.8112236529822
 10
45.50096791789281
 20
70.9362236529822
 10
47.01651237451558
 20
71.8112236529822
  0
LWPOLYLINE
  5
188
330
17
100
AcDbEntity
  8
0
100
AcDbPolyline
 90
6
 70
1
 10
50.547601287761104
 20
73.5612236529822
 10
49.032056831138334
 20
74.4362236529822
 10
47.516512374515564
 20
73.5612236529822
 10
47.516512374515564
 20
71.8112236529822
 10
49.032056831138334
 20
70.9362236529822
 10
50.547601287761104
 20
71.8112236529822
  0
LWPOLYLINE
  5
189
330
17
100
AcDbEntity
  8
0
100
AcDbPolyline
 90
6
 70
1
 10
54.078690201006644
 20
73.5612236529822
 10
52.563145744383874
 20
74.4362236529822
 10
51.047601287761104
 20
73.5612236529822
 10
51.047601287761104
 20
71.8112236529822
 10
52.563145744383874
 20
70.9362236529822
 10
54.078690201006644
 20
71.8112236529822
  0
LWPOLYLINE
  5
18A
330
17
100
AcDbEntity
  8
0
100
AcDbPolyline
 90
6
 70
1
 10
57.609779114252184
 20
73.5612236529822
 10
56.094234657629414
 20
74.4362236529822
 10
54.578690201006644
 20
73.5612236529822
 10
54.578690201006644
 20
71.8112236529822
 10
56.094234657629414
 20
70.9362236529822
 10
57.609779114252184
 20
71.8112236529822
  0
LWPOLYLINE
  5
18B
330
17
100
AcDbEntity
  8
0
100
AcDbPolyline
 90
6
 70
1
 10
61.14086802749771
 20
73.5612236529822
 10
59.62532357087494
 20
74.4362236529822
 10
58.10977911425217
 20
73.5612236529822
 10
58.10977911425217
 20
71.8112236529822
 10
59.62532357087494
 20
70.9362236529822
 10
61.14086802749771
 20
71.8112236529822
  0
LWPOLYLINE
  5
18C
330
17
100
AcDbEntity
  8
0
100
AcDbPolyline
 90
6
 70
1
 10
64.67195694074324
 20
73.5612236529822
 10
63.15641248412048
 20
74.4362236529822
 10
61.64086802749771
 20
73.5612236529822
 10
61.64086802749771
 20
71.8112236529822
 10
63.15641248412048
 20
70.9362236529822
 10
64.67195694074324
 20
71.8112236529822
  0
LWPOLYLINE
  5
18D
330
17
100
AcDbEntity
  8
0
100
AcDbPolyline
 90
6
 70
1
 10
68.20304585398878
 20
73.5612236529822
 10
66.68750139736602
 20
74.4362236529822
 10
65.17195694074326
 20
73.5612236529822
 10
65.17195694074326
 20
71.8112236529822
 10
66.68750139736602
 20
70.9362236529822
 10
68.20304585398878
 20
71.8112236529822
  0
LWPOLYLINE
  5
18E
330
17
100
AcDbEntity
  8
0
100
AcDbPolyline
 90
6
 70
1
 10
69.52090257745878
 20
72.63711679743226
 10
68.70347916336196
 20
71.81097348169897
 10
68.70304585398878
 20
71.8112236529822
 10
68.70304585398878
 20
73.5612236529822
 10
70.21859031061155
 20
74.4362236529822
 10
71.08285203462118
 20
73.93724191397496
  0
LWPOLYLINE
  5
18F
330
17
100
AcDbEntity
  8
0
100
AcDbPolyline
 90
6
 70
1
 10
-32.43298817350897
 20
76.61923635487443
 10
-33.94853263013174
 20
77.49423635487443
 10
-35.46407708675451
 20
76.61923635487443
 10
-35.46407708675451
 20
74.86923635487443
 10
-33.94853263013174
 20
73.99423635487443
 10
-32.43298817350897
 20
74.86923635487443
  0
LWPOLYLINE
  5
190
330
17
100
AcDbEntity
  8
0
100
AcDbPolyline
 90
6
 70
1
 10
-28.901899260263434
 20
76.61923635487443
 10
-30.4174437168862
 20
77.49423635487443
 10
-31.932988173508967
 20
76.61923635487443
 10
-31.932988173508967
 20
74.86923635487443
 10
-30.4174437168862
 20
73.99423635487443
 10
-28.901899260263434
 20
74.86923635487443
  0
LWPOLYLINE
  5
191
330
17
100
AcDbEntity
  8
0
100
AcDbPolyline
 90
6
 70
1
 10
-25.3708103470179
 20
76.61923635487443
 10
-26.886354803640668
 20
77.49423635487443
 10
-28.401899260263434
 20
76.61923635487443
 10
-28.401899260263434
 20
74.86923635487443
 10
-26.886354803640668
 20
73.99423635487443
 10
-25.3708103470179
 20
74.86923635487443
  0
LWPOLYLINE
  5
192
330
17
100
AcDbEntity
  8
0
100
AcDbPolyline
 90
6
 70
1
 10
-21.839721433772368
 20
76.61923635487443
 10
-23.355265890395135
 20
77.49423635487443
 10
-24.8708103470179
 20
76.61923635487443
 10
-24.8708103470179
 20
74.86923635487443
 10
-23.355265890395135
 20
73.99423635487443
 10
-21.839721433772368
 20
74.86923635487443
  0
LWPOLYLINE
  5
193
330
17
100
AcDbEntity
  8
0
100
AcDbPolyline
 90
6
 70
1
 10
-18.30863252052683
 20
76.61923635487443
 10
-19.824176977149598
 20
77.49423635487443
 10
-21.339721433772365
 20
76.61923635487443
 10
-21.339721433772365
 20
74.86923635487443
 10
-19.824176977149598
 20
73.99423635487443
 10
-18.30863252052683
 20
74.86923635487443
  0
LWPOLYLINE
  5
194
330
17
100
AcDbEntity
  8
0
100
AcDbPolyline
 90
5
 70
1
 10
-16.155692715690666
 20
74.07356159615084
 10
-16.29308806390406
 20
73.99423635487443
 10
-17.808632520526828
 20
74.86923635487443
 10
-17.808632520526828
 20
76.61923635487443
 10
-17.13854429886675
 20
77.00611197003067
  0
LWPOLYLINE
  5
195
330
17
100
AcDbEntity
  8
0
100
AcDbPolyline
 90
6
 70
1
 10
-3.5138150859101165
 20
76.7176525103877
 10
-2.1687324109219217
 20
77.49423635487443
 10
-0.6531879542991539
 20
76.61923635487443
 10
-0.6531879542991539
 20
74.86923635487443
 10
-2.168732410921922
 20
73.99423635487443
 10
-2.420144308186211
 20
74.13938908143744
  0
LWPOLYLINE
  5
196
330
17
100
AcDbEntity
  8
0
100
AcDbPolyline
 90
6
 70
1
 10
2.8779009589463795
 20
76.61923635487443
 10
1.3623565023236115
 20
77.49423635487443
 10
-0.15318795429915588
 20
76.61923635487443
 10
-0.15318795429915633
 20
74.86923635487443
 10
1.3623565023236113
 20
73.99423635487443
 10
2.8779009589463795
 20
74.86923635487443
  0
LWPOLYLINE
  5
197
330
17
100
AcDbEntity
  8
0
100
AcDbPolyline
 90
6
 70
1
 10
6.408989872191919
 20
76.61923635487443
 10
4.893445415569151
 20
77.49423635487443
 10
3.377900958946384
 20
76.61923635487443
 10
3.3779009589463835
 20
74.86923635487443
 10
4.893445415569151
 20
73.99423635487443
 10
6.408989872191919
 20
74.86923635487443
  0
LWPOLYLINE
  5
198
330
17
100
AcDbEntity
  8
0
100
AcDbPolyline
 90
6
 70
1
 10
9.940078785437453
 20
76.61923635487443
 10
8.424534328814685
 20
77.49423635487443
 10
6.908989872191918
 20
76.61923635487443
 10
6.908989872191917
 20
74.86923635487443
 10
8.424534328814685
 20
73.99423635487443
 10
9.940078785437453
 20
74.86923635487443
  0
LWPOLYLINE
  5
199
330
17
100
AcDbEntity
  8
0
100
AcDbPolyline
 90
6
 70
1
 10
13.471167698682986
 20
76.61923635487443
 10
11.955623242060218
 20
77.49423635487443
 10
10.44007878543745
 20
76.61923635487443
 10
10.44007878543745
 20
74.86923635487443
 10
11.955623242060218
 20
73.99423635487443
 10
13.471167698682986
 20
74.86923635487443
  0
LWPOLYLINE
  5
19A
330
17
100
AcDbEntity
  8
0
100
AcDbPolyline
 90
6
 70
1
 10
17.002256611928527
 20
76.61923635487443
 10
15.486712155305758
 20
77.49423635487443
 10
13.97116769868299
 20
76.61923635487443
 10
13.97116769868299
 20
74.86923635487443
 10
15.486712155305758
 20
73.99423635487443
 10
17.002256611928527
 20
74.86923635487443
  0
LWPOLYLINE
  5
19B
330
17
100
AcDbEntity
  8
0
100
AcDbPolyline
 90
6
 70
1
 10
20.533345525174056
 20
76.61923635487443
 10
19.01780106855129
 20
77.49423635487443
 10
17.502256611928523
 20
76.61923635487443
 10
17.502256611928523
 20
74.86923635487443
 10
19.01780106855129
 20
73.99423635487443
 10
20.533345525174056
 20
74.86923635487443
  0
LWPOLYLINE
  5
19C
330
17
100
AcDbEntity
  8
0
100
AcDbPolyline
 90
6
 70
1
 10
23.129937083433884
 20
74.32970405541644
 10
22.548889981796822
 20
73.99423635487443
 10
21.033345525174056
 20
74.86923635487443
 10
21.033345525174056
 20
76.61923635487443
 10
22.548889981796822
 20
77.49423635487443
 10
23.139201452688678
 20
77.15341986824929
  0
LWPOLYLINE
  5
19D
330
17
100
AcDbEntity
  8
0
100
AcDbPolyline
 90
4
 70
1
 10
40.37309603716789
 20
77.39680186368865
 10
41.71987900464727
 20
76.61923635487443
 10
41.71987900464727
 20
74.86923635487443
 10
40.352942176486934
 20
74.08003500917086
  0
LWPOLYLINE
  5
19E
330
17
100
AcDbEntity
  8
0
100
AcDbPolyline
 90
6
 70
1
 10
45.25096791789281
 20
76.61923635487443
 10
43.73542346127004
 20
77.49423635487443
 10
42.21987900464727
 20
76.61923635487443
 10
42.21987900464727
 20
74.86923635487443
 10
43.73542346127004
 20
73.99423635487443
 10
45.25096791789281
 20
74.86923635487443
  0
LWPOLYLINE
  5
19F
330
17
100
AcDbEntity
  8
0
100
AcDbPolyline
 90
6
 70
1
 10
48.78205683113835
 20
76.61923635487443
 10
47.26651237451558
 20
77.49423635487443
 10
45.75096791789281
 20
76.61923635487443
 10
45.75096791789281
 20
74.86923635487443
 10
47.26651237451558
 20
73.99423635487443
 10
48.78205683113835
 20
74.86923635487443
  0
LWPOLYLINE
  5
1A0
330
17
100
AcDbEntity
  8
0
100
AcDbPolyline
 90
6
 70
1
 10
52.313145744383874
 20
76.61923635487443
 10
50.797601287761104
 20
77.49423635487443
 10
49.282056831138334
 20
76.61923635487443
 10
49.282056831138334
 20
74.86923635487443
 10
50.797601287761104
 20
73.99423635487443
 10
52.313145744383874
 20
74.86923635487443
  0
LWPOLYLINE
  5
1A1
330
17
100
AcDbEntity
  8
0
100
AcDbPolyline
 90
6
 70
1
 10
55.844234657629414
 20
76.61923635487443
 10
54.328690201006644
 20
77.49423635487443
 10
52.813145744383874
 20
76.61923635487443
 10
52.813145744383874
 20
74.86923635487443
 10
54.328690201006644
 20
73.99423635487443
 10
55.844234657629414
 20
74.86923635487443
  0
LWPOLYLINE
  5
1A2
330
17
100
AcDbEntity
  8
0
100
AcDbPolyline
 90
6
 70
1
 10
59.375323570874954
 20
76.61923635487443
 10
57.859779114252184
 20
77.49423635487443
 10
56.344234657629414
 20
76.61923635487443
 10
56.344234657629414
 20
74.86923635487443
 10
57.859779114252184
 20
73.99423635487443
 10
59.375323570874954
 20
74.86923635487443
  0
LWPOLYLINE
  5
1A3
330
17
100
AcDbEntity
  8
0
100
AcDbPolyline
 90
6
 70
1
 10
62.90641248412048
 20
76.61923635487443
 10
61.39086802749771
 20
77.49423635487443
 10
59.87532357087494
 20
76.61923635487443
 10
59.87532357087494
 20
74.86923635487443
 10
61.39086802749771
 20
73.99423635487443
 10
62.90641248412048
 20
74.86923635487443
  0
LWPOLYLINE
  5
1A4
330
17
100
AcDbEntity
  8
0
100
AcDbPolyline
 90
6
 70
1
 10
66.437501397366
 20
76.61923635487443
 10
64.92195694074324
 20
77.49423635487443
 10
63.40641248412047
 20
76.61923635487443
 10
63.40641248412047
 20
74.86923635487443
 10
64.92195694074324
 20
73.99423635487443
 10
66.437501397366
 20
74.86923635487443
  0
LWPOLYLINE
  5
1A5
330
17
100
AcDbEntity
  8
0
100
AcDbPolyline
 90
6
 70
1
 10
69.96859031061155
 20
76.61923635487443
 10
68.45304585398878
 20
77.49423635487443
 10
66.93750139736602
 20
76.61923635487443
 10
66.93750139736602
 20
74.86923635487443
 10
68.45304585398878
 20
73.99423635487443
 10
69.96859031061155
 20
74.86923635487443
  0
LWPOLYLINE
  5
1A6
330
17
100
AcDbEntity
  8
0
100
AcDbPolyline
 90
9
 70
1
 10
73.44570433517869
 20
75.74073223959158
 10
73.35274048303492
 20
75.65919851695199
 10
71.90595878409805
 20
74.62237404400868
 10
71.49240058553353
 20
74.27813921704912
 10
70.46859031061155
 20
74.86923635487443
 10
70.46859031061155
 20
76.61923635487443
 10
71.98413476723431
 20
77.49423635487443
 10
73.49967922385707
 20
76.61923635487443
 10
73.49967922385707
 20
75.79668171797707
  0
LWPOLYLINE
  5
1A7
330
17
100
AcDbEntity
  8
0
100
AcDbPolyline
 90
17
 70
1
 10
-35.724338033126294
 20
77.12858351841629
 10
-35.694366080795795
 20
77.24847111058415
 10
-35.651948148260246
 20
77.36327872003304
 10
-35.59810023390375
 20
77.4722443493551
 10
-35.53333033691835
 20
77.57460600114251
 10
-35.4586544556881
 20
77.66960167798739
 10
-35.37432658980906
 20
77.75646938248191
 10
-35.28136273766529
 20
77.83444711721822
 10
-35.18052489804486
 20
77.9025188856525
 10
-35.07232107013983
 20
77.95992269037696
 10
-34.95751325273823
 20
78.00615053311965
 10
-34.83686344462815
 20
78.0401864173368
 10
-34.710879645001626
 20
78.06101434648461
 10
-34.19853263013174
 20
78.06106261575134
 10
-34.19853263013174
 20
77.92724905676666
 10
-35.71407708675451
 20
77.05224905676666
 10
-35.73340158171345
 20
77.06340605913316
  0
LWPOLYLINE
  5
1A8
330
17
100
AcDbEntity
  8
0
100
AcDbPolyline
 90
5
 70
1
 10
-30.6674437168862
 20
78.0613952869052
 10
-30.6674437168862
 20
77.92724905676666
 10
-32.18298817350897
 20
77.05224905676666
 10
-33.69853263013174
 20
77.92724905676666
 10
-33.69853263013174
 20
78.0611097217804
  0
LWPOLYLINE
  5
1A9
330
17
100
AcDbEntity
  8
0
100
AcDbPolyline
 90
5
 70
1
 10
-27.136354803640668
 20
78.06172795805904
 10
-27.136354803640668
 20
77.92724905676666
 10
-28.651899260263434
 20
77.05224905676666
 10
-30.1674437168862
 20
77.92724905676666
 10
-30.1674437168862
 20
78.06144239293424
  0
LWPOLYLINE
  5
1AA
330
17
100
AcDbEntity
  8
0
100
AcDbPolyline
 90
5
 70
1
 10
-23.605265890395135
 20
78.06206062921288
 10
-23.605265890395135
 20
77.92724905676666
 10
-25.1208103470179
 20
77.05224905676666
 10
-26.636354803640668
 20
77.92724905676666
 10
-26.636354803640668
 20
78.0617750640881
  0
LWPOLYLINE
  5
1AB
330
17
100
AcDbEntity
  8
0
100
AcDbPolyline
 90
5
 70
1
 10
-20.074176977149598
 20
78.06239330036674
 10
-20.074176977149598
 20
77.92724905676666
 10
-21.589721433772365
 20
77.05224905676666
 10
-23.10526589039513
 20
77.92724905676666
 10
-23.10526589039513
 20
78.06210773524194
  0
LWPOLYLINE
  5
1AC
330
17
100
AcDbEntity
  8
0
100
AcDbPolyline
 90
15
 70
1
 10
-18.53466137279413
 20
78.0625383413003
 10
-18.406137577207392
 20
78.04704439400743
 10
-18.280407777176887
 20
78.02164448041252
 10
-18.157725972298635
 20
77.98684659878752
 10
-18.038854161360707
 20
77.94290474826836
 10
-17.924300343555135
 20
77.890072927991
 10
-17.814318518477943
 20
77.82860513709136
 10
-17.7096706849172
 20
77.75900937384138
 10
-17.610610842468922
 20
77.68153963737697
 10
-17.517646990325154
 20
77.59670392597005
 10
-17.43128712767794
 20
77.50475623875654
 10
-17.38167106404295
 20
77.44309293589862
 10
-18.058632520526828
 20
77.05224905676666
 10
-19.574176977149595
 20
77.92724905676666
 10
-19.574176977149595
 20
78.06244040639578
  0
LWPOLYLINE
  5
1AD
330
17
100
AcDbEntity
  8
0
100
AcDbPolyline
 90
15
 70
1
 10
-3.551225203502284
 20
77.27564901813068
 10
-3.5166812584434055
 20
77.39198062239528
 10
-3.4686753347953925
 20
77.50272424566899
 10
-3.4082234309423427
 20
77.60686389140803
 10
-3.3358335460762873
 20
77.7033835630686
 10
-3.2525216785813313
 20
77.790759265835
 10
-3.159049827245518
 20
77.86797500316347
 10
-3.0561799908569327
 20
77.93376077937423
 10
-2.944674168203612
 20
77.98710059792349
 10
-2.8252943580736343
 20
78.02672446313152
 10
-2.6988025592550713
 20
78.05136237931855
 10
-2.5659607705359733
 20
78.05974435080486
 10
-2.4187324109219213
 20
78.05828385277789
 10
-2.4187324109219213
 20
77.92724905676666
 10
-3.551645011199871
 20
77.27316166202786
  0
LWPOLYLINE
  5
1AE
330
17
100
AcDbEntity
  8
0
100
AcDbPolyline
 90
5
 70
1
 10
1.1123565023236117
 20
78.02325562584959
 10
1.1123565023236117
 20
77.92724905676666
 10
-0.40318795429915644
 20
77.05224905676666
 10
-1.918732410921924
 20
77.92724905676666
 10
-1.918732410921924
 20
78.05332387757069
  0
LWPOLYLINE
  5
1AF
330
17
100
AcDbEntity
  8
0
100
AcDbPolyline
 90
5
 70
1
 10
4.643445415569152
 20
77.98822739892128
 10
4.643445415569152
 20
77.92724905676666
 10
3.1279009589463835
 20
77.05224905676666
 10
1.6123565023236162
 20
77.92724905676666
 10
1.6123565023236162
 20
78.01829565064239
  0
LWPOLYLINE
  5
1B0
330
17
100
AcDbEntity
  8
0
100
AcDbPolyline
 90
5
 70
1
 10
8.174534328814685
 20
77.95319917199298
 10
8.174534328814685
 20
77.92724905676666
 10
6.658989872191917
 20
77.05224905676666
 10
5.143445415569149
 20
77.92724905676666
 10
5.143445415569149
 20
77.98326742371408
  0
LWPOLYLINE
  5
1B1
330
17
100
AcDbEntity
  8
0
100
AcDbPolyline
 90
4
 70
1
 10
11.6901650911121
 20
77.91832428915559
 10
10.19007878543745
 20
77.05224905676666
 10
8.674534328814682
 20
77.92724905676666
 10
8.674534328814682
 20
77.94823919678578
  0
LWPOLYLINE
  5
1B2
330
17
100
AcDbEntity
  8
0
100
AcDbPolyline
 90
3
 70
1
 10
15.161608162019643
 20
77.8838877460257
 10
13.72116769868299
 20
77.05224905676666
 10
12.230362996783736
 20
77.91296555271735
  0
LWPOLYLINE
  5
1B3
330
17
100
AcDbEntity
  8
0
100
AcDbPolyline
 90
3
 70
1
 10
18.63305123292718
 20
77.84945120289582
 10
17.252256611928523
 20
77.05224905676666
 10
15.82318323768182
 20
77.87732495407971
  0
LWPOLYLINE
  5
1B4
330
17
100
AcDbEntity
  8
0
100
AcDbPolyline
 90
3
 70
1
 10
22.104494303834716
 20
77.81501465976594
 10
20.783345525174056
 20
77.05224905676666
 10
19.416003478579903
 20
77.84168435544208
  0
LWPOLYLINE
  5
1B5
330
17
100
AcDbEntity
  8
0
100
AcDbPolyline
 90
3
 70
1
 10
23.14133834277183
 20
77.80472921831219
 10
23.141092108025845
 20
77.72967856707108
 10
23.008823719477995
 20
77.80604375680446
  0
LWPOLYLINE
  5
1B6
330
17
100
AcDbEntity
  8
0
100
AcDbPolyline
 90
5
 70
1
 10
43.48542346127004
 20
78.16127461380009
 10
43.48542346127004
 20
77.92724905676666
 10
41.96987900464727
 20
77.05224905676666
 10
40.4543345480245
 20
77.92724905676666
 10
40.4543345480245
 20
78.16282873354558
  0
LWPOLYLINE
  5
1B7
330
17
100
AcDbEntity
  8
0
100
AcDbPolyline
 90
5
 70
1
 10
47.01651237451558
 20
78.1594641307822
 10
47.01651237451558
 20
77.92724905676666
 10
45.50096791789281
 20
77.05224905676666
 10
43.98542346127004
 20
77.92724905676666
 10
43.98542346127004
 20
78.16101825052769
  0
LWPOLYLINE
  5
1B8
330
17
100
AcDbEntity
  8
0
100
AcDbPolyline
 90
5
 70
1
 10
50.547601287761104
 20
78.1576536477643
 10
50.547601287761104
 20
77.92724905676666
 10
49.032056831138334
 20
77.05224905676666
 10
47.516512374515564
 20
77.92724905676666
 10
47.516512374515564
 20
78.1592077675098
  0
LWPOLYLINE
  5
1B9
330
17
100
AcDbEntity
  8
0
100
AcDbPolyline
 90
5
 70
1
 10
54.078690201006644
 20
78.15584316474641
 10
54.078690201006644
 20
77.92724905676666
 10
52.563145744383874
 20
77.05224905676666
 10
51.047601287761104
 20
77.92724905676666
 10
51.047601287761104
 20
78.1573972844919
  0
LWPOLYLINE
  5
1BA
330
17
100
AcDbEntity
  8
0
100
AcDbPolyline
 90
5
 70
1
 10
57.609779114252184
 20
78.15403268172851
 10
57.609779114252184
 20
77.92724905676666
 10
56.094234657629414
 20
77.05224905676666
 10
54.578690201006644
 20
77.92724905676666
 10
54.578690201006644
 20
78.155586801474
  0
LWPOLYLINE
  5
1BB
330
17
100
AcDbEntity
  8
0
100
AcDbPolyline
 90
5
 70
1
 10
61.14086802749771
 20
78.15222219871062
 10
61.14086802749771
 20
77.92724905676666
 10
59.62532357087494
 20
77.05224905676666
 10
58.10977911425217
 20
77.92724905676666
 10
58.10977911425217
 20
78.15377631845611
  0
LWPOLYLINE
  5
1BC
330
17
100
AcDbEntity
  8
0
100
AcDbPolyline
 90
5
 70
1
 10
64.67195694074324
 20
78.15041171569273
 10
64.67195694074324
 20
77.92724905676666
 10
63.15641248412048
 20
77.05224905676666
 10
61.64086802749771
 20
77.92724905676666
 10
61.64086802749771
 20
78.15196583543822
  0
LWPOLYLINE
  5
1BD
330
17
100
AcDbEntity
  8
0
100
AcDbPolyline
 90
5
 70
1
 10
68.20304585398878
 20
78.14860123267484
 10
68.20304585398878
 20
77.92724905676666
 10
66.68750139736602
 20
77.05224905676666
 10
65.17195694074326
 20
77.92724905676666
 10
65.17195694074326
 20
78.15015535242031
  0
LWPOLYLINE
  5
1BE
330
17
100
AcDbEntity
  8
0
100
AcDbPolyline
 90
5
 70
1
 10
71.73413476723431
 20
78.14679074965693
 10
71.73413476723431
 20
77.92724905676666
 10
70.21859031061155
 20
77.05224905676666
 10
68.70304585398878
 20
77.92724905676666
 10
68.70304585398878
 20
78.14834486940242
  0
LWPOLYLINE
  5
1BF
330
17
100
AcDbEntity
  8
0
100
AcDbPolyline
 90
20
 70
1
 10
72.5780417151702
 20
78.14635805616338
 10
72.70097751964447
 20
78.13213410455026
 10
72.8185793326023
 20
78.10825818577106
 10
72.93084715404369
 20
78.07549229723365
 10
73.03752698437259
 20
78.03409043807397
 10
73.13861882358906
 20
77.98456060656396
 10
73.23386867209702
 20
77.9276648001114
 10
73.32327652989648
 20
77.86365701785229
 10
73.4063343977954
 20
77.79329925719446
 10
73.48304227579384
 20
77.71709951640979
 10
73.55340016389171
 20
77.63531179463426
 10
73.61715406249301
 20
77.54869808927567
 10
73.67404997200177
 20
77.45776639860598
 10
73.72408789241796
 20
77.3627707217611
 10
73.76701382414554
 20
77.26447305614889
 10
73.80257376758851
 20
77.16338140004122
 10
73.82156374608108
 20
77.09375160502324
 10
73.74967922385709
 20
77.05224905676666
 10
72.23413476723432
 20
77.92724905676666
 10
72.23413476723432
 20
78.14653438638453
  0
LWPOLYLINE
  5
1C1
330
17
100
AcDbEntity
  8
BORDER
100
AcDbPolyline
 90
63
 70
1
 10
-15.787655741824612
 20
72.97544364651618
 10
-17.16077755791534
 20
77.07244970937155
 10
-17.216149469847963
 20
77.18954331104398
 10
-17.279903368449293
 20
77.3007949325896
 10
-17.351785254123296
 20
77.40595057487242
 10
-17.43128712767794
 20
77.50475623875654
 10
-17.517646990325154
 20
77.59670392597005
 10
-17.610610842468922
 20
77.68153963737697
 10
-17.7096706849172
 20
77.75900937384138
 10
-17.814318518477943
 20
77.82860513709136
 10
-17.924300343555135
 20
77.890072927991
 10
-18.038854161360707
 20
77.94290474826836
 10
-18.157725972298635
 20
77.98684659878752
 10
-18.280407777176887
 20
78.02164448041252
 10
-18.406137577207392
 20
78.04704439400743
 10
-18.53466137279413
 20
78.0625383413003
 10
-34.710879645001626
 20
78.06101434648461
 10
-34.83686344462815
 20
78.0401864173368
 10
-34.95751325273823
 20
78.00615053311965
 10
-35.07232107013983
 20
77.95992269037696
 10
-35.18052489804486
 20
77.9025188856525
 10
-35.28136273766529
 20
77.83444711721822
 10
-35.37432658980906
 20
77.75646938248191
 10
-35.4586544556881
 20
77.66960167798739
 10
-35.53333033691835
 20
77.57460600114251
 10
-35.59810023390375
 20
77.4722443493551
 10
-35.651948148260246
 20
77.36327872003304
 10
-35.694366080795795
 20
77.24847111058415
 10
-35.724338033126294
 20
77.12858351841629
 10
-35.74161000565574
 20
77.00437794093729
 10
-35.74516600000004
 20
76.87687037469095
 10
-35.52113835630932
 20
74.71762371998956
 10
-35.48938840680667
 20
71.21980161883758
 10
-35.476942426601624
 20
71.09229405259124
 10
-35.451796466595525
 20
70.9688504725201
 10
-35.414712525576434
 20
70.84997887689602
 10
-35.3664526023324
 20
70.73644126312686
 10
-35.30727069645946
 20
70.62899962862049
 10
-35.23818280634168
 20
70.52841597078472
 10
-35.15969693117113
 20
70.43545228702745
 10
-35.072321070139836
 20
70.35061657562052
 10
-34.976817222035855
 20
70.27467083397181
 10
-34.873947385647256
 20
70.20837705948915
 10
-34.76421956016609
 20
70.15249724958039
 10
-34.64839574438042
 20
70.1077934016534
 10
-34.52698393748227
 20
70.07477351398003
 10
-34.40074613825972
 20
70.05419958396818
 10
-16.670812337190412
 20
70.05191359174462
 10
-16.47802664381031
 20
70.09001346213697
 10
-16.29616293305911
 20
70.15122725390063
 10
-16.126491202916938
 20
70.23326897481212
 10
-15.970281451363888
 20
70.33461463005571
 10
-15.828549676784043
 20
70.45323222654383
 10
-15.702565877157518
 20
70.58734377032485
 10
-15.593600050464417
 20
70.7351712674471
 10
-15.502922194684839
 20
70.89493672395895
 10
-15.431802307798897
 20
71.0646081467728
 10
-15.381256388190675
 20
71.242407541937
 10
-15.352554433840275
 20
71.426302916364
 10
-15.346712443131786
 20
71.6145162761021
 10
-15.365254413641335
 20
71.8052696271997
 10
-15.40919634375301
 20
71.99678497570517
 10
-15.787655741824612
 20
72.97544364651618
  0
LWPOLYLINE
  5
1C2
330
17
100
AcDbEntity
  8
BORDER
100
AcDbPolyline
 90
243
 70
1
 10
87.39688614624029
 20
-2.7838626364113503
 10
87.05932068312808
 20
-1.0416825629380089
 10
86.55182949027768
 20
0.6918615399130719
 10
85.16753169196203
 20
4.1188178821353105
 10
71.19577591362271
 20
32.460803468718765
 10
65.9710042234662
 20
45.426951360637
 10
63.89709752195293
 20
52.2404781824656
 10
62.37487794299774
 20
59.20107050400861
 10
62.31976003066114
 20
59.75809060914449
 10
62.362177963196686
 20
60.973984472931775
 10
62.43101185371842
 20
61.5322745737474
 10
62.53540568768315
 20
62.066688755783844
 10
62.93723304858872
 20
63.369958322337524
 10
63.61490397077334
 20
64.93637099373424
 10
64.59000841989881
 20
66.70598297389006
 10
65.884898360415
 20
68.61910446585698
 10
67.5211637579837
 20
70.61604567268706
 10
69.52090257745878
 20
72.63711679743226
 10
71.90595878409805
 20
74.62237404400868
 10
73.35274048303492
 20
75.65919851695199
 10
73.44570433517869
 20
75.74073223959158
 10
73.52901620267365
 20
75.82709194581419
 10
73.6026760855198
 20
75.9180236364839
 10
73.6671919829092
 20
76.01276531419282
 10
73.7223098952458
 20
76.11080898066909
 10
73.76853782172167
 20
76.21164663764078
 10
73.80587576233678
 20
76.31502428597197
 10
73.83432371709118
 20
76.42017992825481
 10
73.85413568558081
 20
76.52660556621738
 10
73.86556566740178
 20
76.63379320158782
 10
73.86886766215004
 20
76.7412348360942
 10
73.86404166982565
 20
76.84842247146463
 10
73.85134169002458
 20
76.9548481094272
 10
73.83076772274686
 20
77.06000375171004
 10
73.80257376758851
 20
77.16338140004122
 10
73.76701382414554
 20
77.26447305614889
 10
73.72408789241796
 20
77.3627707217611
 10
73.67404997200177
 20
77.45776639860598
 10
73.61715406249301
 20
77.54869808927567
 10
73.55340016389171
 20
77.63531179463426
 10
73.48304227579384
 20
77.71709951640979
 10
73.4063343977954
 20
77.79329925719446
 10
73.32327652989648
 20
77.86365701785229
 10
73.23386867209702
 20
77.9276648001114
 10
73.13861882358906
 20
77.98456060656396
 10
73.03752698437259
 20
78.03409043807397
 10
72.93084715404369
 20
78.07549229723365
 10
72.8185793326023
 20
78.10825818577106
 10
72.70097751964447
 20
78.13213410455026
 10
72.5780417151702
 20
78.14635805616338
 10
40.37775092877192
 20
78.16286800000007
 10
40.346254978865275
 20
72.97950763269135
 10
40.323649014819395
 20
72.8352361234724
 10
40.28732707258837
 20
72.69604459697241
 10
40.23830515055627
 20
72.5624410514633
 10
40.17683724831913
 20
72.43544148348886
 10
40.10393936426105
 20
72.315553891321
 10
40.02011949757404
 20
72.20354027236755
 10
39.92639364664221
 20
72.10016262403636
 10
39.82326981065758
 20
72.00592894459933
 10
39.71150998840824
 20
71.92185523060024
 10
39.591876178682256
 20
71.84844948031103
 10
39.46487638067164
 20
71.78672769027546
 10
39.3315265927605
 20
71.73719785876541
 10
39.19233481414088
 20
71.70062198318878
 10
39.04806304360082
 20
71.67776206095338
 10
24.489568198452474
 20
71.56727243681563
 10
24.337676440031785
 20
71.58937036164318
 10
24.19111867312754
 20
71.62620023635576
 10
24.05040289693178
 20
71.67700006354553
 10
23.916545109828597
 20
71.7407538466687
 10
23.790307310606053
 20
71.81695358745337
 10
23.672451498052204
 20
71.90458328935573
 10
23.563739670955123
 20
72.00288095496795
 10
23.464933828102872
 20
72.11133858601812
 10
23.37704996787953
 20
72.22894018596246
 10
23.30059608947714
 20
72.3549237573931
 10
23.236334191683774
 20
72.48852730290221
 10
23.185280272883496
 20
72.62898882508195
 10
23.147942332268386
 20
72.77554632652443
 10
23.1253363682225
 20
72.92743780982187
 10
23.14133834277183
 20
77.80472921831219
 10
-2.5659607705359733
 20
78.05974435080486
 10
-2.6988025592550713
 20
78.05136237931855
 10
-2.8252943580736343
 20
78.02672446313152
 10
-2.944674168203612
 20
77.98710059792349
 10
-3.0561799908569327
 20
77.93376077937423
 10
-3.159049827245518
 20
77.86797500316347
 10
-3.2525216785813313
 20
77.790759265835
 10
-3.3358335460762873
 20
77.7033835630686
 10
-3.4082234309423427
 20
77.60686389140803
 10
-3.4686753347953925
 20
77.50272424566899
 10
-3.5166812584434055
 20
77.39198062239528
 10
-3.551225203502284
 20
77.27564901813068
 10
-3.571545171183992
 20
77.15525342769091
 10
-3.577133162296448
 20
77.03180984761977
 10
-3.566973178455605
 20
76.90633427446102
 10
-3.540303220873369
 20
76.78009670389443
 10
-1.2543068566823834
 20
71.39099703646713
 10
-0.9022634165969663
 20
70.74736322597266
 10
-0.480878086797766
 20
70.12887532993716
 10
0.0034991428147037595
 20
69.55255129046915
 10
0.5440102831478626
 20
69.03540904967724
 10
1.1343053443011826
 20
68.59395855139809
 10
1.4459628486192173
 20
68.40701518733972
 10
1.7675263371820833
 20
68.24547173687623
 10
2.098233811201716
 20
68.11110619395927
 10
2.437323271890044
 20
68.00645854994835
 10
13.278280029671784
 20
65.62801064092308
 10
16.935112213589314
 20
64.37020691970424
 10
20.197737024481903
 20
62.87364401069347
 10
21.663568693120368
 20
62.02604889403207
 10
23.009512552436824
 20
61.107080020169036
 10
24.228456613742665
 20
60.11267340292919
 10
25.313542887945324
 20
59.039019055273286
 10
26.257659386356202
 20
57.88205299102616
 10
27.053440120690688
 20
56.637965223148555
 10
27.694027101856207
 20
55.302945764601276
 10
28.435197923046132
 20
53.26384070120369
 10
34.64853604091725
 20
55.12362237462138
 10
34.728545913663936
 20
55.0687585612564
 10
34.82277976378781
 20
54.990780826520094
 10
34.94800156462628
 20
54.870639235216274
 10
35.27566104349363
 20
54.479480565855006
 10
35.6807903991475
 20
53.84524472339067
 10
36.1321476812772
 20
52.91814787717727
 10
36.5989989387642
 20
51.64815219743289
 10
37.050102221297905
 20
49.98521985437559
 10
37.454723577759694
 20
47.87931301822346
 10
37.46361356362043
 20
47.80031928694336
 10
37.46513756119657
 20
47.72208755307111
 10
37.45980356968012
 20
47.644871815742654
 10
37.4476115890711
 20
47.56918007322989
 10
37.42881561896553
 20
47.49526632466876
 10
37.40392365855544
 20
47.42363856833118
 10
37.37293570784085
 20
47.354550803353085
 10
37.336105766417774
 20
47.288511028006376
 10
37.29368783388223
 20
47.226027240562956
 10
37.24593590983024
 20
47.16735344015876
 10
37.19310399385783
 20
47.11274362592976
 10
37.135446085561014
 20
47.06270579614783
 10
37.07321618453581
 20
47.01774794908488
 10
37.00666829037826
 20
46.97812408387686
 10
36.93605640268434
 20
46.9440881996597
 10
31.384387232448518
 20
45.149076305909
 10
36.98279232835226
 20
30.558603939597702
 10
37.026988258059944
 20
30.247200998924377
 10
37.03384624715251
 20
30.088451538956335
 10
37.02724225765597
 20
29.930972074668027
 10
37.004636293610076
 20
29.77730259741896
 10
36.96348835905464
 20
29.62972909943266
 10
36.93529440389628
 20
29.558863340502924
 10
36.90151245762546
 20
29.490537572932674
 10
36.86163452105012
 20
29.425005795857864
 10
36.36227131527241
 20
28.754956075224733
 10
36.126305690568685
 20
28.3670993946308
 10
35.95256996689018
 20
27.989148680338864
 10
35.89135606424907
 20
27.802713314552392
 10
35.848684132117484
 20
27.61754794444567
 10
35.825316169283525
 20
27.43314457174678
 10
35.82252217372729
 20
27.24899519818384
 10
35.84106414423684
 20
27.06459182548496
 10
35.88195807919627
 20
26.87968045451418
 10
35.946219976989624
 20
26.693753086999607
 10
36.034865836001046
 20
26.506555723805278
 10
36.14865765501854
 20
26.31758036665932
 10
36.24670149908275
 20
26.189818801277035
 10
36.367605306788846
 20
26.063581230710447
 10
36.6675788296899
 20
25.81669407056814
 10
37.42500562502518
 20
25.350351656965998
 10
39.09352897128859
 20
24.497930556721577
 10
39.20528879353792
 20
24.41995282198527
 10
39.31019062669469
 20
24.334101114034546
 10
39.40798047116286
 20
24.240629432005363
 10
39.49865832694243
 20
24.140299773305557
 10
39.58171619484136
 20
24.033366137071077
 10
39.65690007526365
 20
23.92059052070978
 10
39.724209968209266
 20
23.8022269233576
 10
42.99191477102228
 20
14.671211985131452
 10
43.02010872618065
 20
14.515256515658843
 10
43.03458670315385
 20
14.358031050506488
 10
43.0353487019419
 20
14.200551586218188
 10
43.02264872214084
 20
14.04358012020178
 10
42.99674076334668
 20
13.88787864986512
 10
42.95762482555941
 20
13.734463171752
 10
42.90555490837505
 20
13.583841684134319
 10
42.23194797972678
 20
12.248060228179176
 10
42.0696422378692
 20
11.846995592515897
 10
42.00766633644004
 20
11.647098272524131
 10
41.96220040875224
 20
11.447962949940218
 10
41.93553045117001
 20
11.249843623900093
 10
41.930450459249585
 20
11.05324829267566
 10
41.94950042895118
 20
10.858430955402872
 10
41.96880439824878
 20
10.761911283742299
 10
41.995220356234995
 20
10.665899610353625
 10
42.029002302505816
 20
10.570395935236844
 10
42.07040423665728
 20
10.475654257527916
 10
42.11993415788142
 20
10.381420578090884
 10
42.22229599507797
 20
10.225719107754221
 10
42.329483824598924
 20
10.100497533731426
 10
42.60634338426206
 20
9.850308384821782
 10
43.33379822726684
 20
9.363138042071837
 10
45.05108949596632
 20
8.443915169072854
 10
45.171231304884344
 20
8.36161944902542
 10
45.28349912632572
 20
8.269925760947876
 10
45.38763896069443
 20
8.16959610224807
 10
45.483396808394446
 20
8.061138471197898
 10
45.5702646702337
 20
7.945314865205214
 10
45.6482425462122
 20
7.822887281677852
 10
45.716822437137935
 20
7.69436371888772
 10
51.60250107614168
 20
-7.204209599329561
 10
51.7333108680926
 20
-7.44169879144176
 10
51.88088463338093
 20
-7.666488026756516
 10
52.04420637362257
 20
-7.878069307001929
 10
52.22226009043345
 20
-8.075680634770155
 10
52.41402978542948
 20
-8.258814011789294
 10
52.61875345982257
 20
-8.426707440651501
 10
52.835415115228685
 20
-8.57859892394893
 10
53.0629987532637
 20
-8.71398046340968
 10
53.30048837554354
 20
-8.832090061625909
 10
53.54686798368412
 20
-8.932165721189765
 10
53.80137557889739
 20
-9.013699443829355
 10
54.062995162799254
 20
-9.07592923213683
 10
54.33071073700562
 20
-9.118347087840291
 10
81.75199912426463
 20
-9.438131999999927
 10
82.63490172003439
 20
-9.362440257487162
 10
83.18684284218851
 20
-9.266936582370384
 10
83.7827258944543
 20
-9.117585090432444
 10
84.40045291197791
 20
-8.902701821419695
 10
85.01767193030948
 20
-8.610602815078488
 10
85.61228498459516
 20
-8.229604111155174
 10
85.89422453617871
 20
-8.002020885344981
 10
86.1621941099811
 20
-7.748021749396105
 10
86.41339971044609
 20
-7.465828709356904
 10
86.64530134161346
 20
-7.154171769547633
 10
86.85485100833097
 20
-6.811526935152598
 10
87.03925471504238
 20
-6.436624210492058
 10
87.19597246578748
 20
-6.027939600750315
 10
87.321956265414
 20
-5.58394911111168
 10
87.41466611796174
 20
-5.103128746760457
 10
87.47130802787449
 20
-4.583954512880954
 10
87.48883399999995
 20
-4.025156413793426
 10
87.39688614624029
 20
-2.7838626364113503
  0
ENDSEC
  0
SECTION
  2
OBJECTS
  0
DICTIONARY
  5
A
330
0
100
AcDbDictionary
281
1
  3
ACAD_COLOR
350
B
  3
ACAD_GROUP
350
C
  3
ACAD_LAYOUT
350
D
  3
ACAD_MATERIAL
350
E
  3
ACAD_MLEADERSTYLE
350
F
  3
ACAD_MLINESTYLE
350
10
  3
ACAD_PLOTSETTINGS
350
11
  3
ACAD_PLOTSTYLENAME
350
12
  3
ACAD_SCALELIST
350
14
  3
ACAD_TABLESTYLE
350
15
  3
ACAD_VISUALSTYLE
350
16
  3
EZDXF_META
350
2D
  0
DICTIONARY
  5
B
330
A
100
AcDbDictionary
281
1
  0
DICTIONARY
  5
C
330
A
100
AcDbDictionary
281
1
  0
DICTIONARY
  5
D
330
A
100
AcDbDictionary
281
1
  3
Model
350
1A
  3
Layout1
350
1E
  0
DICTIONARY
  5
E
330
A
100
AcDbDictionary
281
1
  3
ByBlock
350
1F
  3
ByLayer
350
20
  3
Global
350
21
  0
DICTIONARY
  5
F
330
A
100
AcDbDictionary
281
1
  3
Standard
350
2C
  0
DICTIONARY
  5
10
330
A
100
AcDbDictionary
281
1
  3
Standard
350
22
  0
DICTIONARY
  5
11
330
A
100
AcDbDictionary
281
1
  0
ACDBDICTIONARYWDFLT
  5
12
330
A
100
AcDbDictionary
281
1
  3
Normal
350
13
100
AcDbDictionaryWithDefault
340
13
  0
ACDBPLACEHOLDER
  5
13
330
12
  0
DICTIONARY
  5
14
330
A
100
AcDbDictionary
281
1
  0
DICTIONARY
  5
15
330
A
100
AcDbDictionary
281
1
  0
DICTIONARY
  5
16
330
A
100
AcDbDictionary
281
1
  0
LAYOUT
  5
1A
330
D
100
AcDbPlotSettings
  1

  4
A3
  6

 40
7.5
 41
20.0
 42
7.5
 43
20.0
 44
420.0
 45
297.0
 46
0.0
 47
0.0
 48
0.0
 49
0.0
140
0.0
141
0.0
142
1.0
143
1.0
 70
1024
 72
1
 73
0
 74
5
  7

 75
16
 76
0
 77
2
 78
300
147
1.0
148
0.0
149
0.0
100
AcDbLayout
  1
Model
 70
1
 71
0
 10
0.0
 20
0.0
 11
420.0
 21
297.0
 12
0.0
 22
0.0
 32
0.0
 14
1e+20
 24
1e+20
 34
1e+20
 15
-1e+20
 25
-1e+20
 35
-1e+20
146
0.0
 13
0.0
 23
0.0
 33
0.0
 16
1.0
 26
0.0
 36
0.0
 17
0.0
 27
1.0
 37
0.0
 76
1
330
17
  0
LAYOUT
  5
1E
330
D
100
AcDbPlotSettings
  1

  4
A3
  6

 40
7.5
 41
20.0
 42
7.5
 43
20.0
 44
420.0
 45
297.0
 46
0.0
 47
0.0
 48
0.0
 49
0.0
140
0.0
141
0.0
142
1.0
143
1.0
 70
0
 72
1
 73
0
 74
5
  7

 75
16
 76
0
 77
2
 78
300
147
1.0
148
0.0
149
0.0
100
AcDbLayout
  1
Layout1
 70
1
 71
1
 10
0.0
 20
0.0
 11
420.0
 21
297.0
 12
0.0
 22
0.0
 32
0.0
 14
1e+20
 24
1e+20
 34
1e+20
 15
-1e+20
 25
-1e+20
 35
-1e+20
146
0.0
 13
0.0
 23
0.0
 33
0.0
 16
1.0
 26
0.0
 36
0.0
 17
0.0
 27
1.0
 37
0.0
 76
1
330
1B
  0
MATERIAL
  5
1F
102
{ACAD_REACTORS
330
E
102
}
330
E
100
AcDbMaterial
  1
ByBlock
  2

 70
0
 40
1.0
 71
1
 41
1.0
 91
-1023410177
 42
1.0
 72
1
  3

 73
1
 74
1
 75
1
 44
0.5
 73
0
 45
1.0
 46
1.0
 77
1
  4

 78
1
 79
1
170
1
 48
1.0
171
1
  6

172
1
173
1
174
1
140
1.0
141
1.0
175
1
  7

176
1
177
1
178
1
143
1.0
179
1
  8

270
1
271
1
272
1
145
1.0
146
1.0
273
1
  9

274
1
275
1
276
1
 42
1.0
 72
1
  3

 73
1
 74
1
 75
1
 94
63
  0
MATERIAL
  5
20
102
{ACAD_REACTORS
330
E
102
}
330
E
100
AcDbMaterial
  1
ByLayer
  2

 70
0
 40
1.0
 71
1
 41
1.0
 91
-1023410177
 42
1.0
 72
1
  3

 73
1
 74
1
 75
1
 44
0.5
 73
0
 45
1.0
 46
1.0
 77
1
  4

 78
1
 79
1
170
1
 48
1.0
171
1
  6

172
1
173
1
174
1
140
1.0
141
1.0
175
1
  7

176
1
177
1
178
1
143
1.0
179
1
  8

270
1
271
1
272
1
145
1.0
146
1.0
273
1
  9

274
1
275
1
276
1
 42
1.0
 72
1
  3

 73
1
 74
1
 75
1
 94
63
  0
MATERIAL
  5
21
102
{ACAD_REACTORS
330
E
102
}
330
E
100
AcDbMaterial
  1
Global
  2

 70
0
 40
1.0
 71
1
 41
1.0
 91
-1023410177
 42
1.0
 72
1
  3

 73
1
 74
1
 75
1
 44
0.5
 73
0
 45
1.0
 46
1.0
 77
1
  4

 78
1
 79
1
170
1
 48
1.0
171
1
  6

172
1
173
1
174
1
140
1.0
141
1.0
175
1
  7

176
1
177
1
178
1
143
1.0
179
1
  8

270
1
271
1
272
1
145
1.0
146
1.0
273
1
  9

274
1
275
1
276
1
 42
1.0
 72
1
  3

 73
1
 74
1
 75
1
 94
63
  0
MLINESTYLE
  5
22
102
{ACAD_REACTORS
330
10
102
}
330
10
100
AcDbMlineStyle
  2
Standard
 70
0
  3

 62
256
 51
90.0
 52
90.0
 71
2
 49
0.5
 62
256
  6
BYLAYER
 49
-0.5
 62
256
  6
BYLAYER
  0
MLEADERSTYLE
  5
2C
102
{ACAD_REACTORS
330
F
102
}
330
F
100
AcDbMLeaderStyle
179
2
170
2
171
1
172
0
 90
2
 40
0.0
 41
0.0
173
1
 91
-1056964608
 92
-2
290
1
 42
2.0
291
1
 43
8.0
  3
Standard
 44
4.0
300

342
29
174
1
175
1
176
0
178
1
 93
-1056964608
 45
4.0
292
0
297
0
 46
4.0
 94
-1056964608
 47
1.0
 49
1.0
140
1.0
294
1
141
0.0
177
0
142
1.0
295
0
296
0
143
3.75
271
0
272
9
273
9
  0
DICTIONARY
  5
2D
330
A
100
AcDbDictionary
280
1
281
1
  3
CREATED_BY_EZDXF
350
2E
  3
WRITTEN_BY_EZDXF
350
1C5
  0
DICTIONARYVAR
  5
2E
330
2D
100
DictionaryVariables
280
0
  1
1.4.3 @ 2026-04-13T22:57:22.995347+00:00
  0
DICTIONARYVAR
  5
1C5
330
2D
100
DictionaryVariables
280
0
  1
1.4.3 @ 2026-04-13T22:57:23.002395+00:00
  0
ENDSEC
  0
EOF
