  0
SECTION
  2
HEADER
  9
$ACADVER
  1
AC1024
  9
$ACADMAINTVER
 70
6
  9
$DWGCODEPAGE
  3
ANSI_1252
  9
$LASTSAVEDBY
  1
ezdxf
  9
$INSBASE
 10
0.0
 20
0.0
 30
0.0
  9
$EXTMIN
 10
1e+20
 20
1e+20
 30
1e+20
  9
$EXTMAX
 10
-1e+20
 20
-1e+20
 30
-1e+20
  9
$LIMMIN
 10
0.0
 20
0.0
  9
$LIMMAX
 10
420.0
 20
297.0
  9
$ORTHOMODE
 70
0
  9
$REGENMODE
 70
1
  9
$FILLMODE
 70
1
  9
$QTEXTMODE
 70
0
  9
$MIRRTEXT
 70
1
  9
$LTSCALE
 40
1.0
  9
$ATTMODE
 70
1
  9
$TEXTSIZE
 40
2.5
  9
$TRACEWID
 40
1.0
  9
$TEXTSTYLE
  7
Standard
  9
$CLAYER
  8
0
  9
$CELTYPE
  6
ByLayer
  9
$CECOLOR
 62
256
  9
$CELTSCALE
 40
1.0
  9
$DISPSILH
 70
0
  9
$DIMSCALE
 40
1.0
  9
$DIMASZ
 40
2.5
  9
$DIMEXO
 40
0.625
  9
$DIMDLI
 40
3.75
  9
$DIMRND
 40
0.0
  9
$DIMDLE
 40
0.0
  9
$DIMEXE
 40
1.25
  9
$DIMTP
 40
0.0
  9
$DIMTM
 40
0.0
  9
$DIMTXT
 40
2.5
  9
$DIMCEN
 40
2.5
  9
$DIMTSZ
 40
0.0
  9
$DIMTOL
 70
0
  9
$DIMLIM
 70
0
  9
$DIMTIH
 70
0
  9
$DIMTOH
 70
0
  9
$DIMSE1
 70
0
  9
$DIMSE2
 70
0
  9
$DIMTAD
 70
1
  9
$DIMZIN
 70
8
  9
$DIMBLK
  1

  9
$DIMASO
 70
1
  9
$DIMSHO
 70
1
  9
$DIMPOST
  1

  9
$DIMAPOST
  1

  9
$DIMALT
 70
0
  9
$DIMALTD
 70
3
  9
$DIMALTF
 40
0.03937007874
  9
$DIMLFAC
 40
1.0
  9
$DIMTOFL
 70
1
  9
$DIMTVP
 40
0.0
  9
$DIMTIX
 70
0
  9
$DIMSOXD
 70
0
  9
$DIMSAH
 70
0
  9
$DIMBLK1
  1

  9
$DIMBLK2
  1

  9
$DIMSTYLE
  2
ISO-25
  9
$DIMCLRD
 70
0
  9
$DIMCLRE
 70
0
  9
$DIMCLRT
 70
0
  9
$DIMTFAC
 40
1.0
  9
$DIMGAP
 40
0.625
  9
$DIMJUST
 70
0
  9
$DIMSD1
 70
0
  9
$DIMSD2
 70
0
  9
$DIMTOLJ
 70
0
  9
$DIMTZIN
 70
8
  9
$DIMALTZ
 70
0
  9
$DIMALTTZ
 70
0
  9
$DIMUPT
 70
0
  9
$DIMDEC
 70
2
  9
$DIMTDEC
 70
2
  9
$DIMALTU
 70
2
  9
$DIMALTTD
 70
3
  9
$DIMTXSTY
  7
Standard
  9
$DIMAUNIT
 70
0
  9
$DIMADEC
 70
0
  9
$DIMALTRND
 40
0.0
  9
$DIMAZIN
 70
0
  9
$DIMDSEP
 70
44
  9
$DIMATFIT
 70
3
  9
$DIMFRAC
 70
0
  9
$DIMLDRBLK
  1

  9
$DIMLUNIT
 70
2
  9
$DIMLWD
 70
-2
  9
$DIMLWE
 70
-2
  9
$DIMTMOVE
 70
0
  9
$DIMFXL
 40
1.0
  9
$DIMFXLON
 70
0
  9
$DIMJOGANG
 40
0.785398163397
  9
$DIMTFILL
 70
0
  9
$DIMTFILLCLR
 70
0
  9
$DIMARCSYM
 70
0
  9
$DIMLTYPE
  6

  9
$DIMLTEX1
  6

  9
$DIMLTEX2
  6

  9
$DIMTXTDIRECTION
 70
0
  9
$LUNITS
 70
2
  9
$LUPREC
 70
4
  9
$SKETCHINC
 40
1.0
  9
$FILLETRAD
 40
10.0
  9
$AUNITS
 70
0
  9
$AUPREC
 70
2
  9
$MENU
  1
.
  9
$ELEVATION
 40
0.0
  9
$PELEVATION
 40
0.0
  9
$THICKNESS
 40
0.0
  9
$LIMCHECK
 70
0
  9
$CHAMFERA
 40
0.0
  9
$CHAMFERB
 40
0.0
  9
$CHAMFERC
 40
0.0
  9
$CHAMFERD
 40
0.0
  9
$SKPOLY
 70
0
  9
$TDCREATE
 40
2461144.715335648
  9
$TDUCREATE
 40
2458532.153996898
  9
$TDUPDATE
 40
2461144.715335648
  9
$TDUUPDATE
 40
2458532.1544311
  9
$TDINDWG
 40
0.0
  9
$TDUSRTIMER
 40
0.0
  9
$USRTIMER
 70
1
  9
$ANGBASE
 50
0.0
  9
$ANGDIR
 70
0
  9
$PDMODE
 70
0
  9
$PDSIZE
 40
0.0
  9
$PLINEWID
 40
0.0
  9
$SPLFRAME
 70
0
  9
$SPLINETYPE
 70
6
  9
$SPLINESEGS
 70
8
  9
$HANDSEED
  5
196
  9
$SURFTAB1
 70
6
  9
$SURFTAB2
 70
6
  9
$SURFTYPE
 70
6
  9
$SURFU
 70
6
  9
$SURFV
 70
6
  9
$UCSBASE
  2

  9
$UCSNAME
  2

  9
$UCSORG
 10
0.0
 20
0.0
 30
0.0
  9
$UCSXDIR
 10
1.0
 20
0.0
 30
0.0
  9
$UCSYDIR
 10
0.0
 20
1.0
 30
0.0
  9
$UCSORTHOREF
  2

  9
$UCSORTHOVIEW
 70
0
  9
$UCSORGTOP
 10
0.0
 20
0.0
 30
0.0
  9
$UCSORGBOTTOM
 10
0.0
 20
0.0
 30
0.0
  9
$UCSORGLEFT
 10
0.0
 20
0.0
 30
0.0
  9
$UCSORGRIGHT
 10
0.0
 20
0.0
 30
0.0
  9
$UCSORGFRONT
 10
0.0
 20
0.0
 30
0.0
  9
$UCSORGBACK
 10
0.0
 20
0.0
 30
0.0
  9
$PUCSBASE
  2

  9
$PUCSNAME
  2

  9
$PUCSORG
 10
0.0
 20
0.0
 30
0.0
  9
$PUCSXDIR
 10
1.0
 20
0.0
 30
0.0
  9
$PUCSYDIR
 10
0.0
 20
1.0
 30
0.0
  9
$PUCSORTHOREF
  2

  9
$PUCSORTHOVIEW
 70
0
  9
$PUCSORGTOP
 10
0.0
 20
0.0
 30
0.0
  9
$PUCSORGBOTTOM
 10
0.0
 20
0.0
 30
0.0
  9
$PUCSORGLEFT
 10
0.0
 20
0.0
 30
0.0
  9
$PUCSORGRIGHT
 10
0.0
 20
0.0
 30
0.0
  9
$PUCSORGFRONT
 10
0.0
 20
0.0
 30
0.0
  9
$PUCSORGBACK
 10
0.0
 20
0.0
 30
0.0
  9
$USERI1
 70
0
  9
$USERI2
 70
0
  9
$USERI3
 70
0
  9
$USERI4
 70
0
  9
$USERI5
 70
0
  9
$USERR1
 40
0.0
  9
$USERR2
 40
0.0
  9
$USERR3
 40
0.0
  9
$USERR4
 40
0.0
  9
$USERR5
 40
0.0
  9
$WORLDVIEW
 70
1
  9
$SHADEDGE
 70
3
  9
$SHADEDIF
 70
70
  9
$TILEMODE
 70
1
  9
$MAXACTVP
 70
64
  9
$PINSBASE
 10
0.0
 20
0.0
 30
0.0
  9
$PLIMCHECK
 70
0
  9
$PEXTMIN
 10
1e+20
 20
1e+20
 30
1e+20
  9
$PEXTMAX
 10
-1e+20
 20
-1e+20
 30
-1e+20
  9
$PLIMMIN
 10
0.0
 20
0.0
  9
$PLIMMAX
 10
420.0
 20
297.0
  9
$UNITMODE
 70
0
  9
$VISRETAIN
 70
1
  9
$PLINEGEN
 70
0
  9
$PSLTSCALE
 70
1
  9
$TREEDEPTH
 70
3020
  9
$CMLSTYLE
  2
Standard
  9
$CMLJUST
 70
0
  9
$CMLSCALE
 40
20.0
  9
$PROXYGRAPHICS
 70
1
  9
$MEASUREMENT
 70
1
  9
$CELWEIGHT
370
-1
  9
$ENDCAPS
280
0
  9
$JOINSTYLE
280
0
  9
$LWDISPLAY
290
0
  9
$INSUNITS
 70
4
  9
$HYPERLINKBASE
  1

  9
$STYLESHEET
  1

  9
$XEDIT
290
1
  9
$CEPSNTYPE
380
0
  9
$PSTYLEMODE
290
1
  9
$FINGERPRINTGUID
  2
{B4D7639F-DB34-4D91-A314-396698B9760E}
  9
$VERSIONGUID
  2
{77F8F976-99C0-4D90-9082-9326390BBEB5}
  9
$EXTNAMES
290
1
  9
$PSVPSCALE
 40
0.0
  9
$OLESTARTUP
290
0
  9
$SORTENTS
280
127
  9
$INDEXCTL
280
0
  9
$HIDETEXT
280
1
  9
$XCLIPFRAME
280
1
  9
$HALOGAP
280
0
  9
$OBSCOLOR
 70
257
  9
$OBSLTYPE
280
0
  9
$INTERSECTIONDISPLAY
280
0
  9
$INTERSECTIONCOLOR
 70
257
  9
$DIMASSOC
280
2
  9
$PROJECTNAME
  1

  9
$CAMERADISPLAY
290
0
  9
$LENSLENGTH
 40
50.0
  9
$CAMERAHEIGHT
 40
0.0
  9
$STEPSPERSEC
 40
24.0
  9
$STEPSIZE
 40
100.0
  9
$3DDWFPREC
 40
2.0
  9
$PSOLWIDTH
 40
0.005
  9
$PSOLHEIGHT
 40
0.08
  9
$LOFTANG1
 40
1.570796326795
  9
$LOFTANG2
 40
1.570796326795
  9
$LOFTMAG1
 40
0.0
  9
$LOFTMAG2
 40
0.0
  9
$LOFTPARAM
 70
7
  9
$LOFTNORMALS
280
1
  9
$LATITUDE
 40
37.795
  9
$LONGITUDE
 40
-122.394
  9
$NORTHDIRECTION
 40
0.0
  9
$TIMEZONE
 70
-8000
  9
$LIGHTGLYPHDISPLAY
280
1
  9
$TILEMODELIGHTSYNCH
280
1
  9
$CMATERIAL
347
20
  9
$SOLIDHIST
280
0
  9
$SHOWHIST
280
1
  9
$DWFFRAME
280
2
  9
$DGNFRAME
280
2
  9
$REALWORLDSCALE
290
1
  9
$INTERFERECOLOR
 62
256
  9
$CSHADOW
280
0
  9
$SHADOWPLANELOCATION
 40
0.0
  0
ENDSEC
  0
SECTION
  2
CLASSES
  0
CLASS
  1
ACDBDICTIONARYWDFLT
  2
AcDbDictionaryWithDefault
  3
ObjectDBX Classes
 90
0
 91
0
280
0
281
0
  0
CLASS
  1
SUN
  2
AcDbSun
  3
SCENEOE
 90
1153
 91
0
280
0
281
0
  0
CLASS
  1
VISUALSTYLE
  2
AcDbVisualStyle
  3
ObjectDBX Classes
 90
4095
 91
0
280
0
281
0
  0
CLASS
  1
MATERIAL
  2
AcDbMaterial
  3
ObjectDBX Classes
 90
1153
 91
0
280
0
281
0
  0
CLASS
  1
SCALE
  2
AcDbScale
  3
ObjectDBX Classes
 90
1153
 91
0
280
0
281
0
  0
CLASS
  1
TABLESTYLE
  2
AcDbTableStyle
  3
ObjectDBX Classes
 90
4095
 91
0
280
0
281
0
  0
CLASS
  1
MLEADERSTYLE
  2
AcDbMLeaderStyle
  3
ACDB_MLEADERSTYLE_CLASS
 90
4095
 91
0
280
0
281
0
  0
CLASS
  1
DICTIONARYVAR
  2
AcDbDictionaryVar
  3
ObjectDBX Classes
 90
0
 91
0
280
0
281
0
  0
CLASS
  1
CELLSTYLEMAP
  2
AcDbCellStyleMap
  3
ObjectDBX Classes
 90
1152
 91
0
280
0
281
0
  0
CLASS
  1
MENTALRAYRENDERSETTINGS
  2
AcDbMentalRayRenderSettings
  3
SCENEOE
 90
1024
 91
0
280
0
281
0
  0
CLASS
  1
ACDBDETAILVIEWSTYLE
  2
AcDbDetailViewStyle
  3
ObjectDBX Classes
 90
1025
 91
0
280
0
281
0
  0
CLASS
  1
ACDBSECTIONVIEWSTYLE
  2
AcDbSectionViewStyle
  3
ObjectDBX Classes
 90
1025
 91
0
280
0
281
0
  0
CLASS
  1
RASTERVARIABLES
  2
AcDbRasterVariables
  3
ISM
 90
0
 91
0
280
0
281
0
  0
CLASS
  1
LAYOUT
  2
AcDbLayout
  3
ObjectDBX Classes
 90
0
 91
0
280
0
281
0
  0
CLASS
  1
ACDBPLACEHOLDER
  2
AcDbPlaceHolder
  3
ObjectDBX Classes
 90
0
 91
0
280
0
281
0
  0
ENDSEC
  0
SECTION
  2
TABLES
  0
TABLE
  2
VPORT
  5
8
330
0
100
AcDbSymbolTable
 70
1
  0
VPORT
  5
23
330
8
100
AcDbSymbolTableRecord
100
AcDbViewportTableRecord
  2
*Active
 70
0
 10
0.0
 20
0.0
 11
1.0
 21
1.0
 12
0.0
 22
0.0
 13
0.0
 23
0.0
 14
0.5
 24
0.5
 15
0.5
 25
0.5
 16
0.0
 26
0.0
 36
1.0
 17
0.0
 27
0.0
 37
0.0
 40
1000.0
 41
1.34
 42
50.0
 43
0.0
 44
0.0
 50
0.0
 51
0.0
 71
0
 72
1000
 73
1
 74
3
 75
0
 76
0
 77
0
 78
0
281
0
 65
0
146
0.0
  0
ENDTAB
  0
TABLE
  2
LTYPE
  5
2
330
0
100
AcDbSymbolTable
 70
3
  0
LTYPE
  5
24
330
2
100
AcDbSymbolTableRecord
100
AcDbLinetypeTableRecord
  2
ByBlock
 70
0
  3

 72
65
 73
0
 40
0.0
  0
LTYPE
  5
25
330
2
100
AcDbSymbolTableRecord
100
AcDbLinetypeTableRecord
  2
ByLayer
 70
0
  3

 72
65
 73
0
 40
0.0
  0
LTYPE
  5
26
330
2
100
AcDbSymbolTableRecord
100
AcDbLinetypeTableRecord
  2
Continuous
 70
0
  3

 72
65
 73
0
 40
0.0
  0
ENDTAB
  0
TABLE
  2
LAYER
  5
1
330
0
100
AcDbSymbolTable
 70
3
  0
LAYER
  5
27
330
1
100
AcDbSymbolTableRecord
100
AcDbLayerTableRecord
  2
0
 70
0
 62
7
  6
Continuous
370
-3
390
13
347
21
  0
LAYER
  5
28
330
1
100
AcDbSymbolTableRecord
100
AcDbLayerTableRecord
  2
Defpoints
 70
0
 62
7
  6
Continuous
290
0
370
-3
390
13
347
21
  0
LAYER
  5
191
330
1
100
AcDbSymbolTableRecord
100
AcDbLayerTableRecord
  2
BORDER
 70
0
 62
3
  6
Continuous
370
-3
390
13
347
21
  0
ENDTAB
  0
TABLE
  2
STYLE
  5
5
330
0
100
AcDbSymbolTable
 70
1
  0
STYLE
  5
29
330
5
100
AcDbSymbolTableRecord
100
AcDbTextStyleTableRecord
  2
Standard
 70
0
 40
0.0
 41
1.0
 50
0.0
 71
0
 42
2.5
  3
txt
  4

  0
ENDTAB
  0
TABLE
  2
VIEW
  5
7
330
0
100
AcDbSymbolTable
 70
0
  0
ENDTAB
  0
TABLE
  2
UCS
  5
6
330
0
100
AcDbSymbolTable
 70
0
  0
ENDTAB
  0
TABLE
  2
APPID
  5
3
330
0
100
AcDbSymbolTable
 70
3
  0
APPID
  5
2A
330
3
100
AcDbSymbolTableRecord
100
AcDbRegAppTableRecord
  2
ACAD
 70
0
  0
APPID
  5
193
330
3
100
AcDbSymbolTableRecord
100
AcDbRegAppTableRecord
  2
HATCHBACKGROUNDCOLOR
 70
0
  0
APPID
  5
194
330
3
100
AcDbSymbolTableRecord
100
AcDbRegAppTableRecord
  2
EZDXF
 70
0
  0
ENDTAB
  0
TABLE
  2
DIMSTYLE
  5
4
330
0
100
AcDbSymbolTable
 70
1
100
AcDbDimStyleTable
  0
DIMSTYLE
105
2B
330
4
100
AcDbSymbolTableRecord
100
AcDbDimStyleTableRecord
  2
Standard
 70
0
 40
1.0
 41
2.5
 42
0.625
 43
3.75
 44
1.25
 45
0.0
 46
0.0
 47
0.0
 48
0.0
 49
2.5
140
2.5
141
2.5
142
0.0
143
0.03937007874
144
1.0
145
0.0
146
1.0
147
0.625
148
0.0
 69
0
 70
0
 71
0
 72
0
 73
0
 74
0
 75
0
 76
0
 77
1
 78
8
 79
3
170
0
171
3
172
1
173
0
174
0
175
0
176
0
177
0
178
0
179
2
271
2
272
2
273
2
274
3
275
0
276
0
277
2
278
44
279
0
280
0
281
0
282
0
283
0
284
8
285
0
286
0
288
0
289
3
290
0
371
-2
372
-2
  0
ENDTAB
  0
TABLE
  2
BLOCK_RECORD
  5
9
330
0
100
AcDbSymbolTable
 70
2
  0
BLOCK_RECORD
  5
17
330
9
100
AcDbSymbolTableRecord
100
AcDbBlockTableRecord
  2
*Model_Space
340
1A
 70
0
280
1
281
0
  0
BLOCK_RECORD
  5
1B
330
9
100
AcDbSymbolTableRecord
100
AcDbBlockTableRecord
  2
*Paper_Space
340
1E
 70
0
280
1
281
0
  0
ENDTAB
  0
ENDSEC
  0
SECTION
  2
BLOCKS
  0
BLOCK
  5
18
330
17
100
AcDbEntity
  8
0
100
AcDbBlockBegin
  2
*Model_Space
 70
0
 10
0.0
 20
0.0
 30
0.0
  3
*Model_Space
  1

  0
ENDBLK
  5
19
330
17
100
AcDbEntity
  8
0
100
AcDbBlockEnd
  0
BLOCK
  5
1C
330
1B
100
AcDbEntity
  8
0
100
AcDbBlockBegin
  2
*Paper_Space
 70
0
 10
0.0
 20
0.0
 30
0.0
  3
*Paper_Space
  1

  0
ENDBLK
  5
1D
330
1B
100
AcDbEntity
  8
0
100
AcDbBlockEnd
  0
ENDSEC
  0
SECTION
  2
ENTITIES
  0
LWPOLYLINE
  5
2F
330
17
100
AcDbEntity
  8
0
100
AcDbPolyline
 90
5
 70
1
 10
9.642337349397598
 20
10.791666666666666
 10
9.54780722838228
 20
11.595175610546997
 10
10.421633369868303
 20
12.099679368558885
 10
11.937177826491071
 20
11.224679368558885
 10
11.937177826491071
 20
10.897582765273441
  0
LWPOLYLINE
  5
30
330
17
100
AcDbEntity
  8
0
100
AcDbPolyline
 90
5
 70
1
 10
12.43717782649107
 20
10.920659772077181
 10
12.43717782649107
 20
11.224679368558885
 10
13.952722283113838
 20
12.099679368558885
 10
15.468266739736606
 20
11.224679368558885
 10
15.468266739736606
 20
11.060556691024605
  0
LWPOLYLINE
  5
31
330
17
100
AcDbEntity
  8
0
100
AcDbPolyline
 90
5
 70
1
 10
15.968266739736606
 20
11.083633697828347
 10
15.968266739736606
 20
11.224679368558885
 10
17.483811196359373
 20
12.099679368558885
 10
18.99935565298214
 20
11.224679368558885
 10
18.99935565298214
 20
11.22353061677577
  0
LWPOLYLINE
  5
32
330
17
100
AcDbEntity
  8
0
100
AcDbPolyline
 90
3
 70
1
 10
19.540636544536234
 20
11.24851290241003
 10
21.014900109604906
 20
12.099679368558885
 10
22.270903167021743
 20
11.37452566525628
  0
LWPOLYLINE
  5
33
330
17
100
AcDbEntity
  8
0
100
AcDbPolyline
 90
3
 70
1
 10
23.37853094452708
 20
11.425647132771287
 10
24.545989022850442
 20
12.099679368558885
 10
25.540608269044608
 20
11.525435679027499
  0
LWPOLYLINE
  5
34
330
17
100
AcDbEntity
  8
0
100
AcDbPolyline
 90
3
 70
1
 10
27.216425344517926
 20
11.602781363132546
 10
28.07707793609598
 20
12.099679368558885
 10
28.810313371067476
 20
11.676345692798717
  0
LWPOLYLINE
  5
35
330
17
100
AcDbEntity
  8
0
100
AcDbPolyline
 90
3
 70
1
 10
31.054319744508767
 20
11.779915593493806
 10
31.60816684934151
 20
12.099679368558885
 10
32.08001847309034
 20
11.827255706569936
  0
LWPOLYLINE
  5
36
330
17
100
AcDbEntity
  8
0
100
AcDbPolyline
 90
3
 70
1
 10
34.89221414449961
 20
11.957049823855064
 10
35.13925576258705
 20
12.099679368558885
 10
35.34972357511321
 20
11.978165720341156
  0
LWPOLYLINE
  5
37
330
17
100
AcDbEntity
  8
0
100
AcDbPolyline
 90
4
 70
1
 10
9.163129009486711
 20
14.864952334396328
 10
10.171633369868303
 20
14.282692070451105
 10
10.171633369868303
 20
12.532692070451105
 10
9.484204052280674
 20
12.135804568893047
  0
LWPOLYLINE
  5
38
330
17
100
AcDbEntity
  8
0
100
AcDbPolyline
 90
6
 70
1
 10
13.702722283113838
 20
14.282692070451105
 10
12.18717782649107
 20
15.157692070451105
 10
10.671633369868303
 20
14.282692070451105
 10
10.671633369868301
 20
12.532692070451105
 10
12.18717782649107
 20
11.657692070451105
 10
13.702722283113838
 20
12.532692070451105
  0
LWPOLYLINE
  5
39
330
17
100
AcDbEntity
  8
0
100
AcDbPolyline
 90
6
 70
1
 10
17.233811196359373
 20
14.282692070451105
 10
15.718266739736606
 20
15.157692070451105
 10
14.20272228311384
 20
14.282692070451105
 10
14.202722283113838
 20
12.532692070451105
 10
15.718266739736606
 20
11.657692070451105
 10
17.233811196359373
 20
12.532692070451105
  0
LWPOLYLINE
  5
3A
330
17
100
AcDbEntity
  8
0
100
AcDbPolyline
 90
6
 70
1
 10
20.764900109604906
 20
14.282692070451105
 10
19.24935565298214
 20
15.157692070451105
 10
17.733811196359373
 20
14.282692070451105
 10
17.733811196359373
 20
12.532692070451105
 10
19.24935565298214
 20
11.657692070451105
 10
20.764900109604906
 20
12.532692070451105
  0
LWPOLYLINE
  5
3B
330
17
100
AcDbEntity
  8
0
100
AcDbPolyline
 90
6
 70
1
 10
24.295989022850442
 20
14.282692070451105
 10
22.780444566227676
 20
15.157692070451105
 10
21.26490010960491
 20
14.282692070451105
 10
21.26490010960491
 20
12.532692070451105
 10
22.780444566227676
 20
11.657692070451105
 10
24.295989022850442
 20
12.532692070451105
  0
LWPOLYLINE
  5
3C
330
17
100
AcDbEntity
  8
0
100
AcDbPolyline
 90
6
 70
1
 10
27.82707793609598
 20
14.282692070451105
 10
26.311533479473212
 20
15.157692070451105
 10
24.795989022850446
 20
14.282692070451105
 10
24.795989022850446
 20
12.532692070451105
 10
26.311533479473212
 20
11.657692070451105
 10
27.82707793609598
 20
12.532692070451105
  0
LWPOLYLINE
  5
3D
330
17
100
AcDbEntity
  8
0
100
AcDbPolyline
 90
7
 70
1
 10
29.73628979996957
 20
11.719083221498474
 10
28.32707793609598
 20
12.532692070451105
 10
28.32707793609598
 20
14.282692070451105
 10
29.842622392718745
 20
15.157692070451105
 10
31.35816684934151
 20
14.282692070451105
 10
31.35816684934151
 20
12.532692070451105
 10
29.967432811247345
 20
11.729751399186263
  0
LWPOLYLINE
  5
3E
330
17
100
AcDbEntity
  8
0
100
AcDbPolyline
 90
7
 70
1
 10
33.00599490199243
 20
11.869993235269693
 10
31.85816684934151
 20
12.532692070451105
 10
31.85816684934151
 20
14.282692070451105
 10
33.37371130596428
 20
15.157692070451105
 10
34.88925576258705
 20
14.282692070451105
 10
34.88925576258705
 20
12.532692070451105
 10
33.805327211238186
 20
11.90688562954752
  0
LWPOLYLINE
  5
3F
330
17
100
AcDbEntity
  8
0
100
AcDbPolyline
 90
7
 70
1
 10
36.2757000040153
 20
12.020903249040911
 10
35.38925576258705
 20
12.532692070451105
 10
35.38925576258705
 20
14.282692070451105
 10
36.90480021920982
 20
15.157692070451105
 10
38.42034467583259
 20
14.282692070451105
 10
38.42034467583259
 20
12.532692070451105
 10
37.64322161122904
 20
12.08401985990878
  0
LWPOLYLINE
  5
40
330
17
100
AcDbEntity
  8
0
100
AcDbPolyline
 90
7
 70
1
 10
39.54540510603817
 20
12.17181326281213
 10
38.92034467583258
 20
12.532692070451105
 10
38.92034467583258
 20
14.282692070451105
 10
40.43588913245535
 20
15.157692070451105
 10
41.95143358907812
 20
14.282692070451105
 10
41.95143358907812
 20
12.532692070451105
 10
41.48111601121988
 20
12.26115409027004
  0
LWPOLYLINE
  5
41
330
17
100
AcDbEntity
  8
0
100
AcDbPolyline
 90
4
 70
1
 10
42.727147928419434
 20
12.373508322412954
 10
42.451433589078114
 20
12.532692070451105
 10
42.451433589078114
 20
14.282692070451105
 10
43.74202673539977
 20
15.027816370894197
  0
LWPOLYLINE
  5
42
330
17
100
AcDbEntity
  8
0
100
AcDbPolyline
 90
7
 70
1
 10
8.906088913245537
 20
17.049801079403007
 10
8.906088913245537
 20
17.340704772343322
 10
10.421633369868303
 20
18.215704772343322
 10
11.937177826491071
 20
17.340704772343322
 10
11.937177826491071
 20
15.590704772343322
 10
10.421633369868303
 20
14.715704772343322
 10
9.09025591255004
 20
15.48437590571902
  0
LWPOLYLINE
  5
43
330
17
100
AcDbEntity
  8
0
100
AcDbPolyline
 90
6
 70
1
 10
15.468266739736606
 20
17.340704772343322
 10
13.952722283113838
 20
18.215704772343322
 10
12.43717782649107
 20
17.340704772343322
 10
12.43717782649107
 20
15.590704772343322
 10
13.952722283113838
 20
14.715704772343322
 10
15.468266739736606
 20
15.590704772343322
  0
LWPOLYLINE
  5
44
330
17
100
AcDbEntity
  8
0
100
AcDbPolyline
 90
6
 70
1
 10
18.99935565298214
 20
17.340704772343322
 10
17.483811196359373
 20
18.215704772343322
 10
15.968266739736606
 20
17.340704772343322
 10
15.968266739736604
 20
15.590704772343322
 10
17.483811196359373
 20
14.715704772343322
 10
18.99935565298214
 20
15.590704772343322
  0
LWPOLYLINE
  5
45
330
17
100
AcDbEntity
  8
0
100
AcDbPolyline
 90
6
 70
1
 10
22.530444566227672
 20
17.340704772343322
 10
21.014900109604906
 20
18.215704772343322
 10
19.49935565298214
 20
17.340704772343322
 10
19.49935565298214
 20
15.590704772343322
 10
21.014900109604906
 20
14.715704772343322
 10
22.530444566227672
 20
15.590704772343322
  0
LWPOLYLINE
  5
46
330
17
100
AcDbEntity
  8
0
100
AcDbPolyline
 90
6
 70
1
 10
26.06153347947321
 20
17.340704772343322
 10
24.545989022850442
 20
18.215704772343322
 10
23.030444566227676
 20
17.340704772343322
 10
23.030444566227676
 20
15.590704772343322
 10
24.545989022850442
 20
14.715704772343322
 10
26.06153347947321
 20
15.590704772343322
  0
LWPOLYLINE
  5
47
330
17
100
AcDbEntity
  8
0
100
AcDbPolyline
 90
6
 70
1
 10
29.592622392718745
 20
17.340704772343322
 10
28.07707793609598
 20
18.215704772343322
 10
26.561533479473212
 20
17.340704772343322
 10
26.561533479473212
 20
15.590704772343322
 10
28.07707793609598
 20
14.715704772343322
 10
29.592622392718745
 20
15.590704772343322
  0
LWPOLYLINE
  5
48
330
17
100
AcDbEntity
  8
0
100
AcDbPolyline
 90
6
 70
1
 10
33.12371130596428
 20
17.340704772343322
 10
31.60816684934151
 20
18.215704772343322
 10
30.092622392718745
 20
17.340704772343322
 10
30.092622392718745
 20
15.590704772343322
 10
31.60816684934151
 20
14.715704772343322
 10
33.12371130596428
 20
15.590704772343322
  0
LWPOLYLINE
  5
49
330
17
100
AcDbEntity
  8
0
100
AcDbPolyline
 90
6
 70
1
 10
36.65480021920982
 20
17.340704772343322
 10
35.13925576258705
 20
18.215704772343322
 10
33.62371130596428
 20
17.340704772343322
 10
33.62371130596428
 20
15.590704772343322
 10
35.13925576258705
 20
14.715704772343322
 10
36.65480021920982
 20
15.590704772343322
  0
LWPOLYLINE
  5
4A
330
17
100
AcDbEntity
  8
0
100
AcDbPolyline
 90
6
 70
1
 10
40.18588913245536
 20
17.340704772343322
 10
38.67034467583259
 20
18.215704772343322
 10
37.15480021920982
 20
17.340704772343322
 10
37.15480021920982
 20
15.590704772343322
 10
38.67034467583259
 20
14.715704772343322
 10
40.18588913245536
 20
15.590704772343322
  0
LWPOLYLINE
  5
4B
330
17
100
AcDbEntity
  8
0
100
AcDbPolyline
 90
6
 70
1
 10
43.71697804570089
 20
17.340704772343322
 10
42.20143358907812
 20
18.215704772343322
 10
40.68588913245535
 20
17.340704772343322
 10
40.68588913245535
 20
15.590704772343322
 10
42.20143358907812
 20
14.715704772343322
 10
43.71697804570089
 20
15.590704772343322
  0
LWPOLYLINE
  5
4C
330
17
100
AcDbEntity
  8
0
100
AcDbPolyline
 90
3
 70
1
 10
44.216978045700884
 20
16.270001227744196
 10
44.216978045700884
 20
17.340704772343322
 10
44.74233649289836
 20
17.64402061325383
  0
LWPOLYLINE
  5
4D
330
17
100
AcDbEntity
  8
0
100
AcDbPolyline
 90
5
 70
1
 10
8.625
 20
19.43906551059731
 10
9.002258112058367
 20
21.073856594115796
 10
10.171633369868303
 20
20.398717474235543
 10
10.171633369868303
 20
18.648717474235543
 10
8.81043864234191
 20
17.86283133187868
  0
LWPOLYLINE
  5
4E
330
17
100
AcDbEntity
  8
0
100
AcDbPolyline
 90
6
 70
1
 10
13.702722283113838
 20
20.398717474235543
 10
12.18717782649107
 20
21.273717474235543
 10
10.671633369868303
 20
20.398717474235543
 10
10.671633369868301
 20
18.648717474235543
 10
12.18717782649107
 20
17.773717474235543
 10
13.702722283113838
 20
18.648717474235543
  0
LWPOLYLINE
  5
4F
330
17
100
AcDbEntity
  8
0
100
AcDbPolyline
 90
6
 70
1
 10
17.233811196359373
 20
20.398717474235543
 10
15.718266739736606
 20
21.273717474235543
 10
14.20272228311384
 20
20.398717474235543
 10
14.202722283113838
 20
18.648717474235543
 10
15.718266739736606
 20
17.773717474235543
 10
17.233811196359373
 20
18.648717474235543
  0
LWPOLYLINE
  5
50
330
17
100
AcDbEntity
  8
0
100
AcDbPolyline
 90
6
 70
1
 10
20.764900109604906
 20
20.398717474235543
 10
19.24935565298214
 20
21.273717474235543
 10
17.733811196359373
 20
20.398717474235543
 10
17.733811196359373
 20
18.648717474235543
 10
19.24935565298214
 20
17.773717474235543
 10
20.764900109604906
 20
18.648717474235543
  0
LWPOLYLINE
  5
51
330
17
100
AcDbEntity
  8
0
100
AcDbPolyline
 90
6
 70
1
 10
24.295989022850442
 20
20.398717474235543
 10
22.780444566227676
 20
21.273717474235543
 10
21.26490010960491
 20
20.398717474235543
 10
21.26490010960491
 20
18.648717474235543
 10
22.780444566227676
 20
17.773717474235543
 10
24.295989022850442
 20
18.648717474235543
  0
LWPOLYLINE
  5
52
330
17
100
AcDbEntity
  8
0
100
AcDbPolyline
 90
6
 70
1
 10
27.82707793609598
 20
20.398717474235543
 10
26.311533479473212
 20
21.273717474235543
 10
24.795989022850446
 20
20.398717474235543
 10
24.795989022850446
 20
18.648717474235543
 10
26.311533479473212
 20
17.773717474235543
 10
27.82707793609598
 20
18.648717474235543
  0
LWPOLYLINE
  5
53
330
17
100
AcDbEntity
  8
0
100
AcDbPolyline
 90
6
 70
1
 10
31.35816684934151
 20
20.398717474235543
 10
29.842622392718745
 20
21.273717474235543
 10
28.32707793609598
 20
20.398717474235543
 10
28.32707793609598
 20
18.648717474235543
 10
29.842622392718745
 20
17.773717474235543
 10
31.35816684934151
 20
18.648717474235543
  0
LWPOLYLINE
  5
54
330
17
100
AcDbEntity
  8
0
100
AcDbPolyline
 90
6
 70
1
 10
34.88925576258705
 20
20.398717474235543
 10
33.37371130596428
 20
21.273717474235543
 10
31.85816684934151
 20
20.398717474235543
 10
31.85816684934151
 20
18.648717474235543
 10
33.37371130596428
 20
17.773717474235543
 10
34.88925576258705
 20
18.648717474235543
  0
LWPOLYLINE
  5
55
330
17
100
AcDbEntity
  8
0
100
AcDbPolyline
 90
6
 70
1
 10
38.42034467583259
 20
20.398717474235543
 10
36.90480021920982
 20
21.273717474235543
 10
35.38925576258705
 20
20.398717474235543
 10
35.38925576258705
 20
18.648717474235543
 10
36.90480021920982
 20
17.773717474235543
 10
38.42034467583259
 20
18.648717474235543
  0
LWPOLYLINE
  5
56
330
17
100
AcDbEntity
  8
0
100
AcDbPolyline
 90
6
 70
1
 10
41.95143358907812
 20
20.398717474235543
 10
40.43588913245535
 20
21.273717474235543
 10
38.92034467583258
 20
20.398717474235543
 10
38.92034467583258
 20
18.648717474235543
 10
40.43588913245535
 20
17.773717474235543
 10
41.95143358907812
 20
18.648717474235543
  0
LWPOLYLINE
  5
57
330
17
100
AcDbEntity
  8
0
100
AcDbPolyline
 90
7
 70
1
 10
45.02562297536169
 20
18.38492640935144
 10
43.966978045700884
 20
17.773717474235543
 10
42.451433589078114
 20
18.648717474235543
 10
42.451433589078114
 20
20.398717474235543
 10
43.966978045700884
 20
21.273717474235543
 10
45.482522502323654
 20
20.398717474235543
 10
45.482522502323654
 20
19.57989873848188
  0
LWPOLYLINE
  5
58
330
17
100
AcDbEntity
  8
0
100
AcDbPolyline
 90
6
 70
1
 10
9.651458773093333
 20
23.887069665356723
 10
10.421633369868303
 20
24.331730176127763
 10
11.937177826491071
 20
23.456730176127763
 10
11.937177826491071
 20
21.706730176127763
 10
10.421633369868303
 20
20.831730176127763
 10
9.119827979613126
 20
21.583327868624096
  0
LWPOLYLINE
  5
59
330
17
100
AcDbEntity
  8
0
100
AcDbPolyline
 90
6
 70
1
 10
15.468266739736606
 20
23.456730176127763
 10
13.952722283113838
 20
24.331730176127763
 10
12.43717782649107
 20
23.456730176127763
 10
12.43717782649107
 20
21.706730176127763
 10
13.952722283113838
 20
20.831730176127763
 10
15.468266739736606
 20
21.706730176127763
  0
LWPOLYLINE
  5
5A
330
17
100
AcDbEntity
  8
0
100
AcDbPolyline
 90
6
 70
1
 10
18.99935565298214
 20
23.456730176127763
 10
17.483811196359373
 20
24.331730176127763
 10
15.968266739736606
 20
23.456730176127763
 10
15.968266739736604
 20
21.706730176127763
 10
17.483811196359373
 20
20.831730176127763
 10
18.99935565298214
 20
21.706730176127763
  0
LWPOLYLINE
  5
5B
330
17
100
AcDbEntity
  8
0
100
AcDbPolyline
 90
6
 70
1
 10
22.530444566227672
 20
23.456730176127763
 10
21.014900109604906
 20
24.331730176127763
 10
19.49935565298214
 20
23.456730176127763
 10
19.49935565298214
 20
21.706730176127763
 10
21.014900109604906
 20
20.831730176127763
 10
22.530444566227672
 20
21.706730176127763
  0
LWPOLYLINE
  5
5C
330
17
100
AcDbEntity
  8
0
100
AcDbPolyline
 90
6
 70
1
 10
26.06153347947321
 20
23.456730176127763
 10
24.545989022850442
 20
24.331730176127763
 10
23.030444566227676
 20
23.456730176127763
 10
23.030444566227676
 20
21.706730176127763
 10
24.545989022850442
 20
20.831730176127763
 10
26.06153347947321
 20
21.706730176127763
  0
LWPOLYLINE
  5
5D
330
17
100
AcDbEntity
  8
0
100
AcDbPolyline
 90
6
 70
1
 10
29.592622392718745
 20
23.456730176127763
 10
28.07707793609598
 20
24.331730176127763
 10
26.561533479473212
 20
23.456730176127763
 10
26.561533479473212
 20
21.706730176127763
 10
28.07707793609598
 20
20.831730176127763
 10
29.592622392718745
 20
21.706730176127763
  0
LWPOLYLINE
  5
5E
330
17
100
AcDbEntity
  8
0
100
AcDbPolyline
 90
6
 70
1
 10
33.12371130596428
 20
23.456730176127763
 10
31.60816684934151
 20
24.331730176127763
 10
30.092622392718745
 20
23.456730176127763
 10
30.092622392718745
 20
21.706730176127763
 10
31.60816684934151
 20
20.831730176127763
 10
33.12371130596428
 20
21.706730176127763
  0
LWPOLYLINE
  5
5F
330
17
100
AcDbEntity
  8
0
100
AcDbPolyline
 90
6
 70
1
 10
36.65480021920982
 20
23.456730176127763
 10
35.13925576258705
 20
24.331730176127763
 10
33.62371130596428
 20
23.456730176127763
 10
33.62371130596428
 20
21.706730176127763
 10
35.13925576258705
 20
20.831730176127763
 10
36.65480021920982
 20
21.706730176127763
  0
LWPOLYLINE
  5
60
330
17
100
AcDbEntity
  8
0
100
AcDbPolyline
 90
6
 70
1
 10
40.18588913245536
 20
23.456730176127763
 10
38.67034467583259
 20
24.331730176127763
 10
37.15480021920982
 20
23.456730176127763
 10
37.15480021920982
 20
21.706730176127763
 10
38.67034467583259
 20
20.831730176127763
 10
40.18588913245536
 20
21.706730176127763
  0
LWPOLYLINE
  5
61
330
17
100
AcDbEntity
  8
0
100
AcDbPolyline
 90
6
 70
1
 10
43.71697804570089
 20
23.456730176127763
 10
42.20143358907812
 20
24.331730176127763
 10
40.68588913245535
 20
23.456730176127763
 10
40.68588913245535
 20
21.706730176127763
 10
42.20143358907812
 20
20.831730176127763
 10
43.71697804570089
 20
21.706730176127763
  0
LWPOLYLINE
  5
62
330
17
100
AcDbEntity
  8
0
100
AcDbPolyline
 90
6
 70
1
 10
46.025932732860284
 20
21.001130651711076
 10
45.732522502323654
 20
20.831730176127763
 10
44.216978045700884
 20
21.706730176127763
 10
44.216978045700884
 20
23.456730176127763
 10
45.732522502323654
 20
24.331730176127763
 10
47.01605241640245
 20
23.590683834721432
  0
LWPOLYLINE
  5
63
330
17
100
AcDbEntity
  8
0
100
AcDbPolyline
 90
4
 70
1
 10
10.151006024096386
 20
26.05178227360308
 10
10.171633369868303
 20
26.09374840519153
 10
10.171633369868303
 20
24.76474287801998
 10
9.80517295194611
 20
24.55316685708526
  0
LWPOLYLINE
  5
64
330
17
100
AcDbEntity
  8
0
100
AcDbPolyline
 90
6
 70
1
 10
13.702722283113838
 20
26.51474287801998
 10
12.18717782649107
 20
27.38974287801998
 10
10.671633369868303
 20
26.51474287801998
 10
10.671633369868301
 20
24.76474287801998
 10
12.18717782649107
 20
23.88974287801998
 10
13.702722283113838
 20
24.76474287801998
  0
LWPOLYLINE
  5
65
330
17
100
AcDbEntity
  8
0
100
AcDbPolyline
 90
6
 70
1
 10
17.233811196359373
 20
26.51474287801998
 10
15.718266739736606
 20
27.38974287801998
 10
14.20272228311384
 20
26.51474287801998
 10
14.202722283113838
 20
24.76474287801998
 10
15.718266739736606
 20
23.88974287801998
 10
17.233811196359373
 20
24.76474287801998
  0
LWPOLYLINE
  5
66
330
17
100
AcDbEntity
  8
0
100
AcDbPolyline
 90
6
 70
1
 10
20.764900109604906
 20
26.51474287801998
 10
19.24935565298214
 20
27.38974287801998
 10
17.733811196359373
 20
26.51474287801998
 10
17.733811196359373
 20
24.76474287801998
 10
19.24935565298214
 20
23.88974287801998
 10
20.764900109604906
 20
24.76474287801998
  0
LWPOLYLINE
  5
67
330
17
100
AcDbEntity
  8
0
100
AcDbPolyline
 90
6
 70
1
 10
24.295989022850442
 20
26.51474287801998
 10
22.780444566227676
 20
27.38974287801998
 10
21.26490010960491
 20
26.51474287801998
 10
21.26490010960491
 20
24.76474287801998
 10
22.780444566227676
 20
23.88974287801998
 10
24.295989022850442
 20
24.76474287801998
  0
LWPOLYLINE
  5
68
330
17
100
AcDbEntity
  8
0
100
AcDbPolyline
 90
6
 70
1
 10
27.82707793609598
 20
26.51474287801998
 10
26.311533479473212
 20
27.38974287801998
 10
24.795989022850446
 20
26.51474287801998
 10
24.795989022850446
 20
24.76474287801998
 10
26.311533479473212
 20
23.88974287801998
 10
27.82707793609598
 20
24.76474287801998
  0
LWPOLYLINE
  5
69
330
17
100
AcDbEntity
  8
0
100
AcDbPolyline
 90
6
 70
1
 10
31.35816684934151
 20
26.51474287801998
 10
29.842622392718745
 20
27.38974287801998
 10
28.32707793609598
 20
26.51474287801998
 10
28.32707793609598
 20
24.76474287801998
 10
29.842622392718745
 20
23.88974287801998
 10
31.35816684934151
 20
24.76474287801998
  0
LWPOLYLINE
  5
6A
330
17
100
AcDbEntity
  8
0
100
AcDbPolyline
 90
6
 70
1
 10
34.88925576258705
 20
26.51474287801998
 10
33.37371130596428
 20
27.38974287801998
 10
31.85816684934151
 20
26.51474287801998
 10
31.85816684934151
 20
24.76474287801998
 10
33.37371130596428
 20
23.88974287801998
 10
34.88925576258705
 20
24.76474287801998
  0
LWPOLYLINE
  5
6B
330
17
100
AcDbEntity
  8
0
100
AcDbPolyline
 90
6
 70
1
 10
38.42034467583259
 20
26.51474287801998
 10
36.90480021920982
 20
27.38974287801998
 10
35.38925576258705
 20
26.51474287801998
 10
35.38925576258705
 20
24.76474287801998
 10
36.90480021920982
 20
23.88974287801998
 10
38.42034467583259
 20
24.76474287801998
  0
LWPOLYLINE
  5
6C
330
17
100
AcDbEntity
  8
0
100
AcDbPolyline
 90
6
 70
1
 10
41.95143358907812
 20
26.51474287801998
 10
40.43588913245535
 20
27.38974287801998
 10
38.92034467583258
 20
26.51474287801998
 10
38.92034467583258
 20
24.76474287801998
 10
40.43588913245535
 20
23.88974287801998
 10
41.95143358907812
 20
24.76474287801998
  0
LWPOLYLINE
  5
6D
330
17
100
AcDbEntity
  8
0
100
AcDbPolyline
 90
6
 70
1
 10
45.482522502323654
 20
26.51474287801998
 10
43.966978045700884
 20
27.38974287801998
 10
42.451433589078114
 20
26.51474287801998
 10
42.451433589078114
 20
24.76474287801998
 10
43.966978045700884
 20
23.88974287801998
 10
45.482522502323654
 20
24.76474287801998
  0
LWPOLYLINE
  5
6E
330
17
100
AcDbEntity
  8
0
100
AcDbPolyline
 90
5
 70
1
 10
47.19688439091351
 20
24.063630714749007
 10
45.982522502323654
 20
24.76474287801998
 10
45.982522502323654
 20
26.51474287801998
 10
47.498066958946424
 20
27.38974287801998
 10
48.29311997711505
 20
26.930718803960303
  0
LWPOLYLINE
  5
6F
330
17
100
AcDbEntity
  8
0
100
AcDbPolyline
 90
4
 70
1
 10
11.89392265144076
 20
29.597728966871337
 10
11.937177826491071
 20
29.572755579912197
 10
11.937177826491071
 20
27.822755579912197
 10
10.658662529946325
 20
27.084604429289033
  0
LWPOLYLINE
  5
70
330
17
100
AcDbEntity
  8
0
100
AcDbPolyline
 90
6
 70
1
 10
15.468266739736606
 20
29.572755579912197
 10
13.952722283113838
 20
30.447755579912197
 10
12.43717782649107
 20
29.572755579912197
 10
12.43717782649107
 20
27.822755579912197
 10
13.952722283113838
 20
26.947755579912197
 10
15.468266739736606
 20
27.822755579912197
  0
LWPOLYLINE
  5
71
330
17
100
AcDbEntity
  8
0
100
AcDbPolyline
 90
6
 70
1
 10
18.99935565298214
 20
29.572755579912197
 10
17.483811196359373
 20
30.447755579912197
 10
15.968266739736606
 20
29.572755579912197
 10
15.968266739736604
 20
27.822755579912197
 10
17.483811196359373
 20
26.947755579912197
 10
18.99935565298214
 20
27.822755579912197
  0
LWPOLYLINE
  5
72
330
17
100
AcDbEntity
  8
0
100
AcDbPolyline
 90
6
 70
1
 10
22.530444566227672
 20
29.572755579912197
 10
21.014900109604906
 20
30.447755579912197
 10
19.49935565298214
 20
29.572755579912197
 10
19.49935565298214
 20
27.822755579912197
 10
21.014900109604906
 20
26.947755579912197
 10
22.530444566227672
 20
27.822755579912197
  0
LWPOLYLINE
  5
73
330
17
100
AcDbEntity
  8
0
100
AcDbPolyline
 90
6
 70
1
 10
26.06153347947321
 20
29.572755579912197
 10
24.545989022850442
 20
30.447755579912197
 10
23.030444566227676
 20
29.572755579912197
 10
23.030444566227676
 20
27.822755579912197
 10
24.545989022850442
 20
26.947755579912197
 10
26.06153347947321
 20
27.822755579912197
  0
LWPOLYLINE
  5
74
330
17
100
AcDbEntity
  8
0
100
AcDbPolyline
 90
6
 70
1
 10
29.592622392718745
 20
29.572755579912197
 10
28.07707793609598
 20
30.447755579912197
 10
26.561533479473212
 20
29.572755579912197
 10
26.561533479473212
 20
27.822755579912197
 10
28.07707793609598
 20
26.947755579912197
 10
29.592622392718745
 20
27.822755579912197
  0
LWPOLYLINE
  5
75
330
17
100
AcDbEntity
  8
0
100
AcDbPolyline
 90
6
 70
1
 10
33.12371130596428
 20
29.572755579912197
 10
31.60816684934151
 20
30.447755579912197
 10
30.092622392718745
 20
29.572755579912197
 10
30.092622392718745
 20
27.822755579912197
 10
31.60816684934151
 20
26.947755579912197
 10
33.12371130596428
 20
27.822755579912197
  0
LWPOLYLINE
  5
76
330
17
100
AcDbEntity
  8
0
100
AcDbPolyline
 90
6
 70
1
 10
36.65480021920982
 20
29.572755579912197
 10
35.13925576258705
 20
30.447755579912197
 10
33.62371130596428
 20
29.572755579912197
 10
33.62371130596428
 20
27.822755579912197
 10
35.13925576258705
 20
26.947755579912197
 10
36.65480021920982
 20
27.822755579912197
  0
LWPOLYLINE
  5
77
330
17
100
AcDbEntity
  8
0
100
AcDbPolyline
 90
6
 70
1
 10
40.18588913245536
 20
29.572755579912197
 10
38.67034467583259
 20
30.447755579912197
 10
37.15480021920982
 20
29.572755579912197
 10
37.15480021920982
 20
27.822755579912197
 10
38.67034467583259
 20
26.947755579912197
 10
40.18588913245536
 20
27.822755579912197
  0
LWPOLYLINE
  5
78
330
17
100
AcDbEntity
  8
0
100
AcDbPolyline
 90
6
 70
1
 10
43.71697804570089
 20
29.572755579912197
 10
42.20143358907812
 20
30.447755579912197
 10
40.68588913245535
 20
29.572755579912197
 10
40.68588913245535
 20
27.822755579912197
 10
42.20143358907812
 20
26.947755579912197
 10
43.71697804570089
 20
27.822755579912197
  0
LWPOLYLINE
  5
79
330
17
100
AcDbEntity
  8
0
100
AcDbPolyline
 90
6
 70
1
 10
47.248066958946424
 20
29.572755579912197
 10
45.732522502323654
 20
30.447755579912197
 10
44.216978045700884
 20
29.572755579912197
 10
44.216978045700884
 20
27.822755579912197
 10
45.732522502323654
 20
26.947755579912197
 10
47.248066958946424
 20
27.822755579912197
  0
LWPOLYLINE
  5
7A
330
17
100
AcDbEntity
  8
0
100
AcDbPolyline
 90
5
 70
1
 10
48.473951951626105
 20
27.403665683987875
 10
47.748066958946424
 20
27.822755579912197
 10
47.748066958946424
 20
29.572755579912197
 10
49.263611415569194
 20
30.447755579912197
 10
49.570187537827636
 20
30.270753773199175
  0
LWPOLYLINE
  5
7B
330
17
100
AcDbEntity
  8
0
100
AcDbPolyline
 90
5
 70
1
 10
13.455025027665368
 20
32.77377635891513
 10
13.702722283113838
 20
32.63076828180442
 10
13.702722283113838
 20
30.88076828180442
 10
12.18717782649107
 20
30.00576828180442
 10
12.114973779659133
 20
30.04745530767942
  0
LWPOLYLINE
  5
7C
330
17
100
AcDbEntity
  8
0
100
AcDbPolyline
 90
6
 70
1
 10
17.233811196359373
 20
32.63076828180442
 10
15.718266739736606
 20
33.50576828180442
 10
14.20272228311384
 20
32.63076828180442
 10
14.202722283113838
 20
30.88076828180442
 10
15.718266739736606
 20
30.00576828180442
 10
17.233811196359373
 20
30.88076828180442
  0
LWPOLYLINE
  5
7D
330
17
100
AcDbEntity
  8
0
100
AcDbPolyline
 90
6
 70
1
 10
20.764900109604906
 20
32.63076828180442
 10
19.24935565298214
 20
33.50576828180442
 10
17.733811196359373
 20
32.63076828180442
 10
17.733811196359373
 20
30.88076828180442
 10
19.24935565298214
 20
30.00576828180442
 10
20.764900109604906
 20
30.88076828180442
  0
LWPOLYLINE
  5
7E
330
17
100
AcDbEntity
  8
0
100
AcDbPolyline
 90
6
 70
1
 10
24.295989022850442
 20
32.63076828180442
 10
22.780444566227676
 20
33.50576828180442
 10
21.26490010960491
 20
32.63076828180442
 10
21.26490010960491
 20
30.88076828180442
 10
22.780444566227676
 20
30.00576828180442
 10
24.295989022850442
 20
30.88076828180442
  0
LWPOLYLINE
  5
7F
330
17
100
AcDbEntity
  8
0
100
AcDbPolyline
 90
6
 70
1
 10
27.82707793609598
 20
32.63076828180442
 10
26.311533479473212
 20
33.50576828180442
 10
24.795989022850446
 20
32.63076828180442
 10
24.795989022850446
 20
30.88076828180442
 10
26.311533479473212
 20
30.00576828180442
 10
27.82707793609598
 20
30.88076828180442
  0
LWPOLYLINE
  5
80
330
17
100
AcDbEntity
  8
0
100
AcDbPolyline
 90
6
 70
1
 10
31.35816684934151
 20
32.63076828180442
 10
29.842622392718745
 20
33.50576828180442
 10
28.32707793609598
 20
32.63076828180442
 10
28.32707793609598
 20
30.88076828180442
 10
29.842622392718745
 20
30.00576828180442
 10
31.35816684934151
 20
30.88076828180442
  0
LWPOLYLINE
  5
81
330
17
100
AcDbEntity
  8
0
100
AcDbPolyline
 90
6
 70
1
 10
34.88925576258705
 20
32.63076828180442
 10
33.37371130596428
 20
33.50576828180442
 10
31.85816684934151
 20
32.63076828180442
 10
31.85816684934151
 20
30.88076828180442
 10
33.37371130596428
 20
30.00576828180442
 10
34.88925576258705
 20
30.88076828180442
  0
LWPOLYLINE
  5
82
330
17
100
AcDbEntity
  8
0
100
AcDbPolyline
 90
6
 70
1
 10
38.42034467583259
 20
32.63076828180442
 10
36.90480021920982
 20
33.50576828180442
 10
35.38925576258705
 20
32.63076828180442
 10
35.38925576258705
 20
30.88076828180442
 10
36.90480021920982
 20
30.00576828180442
 10
38.42034467583259
 20
30.88076828180442
  0
LWPOLYLINE
  5
83
330
17
100
AcDbEntity
  8
0
100
AcDbPolyline
 90
6
 70
1
 10
41.95143358907812
 20
32.63076828180442
 10
40.43588913245535
 20
33.50576828180442
 10
38.92034467583258
 20
32.63076828180442
 10
38.92034467583258
 20
30.88076828180442
 10
40.43588913245535
 20
30.00576828180442
 10
41.95143358907812
 20
30.88076828180442
  0
LWPOLYLINE
  5
84
330
17
100
AcDbEntity
  8
0
100
AcDbPolyline
 90
6
 70
1
 10
45.482522502323654
 20
32.63076828180442
 10
43.966978045700884
 20
33.50576828180442
 10
42.451433589078114
 20
32.63076828180442
 10
42.451433589078114
 20
30.88076828180442
 10
43.966978045700884
 20
30.00576828180442
 10
45.482522502323654
 20
30.88076828180442
  0
LWPOLYLINE
  5
85
330
17
100
AcDbEntity
  8
0
100
AcDbPolyline
 90
6
 70
1
 10
49.013611415569194
 20
32.63076828180442
 10
47.498066958946424
 20
33.50576828180442
 10
45.982522502323654
 20
32.63076828180442
 10
45.982522502323654
 20
30.88076828180442
 10
47.498066958946424
 20
30.00576828180442
 10
49.013611415569194
 20
30.88076828180442
  0
LWPOLYLINE
  5
86
330
17
100
AcDbEntity
  8
0
100
AcDbPolyline
 90
4
 70
1
 10
49.751019512338694
 20
30.74370065322675
 10
49.51361141556919
 20
30.88076828180442
 10
49.51361141556919
 20
32.63076828180442
 10
50.74419503788992
 20
33.34124606741164
  0
LWPOLYLINE
  5
87
330
17
100
AcDbEntity
  8
0
100
AcDbPolyline
 90
5
 70
1
 10
15.016127403889971
 20
35.94982375095891
 10
15.468266739736606
 20
35.68878098369664
 10
15.468266739736606
 20
33.93878098369664
 10
13.952722283113838
 20
33.06378098369664
 10
13.676076155883736
 20
33.223502699723205
  0
LWPOLYLINE
  5
88
330
17
100
AcDbEntity
  8
0
100
AcDbPolyline
 90
6
 70
1
 10
18.99935565298214
 20
35.68878098369664
 10
17.483811196359373
 20
36.56378098369664
 10
15.968266739736606
 20
35.68878098369664
 10
15.968266739736604
 20
33.93878098369664
 10
17.483811196359373
 20
33.06378098369664
 10
18.99935565298214
 20
33.93878098369664
  0
LWPOLYLINE
  5
89
330
17
100
AcDbEntity
  8
0
100
AcDbPolyline
 90
6
 70
1
 10
22.530444566227672
 20
35.68878098369664
 10
21.014900109604906
 20
36.56378098369664
 10
19.49935565298214
 20
35.68878098369664
 10
19.49935565298214
 20
33.93878098369664
 10
21.014900109604906
 20
33.06378098369664
 10
22.530444566227672
 20
33.93878098369664
  0
LWPOLYLINE
  5
8A
330
17
100
AcDbEntity
  8
0
100
AcDbPolyline
 90
6
 70
1
 10
26.06153347947321
 20
35.68878098369664
 10
24.545989022850442
 20
36.56378098369664
 10
23.030444566227676
 20
35.68878098369664
 10
23.030444566227676
 20
33.93878098369664
 10
24.545989022850442
 20
33.06378098369664
 10
26.06153347947321
 20
33.93878098369664
  0
LWPOLYLINE
  5
8B
330
17
100
AcDbEntity
  8
0
100
AcDbPolyline
 90
6
 70
1
 10
29.592622392718745
 20
35.68878098369664
 10
28.07707793609598
 20
36.56378098369664
 10
26.561533479473212
 20
35.68878098369664
 10
26.561533479473212
 20
33.93878098369664
 10
28.07707793609598
 20
33.06378098369664
 10
29.592622392718745
 20
33.93878098369664
  0
LWPOLYLINE
  5
8C
330
17
100
AcDbEntity
  8
0
100
AcDbPolyline
 90
6
 70
1
 10
33.12371130596428
 20
35.68878098369664
 10
31.60816684934151
 20
36.56378098369664
 10
30.092622392718745
 20
35.68878098369664
 10
30.092622392718745
 20
33.93878098369664
 10
31.60816684934151
 20
33.06378098369664
 10
33.12371130596428
 20
33.93878098369664
  0
LWPOLYLINE
  5
8D
330
17
100
AcDbEntity
  8
0
100
AcDbPolyline
 90
6
 70
1
 10
36.65480021920982
 20
35.68878098369664
 10
35.13925576258705
 20
36.56378098369664
 10
33.62371130596428
 20
35.68878098369664
 10
33.62371130596428
 20
33.93878098369664
 10
35.13925576258705
 20
33.06378098369664
 10
36.65480021920982
 20
33.93878098369664
  0
LWPOLYLINE
  5
8E
330
17
100
AcDbEntity
  8
0
100
AcDbPolyline
 90
6
 70
1
 10
40.18588913245536
 20
35.68878098369664
 10
38.67034467583259
 20
36.56378098369664
 10
37.15480021920982
 20
35.68878098369664
 10
37.15480021920982
 20
33.93878098369664
 10
38.67034467583259
 20
33.06378098369664
 10
40.18588913245536
 20
33.93878098369664
  0
LWPOLYLINE
  5
8F
330
17
100
AcDbEntity
  8
0
100
AcDbPolyline
 90
6
 70
1
 10
43.71697804570089
 20
35.68878098369664
 10
42.20143358907812
 20
36.56378098369664
 10
40.68588913245535
 20
35.68878098369664
 10
40.68588913245535
 20
33.93878098369664
 10
42.20143358907812
 20
33.06378098369664
 10
43.71697804570089
 20
33.93878098369664
  0
LWPOLYLINE
  5
90
330
17
100
AcDbEntity
  8
0
100
AcDbPolyline
 90
6
 70
1
 10
47.248066958946424
 20
35.68878098369664
 10
45.732522502323654
 20
36.56378098369664
 10
44.216978045700884
 20
35.68878098369664
 10
44.216978045700884
 20
33.93878098369664
 10
45.732522502323654
 20
33.06378098369664
 10
47.248066958946424
 20
33.93878098369664
  0
LWPOLYLINE
  5
91
330
17
100
AcDbEntity
  8
0
100
AcDbPolyline
 90
6
 70
1
 10
50.779155872191964
 20
35.68878098369664
 10
49.263611415569194
 20
36.56378098369664
 10
47.748066958946424
 20
35.68878098369664
 10
47.748066958946424
 20
33.93878098369664
 10
49.263611415569194
 20
33.06378098369664
 10
50.779155872191964
 20
33.93878098369664
  0
LWPOLYLINE
  5
92
330
17
100
AcDbEntity
  8
0
100
AcDbPolyline
 90
3
 70
1
 10
51.27915587219196
 20
34.740379479542945
 10
51.27915587219196
 20
35.68878098369664
 10
51.74450479538851
 20
35.95745030977127
  0
LWPOLYLINE
  5
93
330
17
100
AcDbEntity
  8
0
100
AcDbPolyline
 90
5
 70
1
 10
16.577229780114575
 20
39.1258711430027
 10
17.233811196359373
 20
38.746793685588855
 10
17.233811196359373
 20
36.996793685588855
 10
15.718266739736606
 20
36.121793685588855
 10
15.23717853210834
 20
36.39955009176699
  0
LWPOLYLINE
  5
94
330
17
100
AcDbEntity
  8
0
100
AcDbPolyline
 90
6
 70
1
 10
20.764900109604906
 20
38.746793685588855
 10
19.24935565298214
 20
39.621793685588855
 10
17.733811196359373
 20
38.746793685588855
 10
17.733811196359373
 20
36.996793685588855
 10
19.24935565298214
 20
36.121793685588855
 10
20.764900109604906
 20
36.996793685588855
  0
LWPOLYLINE
  5
95
330
17
100
AcDbEntity
  8
0
100
AcDbPolyline
 90
6
 70
1
 10
24.295989022850442
 20
38.746793685588855
 10
22.780444566227676
 20
39.621793685588855
 10
21.26490010960491
 20
38.746793685588855
 10
21.26490010960491
 20
36.996793685588855
 10
22.780444566227676
 20
36.121793685588855
 10
24.295989022850442
 20
36.996793685588855
  0
LWPOLYLINE
  5
96
330
17
100
AcDbEntity
  8
0
100
AcDbPolyline
 90
6
 70
1
 10
27.82707793609598
 20
38.746793685588855
 10
26.311533479473212
 20
39.621793685588855
 10
24.795989022850446
 20
38.746793685588855
 10
24.795989022850446
 20
36.996793685588855
 10
26.311533479473212
 20
36.121793685588855
 10
27.82707793609598
 20
36.996793685588855
  0
LWPOLYLINE
  5
97
330
17
100
AcDbEntity
  8
0
100
AcDbPolyline
 90
6
 70
1
 10
31.35816684934151
 20
38.746793685588855
 10
29.842622392718745
 20
39.621793685588855
 10
28.32707793609598
 20
38.746793685588855
 10
28.32707793609598
 20
36.996793685588855
 10
29.842622392718745
 20
36.121793685588855
 10
31.35816684934151
 20
36.996793685588855
  0
LWPOLYLINE
  5
98
330
17
100
AcDbEntity
  8
0
100
AcDbPolyline
 90
6
 70
1
 10
34.88925576258705
 20
38.746793685588855
 10
33.37371130596428
 20
39.621793685588855
 10
31.85816684934151
 20
38.746793685588855
 10
31.85816684934151
 20
36.996793685588855
 10
33.37371130596428
 20
36.121793685588855
 10
34.88925576258705
 20
36.996793685588855
  0
LWPOLYLINE
  5
99
330
17
100
AcDbEntity
  8
0
100
AcDbPolyline
 90
6
 70
1
 10
38.42034467583259
 20
38.746793685588855
 10
36.90480021920982
 20
39.621793685588855
 10
35.38925576258705
 20
38.746793685588855
 10
35.38925576258705
 20
36.996793685588855
 10
36.90480021920982
 20
36.121793685588855
 10
38.42034467583259
 20
36.996793685588855
  0
LWPOLYLINE
  5
9A
330
17
100
AcDbEntity
  8
0
100
AcDbPolyline
 90
6
 70
1
 10
41.95143358907812
 20
38.746793685588855
 10
40.43588913245535
 20
39.621793685588855
 10
38.92034467583258
 20
38.746793685588855
 10
38.92034467583258
 20
36.996793685588855
 10
40.43588913245535
 20
36.121793685588855
 10
41.95143358907812
 20
36.996793685588855
  0
LWPOLYLINE
  5
9B
330
17
100
AcDbEntity
  8
0
100
AcDbPolyline
 90
6
 70
1
 10
45.482522502323654
 20
38.746793685588855
 10
43.966978045700884
 20
39.621793685588855
 10
42.451433589078114
 20
38.746793685588855
 10
42.451433589078114
 20
36.996793685588855
 10
43.966978045700884
 20
36.121793685588855
 10
45.482522502323654
 20
36.996793685588855
  0
LWPOLYLINE
  5
9C
330
17
100
AcDbEntity
  8
0
100
AcDbPolyline
 90
6
 70
1
 10
49.013611415569194
 20
38.746793685588855
 10
47.498066958946424
 20
39.621793685588855
 10
45.982522502323654
 20
38.746793685588855
 10
45.982522502323654
 20
36.996793685588855
 10
47.498066958946424
 20
36.121793685588855
 10
49.013611415569194
 20
36.996793685588855
  0
LWPOLYLINE
  5
9D
330
17
100
AcDbEntity
  8
0
100
AcDbPolyline
 90
7
 70
1
 10
52.02779127785184
 20
36.69835610586888
 10
51.02915587219196
 20
36.121793685588855
 10
49.51361141556919
 20
36.996793685588855
 10
49.51361141556919
 20
38.746793685588855
 10
51.02915587219196
 20
39.621793685588855
 10
52.54470032881473
 20
38.746793685588855
 10
52.54470032881473
 20
38.05027699028063
  0
LWPOLYLINE
  5
9E
330
17
100
AcDbEntity
  8
0
100
AcDbPolyline
 90
5
 70
1
 10
18.138332156339178
 20
42.30191853504648
 10
18.99935565298214
 20
41.80480638748107
 10
18.99935565298214
 20
40.05480638748107
 10
17.483811196359373
 20
39.17980638748107
 10
16.79828090833294
 20
39.575597483810775
  0
LWPOLYLINE
  5
9F
330
17
100
AcDbEntity
  8
0
100
AcDbPolyline
 90
6
 70
1
 10
22.530444566227672
 20
41.80480638748107
 10
21.014900109604906
 20
42.67980638748107
 10
19.49935565298214
 20
41.80480638748107
 10
19.49935565298214
 20
40.05480638748107
 10
21.014900109604906
 20
39.17980638748107
 10
22.530444566227672
 20
40.05480638748107
  0
LWPOLYLINE
  5
A0
330
17
100
AcDbEntity
  8
0
100
AcDbPolyline
 90
6
 70
1
 10
26.06153347947321
 20
41.80480638748107
 10
24.545989022850442
 20
42.67980638748107
 10
23.030444566227676
 20
41.80480638748107
 10
23.030444566227676
 20
40.05480638748107
 10
24.545989022850442
 20
39.17980638748107
 10
26.06153347947321
 20
40.05480638748107
  0
LWPOLYLINE
  5
A1
330
17
100
AcDbEntity
  8
0
100
AcDbPolyline
 90
6
 70
1
 10
29.592622392718745
 20
41.80480638748107
 10
28.07707793609598
 20
42.67980638748107
 10
26.561533479473212
 20
41.80480638748107
 10
26.561533479473212
 20
40.05480638748107
 10
28.07707793609598
 20
39.17980638748107
 10
29.592622392718745
 20
40.05480638748107
  0
LWPOLYLINE
  5
A2
330
17
100
AcDbEntity
  8
0
100
AcDbPolyline
 90
6
 70
1
 10
33.12371130596428
 20
41.80480638748107
 10
31.60816684934151
 20
42.67980638748107
 10
30.092622392718745
 20
41.80480638748107
 10
30.092622392718745
 20
40.05480638748107
 10
31.60816684934151
 20
39.17980638748107
 10
33.12371130596428
 20
40.05480638748107
  0
LWPOLYLINE
  5
A3
330
17
100
AcDbEntity
  8
0
100
AcDbPolyline
 90
6
 70
1
 10
36.65480021920982
 20
41.80480638748107
 10
35.13925576258705
 20
42.67980638748107
 10
33.62371130596428
 20
41.80480638748107
 10
33.62371130596428
 20
40.05480638748107
 10
35.13925576258705
 20
39.17980638748107
 10
36.65480021920982
 20
40.05480638748107
  0
LWPOLYLINE
  5
A4
330
17
100
AcDbEntity
  8
0
100
AcDbPolyline
 90
6
 70
1
 10
40.18588913245536
 20
41.80480638748107
 10
38.67034467583259
 20
42.67980638748107
 10
37.15480021920982
 20
41.80480638748107
 10
37.15480021920982
 20
40.05480638748107
 10
38.67034467583259
 20
39.17980638748107
 10
40.18588913245536
 20
40.05480638748107
  0
LWPOLYLINE
  5
A5
330
17
100
AcDbEntity
  8
0
100
AcDbPolyline
 90
6
 70
1
 10
43.71697804570089
 20
41.80480638748107
 10
42.20143358907812
 20
42.67980638748107
 10
40.68588913245535
 20
41.80480638748107
 10
40.68588913245535
 20
40.05480638748107
 10
42.20143358907812
 20
39.17980638748107
 10
43.71697804570089
 20
40.05480638748107
  0
LWPOLYLINE
  5
A6
330
17
100
AcDbEntity
  8
0
100
AcDbPolyline
 90
6
 70
1
 10
47.248066958946424
 20
41.80480638748107
 10
45.732522502323654
 20
42.67980638748107
 10
44.216978045700884
 20
41.80480638748107
 10
44.216978045700884
 20
40.05480638748107
 10
45.732522502323654
 20
39.17980638748107
 10
47.248066958946424
 20
40.05480638748107
  0
LWPOLYLINE
  5
A7
330
17
100
AcDbEntity
  8
0
100
AcDbPolyline
 90
6
 70
1
 10
50.779155872191964
 20
41.80480638748107
 10
49.263611415569194
 20
42.67980638748107
 10
47.748066958946424
 20
41.80480638748107
 10
47.748066958946424
 20
40.05480638748107
 10
49.263611415569194
 20
39.17980638748107
 10
50.779155872191964
 20
40.05480638748107
  0
LWPOLYLINE
  5
A8
330
17
100
AcDbEntity
  8
0
100
AcDbPolyline
 90
6
 70
1
 10
53.02810103535043
 20
39.31456034822851
 10
52.79470032881473
 20
39.17980638748107
 10
51.27915587219196
 20
40.05480638748107
 10
51.27915587219196
 20
41.80480638748107
 10
52.79470032881473
 20
42.67980638748107
 10
54.03992400032171
 20
41.96087616553522
  0
LWPOLYLINE
  5
A9
330
17
100
AcDbEntity
  8
0
100
AcDbPolyline
 90
5
 70
1
 10
19.69943453256378
 20
45.47796592709027
 10
20.764900109604906
 20
44.862819089373296
 10
20.764900109604906
 20
43.112819089373296
 10
19.24935565298214
 20
42.237819089373296
 10
18.35938328455755
 20
42.751644875854566
  0
LWPOLYLINE
  5
AA
330
17
100
AcDbEntity
  8
0
100
AcDbPolyline
 90
6
 70
1
 10
24.295989022850442
 20
44.862819089373296
 10
22.780444566227676
 20
45.737819089373296
 10
21.26490010960491
 20
44.862819089373296
 10
21.26490010960491
 20
43.112819089373296
 10
22.780444566227676
 20
42.237819089373296
 10
24.295989022850442
 20
43.112819089373296
  0
LWPOLYLINE
  5
AB
330
17
100
AcDbEntity
  8
0
100
AcDbPolyline
 90
6
 70
1
 10
27.82707793609598
 20
44.862819089373296
 10
26.311533479473212
 20
45.737819089373296
 10
24.795989022850446
 20
44.862819089373296
 10
24.795989022850446
 20
43.112819089373296
 10
26.311533479473212
 20
42.237819089373296
 10
27.82707793609598
 20
43.112819089373296
  0
LWPOLYLINE
  5
AC
330
17
100
AcDbEntity
  8
0
100
AcDbPolyline
 90
6
 70
1
 10
31.35816684934151
 20
44.862819089373296
 10
29.842622392718745
 20
45.737819089373296
 10
28.32707793609598
 20
44.862819089373296
 10
28.32707793609598
 20
43.112819089373296
 10
29.842622392718745
 20
42.237819089373296
 10
31.35816684934151
 20
43.112819089373296
  0
LWPOLYLINE
  5
AD
330
17
100
AcDbEntity
  8
0
100
AcDbPolyline
 90
6
 70
1
 10
34.88925576258705
 20
44.862819089373296
 10
33.37371130596428
 20
45.737819089373296
 10
31.85816684934151
 20
44.862819089373296
 10
31.85816684934151
 20
43.112819089373296
 10
33.37371130596428
 20
42.237819089373296
 10
34.88925576258705
 20
43.112819089373296
  0
LWPOLYLINE
  5
AE
330
17
100
AcDbEntity
  8
0
100
AcDbPolyline
 90
6
 70
1
 10
38.42034467583259
 20
44.862819089373296
 10
36.90480021920982
 20
45.737819089373296
 10
35.38925576258705
 20
44.862819089373296
 10
35.38925576258705
 20
43.112819089373296
 10
36.90480021920982
 20
42.237819089373296
 10
38.42034467583259
 20
43.112819089373296
  0
LWPOLYLINE
  5
AF
330
17
100
AcDbEntity
  8
0
100
AcDbPolyline
 90
6
 70
1
 10
41.95143358907812
 20
44.862819089373296
 10
40.43588913245535
 20
45.737819089373296
 10
38.92034467583258
 20
44.862819089373296
 10
38.92034467583258
 20
43.112819089373296
 10
40.43588913245535
 20
42.237819089373296
 10
41.95143358907812
 20
43.112819089373296
  0
LWPOLYLINE
  5
B0
330
17
100
AcDbEntity
  8
0
100
AcDbPolyline
 90
6
 70
1
 10
45.482522502323654
 20
44.862819089373296
 10
43.966978045700884
 20
45.737819089373296
 10
42.451433589078114
 20
44.862819089373296
 10
42.451433589078114
 20
43.112819089373296
 10
43.966978045700884
 20
42.237819089373296
 10
45.482522502323654
 20
43.112819089373296
  0
LWPOLYLINE
  5
B1
330
17
100
AcDbEntity
  8
0
100
AcDbPolyline
 90
6
 70
1
 10
49.013611415569194
 20
44.862819089373296
 10
47.498066958946424
 20
45.737819089373296
 10
45.982522502323654
 20
44.862819089373296
 10
45.982522502323654
 20
43.112819089373296
 10
47.498066958946424
 20
42.237819089373296
 10
49.013611415569194
 20
43.112819089373296
  0
LWPOLYLINE
  5
B2
330
17
100
AcDbEntity
  8
0
100
AcDbPolyline
 90
6
 70
1
 10
52.54470032881473
 20
44.862819089373296
 10
51.02915587219196
 20
45.737819089373296
 10
49.51361141556919
 20
44.862819089373296
 10
49.51361141556919
 20
43.112819089373296
 10
51.02915587219196
 20
42.237819089373296
 10
52.54470032881473
 20
43.112819089373296
  0
LWPOLYLINE
  5
B3
330
17
100
AcDbEntity
  8
0
100
AcDbPolyline
 90
5
 70
1
 10
54.22075597483277
 20
42.4338230455628
 10
53.04470032881472
 20
43.112819089373296
 10
53.04470032881472
 20
44.862819089373296
 10
54.56024478543749
 20
45.737819089373296
 10
55.31699156103431
 20
45.3009111347741
  0
LWPOLYLINE
  5
B4
330
17
100
AcDbEntity
  8
0
100
AcDbPolyline
 90
5
 70
1
 10
21.260536908788385
 20
48.65401331913405
 10
22.530444566227672
 20
47.92083179126551
 10
22.530444566227672
 20
46.17083179126551
 10
21.014900109604906
 20
45.29583179126551
 10
19.920485660782152
 20
45.927692267898344
  0
LWPOLYLINE
  5
B5
330
17
100
AcDbEntity
  8
0
100
AcDbPolyline
 90
6
 70
1
 10
26.06153347947321
 20
47.92083179126551
 10
24.545989022850442
 20
48.79583179126551
 10
23.030444566227676
 20
47.92083179126551
 10
23.030444566227676
 20
46.17083179126551
 10
24.545989022850442
 20
45.29583179126551
 10
26.06153347947321
 20
46.17083179126551
  0
LWPOLYLINE
  5
B6
330
17
100
AcDbEntity
  8
0
100
AcDbPolyline
 90
6
 70
1
 10
29.592622392718745
 20
47.92083179126551
 10
28.07707793609598
 20
48.79583179126551
 10
26.561533479473212
 20
47.92083179126551
 10
26.561533479473212
 20
46.17083179126551
 10
28.07707793609598
 20
45.29583179126551
 10
29.592622392718745
 20
46.17083179126551
  0
LWPOLYLINE
  5
B7
330
17
100
AcDbEntity
  8
0
100
AcDbPolyline
 90
6
 70
1
 10
33.12371130596428
 20
47.92083179126551
 10
31.60816684934151
 20
48.79583179126551
 10
30.092622392718745
 20
47.92083179126551
 10
30.092622392718745
 20
46.17083179126551
 10
31.60816684934151
 20
45.29583179126551
 10
33.12371130596428
 20
46.17083179126551
  0
LWPOLYLINE
  5
B8
330
17
100
AcDbEntity
  8
0
100
AcDbPolyline
 90
6
 70
1
 10
36.65480021920982
 20
47.92083179126551
 10
35.13925576258705
 20
48.79583179126551
 10
33.62371130596428
 20
47.92083179126551
 10
33.62371130596428
 20
46.17083179126551
 10
35.13925576258705
 20
45.29583179126551
 10
36.65480021920982
 20
46.17083179126551
  0
LWPOLYLINE
  5
B9
330
17
100
AcDbEntity
  8
0
100
AcDbPolyline
 90
6
 70
1
 10
40.18588913245536
 20
47.92083179126551
 10
38.67034467583259
 20
48.79583179126551
 10
37.15480021920982
 20
47.92083179126551
 10
37.15480021920982
 20
46.17083179126551
 10
38.67034467583259
 20
45.29583179126551
 10
40.18588913245536
 20
46.17083179126551
  0
LWPOLYLINE
  5
BA
330
17
100
AcDbEntity
  8
0
100
AcDbPolyline
 90
6
 70
1
 10
43.71697804570089
 20
47.92083179126551
 10
42.20143358907812
 20
48.79583179126551
 10
40.68588913245535
 20
47.92083179126551
 10
40.68588913245535
 20
46.17083179126551
 10
42.20143358907812
 20
45.29583179126551
 10
43.71697804570089
 20
46.17083179126551
  0
LWPOLYLINE
  5
BB
330
17
100
AcDbEntity
  8
0
100
AcDbPolyline
 90
6
 70
1
 10
47.248066958946424
 20
47.92083179126551
 10
45.732522502323654
 20
48.79583179126551
 10
44.216978045700884
 20
47.92083179126551
 10
44.216978045700884
 20
46.17083179126551
 10
45.732522502323654
 20
45.29583179126551
 10
47.248066958946424
 20
46.17083179126551
  0
LWPOLYLINE
  5
BC
330
17
100
AcDbEntity
  8
0
100
AcDbPolyline
 90
6
 70
1
 10
50.779155872191964
 20
47.92083179126551
 10
49.263611415569194
 20
48.79583179126551
 10
47.748066958946424
 20
47.92083179126551
 10
47.748066958946424
 20
46.17083179126551
 10
49.263611415569194
 20
45.29583179126551
 10
50.779155872191964
 20
46.17083179126551
  0
LWPOLYLINE
  5
BD
330
17
100
AcDbEntity
  8
0
100
AcDbPolyline
 90
6
 70
1
 10
54.3102447854375
 20
47.92083179126551
 10
52.79470032881473
 20
48.79583179126551
 10
51.27915587219196
 20
47.92083179126551
 10
51.27915587219196
 20
46.17083179126551
 10
52.79470032881473
 20
45.29583179126551
 10
54.3102447854375
 20
46.17083179126551
  0
LWPOLYLINE
  5
BE
330
17
100
AcDbEntity
  8
0
100
AcDbPolyline
 90
5
 70
1
 10
55.497823535545365
 20
45.77385801480167
 10
54.81024478543749
 20
46.17083179126551
 10
54.81024478543749
 20
47.92083179126551
 10
56.32578924206026
 20
48.79583179126551
 10
56.594059121746895
 20
48.64094610401296
  0
LWPOLYLINE
  5
BF
330
17
100
AcDbEntity
  8
0
100
AcDbPolyline
 90
5
 70
1
 10
22.82163928501299
 20
51.830060711177836
 10
24.295989022850442
 20
50.97884449315773
 10
24.295989022850442
 20
49.22884449315773
 10
22.780444566227676
 20
48.35384449315773
 10
21.481588037006755
 20
49.10373965994213
  0
LWPOLYLINE
  5
C0
330
17
100
AcDbEntity
  8
0
100
AcDbPolyline
 90
6
 70
1
 10
27.82707793609598
 20
50.97884449315773
 10
26.311533479473212
 20
51.85384449315773
 10
24.795989022850446
 20
50.97884449315773
 10
24.795989022850446
 20
49.22884449315773
 10
26.311533479473212
 20
48.35384449315773
 10
27.82707793609598
 20
49.22884449315773
  0
LWPOLYLINE
  5
C1
330
17
100
AcDbEntity
  8
0
100
AcDbPolyline
 90
6
 70
1
 10
31.35816684934151
 20
50.97884449315773
 10
29.842622392718745
 20
51.85384449315773
 10
28.32707793609598
 20
50.97884449315773
 10
28.32707793609598
 20
49.22884449315773
 10
29.842622392718745
 20
48.35384449315773
 10
31.35816684934151
 20
49.22884449315773
  0
LWPOLYLINE
  5
C2
330
17
100
AcDbEntity
  8
0
100
AcDbPolyline
 90
6
 70
1
 10
34.88925576258705
 20
50.97884449315773
 10
33.37371130596428
 20
51.85384449315773
 10
31.85816684934151
 20
50.97884449315773
 10
31.85816684934151
 20
49.22884449315773
 10
33.37371130596428
 20
48.35384449315773
 10
34.88925576258705
 20
49.22884449315773
  0
LWPOLYLINE
  5
C3
330
17
100
AcDbEntity
  8
0
100
AcDbPolyline
 90
6
 70
1
 10
38.42034467583259
 20
50.97884449315773
 10
36.90480021920982
 20
51.85384449315773
 10
35.38925576258705
 20
50.97884449315773
 10
35.38925576258705
 20
49.22884449315773
 10
36.90480021920982
 20
48.35384449315773
 10
38.42034467583259
 20
49.22884449315773
  0
LWPOLYLINE
  5
C4
330
17
100
AcDbEntity
  8
0
100
AcDbPolyline
 90
6
 70
1
 10
41.95143358907812
 20
50.97884449315773
 10
40.43588913245535
 20
51.85384449315773
 10
38.92034467583258
 20
50.97884449315773
 10
38.92034467583258
 20
49.22884449315773
 10
40.43588913245535
 20
48.35384449315773
 10
41.95143358907812
 20
49.22884449315773
  0
LWPOLYLINE
  5
C5
330
17
100
AcDbEntity
  8
0
100
AcDbPolyline
 90
6
 70
1
 10
45.482522502323654
 20
50.97884449315773
 10
43.966978045700884
 20
51.85384449315773
 10
42.451433589078114
 20
50.97884449315773
 10
42.451433589078114
 20
49.22884449315773
 10
43.966978045700884
 20
48.35384449315773
 10
45.482522502323654
 20
49.22884449315773
  0
LWPOLYLINE
  5
C6
330
17
100
AcDbEntity
  8
0
100
AcDbPolyline
 90
6
 70
1
 10
49.013611415569194
 20
50.97884449315773
 10
47.498066958946424
 20
51.85384449315773
 10
45.982522502323654
 20
50.97884449315773
 10
45.982522502323654
 20
49.22884449315773
 10
47.498066958946424
 20
48.35384449315773
 10
49.013611415569194
 20
49.22884449315773
  0
LWPOLYLINE
  5
C7
330
17
100
AcDbEntity
  8
0
100
AcDbPolyline
 90
6
 70
1
 10
52.54470032881473
 20
50.97884449315773
 10
51.02915587219196
 20
51.85384449315773
 10
49.51361141556919
 20
50.97884449315773
 10
49.51361141556919
 20
49.22884449315773
 10
51.02915587219196
 20
48.35384449315773
 10
52.54470032881473
 20
49.22884449315773
  0
LWPOLYLINE
  5
C8
330
17
100
AcDbEntity
  8
0
100
AcDbPolyline
 90
6
 70
1
 10
56.07578924206026
 20
50.97884449315773
 10
54.56024478543749
 20
51.85384449315773
 10
53.04470032881472
 20
50.97884449315773
 10
53.04470032881472
 20
49.22884449315773
 10
54.56024478543749
 20
48.35384449315773
 10
56.07578924206026
 20
49.22884449315773
  0
LWPOLYLINE
  5
C9
330
17
100
AcDbEntity
  8
0
100
AcDbPolyline
 90
4
 70
1
 10
56.77489109625795
 20
49.11389298404054
 10
56.57578924206026
 20
49.22884449315773
 10
56.57578924206026
 20
50.97884449315773
 10
57.746363340380064
 20
51.65467576392907
  0
LWPOLYLINE
  5
CA
330
17
100
AcDbEntity
  8
0
100
AcDbPolyline
 90
6
 70
1
 10
24.253377404509425
 20
54.74291779843276
 10
24.545989022850442
 20
54.911857195049954
 10
26.06153347947321
 20
54.036857195049954
 10
26.06153347947321
 20
52.286857195049954
 10
24.545989022850442
 20
51.411857195049954
 10
23.042690413231362
 20
52.27978705198592
  0
LWPOLYLINE
  5
CB
330
17
100
AcDbEntity
  8
0
100
AcDbPolyline
 90
6
 70
1
 10
29.592622392718745
 20
54.036857195049954
 10
28.07707793609598
 20
54.911857195049954
 10
26.561533479473212
 20
54.036857195049954
 10
26.561533479473212
 20
52.286857195049954
 10
28.07707793609598
 20
51.411857195049954
 10
29.592622392718745
 20
52.286857195049954
  0
LWPOLYLINE
  5
CC
330
17
100
AcDbEntity
  8
0
100
AcDbPolyline
 90
6
 70
1
 10
33.12371130596428
 20
54.036857195049954
 10
31.60816684934151
 20
54.911857195049954
 10
30.092622392718745
 20
54.036857195049954
 10
30.092622392718745
 20
52.286857195049954
 10
31.60816684934151
 20
51.411857195049954
 10
33.12371130596428
 20
52.286857195049954
  0
LWPOLYLINE
  5
CD
330
17
100
AcDbEntity
  8
0
100
AcDbPolyline
 90
6
 70
1
 10
36.65480021920982
 20
54.036857195049954
 10
35.13925576258705
 20
54.911857195049954
 10
33.62371130596428
 20
54.036857195049954
 10
33.62371130596428
 20
52.286857195049954
 10
35.13925576258705
 20
51.411857195049954
 10
36.65480021920982
 20
52.286857195049954
  0
LWPOLYLINE
  5
CE
330
17
100
AcDbEntity
  8
0
100
AcDbPolyline
 90
6
 70
1
 10
40.18588913245536
 20
54.036857195049954
 10
38.67034467583259
 20
54.911857195049954
 10
37.15480021920982
 20
54.036857195049954
 10
37.15480021920982
 20
52.286857195049954
 10
38.67034467583259
 20
51.411857195049954
 10
40.18588913245536
 20
52.286857195049954
  0
LWPOLYLINE
  5
CF
330
17
100
AcDbEntity
  8
0
100
AcDbPolyline
 90
6
 70
1
 10
43.71697804570089
 20
54.036857195049954
 10
42.20143358907812
 20
54.911857195049954
 10
40.68588913245535
 20
54.036857195049954
 10
40.68588913245535
 20
52.286857195049954
 10
42.20143358907812
 20
51.411857195049954
 10
43.71697804570089
 20
52.286857195049954
  0
LWPOLYLINE
  5
D0
330
17
100
AcDbEntity
  8
0
100
AcDbPolyline
 90
6
 70
1
 10
47.248066958946424
 20
54.036857195049954
 10
45.732522502323654
 20
54.911857195049954
 10
44.216978045700884
 20
54.036857195049954
 10
44.216978045700884
 20
52.286857195049954
 10
45.732522502323654
 20
51.411857195049954
 10
47.248066958946424
 20
52.286857195049954
  0
LWPOLYLINE
  5
D1
330
17
100
AcDbEntity
  8
0
100
AcDbPolyline
 90
6
 70
1
 10
50.779155872191964
 20
54.036857195049954
 10
49.263611415569194
 20
54.911857195049954
 10
47.748066958946424
 20
54.036857195049954
 10
47.748066958946424
 20
52.286857195049954
 10
49.263611415569194
 20
51.411857195049954
 10
50.779155872191964
 20
52.286857195049954
  0
LWPOLYLINE
  5
D2
330
17
100
AcDbEntity
  8
0
100
AcDbPolyline
 90
6
 70
1
 10
54.3102447854375
 20
54.036857195049954
 10
52.79470032881473
 20
54.911857195049954
 10
51.27915587219196
 20
54.036857195049954
 10
51.27915587219196
 20
52.286857195049954
 10
52.79470032881473
 20
51.411857195049954
 10
54.3102447854375
 20
52.286857195049954
  0
LWPOLYLINE
  5
D3
330
17
100
AcDbEntity
  8
0
100
AcDbPolyline
 90
6
 70
1
 10
57.84133369868303
 20
54.036857195049954
 10
56.32578924206026
 20
54.911857195049954
 10
54.81024478543749
 20
54.036857195049954
 10
54.81024478543749
 20
52.286857195049954
 10
56.32578924206026
 20
51.411857195049954
 10
57.84133369868303
 20
52.286857195049954
  0
LWPOLYLINE
  5
D4
330
17
100
AcDbEntity
  8
0
100
AcDbPolyline
 90
3
 70
1
 10
58.34133369868303
 20
53.21075773134169
 10
58.34133369868303
 20
54.036857195049954
 10
58.74667309787866
 20
54.270880006288714
  0
LWPOLYLINE
  5
D5
330
17
100
AcDbEntity
  8
0
100
AcDbPolyline
 90
8
 70
1
 10
24.902397590361453
 20
56.0633429672447
 10
25.282266564566527
 20
57.37562236655282
 10
26.311533479473212
 20
57.96986989694217
 10
27.82707793609598
 20
57.09486989694217
 10
27.82707793609598
 20
55.34486989694217
 10
26.311533479473212
 20
54.46986989694217
 10
24.795989022850446
 20
55.34486989694217
 10
24.795989022850446
 20
55.84685578582629
  0
LWPOLYLINE
  5
D6
330
17
100
AcDbEntity
  8
0
100
AcDbPolyline
 90
6
 70
1
 10
31.35816684934151
 20
57.09486989694217
 10
29.842622392718745
 20
57.96986989694217
 10
28.32707793609598
 20
57.09486989694217
 10
28.32707793609598
 20
55.34486989694217
 10
29.842622392718745
 20
54.46986989694217
 10
31.35816684934151
 20
55.34486989694217
  0
LWPOLYLINE
  5
D7
330
17
100
AcDbEntity
  8
0
100
AcDbPolyline
 90
6
 70
1
 10
34.88925576258705
 20
57.09486989694217
 10
33.37371130596428
 20
57.96986989694217
 10
31.85816684934151
 20
57.09486989694217
 10
31.85816684934151
 20
55.34486989694217
 10
33.37371130596428
 20
54.46986989694217
 10
34.88925576258705
 20
55.34486989694217
  0
LWPOLYLINE
  5
D8
330
17
100
AcDbEntity
  8
0
100
AcDbPolyline
 90
6
 70
1
 10
38.42034467583259
 20
57.09486989694217
 10
36.90480021920982
 20
57.96986989694217
 10
35.38925576258705
 20
57.09486989694217
 10
35.38925576258705
 20
55.34486989694217
 10
36.90480021920982
 20
54.46986989694217
 10
38.42034467583259
 20
55.34486989694217
  0
LWPOLYLINE
  5
D9
330
17
100
AcDbEntity
  8
0
100
AcDbPolyline
 90
6
 70
1
 10
41.95143358907812
 20
57.09486989694217
 10
40.43588913245535
 20
57.96986989694217
 10
38.92034467583258
 20
57.09486989694217
 10
38.92034467583258
 20
55.34486989694217
 10
40.43588913245535
 20
54.46986989694217
 10
41.95143358907812
 20
55.34486989694217
  0
LWPOLYLINE
  5
DA
330
17
100
AcDbEntity
  8
0
100
AcDbPolyline
 90
6
 70
1
 10
45.482522502323654
 20
57.09486989694217
 10
43.966978045700884
 20
57.96986989694217
 10
42.451433589078114
 20
57.09486989694217
 10
42.451433589078114
 20
55.34486989694217
 10
43.966978045700884
 20
54.46986989694217
 10
45.482522502323654
 20
55.34486989694217
  0
LWPOLYLINE
  5
DB
330
17
100
AcDbEntity
  8
0
100
AcDbPolyline
 90
6
 70
1
 10
49.013611415569194
 20
57.09486989694217
 10
47.498066958946424
 20
57.96986989694217
 10
45.982522502323654
 20
57.09486989694217
 10
45.982522502323654
 20
55.34486989694217
 10
47.498066958946424
 20
54.46986989694217
 10
49.013611415569194
 20
55.34486989694217
  0
LWPOLYLINE
  5
DC
330
17
100
AcDbEntity
  8
0
100
AcDbPolyline
 90
6
 70
1
 10
52.54470032881473
 20
57.09486989694217
 10
51.02915587219196
 20
57.96986989694217
 10
49.51361141556919
 20
57.09486989694217
 10
49.51361141556919
 20
55.34486989694217
 10
51.02915587219196
 20
54.46986989694217
 10
52.54470032881473
 20
55.34486989694217
  0
LWPOLYLINE
  5
DD
330
17
100
AcDbEntity
  8
0
100
AcDbPolyline
 90
6
 70
1
 10
56.07578924206026
 20
57.09486989694217
 10
54.56024478543749
 20
57.96986989694217
 10
53.04470032881472
 20
57.09486989694217
 10
53.04470032881472
 20
55.34486989694217
 10
54.56024478543749
 20
54.46986989694217
 10
56.07578924206026
 20
55.34486989694217
  0
LWPOLYLINE
  5
DE
330
17
100
AcDbEntity
  8
0
100
AcDbPolyline
 90
7
 70
1
 10
59.02995958034199
 20
55.01178580238632
 10
58.09133369868303
 20
54.46986989694217
 10
56.57578924206026
 20
55.34486989694217
 10
56.57578924206026
 20
57.09486989694217
 10
58.09133369868303
 20
57.96986989694217
 10
59.6068781553058
 20
57.09486989694217
 10
59.6068781553058
 20
56.52065524207937
  0
LWPOLYLINE
  5
DF
330
17
100
AcDbEntity
  8
0
100
AcDbPolyline
 90
3
 70
1
 10
26.06153347947321
 20
60.06764511238089
 10
26.06153347947321
 20
58.40288259883439
 10
25.482929959626833
 20
58.068825700897015
  0
LWPOLYLINE
  5
E0
330
17
100
AcDbEntity
  8
0
100
AcDbPolyline
 90
6
 70
1
 10
29.592622392718745
 20
60.15288259883439
 10
28.07707793609598
 20
61.02788259883439
 10
26.561533479473212
 20
60.15288259883439
 10
26.561533479473212
 20
58.40288259883439
 10
28.07707793609598
 20
57.52788259883439
 10
29.592622392718745
 20
58.40288259883439
  0
LWPOLYLINE
  5
E1
330
17
100
AcDbEntity
  8
0
100
AcDbPolyline
 90
6
 70
1
 10
33.12371130596428
 20
60.15288259883439
 10
31.60816684934151
 20
61.02788259883439
 10
30.092622392718745
 20
60.15288259883439
 10
30.092622392718745
 20
58.40288259883439
 10
31.60816684934151
 20
57.52788259883439
 10
33.12371130596428
 20
58.40288259883439
  0
LWPOLYLINE
  5
E2
330
17
100
AcDbEntity
  8
0
100
AcDbPolyline
 90
6
 70
1
 10
36.65480021920982
 20
60.15288259883439
 10
35.13925576258705
 20
61.02788259883439
 10
33.62371130596428
 20
60.15288259883439
 10
33.62371130596428
 20
58.40288259883439
 10
35.13925576258705
 20
57.52788259883439
 10
36.65480021920982
 20
58.40288259883439
  0
LWPOLYLINE
  5
E3
330
17
100
AcDbEntity
  8
0
100
AcDbPolyline
 90
6
 70
1
 10
40.18588913245536
 20
60.15288259883439
 10
38.67034467583259
 20
61.02788259883439
 10
37.15480021920982
 20
60.15288259883439
 10
37.15480021920982
 20
58.40288259883439
 10
38.67034467583259
 20
57.52788259883439
 10
40.18588913245536
 20
58.40288259883439
  0
LWPOLYLINE
  5
E4
330
17
100
AcDbEntity
  8
0
100
AcDbPolyline
 90
6
 70
1
 10
43.71697804570089
 20
60.15288259883439
 10
42.20143358907812
 20
61.02788259883439
 10
40.68588913245535
 20
60.15288259883439
 10
40.68588913245535
 20
58.40288259883439
 10
42.20143358907812
 20
57.52788259883439
 10
43.71697804570089
 20
58.40288259883439
  0
LWPOLYLINE
  5
E5
330
17
100
AcDbEntity
  8
0
100
AcDbPolyline
 90
6
 70
1
 10
47.248066958946424
 20
60.15288259883439
 10
45.732522502323654
 20
61.02788259883439
 10
44.216978045700884
 20
60.15288259883439
 10
44.216978045700884
 20
58.40288259883439
 10
45.732522502323654
 20
57.52788259883439
 10
47.248066958946424
 20
58.40288259883439
  0
LWPOLYLINE
  5
E6
330
17
100
AcDbEntity
  8
0
100
AcDbPolyline
 90
6
 70
1
 10
50.779155872191964
 20
60.15288259883439
 10
49.263611415569194
 20
61.02788259883439
 10
47.748066958946424
 20
60.15288259883439
 10
47.748066958946424
 20
58.40288259883439
 10
49.263611415569194
 20
57.52788259883439
 10
50.779155872191964
 20
58.40288259883439
  0
LWPOLYLINE
  5
E7
330
17
100
AcDbEntity
  8
0
100
AcDbPolyline
 90
6
 70
1
 10
54.3102447854375
 20
60.15288259883439
 10
52.79470032881473
 20
61.02788259883439
 10
51.27915587219196
 20
60.15288259883439
 10
51.27915587219196
 20
58.40288259883439
 10
52.79470032881473
 20
57.52788259883439
 10
54.3102447854375
 20
58.40288259883439
  0
LWPOLYLINE
  5
E8
330
17
100
AcDbEntity
  8
0
100
AcDbPolyline
 90
6
 70
1
 10
57.84133369868303
 20
60.15288259883439
 10
56.32578924206026
 20
61.02788259883439
 10
54.81024478543749
 20
60.15288259883439
 10
54.81024478543749
 20
58.40288259883439
 10
56.32578924206026
 20
57.52788259883439
 10
57.84133369868303
 20
58.40288259883439
  0
LWPOLYLINE
  5
E9
330
17
100
AcDbEntity
  8
0
100
AcDbPolyline
 90
6
 70
1
 10
60.03026933784058
 20
57.62799004474595
 10
59.8568781553058
 20
57.52788259883439
 10
58.34133369868303
 20
58.40288259883439
 10
58.34133369868303
 20
60.15288259883439
 10
59.8568781553058
 20
61.02788259883439
 10
61.06379558424097
 20
60.33106849634902
  0
LWPOLYLINE
  5
EA
330
17
100
AcDbEntity
  8
0
100
AcDbPolyline
 90
5
 70
1
 10
27.093944806793882
 20
63.63416991028101
 10
27.82707793609598
 20
63.21089530072661
 10
27.82707793609598
 20
61.46089530072661
 10
26.311533479473212
 20
60.58589530072661
 10
26.225869499378753
 20
60.635353422694
  0
LWPOLYLINE
  5
EB
330
17
100
AcDbEntity
  8
0
100
AcDbPolyline
 90
6
 70
1
 10
31.35816684934151
 20
63.21089530072661
 10
29.842622392718745
 20
64.0858953007266
 10
28.32707793609598
 20
63.21089530072661
 10
28.32707793609598
 20
61.46089530072661
 10
29.842622392718745
 20
60.58589530072661
 10
31.35816684934151
 20
61.46089530072661
  0
LWPOLYLINE
  5
EC
330
17
100
AcDbEntity
  8
0
100
AcDbPolyline
 90
6
 70
1
 10
34.88925576258705
 20
63.21089530072661
 10
33.37371130596428
 20
64.0858953007266
 10
31.85816684934151
 20
63.21089530072661
 10
31.85816684934151
 20
61.46089530072661
 10
33.37371130596428
 20
60.58589530072661
 10
34.88925576258705
 20
61.46089530072661
  0
LWPOLYLINE
  5
ED
330
17
100
AcDbEntity
  8
0
100
AcDbPolyline
 90
6
 70
1
 10
38.42034467583259
 20
63.21089530072661
 10
36.90480021920982
 20
64.0858953007266
 10
35.38925576258705
 20
63.21089530072661
 10
35.38925576258705
 20
61.46089530072661
 10
36.90480021920982
 20
60.58589530072661
 10
38.42034467583259
 20
61.46089530072661
  0
LWPOLYLINE
  5
EE
330
17
100
AcDbEntity
  8
0
100
AcDbPolyline
 90
6
 70
1
 10
41.95143358907812
 20
63.21089530072661
 10
40.43588913245535
 20
64.0858953007266
 10
38.92034467583258
 20
63.21089530072661
 10
38.92034467583258
 20
61.46089530072661
 10
40.43588913245535
 20
60.58589530072661
 10
41.95143358907812
 20
61.46089530072661
  0
LWPOLYLINE
  5
EF
330
17
100
AcDbEntity
  8
0
100
AcDbPolyline
 90
6
 70
1
 10
45.482522502323654
 20
63.21089530072661
 10
43.966978045700884
 20
64.0858953007266
 10
42.451433589078114
 20
63.21089530072661
 10
42.451433589078114
 20
61.46089530072661
 10
43.966978045700884
 20
60.58589530072661
 10
45.482522502323654
 20
61.46089530072661
  0
LWPOLYLINE
  5
F0
330
17
100
AcDbEntity
  8
0
100
AcDbPolyline
 90
6
 70
1
 10
49.013611415569194
 20
63.21089530072661
 10
47.498066958946424
 20
64.0858953007266
 10
45.982522502323654
 20
63.21089530072661
 10
45.982522502323654
 20
61.46089530072661
 10
47.498066958946424
 20
60.58589530072661
 10
49.013611415569194
 20
61.46089530072661
  0
LWPOLYLINE
  5
F1
330
17
100
AcDbEntity
  8
0
100
AcDbPolyline
 90
6
 70
1
 10
52.54470032881473
 20
63.21089530072661
 10
51.02915587219196
 20
64.0858953007266
 10
49.51361141556919
 20
63.21089530072661
 10
49.51361141556919
 20
61.46089530072661
 10
51.02915587219196
 20
60.58589530072661
 10
52.54470032881473
 20
61.46089530072661
  0
LWPOLYLINE
  5
F2
330
17
100
AcDbEntity
  8
0
100
AcDbPolyline
 90
6
 70
1
 10
56.07578924206026
 20
63.21089530072661
 10
54.56024478543749
 20
64.0858953007266
 10
53.04470032881472
 20
63.21089530072661
 10
53.04470032881472
 20
61.46089530072661
 10
54.56024478543749
 20
60.58589530072661
 10
56.07578924206026
 20
61.46089530072661
  0
LWPOLYLINE
  5
F3
330
17
100
AcDbEntity
  8
0
100
AcDbPolyline
 90
6
 70
1
 10
59.6068781553058
 20
63.21089530072661
 10
58.09133369868303
 20
64.0858953007266
 10
56.57578924206026
 20
63.21089530072661
 10
56.57578924206026
 20
61.46089530072661
 10
58.09133369868303
 20
60.58589530072661
 10
59.6068781553058
 20
61.46089530072661
  0
LWPOLYLINE
  5
F4
330
17
100
AcDbEntity
  8
0
100
AcDbPolyline
 90
5
 70
1
 10
61.24462755875203
 20
60.80401537637659
 10
60.10687815530579
 20
61.46089530072661
 10
60.10687815530579
 20
63.21089530072661
 10
61.62242261192856
 20
64.0858953007266
 10
62.340863144953566
 20
63.67110346558788
  0
LWPOLYLINE
  5
F5
330
17
100
AcDbEntity
  8
0
100
AcDbPolyline
 90
5
 70
1
 10
28.105215403469867
 20
67.1276628282562
 10
29.592622392718745
 20
66.26890800261883
 10
29.592622392718745
 20
64.51890800261883
 10
28.07707793609598
 20
63.64390800261883
 10
27.237140096054738
 20
64.1288463406692
  0
LWPOLYLINE
  5
F6
330
17
100
AcDbEntity
  8
0
100
AcDbPolyline
 90
6
 70
1
 10
33.12371130596428
 20
66.26890800261883
 10
31.60816684934151
 20
67.14390800261883
 10
30.092622392718745
 20
66.26890800261883
 10
30.092622392718745
 20
64.51890800261883
 10
31.60816684934151
 20
63.64390800261883
 10
33.12371130596428
 20
64.51890800261883
  0
LWPOLYLINE
  5
F7
330
17
100
AcDbEntity
  8
0
100
AcDbPolyline
 90
6
 70
1
 10
36.65480021920982
 20
66.26890800261883
 10
35.13925576258705
 20
67.14390800261883
 10
33.62371130596428
 20
66.26890800261883
 10
33.62371130596428
 20
64.51890800261883
 10
35.13925576258705
 20
63.64390800261883
 10
36.65480021920982
 20
64.51890800261883
  0
LWPOLYLINE
  5
F8
330
17
100
AcDbEntity
  8
0
100
AcDbPolyline
 90
6
 70
1
 10
40.18588913245536
 20
66.26890800261883
 10
38.67034467583259
 20
67.14390800261883
 10
37.15480021920982
 20
66.26890800261883
 10
37.15480021920982
 20
64.51890800261883
 10
38.67034467583259
 20
63.64390800261883
 10
40.18588913245536
 20
64.51890800261883
  0
LWPOLYLINE
  5
F9
330
17
100
AcDbEntity
  8
0
100
AcDbPolyline
 90
6
 70
1
 10
43.71697804570089
 20
66.26890800261883
 10
42.20143358907812
 20
67.14390800261883
 10
40.68588913245535
 20
66.26890800261883
 10
40.68588913245535
 20
64.51890800261883
 10
42.20143358907812
 20
63.64390800261883
 10
43.71697804570089
 20
64.51890800261883
  0
LWPOLYLINE
  5
FA
330
17
100
AcDbEntity
  8
0
100
AcDbPolyline
 90
6
 70
1
 10
47.248066958946424
 20
66.26890800261883
 10
45.732522502323654
 20
67.14390800261883
 10
44.216978045700884
 20
66.26890800261883
 10
44.216978045700884
 20
64.51890800261883
 10
45.732522502323654
 20
63.64390800261883
 10
47.248066958946424
 20
64.51890800261883
  0
LWPOLYLINE
  5
FB
330
17
100
AcDbEntity
  8
0
100
AcDbPolyline
 90
6
 70
1
 10
50.779155872191964
 20
66.26890800261883
 10
49.263611415569194
 20
67.14390800261883
 10
47.748066958946424
 20
66.26890800261883
 10
47.748066958946424
 20
64.51890800261883
 10
49.263611415569194
 20
63.64390800261883
 10
50.779155872191964
 20
64.51890800261883
  0
LWPOLYLINE
  5
FC
330
17
100
AcDbEntity
  8
0
100
AcDbPolyline
 90
6
 70
1
 10
54.3102447854375
 20
66.26890800261883
 10
52.79470032881473
 20
67.14390800261883
 10
51.27915587219196
 20
66.26890800261883
 10
51.27915587219196
 20
64.51890800261883
 10
52.79470032881473
 20
63.64390800261883
 10
54.3102447854375
 20
64.51890800261883
  0
LWPOLYLINE
  5
FD
330
17
100
AcDbEntity
  8
0
100
AcDbPolyline
 90
6
 70
1
 10
57.84133369868303
 20
66.26890800261883
 10
56.32578924206026
 20
67.14390800261883
 10
54.81024478543749
 20
66.26890800261883
 10
54.81024478543749
 20
64.51890800261883
 10
56.32578924206026
 20
63.64390800261883
 10
57.84133369868303
 20
64.51890800261883
  0
LWPOLYLINE
  5
FE
330
17
100
AcDbEntity
  8
0
100
AcDbPolyline
 90
6
 70
1
 10
61.37242261192857
 20
66.26890800261883
 10
59.8568781553058
 20
67.14390800261883
 10
58.34133369868303
 20
66.26890800261883
 10
58.34133369868303
 20
64.51890800261883
 10
59.8568781553058
 20
63.64390800261883
 10
61.37242261192857
 20
64.51890800261883
  0
LWPOLYLINE
  5
FF
330
17
100
AcDbEntity
  8
0
100
AcDbPolyline
 90
6
 70
1
 10
62.03521084337349
 20
66.23675337186899
 10
62.54387951807228
 20
64.20207129094412
 10
62.521695119464624
 20
64.14405034561547
 10
61.87242261192856
 20
64.51890800261883
 10
61.87242261192856
 20
66.26890800261883
 10
61.91091638681193
 20
66.29113239390986
  0
LWPOLYLINE
  5
100
330
17
100
AcDbEntity
  8
0
100
AcDbPolyline
 90
7
 70
1
 10
28.82506801252481
 20
69.614435409191
 10
29.842622392718745
 20
70.20192070451105
 10
31.35816684934151
 20
69.32692070451105
 10
31.35816684934151
 20
67.57692070451105
 10
29.842622392718745
 20
66.70192070451105
 10
28.32707793609598
 20
67.57692070451105
 10
28.32707793609598
 20
67.89409981262122
  0
LWPOLYLINE
  5
101
330
17
100
AcDbEntity
  8
0
100
AcDbPolyline
 90
6
 70
1
 10
34.88925576258705
 20
69.32692070451105
 10
33.37371130596428
 20
70.20192070451105
 10
31.85816684934151
 20
69.32692070451105
 10
31.85816684934151
 20
67.57692070451105
 10
33.37371130596428
 20
66.70192070451105
 10
34.88925576258705
 20
67.57692070451105
  0
LWPOLYLINE
  5
102
330
17
100
AcDbEntity
  8
0
100
AcDbPolyline
 90
6
 70
1
 10
38.42034467583259
 20
69.32692070451105
 10
36.90480021920982
 20
70.20192070451105
 10
35.38925576258705
 20
69.32692070451105
 10
35.38925576258705
 20
67.57692070451105
 10
36.90480021920982
 20
66.70192070451105
 10
38.42034467583259
 20
67.57692070451105
  0
LWPOLYLINE
  5
103
330
17
100
AcDbEntity
  8
0
100
AcDbPolyline
 90
6
 70
1
 10
41.95143358907812
 20
69.32692070451105
 10
40.43588913245535
 20
70.20192070451105
 10
38.92034467583258
 20
69.32692070451105
 10
38.92034467583258
 20
67.57692070451105
 10
40.43588913245535
 20
66.70192070451105
 10
41.95143358907812
 20
67.57692070451105
  0
LWPOLYLINE
  5
104
330
17
100
AcDbEntity
  8
0
100
AcDbPolyline
 90
6
 70
1
 10
45.482522502323654
 20
69.32692070451105
 10
43.966978045700884
 20
70.20192070451105
 10
42.451433589078114
 20
69.32692070451105
 10
42.451433589078114
 20
67.57692070451105
 10
43.966978045700884
 20
66.70192070451105
 10
45.482522502323654
 20
67.57692070451105
  0
LWPOLYLINE
  5
105
330
17
100
AcDbEntity
  8
0
100
AcDbPolyline
 90
6
 70
1
 10
49.013611415569194
 20
69.32692070451105
 10
47.498066958946424
 20
70.20192070451105
 10
45.982522502323654
 20
69.32692070451105
 10
45.982522502323654
 20
67.57692070451105
 10
47.498066958946424
 20
66.70192070451105
 10
49.013611415569194
 20
67.57692070451105
  0
LWPOLYLINE
  5
106
330
17
100
AcDbEntity
  8
0
100
AcDbPolyline
 90
6
 70
1
 10
52.54470032881473
 20
69.32692070451105
 10
51.02915587219196
 20
70.20192070451105
 10
49.51361141556919
 20
69.32692070451105
 10
49.51361141556919
 20
67.57692070451105
 10
51.02915587219196
 20
66.70192070451105
 10
52.54470032881473
 20
67.57692070451105
  0
LWPOLYLINE
  5
107
330
17
100
AcDbEntity
  8
0
100
AcDbPolyline
 90
7
 70
1
 10
53.896512048192776
 20
69.79744701348748
 10
56.07578924206026
 20
68.84400978195816
 10
56.07578924206026
 20
67.57692070451105
 10
54.56024478543749
 20
66.70192070451105
 10
53.04470032881472
 20
67.57692070451105
 10
53.04470032881472
 20
69.32692070451105
 10
53.907026630621466
 20
69.82478502698848
  0
LWPOLYLINE
  5
108
330
17
100
AcDbEntity
  8
0
100
AcDbPolyline
 90
4
 70
1
 10
59.333175224885764
 20
67.41889824395506
 10
58.09133369868303
 20
66.70192070451105
 10
56.57578924206026
 20
67.57692070451105
 10
56.57578924206026
 20
68.62525898829769
  0
LWPOLYLINE
  5
109
330
17
100
AcDbEntity
  8
0
100
AcDbPolyline
 90
3
 70
1
 10
29.592622392718745
 20
72.26599652466511
 10
29.592622392718745
 20
70.63493340640328
 10
29.02573140758512
 20
70.30763874353521
  0
LWPOLYLINE
  5
10A
330
17
100
AcDbEntity
  8
0
100
AcDbPolyline
 90
6
 70
1
 10
33.12371130596428
 20
72.38493340640328
 10
31.60816684934151
 20
73.25993340640328
 10
30.092622392718745
 20
72.38493340640328
 10
30.092622392718745
 20
70.63493340640328
 10
31.60816684934151
 20
69.75993340640328
 10
33.12371130596428
 20
70.63493340640328
  0
LWPOLYLINE
  5
10B
330
17
100
AcDbEntity
  8
0
100
AcDbPolyline
 90
6
 70
1
 10
36.65480021920982
 20
72.38493340640328
 10
35.13925576258705
 20
73.25993340640328
 10
33.62371130596428
 20
72.38493340640328
 10
33.62371130596428
 20
70.63493340640328
 10
35.13925576258705
 20
69.75993340640328
 10
36.65480021920982
 20
70.63493340640328
  0
LWPOLYLINE
  5
10C
330
17
100
AcDbEntity
  8
0
100
AcDbPolyline
 90
6
 70
1
 10
40.18588913245536
 20
72.38493340640328
 10
38.67034467583259
 20
73.25993340640328
 10
37.15480021920982
 20
72.38493340640328
 10
37.15480021920982
 20
70.63493340640328
 10
38.67034467583259
 20
69.75993340640328
 10
40.18588913245536
 20
70.63493340640328
  0
LWPOLYLINE
  5
10D
330
17
100
AcDbEntity
  8
0
100
AcDbPolyline
 90
6
 70
1
 10
43.71697804570089
 20
72.38493340640328
 10
42.20143358907812
 20
73.25993340640328
 10
40.68588913245535
 20
72.38493340640328
 10
40.68588913245535
 20
70.63493340640328
 10
42.20143358907812
 20
69.75993340640328
 10
43.71697804570089
 20
70.63493340640328
  0
LWPOLYLINE
  5
10E
330
17
100
AcDbEntity
  8
0
100
AcDbPolyline
 90
6
 70
1
 10
47.248066958946424
 20
72.38493340640328
 10
45.732522502323654
 20
73.25993340640328
 10
44.216978045700884
 20
72.38493340640328
 10
44.216978045700884
 20
70.63493340640328
 10
45.732522502323654
 20
69.75993340640328
 10
47.248066958946424
 20
70.63493340640328
  0
LWPOLYLINE
  5
10F
330
17
100
AcDbEntity
  8
0
100
AcDbPolyline
 90
6
 70
1
 10
50.779155872191964
 20
72.38493340640328
 10
49.263611415569194
 20
73.25993340640328
 10
47.748066958946424
 20
72.38493340640328
 10
47.748066958946424
 20
70.63493340640328
 10
49.263611415569194
 20
69.75993340640328
 10
50.779155872191964
 20
70.63493340640328
  0
LWPOLYLINE
  5
110
330
17
100
AcDbEntity
  8
0
100
AcDbPolyline
 90
7
 70
1
 10
54.192467835672915
 20
70.56693485275237
 10
52.79470032881473
 20
69.75993340640328
 10
51.27915587219196
 20
70.63493340640328
 10
51.27915587219196
 20
72.38493340640328
 10
52.79470032881473
 20
73.25993340640328
 10
54.3102447854375
 20
72.38493340640328
 10
54.3102447854375
 20
70.87315603315633
  0
LWPOLYLINE
  5
111
330
17
100
AcDbEntity
  8
0
100
AcDbPolyline
 90
3
 70
1
 10
54.81024478543749
 20
72.17316074976708
 10
54.81024478543749
 20
72.38493340640328
 10
54.91494490516209
 20
72.44538204871046
  0
LWPOLYLINE
  5
112
330
17
100
AcDbEntity
  8
0
100
AcDbPolyline
 90
6
 70
1
 10
30.497753012048186
 20
75.39282273603082
 10
30.42407563076714
 20
75.98224392478707
 10
31.35816684934151
 20
75.44294610829549
 10
31.35816684934151
 20
73.69294610829549
 10
29.842622392718745
 20
72.81794610829549
 10
29.765316587744696
 20
72.86257863560718
  0
LWPOLYLINE
  5
113
330
17
100
AcDbEntity
  8
0
100
AcDbPolyline
 90
6
 70
1
 10
34.88925576258705
 20
75.44294610829549
 10
33.37371130596428
 20
76.31794610829549
 10
31.85816684934151
 20
75.44294610829549
 10
31.85816684934151
 20
73.69294610829549
 10
33.37371130596428
 20
72.81794610829549
 10
34.88925576258705
 20
73.69294610829549
  0
LWPOLYLINE
  5
114
330
17
100
AcDbEntity
  8
0
100
AcDbPolyline
 90
6
 70
1
 10
38.42034467583259
 20
75.44294610829549
 10
36.90480021920982
 20
76.31794610829549
 10
35.38925576258705
 20
75.44294610829549
 10
35.38925576258705
 20
73.69294610829549
 10
36.90480021920982
 20
72.81794610829549
 10
38.42034467583259
 20
73.69294610829549
  0
LWPOLYLINE
  5
115
330
17
100
AcDbEntity
  8
0
100
AcDbPolyline
 90
6
 70
1
 10
41.95143358907812
 20
75.44294610829549
 10
40.43588913245535
 20
76.31794610829549
 10
38.92034467583258
 20
75.44294610829549
 10
38.92034467583258
 20
73.69294610829549
 10
40.43588913245535
 20
72.81794610829549
 10
41.95143358907812
 20
73.69294610829549
  0
LWPOLYLINE
  5
116
330
17
100
AcDbEntity
  8
0
100
AcDbPolyline
 90
6
 70
1
 10
45.482522502323654
 20
75.44294610829549
 10
43.966978045700884
 20
76.31794610829549
 10
42.451433589078114
 20
75.44294610829549
 10
42.451433589078114
 20
73.69294610829549
 10
43.966978045700884
 20
72.81794610829549
 10
45.482522502323654
 20
73.69294610829549
  0
LWPOLYLINE
  5
117
330
17
100
AcDbEntity
  8
0
100
AcDbPolyline
 90
6
 70
1
 10
49.013611415569194
 20
75.44294610829549
 10
47.498066958946424
 20
76.31794610829549
 10
45.982522502323654
 20
75.44294610829549
 10
45.982522502323654
 20
73.69294610829549
 10
47.498066958946424
 20
72.81794610829549
 10
49.013611415569194
 20
73.69294610829549
  0
LWPOLYLINE
  5
118
330
17
100
AcDbEntity
  8
0
100
AcDbPolyline
 90
6
 70
1
 10
52.54470032881473
 20
75.44294610829549
 10
51.02915587219196
 20
76.31794610829549
 10
49.51361141556919
 20
75.44294610829549
 10
49.51361141556919
 20
73.69294610829549
 10
51.02915587219196
 20
72.81794610829549
 10
52.54470032881473
 20
73.69294610829549
  0
LWPOLYLINE
  5
119
330
17
100
AcDbEntity
  8
0
100
AcDbPolyline
 90
6
 70
1
 10
55.20038611021353
 20
73.18753187447433
 10
54.56024478543749
 20
72.81794610829549
 10
53.04470032881472
 20
73.69294610829549
 10
53.04470032881472
 20
75.44294610829549
 10
54.56024478543749
 20
76.31794610829549
 10
56.06929260057634
 20
75.44669694600506
  0
LWPOLYLINE
  5
11A
330
17
100
AcDbEntity
  8
0
100
AcDbPolyline
 90
3
 70
1
 10
64.96057848387525
 20
76.20655616496603
 10
65.1535115251741
 20
76.31794610829549
 10
65.67764426597007
 20
76.01533792930583
  0
LWPOLYLINE
  5
11B
330
17
100
AcDbEntity
  8
0
100
AcDbPolyline
 90
6
 70
1
 10
30.108119042097492
 20
78.50990580487807
 10
31.60816684934151
 20
79.37595881018771
 10
33.12371130596428
 20
78.50095881018771
 10
33.12371130596428
 20
76.75095881018771
 10
31.60816684934151
 20
75.87595881018771
 10
30.346293702145402
 20
76.60450161140454
  0
LWPOLYLINE
  5
11C
330
17
100
AcDbEntity
  8
0
100
AcDbPolyline
 90
6
 70
1
 10
36.65480021920982
 20
78.50095881018771
 10
35.13925576258705
 20
79.37595881018771
 10
33.62371130596428
 20
78.50095881018771
 10
33.62371130596428
 20
76.75095881018771
 10
35.13925576258705
 20
75.87595881018771
 10
36.65480021920982
 20
76.75095881018771
  0
LWPOLYLINE
  5
11D
330
17
100
AcDbEntity
  8
0
100
AcDbPolyline
 90
6
 70
1
 10
40.18588913245536
 20
78.50095881018771
 10
38.67034467583259
 20
79.37595881018771
 10
37.15480021920982
 20
78.50095881018771
 10
37.15480021920982
 20
76.75095881018771
 10
38.67034467583259
 20
75.87595881018771
 10
40.18588913245536
 20
76.75095881018771
  0
LWPOLYLINE
  5
11E
330
17
100
AcDbEntity
  8
0
100
AcDbPolyline
 90
6
 70
1
 10
43.71697804570089
 20
78.50095881018771
 10
42.20143358907812
 20
79.37595881018771
 10
40.68588913245535
 20
78.50095881018771
 10
40.68588913245535
 20
76.75095881018771
 10
42.20143358907812
 20
75.87595881018771
 10
43.71697804570089
 20
76.75095881018771
  0
LWPOLYLINE
  5
11F
330
17
100
AcDbEntity
  8
0
100
AcDbPolyline
 90
6
 70
1
 10
47.248066958946424
 20
78.50095881018771
 10
45.732522502323654
 20
79.37595881018771
 10
44.216978045700884
 20
78.50095881018771
 10
44.216978045700884
 20
76.75095881018771
 10
45.732522502323654
 20
75.87595881018771
 10
47.248066958946424
 20
76.75095881018771
  0
LWPOLYLINE
  5
120
330
17
100
AcDbEntity
  8
0
100
AcDbPolyline
 90
6
 70
1
 10
50.779155872191964
 20
78.50095881018771
 10
49.263611415569194
 20
79.37595881018771
 10
47.748066958946424
 20
78.50095881018771
 10
47.748066958946424
 20
76.75095881018771
 10
49.263611415569194
 20
75.87595881018771
 10
50.779155872191964
 20
76.75095881018771
  0
LWPOLYLINE
  5
121
330
17
100
AcDbEntity
  8
0
100
AcDbPolyline
 90
6
 70
1
 10
54.3102447854375
 20
78.50095881018771
 10
52.79470032881473
 20
79.37595881018771
 10
51.27915587219196
 20
78.50095881018771
 10
51.27915587219196
 20
76.75095881018771
 10
52.79470032881473
 20
75.87595881018771
 10
54.3102447854375
 20
76.75095881018771
  0
LWPOLYLINE
  5
122
330
17
100
AcDbEntity
  8
0
100
AcDbPolyline
 90
7
 70
1
 10
56.43985542168674
 20
76.41016377649328
 10
56.25100015756194
 20
75.91913830825526
 10
54.81024478543749
 20
76.75095881018771
 10
54.81024478543749
 20
78.50095881018771
 10
56.32578924206026
 20
79.37595881018771
 10
57.84133369868303
 20
78.50095881018771
 10
57.84133369868303
 20
77.4612762978333
  0
LWPOLYLINE
  5
123
330
17
100
AcDbEntity
  8
0
100
AcDbPolyline
 90
6
 70
1
 10
58.47453012048194
 20
77.93617533718692
 10
58.34133369868303
 20
77.83627765839408
 10
58.34133369868303
 20
78.50095881018771
 10
59.8568781553058
 20
79.37595881018771
 10
61.37242261192857
 20
78.50095881018771
 10
61.37242261192857
 20
77.16340120239481
  0
LWPOLYLINE
  5
124
330
17
100
AcDbEntity
  8
0
100
AcDbPolyline
 90
6
 70
1
 10
61.87242261192856
 20
77.03006738530652
 10
61.87242261192856
 20
78.50095881018771
 10
63.38796706855133
 20
79.37595881018771
 10
64.9035115251741
 20
78.50095881018771
 10
64.9035115251741
 20
76.75095881018771
 10
64.27652869430683
 20
76.38897010400922
  0
LWPOLYLINE
  5
125
330
17
100
AcDbEntity
  8
0
100
AcDbPolyline
 90
5
 70
1
 10
66.25392580038006
 20
76.25997189947485
 10
65.4035115251741
 20
76.75095881018771
 10
65.4035115251741
 20
78.50095881018771
 10
66.91905598179686
 20
79.37595881018771
 10
67.4294642649379
 20
79.08127445051962
  0
LWPOLYLINE
  5
126
330
17
100
AcDbEntity
  8
0
100
AcDbPolyline
 90
5
 70
1
 10
29.632758197111833
 20
82.31280636225303
 10
29.842622392718745
 20
82.43397151207994
 10
31.35816684934151
 20
81.55897151207994
 10
31.35816684934151
 20
79.80897151207994
 10
30.040808241284388
 20
79.04839416509888
  0
LWPOLYLINE
  5
127
330
17
100
AcDbEntity
  8
0
100
AcDbPolyline
 90
6
 70
1
 10
34.88925576258705
 20
81.55897151207994
 10
33.37371130596428
 20
82.43397151207994
 10
31.85816684934151
 20
81.55897151207994
 10
31.85816684934151
 20
79.80897151207994
 10
33.37371130596428
 20
78.93397151207994
 10
34.88925576258705
 20
79.80897151207994
  0
LWPOLYLINE
  5
128
330
17
100
AcDbEntity
  8
0
100
AcDbPolyline
 90
6
 70
1
 10
38.42034467583259
 20
81.55897151207994
 10
36.90480021920982
 20
82.43397151207994
 10
35.38925576258705
 20
81.55897151207994
 10
35.38925576258705
 20
79.80897151207994
 10
36.90480021920982
 20
78.93397151207994
 10
38.42034467583259
 20
79.80897151207994
  0
LWPOLYLINE
  5
129
330
17
100
AcDbEntity
  8
0
100
AcDbPolyline
 90
6
 70
1
 10
41.95143358907812
 20
81.55897151207994
 10
40.43588913245535
 20
82.43397151207994
 10
38.92034467583258
 20
81.55897151207994
 10
38.92034467583258
 20
79.80897151207994
 10
40.43588913245535
 20
78.93397151207994
 10
41.95143358907812
 20
79.80897151207994
  0
LWPOLYLINE
  5
12A
330
17
100
AcDbEntity
  8
0
100
AcDbPolyline
 90
6
 70
1
 10
45.482522502323654
 20
81.55897151207994
 10
43.966978045700884
 20
82.43397151207994
 10
42.451433589078114
 20
81.55897151207994
 10
42.451433589078114
 20
79.80897151207994
 10
43.966978045700884
 20
78.93397151207994
 10
45.482522502323654
 20
79.80897151207994
  0
LWPOLYLINE
  5
12B
330
17
100
AcDbEntity
  8
0
100
AcDbPolyline
 90
6
 70
1
 10
49.013611415569194
 20
81.55897151207994
 10
47.498066958946424
 20
82.43397151207994
 10
45.982522502323654
 20
81.55897151207994
 10
45.982522502323654
 20
79.80897151207994
 10
47.498066958946424
 20
78.93397151207994
 10
49.013611415569194
 20
79.80897151207994
  0
LWPOLYLINE
  5
12C
330
17
100
AcDbEntity
  8
0
100
AcDbPolyline
 90
6
 70
1
 10
52.54470032881473
 20
81.55897151207994
 10
51.02915587219196
 20
82.43397151207994
 10
49.51361141556919
 20
81.55897151207994
 10
49.51361141556919
 20
79.80897151207994
 10
51.02915587219196
 20
78.93397151207994
 10
52.54470032881473
 20
79.80897151207994
  0
LWPOLYLINE
  5
12D
330
17
100
AcDbEntity
  8
0
100
AcDbPolyline
 90
6
 70
1
 10
56.07578924206026
 20
81.55897151207994
 10
54.56024478543749
 20
82.43397151207994
 10
53.04470032881472
 20
81.55897151207994
 10
53.04470032881472
 20
79.80897151207994
 10
54.56024478543749
 20
78.93397151207994
 10
56.07578924206026
 20
79.80897151207994
  0
LWPOLYLINE
  5
12E
330
17
100
AcDbEntity
  8
0
100
AcDbPolyline
 90
6
 70
1
 10
59.6068781553058
 20
81.55897151207994
 10
58.09133369868303
 20
82.43397151207994
 10
56.57578924206026
 20
81.55897151207994
 10
56.57578924206026
 20
79.80897151207994
 10
58.09133369868303
 20
78.93397151207994
 10
59.6068781553058
 20
79.80897151207994
  0
LWPOLYLINE
  5
12F
330
17
100
AcDbEntity
  8
0
100
AcDbPolyline
 90
6
 70
1
 10
63.13796706855133
 20
81.55897151207994
 10
61.62242261192856
 20
82.43397151207994
 10
60.10687815530579
 20
81.55897151207994
 10
60.10687815530579
 20
79.80897151207994
 10
61.62242261192856
 20
78.93397151207994
 10
63.13796706855133
 20
79.80897151207994
  0
LWPOLYLINE
  5
130
330
17
100
AcDbEntity
  8
0
100
AcDbPolyline
 90
6
 70
1
 10
66.66905598179686
 20
81.55897151207994
 10
65.1535115251741
 20
82.43397151207994
 10
63.637967068551326
 20
81.55897151207994
 10
63.637967068551326
 20
79.80897151207994
 10
65.1535115251741
 20
78.93397151207994
 10
66.66905598179686
 20
79.80897151207994
  0
LWPOLYLINE
  5
131
330
17
100
AcDbEntity
  8
0
100
AcDbPolyline
 90
6
 70
1
 10
68.64790361445782
 20
82.00553949903662
 10
67.62337782178226
 20
79.54666867546564
 10
67.16905598179687
 20
79.80897151207994
 10
67.16905598179687
 20
81.55897151207994
 10
68.68460043841964
 20
82.43397151207994
 10
68.9329499410881
 20
82.29058685986118
  0
LWPOLYLINE
  5
132
330
17
100
AcDbEntity
  8
0
100
AcDbPolyline
 90
4
 70
1
 10
29.325456007538854
 20
84.77123279837417
 10
29.592622392718745
 20
84.61698421397215
 10
29.592622392718745
 20
82.86698421397215
 10
29.565447396298733
 20
82.85129472247382
  0
LWPOLYLINE
  5
133
330
17
100
AcDbEntity
  8
0
100
AcDbPolyline
 90
6
 70
1
 10
33.12371130596428
 20
84.61698421397215
 10
31.60816684934151
 20
85.49198421397215
 10
30.092622392718745
 20
84.61698421397215
 10
30.092622392718745
 20
82.86698421397215
 10
31.60816684934151
 20
81.99198421397215
 10
33.12371130596428
 20
82.86698421397215
  0
LWPOLYLINE
  5
134
330
17
100
AcDbEntity
  8
0
100
AcDbPolyline
 90
6
 70
1
 10
36.65480021920982
 20
84.61698421397215
 10
35.13925576258705
 20
85.49198421397215
 10
33.62371130596428
 20
84.61698421397215
 10
33.62371130596428
 20
82.86698421397215
 10
35.13925576258705
 20
81.99198421397215
 10
36.65480021920982
 20
82.86698421397215
  0
LWPOLYLINE
  5
135
330
17
100
AcDbEntity
  8
0
100
AcDbPolyline
 90
6
 70
1
 10
40.18588913245536
 20
84.61698421397215
 10
38.67034467583259
 20
85.49198421397215
 10
37.15480021920982
 20
84.61698421397215
 10
37.15480021920982
 20
82.86698421397215
 10
38.67034467583259
 20
81.99198421397215
 10
40.18588913245536
 20
82.86698421397215
  0
LWPOLYLINE
  5
136
330
17
100
AcDbEntity
  8
0
100
AcDbPolyline
 90
6
 70
1
 10
43.71697804570089
 20
84.61698421397215
 10
42.20143358907812
 20
85.49198421397215
 10
40.68588913245535
 20
84.61698421397215
 10
40.68588913245535
 20
82.86698421397215
 10
42.20143358907812
 20
81.99198421397215
 10
43.71697804570089
 20
82.86698421397215
  0
LWPOLYLINE
  5
137
330
17
100
AcDbEntity
  8
0
100
AcDbPolyline
 90
6
 70
1
 10
47.248066958946424
 20
84.61698421397215
 10
45.732522502323654
 20
85.49198421397215
 10
44.216978045700884
 20
84.61698421397215
 10
44.216978045700884
 20
82.86698421397215
 10
45.732522502323654
 20
81.99198421397215
 10
47.248066958946424
 20
82.86698421397215
  0
LWPOLYLINE
  5
138
330
17
100
AcDbEntity
  8
0
100
AcDbPolyline
 90
6
 70
1
 10
50.779155872191964
 20
84.61698421397215
 10
49.263611415569194
 20
85.49198421397215
 10
47.748066958946424
 20
84.61698421397215
 10
47.748066958946424
 20
82.86698421397215
 10
49.263611415569194
 20
81.99198421397215
 10
50.779155872191964
 20
82.86698421397215
  0
LWPOLYLINE
  5
139
330
17
100
AcDbEntity
  8
0
100
AcDbPolyline
 90
6
 70
1
 10
54.3102447854375
 20
84.61698421397215
 10
52.79470032881473
 20
85.49198421397215
 10
51.27915587219196
 20
84.61698421397215
 10
51.27915587219196
 20
82.86698421397215
 10
52.79470032881473
 20
81.99198421397215
 10
54.3102447854375
 20
82.86698421397215
  0
LWPOLYLINE
  5
13A
330
17
100
AcDbEntity
  8
0
100
AcDbPolyline
 90
6
 70
1
 10
57.84133369868303
 20
84.61698421397215
 10
56.32578924206026
 20
85.49198421397215
 10
54.81024478543749
 20
84.61698421397215
 10
54.81024478543749
 20
82.86698421397215
 10
56.32578924206026
 20
81.99198421397215
 10
57.84133369868303
 20
82.86698421397215
  0
LWPOLYLINE
  5
13B
330
17
100
AcDbEntity
  8
0
100
AcDbPolyline
 90
6
 70
1
 10
61.37242261192857
 20
84.61698421397215
 10
59.8568781553058
 20
85.49198421397215
 10
58.34133369868303
 20
84.61698421397215
 10
58.34133369868303
 20
82.86698421397215
 10
59.8568781553058
 20
81.99198421397215
 10
61.37242261192857
 20
82.86698421397215
  0
LWPOLYLINE
  5
13C
330
17
100
AcDbEntity
  8
0
100
AcDbPolyline
 90
6
 70
1
 10
64.9035115251741
 20
84.61698421397215
 10
63.38796706855133
 20
85.49198421397215
 10
61.87242261192856
 20
84.61698421397215
 10
61.87242261192856
 20
82.86698421397215
 10
63.38796706855133
 20
81.99198421397215
 10
64.9035115251741
 20
82.86698421397215
  0
LWPOLYLINE
  5
13D
330
17
100
AcDbEntity
  8
0
100
AcDbPolyline
 90
6
 70
1
 10
68.43460043841962
 20
84.61698421397215
 10
66.91905598179686
 20
85.49198421397215
 10
65.4035115251741
 20
84.61698421397215
 10
65.4035115251741
 20
82.86698421397215
 10
66.91905598179686
 20
81.99198421397215
 10
68.43460043841962
 20
82.86698421397215
  0
LWPOLYLINE
  5
13E
330
17
100
AcDbEntity
  8
0
100
AcDbPolyline
 90
5
 70
1
 10
69.29897450295653
 20
82.65661274972605
 10
68.93460043841964
 20
82.86698421397215
 10
68.93460043841964
 20
84.61698421397215
 10
70.4501448950424
 20
85.49198421397215
 10
71.5178804858664
 20
84.87552678318656
  0
LWPOLYLINE
  5
13F
330
17
100
AcDbEntity
  8
0
100
AcDbPolyline
 90
7
 70
1
 10
28.9717469879518
 20
87.60091522157995
 10
28.738175917152486
 20
87.91234444589065
 10
29.842622392718745
 20
88.54999691586437
 10
31.35816684934151
 20
87.67499691586437
 10
31.35816684934151
 20
85.92499691586437
 10
29.842622392718745
 20
85.04999691586437
 10
29.247674078917118
 20
85.39349048499166
  0
LWPOLYLINE
  5
140
330
17
100
AcDbEntity
  8
0
100
AcDbPolyline
 90
6
 70
1
 10
34.88925576258705
 20
87.67499691586437
 10
33.37371130596428
 20
88.54999691586437
 10
31.85816684934151
 20
87.67499691586437
 10
31.85816684934151
 20
85.92499691586437
 10
33.37371130596428
 20
85.04999691586437
 10
34.88925576258705
 20
85.92499691586437
  0
LWPOLYLINE
  5
141
330
17
100
AcDbEntity
  8
0
100
AcDbPolyline
 90
6
 70
1
 10
38.42034467583259
 20
87.67499691586437
 10
36.90480021920982
 20
88.54999691586437
 10
35.38925576258705
 20
87.67499691586437
 10
35.38925576258705
 20
85.92499691586437
 10
36.90480021920982
 20
85.04999691586437
 10
38.42034467583259
 20
85.92499691586437
  0
LWPOLYLINE
  5
142
330
17
100
AcDbEntity
  8
0
100
AcDbPolyline
 90
6
 70
1
 10
41.95143358907812
 20
87.67499691586437
 10
40.43588913245535
 20
88.54999691586437
 10
38.92034467583258
 20
87.67499691586437
 10
38.92034467583258
 20
85.92499691586437
 10
40.43588913245535
 20
85.04999691586437
 10
41.95143358907812
 20
85.92499691586437
  0
LWPOLYLINE
  5
143
330
17
100
AcDbEntity
  8
0
100
AcDbPolyline
 90
6
 70
1
 10
45.482522502323654
 20
87.67499691586437
 10
43.966978045700884
 20
88.54999691586437
 10
42.451433589078114
 20
87.67499691586437
 10
42.451433589078114
 20
85.92499691586437
 10
43.966978045700884
 20
85.04999691586437
 10
45.482522502323654
 20
85.92499691586437
  0
LWPOLYLINE
  5
144
330
17
100
AcDbEntity
  8
0
100
AcDbPolyline
 90
6
 70
1
 10
49.013611415569194
 20
87.67499691586437
 10
47.498066958946424
 20
88.54999691586437
 10
45.982522502323654
 20
87.67499691586437
 10
45.982522502323654
 20
85.92499691586437
 10
47.498066958946424
 20
85.04999691586437
 10
49.013611415569194
 20
85.92499691586437
  0
LWPOLYLINE
  5
145
330
17
100
AcDbEntity
  8
0
100
AcDbPolyline
 90
6
 70
1
 10
52.54470032881473
 20
87.67499691586437
 10
51.02915587219196
 20
88.54999691586437
 10
49.51361141556919
 20
87.67499691586437
 10
49.51361141556919
 20
85.92499691586437
 10
51.02915587219196
 20
85.04999691586437
 10
52.54470032881473
 20
85.92499691586437
  0
LWPOLYLINE
  5
146
330
17
100
AcDbEntity
  8
0
100
AcDbPolyline
 90
6
 70
1
 10
56.07578924206026
 20
87.67499691586437
 10
54.56024478543749
 20
88.54999691586437
 10
53.04470032881472
 20
87.67499691586437
 10
53.04470032881472
 20
85.92499691586437
 10
54.56024478543749
 20
85.04999691586437
 10
56.07578924206026
 20
85.92499691586437
  0
LWPOLYLINE
  5
147
330
17
100
AcDbEntity
  8
0
100
AcDbPolyline
 90
6
 70
1
 10
59.6068781553058
 20
87.67499691586437
 10
58.09133369868303
 20
88.54999691586437
 10
56.57578924206026
 20
87.67499691586437
 10
56.57578924206026
 20
85.92499691586437
 10
58.09133369868303
 20
85.04999691586437
 10
59.6068781553058
 20
85.92499691586437
  0
LWPOLYLINE
  5
148
330
17
100
AcDbEntity
  8
0
100
AcDbPolyline
 90
6
 70
1
 10
63.13796706855133
 20
87.67499691586437
 10
61.62242261192856
 20
88.54999691586437
 10
60.10687815530579
 20
87.67499691586437
 10
60.10687815530579
 20
85.92499691586437
 10
61.62242261192856
 20
85.04999691586437
 10
63.13796706855133
 20
85.92499691586437
  0
LWPOLYLINE
  5
149
330
17
100
AcDbEntity
  8
0
100
AcDbPolyline
 90
6
 70
1
 10
66.66905598179686
 20
87.67499691586437
 10
65.1535115251741
 20
88.54999691586437
 10
63.637967068551326
 20
87.67499691586437
 10
63.637967068551326
 20
85.92499691586437
 10
65.1535115251741
 20
85.04999691586437
 10
66.66905598179686
 20
85.92499691586437
  0
LWPOLYLINE
  5
14A
330
17
100
AcDbEntity
  8
0
100
AcDbPolyline
 90
6
 70
1
 10
70.2001448950424
 20
87.67499691586437
 10
68.68460043841964
 20
88.54999691586437
 10
67.16905598179687
 20
87.67499691586437
 10
67.16905598179687
 20
85.92499691586437
 10
68.68460043841964
 20
85.04999691586437
 10
70.2001448950424
 20
85.92499691586437
  0
LWPOLYLINE
  5
14B
330
17
100
AcDbEntity
  8
0
100
AcDbPolyline
 90
7
 70
1
 10
72.71725301204819
 20
86.0749036608863
 10
71.88390504773483
 20
85.24155267305144
 10
70.7001448950424
 20
85.92499691586437
 10
70.7001448950424
 20
87.67499691586437
 10
72.21568935166516
 20
88.54999691586437
 10
73.73123380828793
 20
87.67499691586437
 10
73.73123380828793
 20
86.43278053446035
  0
LWPOLYLINE
  5
14C
330
17
100
AcDbEntity
  8
0
100
AcDbPolyline
 90
4
 70
1
 10
74.23123380828794
 20
86.60925176295956
 10
74.23123380828794
 20
87.67499691586437
 10
75.7467782649107
 20
88.54999691586437
 10
77.25796407677304
 20
87.6775133805901
  0
LWPOLYLINE
  5
14D
330
17
100
AcDbEntity
  8
0
100
AcDbPolyline
 90
3
 70
1
 10
78.56677797758326
 20
88.13944937449571
 10
79.27786717815624
 20
88.54999691586437
 10
79.44939810308055
 20
88.45096349018498
  0
LWPOLYLINE
  5
14E
330
17
100
AcDbEntity
  8
0
100
AcDbPolyline
 90
5
 70
1
 10
26.604206723810318
 20
90.75764702686182
 10
28.07707793609598
 20
91.6080096177566
 10
29.592622392718745
 20
90.7330096177566
 10
29.592622392718745
 20
88.9830096177566
 10
28.436007202944044
 20
88.31523752659136
  0
LWPOLYLINE
  5
14F
330
17
100
AcDbEntity
  8
0
100
AcDbPolyline
 90
6
 70
1
 10
33.12371130596428
 20
90.7330096177566
 10
31.60816684934151
 20
91.6080096177566
 10
30.092622392718745
 20
90.7330096177566
 10
30.092622392718745
 20
88.9830096177566
 10
31.60816684934151
 20
88.1080096177566
 10
33.12371130596428
 20
88.9830096177566
  0
LWPOLYLINE
  5
150
330
17
100
AcDbEntity
  8
0
100
AcDbPolyline
 90
6
 70
1
 10
36.65480021920982
 20
90.7330096177566
 10
35.13925576258705
 20
91.6080096177566
 10
33.62371130596428
 20
90.7330096177566
 10
33.62371130596428
 20
88.9830096177566
 10
35.13925576258705
 20
88.1080096177566
 10
36.65480021920982
 20
88.9830096177566
  0
LWPOLYLINE
  5
151
330
17
100
AcDbEntity
  8
0
100
AcDbPolyline
 90
6
 70
1
 10
40.18588913245536
 20
90.7330096177566
 10
38.67034467583259
 20
91.6080096177566
 10
37.15480021920982
 20
90.7330096177566
 10
37.15480021920982
 20
88.9830096177566
 10
38.67034467583259
 20
88.1080096177566
 10
40.18588913245536
 20
88.9830096177566
  0
LWPOLYLINE
  5
152
330
17
100
AcDbEntity
  8
0
100
AcDbPolyline
 90
6
 70
1
 10
43.71697804570089
 20
90.7330096177566
 10
42.20143358907812
 20
91.6080096177566
 10
40.68588913245535
 20
90.7330096177566
 10
40.68588913245535
 20
88.9830096177566
 10
42.20143358907812
 20
88.1080096177566
 10
43.71697804570089
 20
88.9830096177566
  0
LWPOLYLINE
  5
153
330
17
100
AcDbEntity
  8
0
100
AcDbPolyline
 90
6
 70
1
 10
47.248066958946424
 20
90.7330096177566
 10
45.732522502323654
 20
91.6080096177566
 10
44.216978045700884
 20
90.7330096177566
 10
44.216978045700884
 20
88.9830096177566
 10
45.732522502323654
 20
88.1080096177566
 10
47.248066958946424
 20
88.9830096177566
  0
LWPOLYLINE
  5
154
330
17
100
AcDbEntity
  8
0
100
AcDbPolyline
 90
6
 70
1
 10
50.779155872191964
 20
90.7330096177566
 10
49.263611415569194
 20
91.6080096177566
 10
47.748066958946424
 20
90.7330096177566
 10
47.748066958946424
 20
88.9830096177566
 10
49.263611415569194
 20
88.1080096177566
 10
50.779155872191964
 20
88.9830096177566
  0
LWPOLYLINE
  5
155
330
17
100
AcDbEntity
  8
0
100
AcDbPolyline
 90
7
 70
1
 10
52.37050602409639
 20
90.14426782273605
 10
54.3102447854375
 20
90.14426782273605
 10
54.3102447854375
 20
88.9830096177566
 10
52.79470032881473
 20
88.1080096177566
 10
51.27915587219196
 20
88.9830096177566
 10
51.27915587219196
 20
90.7330096177566
 10
52.164298216200784
 20
91.24404678834122
  0
LWPOLYLINE
  5
156
330
17
100
AcDbEntity
  8
0
100
AcDbPolyline
 90
5
 70
1
 10
57.84133369868303
 20
90.14426782273605
 10
57.84133369868303
 20
88.9830096177566
 10
56.32578924206026
 20
88.1080096177566
 10
54.81024478543749
 20
88.9830096177566
 10
54.81024478543749
 20
90.14426782273605
  0
LWPOLYLINE
  5
157
330
17
100
AcDbEntity
  8
0
100
AcDbPolyline
 90
5
 70
1
 10
61.37242261192857
 20
90.14426782273605
 10
61.37242261192857
 20
88.9830096177566
 10
59.8568781553058
 20
88.1080096177566
 10
58.34133369868303
 20
88.9830096177566
 10
58.34133369868303
 20
90.14426782273605
  0
LWPOLYLINE
  5
158
330
17
100
AcDbEntity
  8
0
100
AcDbPolyline
 90
5
 70
1
 10
64.9035115251741
 20
90.14426782273605
 10
64.9035115251741
 20
88.9830096177566
 10
63.38796706855133
 20
88.1080096177566
 10
61.87242261192856
 20
88.9830096177566
 10
61.87242261192856
 20
90.14426782273605
  0
LWPOLYLINE
  5
159
330
17
100
AcDbEntity
  8
0
100
AcDbPolyline
 90
7
 70
1
 10
66.61322891566266
 20
90.14426782273605
 10
67.65314211252516
 20
91.18418479257224
 10
68.43460043841962
 20
90.7330096177566
 10
68.43460043841962
 20
88.9830096177566
 10
66.91905598179686
 20
88.1080096177566
 10
65.4035115251741
 20
88.9830096177566
 10
65.4035115251741
 20
90.14426782273605
  0
LWPOLYLINE
  5
15A
330
17
100
AcDbEntity
  8
0
100
AcDbPolyline
 90
6
 70
1
 10
71.96568935166516
 20
90.7330096177566
 10
70.4501448950424
 20
91.6080096177566
 10
68.93460043841964
 20
90.7330096177566
 10
68.93460043841964
 20
88.9830096177566
 10
70.4501448950424
 20
88.1080096177566
 10
71.96568935166516
 20
88.9830096177566
  0
LWPOLYLINE
  5
15B
330
17
100
AcDbEntity
  8
0
100
AcDbPolyline
 90
6
 70
1
 10
75.49677826491069
 20
90.7330096177566
 10
73.98123380828793
 20
91.6080096177566
 10
72.46568935166516
 20
90.7330096177566
 10
72.46568935166516
 20
88.9830096177566
 10
73.98123380828793
 20
88.1080096177566
 10
75.49677826491069
 20
88.9830096177566
  0
LWPOLYLINE
  5
15C
330
17
100
AcDbEntity
  8
0
100
AcDbPolyline
 90
6
 70
1
 10
79.02786717815623
 20
90.7330096177566
 10
77.51232272153347
 20
91.6080096177566
 10
75.9967782649107
 20
90.7330096177566
 10
75.9967782649107
 20
88.9830096177566
 10
77.51232272153347
 20
88.1080096177566
 10
79.02786717815623
 20
88.9830096177566
  0
LWPOLYLINE
  5
15D
330
17
100
AcDbEntity
  8
0
100
AcDbPolyline
 90
6
 70
1
 10
81.36462048192772
 20
89.1269267822736
 10
80.07000950090948
 20
88.67000360177592
 10
79.52786717815624
 20
88.9830096177566
 10
79.52786717815624
 20
90.7330096177566
 10
81.043411634779
 20
91.6080096177566
 10
82.07226967733293
 20
91.01399814993017
  0
LWPOLYLINE
  5
15E
330
17
100
AcDbEntity
  8
0
100
AcDbPolyline
 90
6
 70
1
 10
86.95997590361445
 20
89.63559730250482
 10
86.59004500464731
 20
90.49877253182312
 10
86.59004500464731
 20
90.7330096177566
 10
88.10558946127007
 20
91.6080096177566
 10
89.62113391789283
 20
90.7330096177566
 10
89.62113391789283
 20
89.63559730250482
  0
LWPOLYLINE
  5
15F
330
17
100
AcDbEntity
  8
0
100
AcDbPolyline
 90
3
 70
1
 10
90.12113391789285
 20
89.92665426806454
 10
90.12113391789285
 20
90.7330096177566
 10
90.50707432244533
 20
90.95583241421613
  0
LWPOLYLINE
  5
160
330
17
100
AcDbEntity
  8
0
100
AcDbPolyline
 90
7
 70
1
 10
24.795989022850446
 20
93.16861270881762
 10
24.795989022850446
 20
93.7910223196488
 10
26.311533479473212
 20
94.6660223196488
 10
27.82707793609598
 20
93.7910223196488
 10
27.82707793609598
 20
92.0410223196488
 10
26.311533479473212
 20
91.1660223196488
 10
26.287534570925114
 20
91.17987809595931
  0
LWPOLYLINE
  5
161
330
17
100
AcDbEntity
  8
0
100
AcDbPolyline
 90
6
 70
1
 10
31.35816684934151
 20
93.7910223196488
 10
29.842622392718745
 20
94.6660223196488
 10
28.32707793609598
 20
93.7910223196488
 10
28.32707793609598
 20
92.0410223196488
 10
29.842622392718745
 20
91.1660223196488
 10
31.35816684934151
 20
92.0410223196488
  0
LWPOLYLINE
  5
162
330
17
100
AcDbEntity
  8
0
100
AcDbPolyline
 90
6
 70
1
 10
34.88925576258705
 20
93.7910223196488
 10
33.37371130596428
 20
94.6660223196488
 10
31.85816684934151
 20
93.7910223196488
 10
31.85816684934151
 20
92.0410223196488
 10
33.37371130596428
 20
91.1660223196488
 10
34.88925576258705
 20
92.0410223196488
  0
LWPOLYLINE
  5
163
330
17
100
AcDbEntity
  8
0
100
AcDbPolyline
 90
6
 70
1
 10
38.42034467583259
 20
93.7910223196488
 10
36.90480021920982
 20
94.6660223196488
 10
35.38925576258705
 20
93.7910223196488
 10
35.38925576258705
 20
92.0410223196488
 10
36.90480021920982
 20
91.1660223196488
 10
38.42034467583259
 20
92.0410223196488
  0
LWPOLYLINE
  5
164
330
17
100
AcDbEntity
  8
0
100
AcDbPolyline
 90
6
 70
1
 10
41.95143358907812
 20
93.7910223196488
 10
40.43588913245535
 20
94.6660223196488
 10
38.92034467583258
 20
93.7910223196488
 10
38.92034467583258
 20
92.0410223196488
 10
40.43588913245535
 20
91.1660223196488
 10
41.95143358907812
 20
92.0410223196488
  0
LWPOLYLINE
  5
165
330
17
100
AcDbEntity
  8
0
100
AcDbPolyline
 90
6
 70
1
 10
45.482522502323654
 20
93.7910223196488
 10
43.966978045700884
 20
94.6660223196488
 10
42.451433589078114
 20
93.7910223196488
 10
42.451433589078114
 20
92.0410223196488
 10
43.966978045700884
 20
91.1660223196488
 10
45.482522502323654
 20
92.0410223196488
  0
LWPOLYLINE
  5
166
330
17
100
AcDbEntity
  8
0
100
AcDbPolyline
 90
6
 70
1
 10
49.013611415569194
 20
93.7910223196488
 10
47.498066958946424
 20
94.6660223196488
 10
45.982522502323654
 20
93.7910223196488
 10
45.982522502323654
 20
92.0410223196488
 10
47.498066958946424
 20
91.1660223196488
 10
49.013611415569194
 20
92.0410223196488
  0
LWPOLYLINE
  5
167
330
17
100
AcDbEntity
  8
0
100
AcDbPolyline
 90
6
 70
1
 10
52.06661943352336
 20
91.76500218605791
 10
51.02915587219196
 20
91.1660223196488
 10
49.51361141556919
 20
92.0410223196488
 10
49.51361141556919
 20
93.7910223196488
 10
51.02915587219196
 20
94.6660223196488
 10
51.58259102759993
 20
94.34649638369501
  0
LWPOLYLINE
  5
168
330
17
100
AcDbEntity
  8
0
100
AcDbPolyline
 90
7
 70
1
 10
68.13923493975904
 20
91.67027938342969
 10
68.3550396109191
 20
94.47575028717702
 10
68.68460043841964
 20
94.6660223196488
 10
70.2001448950424
 20
93.7910223196488
 10
70.2001448950424
 20
92.0410223196488
 10
68.68460043841964
 20
91.1660223196488
 10
68.01916667439359
 20
91.55021068243711
  0
LWPOLYLINE
  5
169
330
17
100
AcDbEntity
  8
0
100
AcDbPolyline
 90
6
 70
1
 10
73.73123380828793
 20
93.7910223196488
 10
72.21568935166516
 20
94.6660223196488
 10
70.7001448950424
 20
93.7910223196488
 10
70.7001448950424
 20
92.0410223196488
 10
72.21568935166516
 20
91.1660223196488
 10
73.73123380828793
 20
92.0410223196488
  0
LWPOLYLINE
  5
16A
330
17
100
AcDbEntity
  8
0
100
AcDbPolyline
 90
6
 70
1
 10
77.26232272153347
 20
93.7910223196488
 10
75.7467782649107
 20
94.6660223196488
 10
74.23123380828794
 20
93.7910223196488
 10
74.23123380828794
 20
92.0410223196488
 10
75.7467782649107
 20
91.1660223196488
 10
77.26232272153347
 20
92.0410223196488
  0
LWPOLYLINE
  5
16B
330
17
100
AcDbEntity
  8
0
100
AcDbPolyline
 90
6
 70
1
 10
80.793411634779
 20
93.7910223196488
 10
79.27786717815624
 20
94.6660223196488
 10
77.76232272153348
 20
93.7910223196488
 10
77.76232272153348
 20
92.0410223196488
 10
79.27786717815624
 20
91.1660223196488
 10
80.793411634779
 20
92.0410223196488
  0
LWPOLYLINE
  5
16C
330
17
100
AcDbEntity
  8
0
100
AcDbPolyline
 90
7
 70
1
 10
82.8906265060241
 20
93.19629094412333
 10
82.25024302293986
 20
91.48859546012505
 10
81.293411634779
 20
92.0410223196488
 10
81.293411634779
 20
93.7910223196488
 10
82.80895609140177
 20
94.6660223196488
 10
84.32450054802453
 20
93.7910223196488
 10
84.32450054802453
 20
93.19629094412333
  0
LWPOLYLINE
  5
16D
330
17
100
AcDbEntity
  8
0
100
AcDbPolyline
 90
8
 70
1
 10
85.43396987951806
 20
93.19629094412333
 10
84.82450054802455
 20
93.19629094412333
 10
84.82450054802455
 20
93.7910223196488
 10
86.34004500464731
 20
94.6660223196488
 10
87.85558946127007
 20
93.7910223196488
 10
87.85558946127007
 20
92.0410223196488
 10
86.34004500464731
 20
91.1660223196488
 10
86.29225756567752
 20
91.1936124104019
  0
LWPOLYLINE
  5
16E
330
17
100
AcDbEntity
  8
0
100
AcDbPolyline
 90
7
 70
1
 10
90.78340757495569
 20
91.69272376112865
 10
89.87113391789285
 20
91.1660223196488
 10
88.35558946127009
 20
92.0410223196488
 10
88.35558946127009
 20
93.7910223196488
 10
89.87113391789285
 20
94.6660223196488
 10
91.38667837451561
 20
93.7910223196488
 10
91.38667837451561
 20
93.30145172999313
  0
LWPOLYLINE
  5
16F
330
17
100
AcDbEntity
  8
0
100
AcDbPolyline
 90
3
 70
1
 10
21.657830851909306
 20
97.3528387844013
 10
22.530444566227672
 20
96.84903502154103
 10
22.530444566227672
 20
96.18934961066478
  0
LWPOLYLINE
  5
170
330
17
100
AcDbEntity
  8
0
100
AcDbPolyline
 90
7
 70
1
 10
23.030444566227676
 20
95.52268052522335
 10
23.030444566227676
 20
96.84903502154103
 10
24.545989022850442
 20
97.72403502154103
 10
26.06153347947321
 20
96.84903502154103
 10
26.06153347947321
 20
95.09903502154103
 10
24.545989022850442
 20
94.22403502154103
 10
23.590831184496924
 20
94.77549565663301
  0
LWPOLYLINE
  5
171
330
17
100
AcDbEntity
  8
0
100
AcDbPolyline
 90
6
 70
1
 10
29.592622392718745
 20
96.84903502154103
 10
28.07707793609598
 20
97.72403502154103
 10
26.561533479473212
 20
96.84903502154103
 10
26.561533479473212
 20
95.09903502154103
 10
28.07707793609598
 20
94.22403502154103
 10
29.592622392718745
 20
95.09903502154103
  0
LWPOLYLINE
  5
172
330
17
100
AcDbEntity
  8
0
100
AcDbPolyline
 90
6
 70
1
 10
33.12371130596428
 20
96.84903502154103
 10
31.60816684934151
 20
97.72403502154103
 10
30.092622392718745
 20
96.84903502154103
 10
30.092622392718745
 20
95.09903502154103
 10
31.60816684934151
 20
94.22403502154103
 10
33.12371130596428
 20
95.09903502154103
  0
LWPOLYLINE
  5
173
330
17
100
AcDbEntity
  8
0
100
AcDbPolyline
 90
6
 70
1
 10
36.65480021920982
 20
96.84903502154103
 10
35.13925576258705
 20
97.72403502154103
 10
33.62371130596428
 20
96.84903502154103
 10
33.62371130596428
 20
95.09903502154103
 10
35.13925576258705
 20
94.22403502154103
 10
36.65480021920982
 20
95.09903502154103
  0
LWPOLYLINE
  5
174
330
17
100
AcDbEntity
  8
0
100
AcDbPolyline
 90
6
 70
1
 10
40.18588913245536
 20
96.84903502154103
 10
38.67034467583259
 20
97.72403502154103
 10
37.15480021920982
 20
96.84903502154103
 10
37.15480021920982
 20
95.09903502154103
 10
38.67034467583259
 20
94.22403502154103
 10
40.18588913245536
 20
95.09903502154103
  0
LWPOLYLINE
  5
175
330
17
100
AcDbEntity
  8
0
100
AcDbPolyline
 90
6
 70
1
 10
43.71697804570089
 20
96.84903502154103
 10
42.20143358907812
 20
97.72403502154103
 10
40.68588913245535
 20
96.84903502154103
 10
40.68588913245535
 20
95.09903502154103
 10
42.20143358907812
 20
94.22403502154103
 10
43.71697804570089
 20
95.09903502154103
  0
LWPOLYLINE
  5
176
330
17
100
AcDbEntity
  8
0
100
AcDbPolyline
 90
6
 70
1
 10
47.248066958946424
 20
96.84903502154103
 10
45.732522502323654
 20
97.72403502154103
 10
44.216978045700884
 20
96.84903502154103
 10
44.216978045700884
 20
95.09903502154103
 10
45.732522502323654
 20
94.22403502154103
 10
47.248066958946424
 20
95.09903502154103
  0
LWPOLYLINE
  5
177
330
17
100
AcDbEntity
  8
0
100
AcDbPolyline
 90
6
 70
1
 10
50.779155872191964
 20
96.84903502154103
 10
49.263611415569194
 20
97.72403502154103
 10
47.748066958946424
 20
96.84903502154103
 10
47.748066958946424
 20
95.09903502154103
 10
49.263611415569194
 20
94.22403502154103
 10
50.779155872191964
 20
95.09903502154103
  0
LWPOLYLINE
  5
178
330
17
100
AcDbEntity
  8
0
100
AcDbPolyline
 90
3
 70
1
 10
51.461197004029074
 20
94.99393352507128
 10
51.27915587219196
 20
95.09903502154103
 10
51.27915587219196
 20
95.96482308406786
  0
LWPOLYLINE
  5
179
330
17
100
AcDbEntity
  8
0
100
AcDbPolyline
 90
3
 70
1
 10
68.43460043841962
 20
95.5100447972583
 10
68.43460043841962
 20
95.09903502154103
 10
68.40151504809513
 20
95.07993316253095
  0
LWPOLYLINE
  5
17A
330
17
100
AcDbEntity
  8
0
100
AcDbPolyline
 90
6
 70
1
 10
71.96568935166516
 20
96.84903502154103
 10
70.4501448950424
 20
97.72403502154103
 10
68.93460043841964
 20
96.84903502154103
 10
68.93460043841964
 20
95.09903502154103
 10
70.4501448950424
 20
94.22403502154103
 10
71.96568935166516
 20
95.09903502154103
  0
LWPOLYLINE
  5
17B
330
17
100
AcDbEntity
  8
0
100
AcDbPolyline
 90
6
 70
1
 10
75.49677826491069
 20
96.84903502154103
 10
73.98123380828793
 20
97.72403502154103
 10
72.46568935166516
 20
96.84903502154103
 10
72.46568935166516
 20
95.09903502154103
 10
73.98123380828793
 20
94.22403502154103
 10
75.49677826491069
 20
95.09903502154103
  0
LWPOLYLINE
  5
17C
330
17
100
AcDbEntity
  8
0
100
AcDbPolyline
 90
6
 70
1
 10
79.02786717815623
 20
96.84903502154103
 10
77.51232272153347
 20
97.72403502154103
 10
75.9967782649107
 20
96.84903502154103
 10
75.9967782649107
 20
95.09903502154103
 10
77.51232272153347
 20
94.22403502154103
 10
79.02786717815623
 20
95.09903502154103
  0
LWPOLYLINE
  5
17D
330
17
100
AcDbEntity
  8
0
100
AcDbPolyline
 90
6
 70
1
 10
82.55895609140177
 20
96.36990014893507
 10
82.55895609140177
 20
95.09903502154103
 10
81.043411634779
 20
94.22403502154103
 10
79.52786717815624
 20
95.09903502154103
 10
79.52786717815624
 20
96.84903502154103
 10
80.87957246935312
 20
97.62944243527859
  0
LWPOLYLINE
  5
17E
330
17
100
AcDbEntity
  8
0
100
AcDbPolyline
 90
7
 70
1
 10
83.39929518072289
 20
95.73964354527939
 10
84.89753114162265
 20
97.53753322137067
 10
86.0900450046473
 20
96.84903502154103
 10
86.0900450046473
 20
95.09903502154103
 10
84.57450054802453
 20
94.22403502154103
 10
83.05895609140177
 20
95.09903502154103
 10
83.05895609140177
 20
95.99489878837427
  0
LWPOLYLINE
  5
17F
330
17
100
AcDbEntity
  8
0
100
AcDbPolyline
 90
6
 70
1
 10
89.62113391789283
 20
96.84903502154103
 10
88.10558946127007
 20
97.72403502154103
 10
86.59004500464731
 20
96.84903502154103
 10
86.59004500464731
 20
95.09903502154103
 10
88.10558946127007
 20
94.22403502154103
 10
89.62113391789283
 20
95.09903502154103
  0
LWPOLYLINE
  5
180
330
17
100
AcDbEntity
  8
0
100
AcDbPolyline
 90
6
 70
1
 10
91.75916485925609
 20
94.29475262647803
 10
91.63667837451561
 20
94.22403502154103
 10
90.12113391789285
 20
95.09903502154103
 10
90.12113391789285
 20
96.84903502154103
 10
91.63667837451561
 20
97.72403502154103
 10
92.79447226973907
 20
97.05558240446766
  0
LWPOLYLINE
  5
181
330
17
100
AcDbEntity
  8
0
100
AcDbPolyline
 90
3
 70
1
 10
23.703628807437095
 20
97.81504839360713
 10
22.780444566227676
 20
97.28204772343325
 10
21.910799676911143
 20
97.78413743437953
  0
LWPOLYLINE
  5
182
330
17
100
AcDbEntity
  8
0
100
AcDbPolyline
 90
3
 70
1
 10
27.34341278358348
 20
97.87780351743253
 10
26.311533479473212
 20
97.28204772343325
 10
25.339497212871223
 20
97.84325312361798
  0
LWPOLYLINE
  5
183
330
17
100
AcDbEntity
  8
0
100
AcDbPolyline
 90
3
 70
1
 10
30.983196759729868
 20
97.94055864125791
 10
29.842622392718745
 20
97.28204772343325
 10
28.768194748831295
 20
97.90236881285645
  0
LWPOLYLINE
  5
184
330
17
100
AcDbEntity
  8
0
100
AcDbPolyline
 90
3
 70
1
 10
34.622980735876254
 20
98.0033137650833
 10
33.37371130596428
 20
97.28204772343325
 10
32.19689228479137
 20
97.9614845020949
  0
LWPOLYLINE
  5
185
330
17
100
AcDbEntity
  8
0
100
AcDbPolyline
 90
3
 70
1
 10
38.262764712022644
 20
98.06606888890869
 10
36.90480021920982
 20
97.28204772343325
 10
35.62558982075145
 20
98.02060019133336
  0
LWPOLYLINE
  5
186
330
17
100
AcDbEntity
  8
0
100
AcDbPolyline
 90
3
 70
1
 10
41.90254868816903
 20
98.12882401273407
 10
40.43588913245535
 20
97.28204772343325
 10
39.05428735671152
 20
98.07971588057181
  0
LWPOLYLINE
  5
187
330
17
100
AcDbEntity
  8
0
100
AcDbPolyline
 90
4
 70
1
 10
45.482522502323654
 20
98.19054792312856
 10
45.482522502323654
 20
98.15704772343325
 10
43.966978045700884
 20
97.28204772343325
 10
42.482984892671595
 20
98.13883156981026
  0
LWPOLYLINE
  5
188
330
17
100
AcDbEntity
  8
0
100
AcDbPolyline
 90
5
 70
1
 10
49.013611415569194
 20
98.25142898734595
 10
49.013611415569194
 20
98.15704772343325
 10
47.498066958946424
 20
97.28204772343325
 10
45.982522502323654
 20
98.15704772343325
 10
45.982522502323654
 20
98.19916864406099
  0
LWPOLYLINE
  5
189
330
17
100
AcDbEntity
  8
0
100
AcDbPolyline
 90
5
 70
1
 10
50.844500000000004
 20
98.28299614643545
 10
51.03188203380866
 20
97.2836216735765
 10
51.02915587219196
 20
97.28204772343325
 10
49.51361141556919
 20
98.15704772343325
 10
49.51361141556919
 20
98.26004970827837
  0
LWPOLYLINE
  5
18A
330
17
100
AcDbEntity
  8
0
100
AcDbPolyline
 90
5
 70
1
 10
68.64790361445782
 20
98.28299614643545
 10
70.2001448950424
 20
98.356912666072
 10
70.2001448950424
 20
98.15704772343325
 10
68.68460043841964
 20
97.28204772343325
 10
68.57574239899083
 20
97.34489694180093
  0
LWPOLYLINE
  5
18B
330
17
100
AcDbEntity
  8
0
100
AcDbPolyline
 90
5
 70
1
 10
73.73123380828793
 20
98.52506036724384
 10
73.73123380828793
 20
98.15704772343325
 10
72.21568935166516
 20
97.28204772343325
 10
70.7001448950424
 20
98.15704772343325
 10
70.7001448950424
 20
98.38072227626634
  0
LWPOLYLINE
  5
18C
330
17
100
AcDbEntity
  8
0
100
AcDbPolyline
 90
5
 70
1
 10
77.26232272153347
 20
98.69320806841569
 10
77.26232272153347
 20
98.15704772343325
 10
75.7467782649107
 20
97.28204772343325
 10
74.23123380828794
 20
98.15704772343325
 10
74.23123380828794
 20
98.54886997743819
  0
LWPOLYLINE
  5
18D
330
17
100
AcDbEntity
  8
0
100
AcDbPolyline
 90
5
 70
1
 10
79.32994578313252
 20
98.79166666666667
 10
80.44460884369822
 20
97.95566633810867
 10
79.27786717815624
 20
97.28204772343325
 10
77.76232272153348
 20
98.15704772343325
 10
77.76232272153348
 20
98.71701767861002
  0
LWPOLYLINE
  5
18E
330
17
100
AcDbEntity
  8
0
100
AcDbPolyline
 90
5
 70
1
 10
85.94263855421687
 20
98.79166666666667
 10
87.85558946127007
 20
98.79166666666667
 10
87.85558946127007
 20
98.15704772343325
 10
86.34004500464731
 20
97.28204772343325
 10
85.22236798719277
 20
97.92733885032769
  0
LWPOLYLINE
  5
18F
330
17
100
AcDbEntity
  8
0
100
AcDbPolyline
 90
5
 70
1
 10
91.38667837451561
 20
98.79166666666667
 10
91.38667837451561
 20
98.15704772343325
 10
89.87113391789285
 20
97.28204772343325
 10
88.35558946127009
 20
98.15704772343325
 10
88.35558946127009
 20
98.79166666666667
  0
LWPOLYLINE
  5
190
330
17
100
AcDbEntity
  8
0
100
AcDbPolyline
 90
5
 70
1
 10
92.04666265060241
 20
98.79166666666667
 10
93.064
 20
97.77432562620426
 10
92.972445615346
 20
97.53017971466255
 10
91.88667837451561
 20
98.15704772343325
 10
91.88667837451561
 20
98.79166666666667
  0
LWPOLYLINE
  5
192
330
17
100
AcDbEntity
  8
BORDER
100
AcDbPolyline
 90
32
 70
1
 10
92.04666265060241
 20
98.79166666666667
 10
85.94263855421687
 20
98.79166666666667
 10
83.39929518072289
 20
95.73964354527939
 10
79.32994578313252
 20
98.79166666666667
 10
68.64790361445782
 20
98.28299614643545
 10
68.13923493975904
 20
91.67027938342969
 10
66.61322891566266
 20
90.14426782273605
 10
52.37050602409639
 20
90.14426782273605
 10
50.844500000000004
 20
98.28299614643545
 10
21.34171686746987
 20
97.77432562620426
 10
28.9717469879518
 20
87.60091522157995
 10
30.497753012048186
 20
75.39282273603082
 10
24.902397590361453
 20
56.0633429672447
 10
10.151006024096386
 20
26.05178227360308
 10
8.625
 20
19.43906551059731
 10
9.642337349397598
 20
10.791666666666666
 10
42.70580120481927
 20
12.317678227360307
 10
62.54387951807228
 20
64.20207129094412
 10
62.03521084337349
 20
66.23675337186899
 10
53.896512048192776
 20
69.79744701348748
 10
56.43985542168674
 20
76.41016377649328
 10
58.47453012048194
 20
77.93617533718692
 10
66.10456024096386
 20
75.90149325626206
 10
68.64790361445782
 20
82.00553949903662
 10
72.71725301204819
 20
86.0749036608863
 10
81.36462048192772
 20
89.1269267822736
 10
82.8906265060241
 20
93.19629094412333
 10
85.43396987951806
 20
93.19629094412333
 10
86.95997590361445
 20
89.63559730250482
 10
90.01198795180721
 20
89.63559730250482
 10
93.064
 20
97.77432562620426
 10
92.04666265060241
 20
98.79166666666667
  0
ENDSEC
  0
SECTION
  2
OBJECTS
  0
DICTIONARY
  5
A
330
0
100
AcDbDictionary
281
1
  3
ACAD_COLOR
350
B
  3
ACAD_GROUP
350
C
  3
ACAD_LAYOUT
350
D
  3
ACAD_MATERIAL
350
E
  3
ACAD_MLEADERSTYLE
350
F
  3
ACAD_MLINESTYLE
350
10
  3
ACAD_PLOTSETTINGS
350
11
  3
ACAD_PLOTSTYLENAME
350
12
  3
ACAD_SCALELIST
350
14
  3
ACAD_TABLESTYLE
350
15
  3
ACAD_VISUALSTYLE
350
16
  3
EZDXF_META
350
2D
  0
DICTIONARY
  5
B
330
A
100
AcDbDictionary
281
1
  0
DICTIONARY
  5
C
330
A
100
AcDbDictionary
281
1
  0
DICTIONARY
  5
D
330
A
100
AcDbDictionary
281
1
  3
Model
350
1A
  3
Layout1
350
1E
  0
DICTIONARY
  5
E
330
A
100
AcDbDictionary
281
1
  3
ByBlock
350
1F
  3
ByLayer
350
20
  3
Global
350
21
  0
DICTIONARY
  5
F
330
A
100
AcDbDictionary
281
1
  3
Standard
350
2C
  0
DICTIONARY
  5
10
330
A
100
AcDbDictionary
281
1
  3
Standard
350
22
  0
DICTIONARY
  5
11
330
A
100
AcDbDictionary
281
1
  0
ACDBDICTIONARYWDFLT
  5
12
330
A
100
AcDbDictionary
281
1
  3
Normal
350
13
100
AcDbDictionaryWithDefault
340
13
  0
ACDBPLACEHOLDER
  5
13
330
12
  0
DICTIONARY
  5
14
330
A
100
AcDbDictionary
281
1
  0
DICTIONARY
  5
15
330
A
100
AcDbDictionary
281
1
  0
DICTIONARY
  5
16
330
A
100
AcDbDictionary
281
1
  0
LAYOUT
  5
1A
330
D
100
AcDbPlotSettings
  1

  4
A3
  6

 40
7.5
 41
20.0
 42
7.5
 43
20.0
 44
420.0
 45
297.0
 46
0.0
 47
0.0
 48
0.0
 49
0.0
140
0.0
141
0.0
142
1.0
143
1.0
 70
1024
 72
1
 73
0
 74
5
  7

 75
16
 76
0
 77
2
 78
300
147
1.0
148
0.0
149
0.0
100
AcDbLayout
  1
Model
 70
1
 71
0
 10
0.0
 20
0.0
 11
420.0
 21
297.0
 12
0.0
 22
0.0
 32
0.0
 14
1e+20
 24
1e+20
 34
1e+20
 15
-1e+20
 25
-1e+20
 35
-1e+20
146
0.0
 13
0.0
 23
0.0
 33
0.0
 16
1.0
 26
0.0
 36
0.0
 17
0.0
 27
1.0
 37
0.0
 76
1
330
17
  0
LAYOUT
  5
1E
330
D
100
AcDbPlotSettings
  1

  4
A3
  6

 40
7.5
 41
20.0
 42
7.5
 43
20.0
 44
420.0
 45
297.0
 46
0.0
 47
0.0
 48
0.0
 49
0.0
140
0.0
141
0.0
142
1.0
143
1.0
 70
0
 72
1
 73
0
 74
5
  7

 75
16
 76
0
 77
2
 78
300
147
1.0
148
0.0
149
0.0
100
AcDbLayout
  1
Layout1
 70
1
 71
1
 10
0.0
 20
0.0
 11
420.0
 21
297.0
 12
0.0
 22
0.0
 32
0.0
 14
1e+20
 24
1e+20
 34
1e+20
 15
-1e+20
 25
-1e+20
 35
-1e+20
146
0.0
 13
0.0
 23
0.0
 33
0.0
 16
1.0
 26
0.0
 36
0.0
 17
0.0
 27
1.0
 37
0.0
 76
1
330
1B
  0
MATERIAL
  5
1F
102
{ACAD_REACTORS
330
E
102
}
330
E
100
AcDbMaterial
  1
ByBlock
  2

 70
0
 40
1.0
 71
1
 41
1.0
 91
-1023410177
 42
1.0
 72
1
  3

 73
1
 74
1
 75
1
 44
0.5
 73
0
 45
1.0
 46
1.0
 77
1
  4

 78
1
 79
1
170
1
 48
1.0
171
1
  6

172
1
173
1
174
1
140
1.0
141
1.0
175
1
  7

176
1
177
1
178
1
143
1.0
179
1
  8

270
1
271
1
272
1
145
1.0
146
1.0
273
1
  9

274
1
275
1
276
1
 42
1.0
 72
1
  3

 73
1
 74
1
 75
1
 94
63
  0
MATERIAL
  5
20
102
{ACAD_REACTORS
330
E
102
}
330
E
100
AcDbMaterial
  1
ByLayer
  2

 70
0
 40
1.0
 71
1
 41
1.0
 91
-1023410177
 42
1.0
 72
1
  3

 73
1
 74
1
 75
1
 44
0.5
 73
0
 45
1.0
 46
1.0
 77
1
  4

 78
1
 79
1
170
1
 48
1.0
171
1
  6

172
1
173
1
174
1
140
1.0
141
1.0
175
1
  7

176
1
177
1
178
1
143
1.0
179
1
  8

270
1
271
1
272
1
145
1.0
146
1.0
273
1
  9

274
1
275
1
276
1
 42
1.0
 72
1
  3

 73
1
 74
1
 75
1
 94
63
  0
MATERIAL
  5
21
102
{ACAD_REACTORS
330
E
102
}
330
E
100
AcDbMaterial
  1
Global
  2

 70
0
 40
1.0
 71
1
 41
1.0
 91
-1023410177
 42
1.0
 72
1
  3

 73
1
 74
1
 75
1
 44
0.5
 73
0
 45
1.0
 46
1.0
 77
1
  4

 78
1
 79
1
170
1
 48
1.0
171
1
  6

172
1
173
1
174
1
140
1.0
141
1.0
175
1
  7

176
1
177
1
178
1
143
1.0
179
1
  8

270
1
271
1
272
1
145
1.0
146
1.0
273
1
  9

274
1
275
1
276
1
 42
1.0
 72
1
  3

 73
1
 74
1
 75
1
 94
63
  0
MLINESTYLE
  5
22
102
{ACAD_REACTORS
330
10
102
}
330
10
100
AcDbMlineStyle
  2
Standard
 70
0
  3

 62
256
 51
90.0
 52
90.0
 71
2
 49
0.5
 62
256
  6
BYLAYER
 49
-0.5
 62
256
  6
BYLAYER
  0
MLEADERSTYLE
  5
2C
102
{ACAD_REACTORS
330
F
102
}
330
F
100
AcDbMLeaderStyle
179
2
170
2
171
1
172
0
 90
2
 40
0.0
 41
0.0
173
1
 91
-1056964608
 92
-2
290
1
 42
2.0
291
1
 43
8.0
  3
Standard
 44
4.0
300

342
29
174
1
175
1
176
0
178
1
 93
-1056964608
 45
4.0
292
0
297
0
 46
4.0
 94
-1056964608
 47
1.0
 49
1.0
140
1.0
294
1
141
0.0
177
0
142
1.0
295
0
296
0
143
3.75
271
0
272
9
273
9
  0
DICTIONARY
  5
2D
330
A
100
AcDbDictionary
280
1
281
1
  3
CREATED_BY_EZDXF
350
2E
  3
WRITTEN_BY_EZDXF
350
195
  0
DICTIONARYVAR
  5
2E
330
2D
100
DictionaryVariables
280
0
  1
1.4.3 @ 2026-04-14T00:10:05.220207+00:00
  0
DICTIONARYVAR
  5
195
330
2D
100
DictionaryVariables
280
0
  1
1.4.3 @ 2026-04-14T00:10:05.226309+00:00
  0
ENDSEC
  0
EOF
